<svg width="320" height="457" viewBox="0 0 320 457" fill="none" xmlns="http://www.w3.org/2000/svg">
<rect width="320" height="457" rx="20" fill="white"/>
<path d="M86 64.2247H153.483L158.674 74.6067H91.191L86 64.2247ZM92.9213 84.9888H160.404L165.596 95.3708H98.1124L92.9213 84.9888ZM205.393 140.36C211.138 140.36 215.775 135.722 215.775 129.978C215.775 124.233 211.138 119.596 205.393 119.596C199.649 119.596 195.011 124.233 195.011 129.978C195.011 135.722 199.649 140.36 205.393 140.36ZM215.775 78.0674H198.472V95.3708H229.341L215.775 78.0674ZM136.18 140.36C141.924 140.36 146.562 135.722 146.562 129.978C146.562 124.233 141.924 119.596 136.18 119.596C130.435 119.596 125.798 124.233 125.798 129.978C125.798 135.722 130.435 140.36 136.18 140.36ZM219.236 67.6854L240 95.3708V129.978H226.157C226.157 141.467 216.883 150.742 205.393 150.742C193.904 150.742 184.629 141.467 184.629 129.978H156.944C156.944 141.467 147.6 150.742 136.18 150.742C124.69 150.742 115.416 141.467 115.416 129.978H101.573V105.753H115.416V116.135H120.676C124.483 111.913 130.02 109.213 136.18 109.213C142.34 109.213 147.877 111.913 151.684 116.135H184.629V53.8427H101.573C101.573 46.16 107.733 40 115.416 40H198.472V67.6854H219.236Z" fill="#D71F20"/>
<path d="M126.023 240V216.727H141.432V220.784H130.943V226.33H140.409V230.386H130.943V240H126.023ZM149.409 240.33C148.295 240.33 147.303 240.136 146.432 239.75C145.561 239.356 144.871 238.777 144.364 238.011C143.864 237.239 143.614 236.277 143.614 235.125C143.614 234.155 143.792 233.341 144.148 232.682C144.504 232.023 144.989 231.492 145.602 231.091C146.216 230.689 146.913 230.386 147.693 230.182C148.481 229.977 149.307 229.833 150.17 229.75C151.186 229.644 152.004 229.545 152.625 229.455C153.246 229.356 153.697 229.212 153.977 229.023C154.258 228.833 154.398 228.553 154.398 228.182V228.114C154.398 227.394 154.17 226.837 153.716 226.443C153.269 226.049 152.633 225.852 151.807 225.852C150.936 225.852 150.242 226.045 149.727 226.432C149.212 226.811 148.871 227.288 148.705 227.864L144.227 227.5C144.455 226.439 144.902 225.523 145.568 224.75C146.235 223.97 147.095 223.371 148.148 222.955C149.208 222.53 150.436 222.318 151.83 222.318C152.799 222.318 153.727 222.432 154.614 222.659C155.508 222.886 156.299 223.239 156.989 223.716C157.686 224.193 158.235 224.807 158.636 225.557C159.038 226.299 159.239 227.189 159.239 228.227V240H154.648V237.58H154.511C154.231 238.125 153.856 238.606 153.386 239.023C152.917 239.432 152.352 239.754 151.693 239.989C151.034 240.216 150.273 240.33 149.409 240.33ZM150.795 236.989C151.508 236.989 152.136 236.848 152.682 236.568C153.227 236.28 153.655 235.894 153.966 235.409C154.277 234.924 154.432 234.375 154.432 233.761V231.909C154.28 232.008 154.072 232.098 153.807 232.182C153.549 232.258 153.258 232.33 152.932 232.398C152.606 232.458 152.28 232.515 151.955 232.568C151.629 232.614 151.333 232.655 151.068 232.693C150.5 232.777 150.004 232.909 149.58 233.091C149.155 233.273 148.826 233.519 148.591 233.83C148.356 234.133 148.239 234.511 148.239 234.966C148.239 235.625 148.477 236.129 148.955 236.477C149.439 236.818 150.053 236.989 150.795 236.989ZM177.517 227.523L173.085 227.795C173.009 227.417 172.847 227.076 172.597 226.773C172.347 226.462 172.017 226.216 171.608 226.034C171.206 225.845 170.725 225.75 170.165 225.75C169.415 225.75 168.782 225.909 168.267 226.227C167.752 226.538 167.494 226.955 167.494 227.477C167.494 227.894 167.661 228.246 167.994 228.534C168.328 228.822 168.9 229.053 169.71 229.227L172.869 229.864C174.566 230.212 175.831 230.773 176.665 231.545C177.498 232.318 177.915 233.333 177.915 234.591C177.915 235.735 177.578 236.739 176.903 237.602C176.237 238.466 175.32 239.14 174.153 239.625C172.994 240.102 171.657 240.341 170.142 240.341C167.831 240.341 165.991 239.86 164.619 238.898C163.256 237.928 162.456 236.61 162.222 234.943L166.983 234.693C167.127 235.398 167.475 235.936 168.028 236.307C168.581 236.67 169.29 236.852 170.153 236.852C171.002 236.852 171.684 236.689 172.199 236.364C172.722 236.03 172.987 235.602 172.994 235.08C172.987 234.64 172.801 234.28 172.438 234C172.074 233.712 171.513 233.492 170.756 233.341L167.733 232.739C166.028 232.398 164.759 231.807 163.926 230.966C163.1 230.125 162.688 229.053 162.688 227.75C162.688 226.629 162.991 225.663 163.597 224.852C164.21 224.042 165.07 223.417 166.176 222.977C167.29 222.538 168.593 222.318 170.085 222.318C172.29 222.318 174.025 222.784 175.29 223.716C176.563 224.648 177.305 225.917 177.517 227.523ZM190.247 222.545V226.182H179.736V222.545H190.247ZM182.122 218.364H186.963V234.636C186.963 235.083 187.031 235.432 187.168 235.682C187.304 235.924 187.493 236.095 187.736 236.193C187.986 236.292 188.274 236.341 188.599 236.341C188.827 236.341 189.054 236.322 189.281 236.284C189.509 236.239 189.683 236.205 189.804 236.182L190.565 239.784C190.323 239.86 189.982 239.947 189.543 240.045C189.103 240.152 188.569 240.216 187.94 240.239C186.774 240.284 185.751 240.129 184.872 239.773C184.001 239.417 183.323 238.864 182.838 238.114C182.353 237.364 182.115 236.417 182.122 235.273V218.364Z" fill="#2C2A2A"/>
<path d="M75.4055 308L72.2237 296.364H73.6555L76.0874 305.841H76.201L78.6783 296.364H80.2692L82.7464 305.841H82.8601L85.2919 296.364H86.7237L83.5419 308H82.0874L79.5192 298.727H79.4283L76.8601 308H75.4055ZM88.2976 308V299.273H89.6385V308H88.2976ZM88.9794 297.818C88.718 297.818 88.4927 297.729 88.3033 297.551C88.1177 297.373 88.0249 297.159 88.0249 296.909C88.0249 296.659 88.1177 296.445 88.3033 296.267C88.4927 296.089 88.718 296 88.9794 296C89.2408 296 89.4643 296.089 89.6499 296.267C89.8393 296.445 89.9339 296.659 89.9339 296.909C89.9339 297.159 89.8393 297.373 89.6499 297.551C89.4643 297.729 89.2408 297.818 88.9794 297.818ZM95.8899 299.273V300.409H91.3672V299.273H95.8899ZM92.6854 297.182H94.0263V305.5C94.0263 305.879 94.0812 306.163 94.1911 306.352C94.3047 306.538 94.4486 306.663 94.6229 306.727C94.8009 306.788 94.9884 306.818 95.1854 306.818C95.3331 306.818 95.4543 306.811 95.549 306.795C95.6437 306.777 95.7195 306.761 95.7763 306.75L96.049 307.955C95.9581 307.989 95.8312 308.023 95.6683 308.057C95.5054 308.095 95.299 308.114 95.049 308.114C94.6702 308.114 94.299 308.032 93.9354 307.869C93.5755 307.706 93.2763 307.458 93.0376 307.125C92.8028 306.792 92.6854 306.371 92.6854 305.864V297.182ZM99.4354 302.75V308H98.0945V296.364H99.4354V300.636H99.549C99.7536 300.186 100.06 299.828 100.469 299.562C100.882 299.294 101.432 299.159 102.117 299.159C102.712 299.159 103.233 299.278 103.68 299.517C104.127 299.752 104.473 300.114 104.719 300.602C104.969 301.087 105.094 301.705 105.094 302.455V308H103.754V302.545C103.754 301.852 103.574 301.316 103.214 300.938C102.858 300.555 102.363 300.364 101.731 300.364C101.291 300.364 100.897 300.456 100.549 300.642C100.204 300.828 99.9316 301.098 99.7308 301.455C99.5339 301.811 99.4354 302.242 99.4354 302.75ZM115.843 299.273V300.409H111.32V299.273H115.843ZM112.638 297.182H113.979V305.5C113.979 305.879 114.034 306.163 114.144 306.352C114.258 306.538 114.402 306.663 114.576 306.727C114.754 306.788 114.942 306.818 115.138 306.818C115.286 306.818 115.407 306.811 115.502 306.795C115.597 306.777 115.673 306.761 115.729 306.75L116.002 307.955C115.911 307.989 115.784 308.023 115.621 308.057C115.459 308.095 115.252 308.114 115.002 308.114C114.623 308.114 114.252 308.032 113.888 307.869C113.529 307.706 113.229 307.458 112.991 307.125C112.756 306.792 112.638 306.371 112.638 305.864V297.182ZM119.388 302.75V308H118.048V296.364H119.388V300.636H119.502C119.707 300.186 120.013 299.828 120.423 299.562C120.835 299.294 121.385 299.159 122.07 299.159C122.665 299.159 123.186 299.278 123.633 299.517C124.08 299.752 124.426 300.114 124.673 300.602C124.923 301.087 125.048 301.705 125.048 302.455V308H123.707V302.545C123.707 301.852 123.527 301.316 123.167 300.938C122.811 300.555 122.317 300.364 121.684 300.364C121.245 300.364 120.851 300.456 120.502 300.642C120.157 300.828 119.885 301.098 119.684 301.455C119.487 301.811 119.388 302.242 119.388 302.75ZM131.16 308.182C130.319 308.182 129.594 307.996 128.984 307.625C128.378 307.25 127.91 306.727 127.58 306.057C127.254 305.383 127.092 304.598 127.092 303.705C127.092 302.811 127.254 302.023 127.58 301.341C127.91 300.655 128.368 300.121 128.955 299.739C129.546 299.352 130.236 299.159 131.023 299.159C131.478 299.159 131.927 299.235 132.37 299.386C132.813 299.538 133.217 299.784 133.58 300.125C133.944 300.462 134.234 300.909 134.45 301.466C134.665 302.023 134.773 302.708 134.773 303.523V304.091H128.046V302.932H133.41C133.41 302.439 133.311 302 133.114 301.614C132.921 301.227 132.645 300.922 132.285 300.699C131.929 300.475 131.508 300.364 131.023 300.364C130.489 300.364 130.027 300.496 129.637 300.761C129.251 301.023 128.953 301.364 128.745 301.784C128.537 302.205 128.433 302.655 128.433 303.136V303.909C128.433 304.568 128.546 305.127 128.773 305.585C129.004 306.04 129.325 306.386 129.734 306.625C130.143 306.86 130.618 306.977 131.16 306.977C131.512 306.977 131.83 306.928 132.114 306.83C132.402 306.727 132.65 306.576 132.859 306.375C133.067 306.17 133.228 305.917 133.342 305.614L134.637 305.977C134.501 306.417 134.272 306.803 133.95 307.136C133.628 307.466 133.23 307.723 132.756 307.909C132.283 308.091 131.751 308.182 131.16 308.182ZM141.495 308V296.364H142.836V300.659H142.95C143.048 300.508 143.184 300.314 143.359 300.08C143.537 299.841 143.79 299.629 144.12 299.443C144.453 299.254 144.904 299.159 145.472 299.159C146.207 299.159 146.855 299.343 147.415 299.71C147.976 300.078 148.414 300.598 148.728 301.273C149.042 301.947 149.2 302.742 149.2 303.659C149.2 304.583 149.042 305.384 148.728 306.062C148.414 306.737 147.978 307.259 147.421 307.631C146.864 307.998 146.222 308.182 145.495 308.182C144.934 308.182 144.486 308.089 144.148 307.903C143.811 307.714 143.552 307.5 143.37 307.261C143.188 307.019 143.048 306.818 142.95 306.659H142.79V308H141.495ZM142.813 303.636C142.813 304.295 142.91 304.877 143.103 305.381C143.296 305.881 143.578 306.273 143.95 306.557C144.321 306.837 144.775 306.977 145.313 306.977C145.874 306.977 146.342 306.83 146.717 306.534C147.095 306.235 147.379 305.833 147.569 305.33C147.762 304.822 147.859 304.258 147.859 303.636C147.859 303.023 147.764 302.47 147.575 301.977C147.389 301.481 147.107 301.089 146.728 300.801C146.353 300.509 145.881 300.364 145.313 300.364C144.768 300.364 144.309 300.502 143.938 300.778C143.567 301.051 143.287 301.434 143.097 301.926C142.908 302.415 142.813 302.985 142.813 303.636ZM154.91 308.182C154.069 308.182 153.344 307.996 152.734 307.625C152.128 307.25 151.66 306.727 151.33 306.057C151.004 305.383 150.842 304.598 150.842 303.705C150.842 302.811 151.004 302.023 151.33 301.341C151.66 300.655 152.118 300.121 152.705 299.739C153.296 299.352 153.986 299.159 154.773 299.159C155.228 299.159 155.677 299.235 156.12 299.386C156.563 299.538 156.967 299.784 157.33 300.125C157.694 300.462 157.984 300.909 158.2 301.466C158.415 302.023 158.523 302.708 158.523 303.523V304.091H151.796V302.932H157.16C157.16 302.439 157.061 302 156.864 301.614C156.671 301.227 156.395 300.922 156.035 300.699C155.679 300.475 155.258 300.364 154.773 300.364C154.239 300.364 153.777 300.496 153.387 300.761C153.001 301.023 152.703 301.364 152.495 301.784C152.287 302.205 152.183 302.655 152.183 303.136V303.909C152.183 304.568 152.296 305.127 152.523 305.585C152.754 306.04 153.075 306.386 153.484 306.625C153.893 306.86 154.368 306.977 154.91 306.977C155.262 306.977 155.58 306.928 155.864 306.83C156.152 306.727 156.4 306.576 156.609 306.375C156.817 306.17 156.978 305.917 157.092 305.614L158.387 305.977C158.251 306.417 158.022 306.803 157.7 307.136C157.378 307.466 156.98 307.723 156.506 307.909C156.033 308.091 155.501 308.182 154.91 308.182ZM166.745 301.227L165.54 301.568C165.465 301.367 165.353 301.172 165.205 300.983C165.061 300.79 164.864 300.631 164.614 300.506C164.364 300.381 164.044 300.318 163.654 300.318C163.12 300.318 162.675 300.441 162.319 300.688C161.967 300.93 161.79 301.239 161.79 301.614C161.79 301.947 161.912 302.21 162.154 302.403C162.397 302.597 162.775 302.758 163.29 302.886L164.586 303.205C165.366 303.394 165.948 303.684 166.33 304.074C166.713 304.46 166.904 304.958 166.904 305.568C166.904 306.068 166.76 306.515 166.472 306.909C166.188 307.303 165.79 307.614 165.279 307.841C164.768 308.068 164.173 308.182 163.495 308.182C162.605 308.182 161.868 307.989 161.285 307.602C160.701 307.216 160.332 306.652 160.177 305.909L161.45 305.591C161.571 306.061 161.8 306.413 162.137 306.648C162.478 306.883 162.923 307 163.472 307C164.097 307 164.594 306.867 164.961 306.602C165.332 306.333 165.518 306.011 165.518 305.636C165.518 305.333 165.412 305.08 165.2 304.875C164.987 304.667 164.662 304.511 164.222 304.409L162.768 304.068C161.969 303.879 161.381 303.585 161.006 303.188C160.635 302.786 160.45 302.284 160.45 301.682C160.45 301.189 160.588 300.754 160.864 300.375C161.145 299.996 161.525 299.699 162.006 299.483C162.491 299.267 163.04 299.159 163.654 299.159C164.518 299.159 165.196 299.348 165.688 299.727C166.184 300.106 166.537 300.606 166.745 301.227ZM172.718 299.273V300.409H168.195V299.273H172.718ZM169.513 297.182H170.854V305.5C170.854 305.879 170.909 306.163 171.019 306.352C171.133 306.538 171.277 306.663 171.451 306.727C171.629 306.788 171.817 306.818 172.013 306.818C172.161 306.818 172.282 306.811 172.377 306.795C172.472 306.777 172.548 306.761 172.604 306.75L172.877 307.955C172.786 307.989 172.659 308.023 172.496 308.057C172.334 308.095 172.127 308.114 171.877 308.114C171.498 308.114 171.127 308.032 170.763 307.869C170.404 307.706 170.104 307.458 169.866 307.125C169.631 306.792 169.513 306.371 169.513 305.864V297.182ZM183.031 299.273V300.409H178.508V299.273H183.031ZM179.826 297.182H181.167V305.5C181.167 305.879 181.222 306.163 181.332 306.352C181.445 306.538 181.589 306.663 181.763 306.727C181.942 306.788 182.129 306.818 182.326 306.818C182.474 306.818 182.595 306.811 182.69 306.795C182.784 306.777 182.86 306.761 182.917 306.75L183.19 307.955C183.099 307.989 182.972 308.023 182.809 308.057C182.646 308.095 182.44 308.114 182.19 308.114C181.811 308.114 181.44 308.032 181.076 307.869C180.716 307.706 180.417 307.458 180.178 307.125C179.943 306.792 179.826 306.371 179.826 305.864V297.182ZM185.048 308V299.273H186.343V300.591H186.434C186.593 300.159 186.881 299.809 187.298 299.54C187.714 299.271 188.184 299.136 188.707 299.136C188.805 299.136 188.928 299.138 189.076 299.142C189.224 299.146 189.335 299.152 189.411 299.159V300.523C189.366 300.511 189.262 300.494 189.099 300.472C188.94 300.445 188.771 300.432 188.593 300.432C188.169 300.432 187.79 300.521 187.457 300.699C187.127 300.873 186.866 301.116 186.673 301.426C186.483 301.733 186.388 302.083 186.388 302.477V308H185.048ZM193.569 308.205C193.016 308.205 192.514 308.1 192.063 307.892C191.612 307.68 191.254 307.375 190.989 306.977C190.724 306.576 190.592 306.091 190.592 305.523C190.592 305.023 190.69 304.617 190.887 304.307C191.084 303.992 191.347 303.746 191.677 303.568C192.006 303.39 192.37 303.258 192.768 303.17C193.169 303.08 193.573 303.008 193.978 302.955C194.508 302.886 194.938 302.835 195.268 302.801C195.601 302.763 195.844 302.701 195.995 302.614C196.15 302.527 196.228 302.375 196.228 302.159V302.114C196.228 301.553 196.075 301.117 195.768 300.807C195.465 300.496 195.004 300.341 194.387 300.341C193.747 300.341 193.245 300.481 192.881 300.761C192.518 301.042 192.262 301.341 192.114 301.659L190.842 301.205C191.069 300.674 191.372 300.261 191.751 299.966C192.133 299.667 192.55 299.458 193.001 299.341C193.455 299.22 193.902 299.159 194.342 299.159C194.622 299.159 194.944 299.193 195.308 299.261C195.675 299.326 196.029 299.46 196.37 299.665C196.715 299.869 197.001 300.178 197.228 300.591C197.455 301.004 197.569 301.557 197.569 302.25V308H196.228V306.818H196.16C196.069 307.008 195.917 307.21 195.705 307.426C195.493 307.642 195.211 307.826 194.859 307.977C194.506 308.129 194.076 308.205 193.569 308.205ZM193.773 307C194.304 307 194.751 306.896 195.114 306.688C195.482 306.479 195.758 306.21 195.944 305.881C196.133 305.551 196.228 305.205 196.228 304.841V303.614C196.171 303.682 196.046 303.744 195.853 303.801C195.664 303.854 195.444 303.902 195.194 303.943C194.948 303.981 194.707 304.015 194.472 304.045C194.241 304.072 194.054 304.095 193.91 304.114C193.561 304.159 193.236 304.233 192.933 304.335C192.633 304.434 192.391 304.583 192.205 304.784C192.023 304.981 191.933 305.25 191.933 305.591C191.933 306.057 192.105 306.409 192.45 306.648C192.798 306.883 193.239 307 193.773 307ZM201.357 302.75V308H200.016V299.273H201.312V300.636H201.425C201.63 300.193 201.941 299.837 202.357 299.568C202.774 299.295 203.312 299.159 203.971 299.159C204.562 299.159 205.079 299.28 205.522 299.523C205.965 299.761 206.31 300.125 206.556 300.614C206.802 301.098 206.925 301.712 206.925 302.455V308H205.585V302.545C205.585 301.86 205.406 301.326 205.05 300.943C204.694 300.557 204.206 300.364 203.585 300.364C203.156 300.364 202.774 300.456 202.437 300.642C202.103 300.828 201.84 301.098 201.647 301.455C201.454 301.811 201.357 302.242 201.357 302.75ZM215.558 301.227L214.353 301.568C214.277 301.367 214.165 301.172 214.018 300.983C213.874 300.79 213.677 300.631 213.427 300.506C213.177 300.381 212.857 300.318 212.467 300.318C211.933 300.318 211.487 300.441 211.131 300.688C210.779 300.93 210.603 301.239 210.603 301.614C210.603 301.947 210.724 302.21 210.967 302.403C211.209 302.597 211.588 302.758 212.103 302.886L213.398 303.205C214.179 303.394 214.76 303.684 215.143 304.074C215.525 304.46 215.717 304.958 215.717 305.568C215.717 306.068 215.573 306.515 215.285 306.909C215.001 307.303 214.603 307.614 214.092 307.841C213.58 308.068 212.986 308.182 212.308 308.182C211.417 308.182 210.681 307.989 210.097 307.602C209.514 307.216 209.145 306.652 208.989 305.909L210.262 305.591C210.383 306.061 210.612 306.413 210.95 306.648C211.29 306.883 211.736 307 212.285 307C212.91 307 213.406 306.867 213.773 306.602C214.145 306.333 214.33 306.011 214.33 305.636C214.33 305.333 214.224 305.08 214.012 304.875C213.8 304.667 213.474 304.511 213.035 304.409L211.58 304.068C210.781 303.879 210.194 303.585 209.819 303.188C209.448 302.786 209.262 302.284 209.262 301.682C209.262 301.189 209.4 300.754 209.677 300.375C209.957 299.996 210.338 299.699 210.819 299.483C211.304 299.267 211.853 299.159 212.467 299.159C213.33 299.159 214.008 299.348 214.501 299.727C214.997 300.106 215.349 300.606 215.558 301.227ZM217.735 311.273V299.273H219.031V300.659H219.19C219.288 300.508 219.424 300.314 219.599 300.08C219.777 299.841 220.031 299.629 220.36 299.443C220.693 299.254 221.144 299.159 221.712 299.159C222.447 299.159 223.095 299.343 223.656 299.71C224.216 300.078 224.654 300.598 224.968 301.273C225.282 301.947 225.44 302.742 225.44 303.659C225.44 304.583 225.282 305.384 224.968 306.062C224.654 306.737 224.218 307.259 223.661 307.631C223.104 307.998 222.462 308.182 221.735 308.182C221.174 308.182 220.726 308.089 220.388 307.903C220.051 307.714 219.792 307.5 219.61 307.261C219.428 307.019 219.288 306.818 219.19 306.659H219.076V311.273H217.735ZM219.053 303.636C219.053 304.295 219.15 304.877 219.343 305.381C219.536 305.881 219.818 306.273 220.19 306.557C220.561 306.837 221.015 306.977 221.553 306.977C222.114 306.977 222.582 306.83 222.957 306.534C223.335 306.235 223.62 305.833 223.809 305.33C224.002 304.822 224.099 304.258 224.099 303.636C224.099 303.023 224.004 302.47 223.815 301.977C223.629 301.481 223.347 301.089 222.968 300.801C222.593 300.509 222.121 300.364 221.553 300.364C221.008 300.364 220.549 300.502 220.178 300.778C219.807 301.051 219.527 301.434 219.337 301.926C219.148 302.415 219.053 302.985 219.053 303.636ZM231.031 308.182C230.243 308.182 229.551 307.994 228.957 307.619C228.366 307.244 227.904 306.72 227.57 306.045C227.241 305.371 227.076 304.583 227.076 303.682C227.076 302.773 227.241 301.979 227.57 301.301C227.904 300.623 228.366 300.097 228.957 299.722C229.551 299.347 230.243 299.159 231.031 299.159C231.818 299.159 232.508 299.347 233.099 299.722C233.693 300.097 234.156 300.623 234.485 301.301C234.818 301.979 234.985 302.773 234.985 303.682C234.985 304.583 234.818 305.371 234.485 306.045C234.156 306.72 233.693 307.244 233.099 307.619C232.508 307.994 231.818 308.182 231.031 308.182ZM231.031 306.977C231.629 306.977 232.121 306.824 232.508 306.517C232.894 306.21 233.18 305.807 233.366 305.307C233.551 304.807 233.644 304.265 233.644 303.682C233.644 303.098 233.551 302.555 233.366 302.051C233.18 301.547 232.894 301.14 232.508 300.83C232.121 300.519 231.629 300.364 231.031 300.364C230.432 300.364 229.94 300.519 229.553 300.83C229.167 301.14 228.881 301.547 228.695 302.051C228.51 302.555 228.417 303.098 228.417 303.682C228.417 304.265 228.51 304.807 228.695 305.307C228.881 305.807 229.167 306.21 229.553 306.517C229.94 306.824 230.432 306.977 231.031 306.977ZM237.032 308V299.273H238.327V300.591H238.418C238.577 300.159 238.865 299.809 239.282 299.54C239.699 299.271 240.168 299.136 240.691 299.136C240.79 299.136 240.913 299.138 241.06 299.142C241.208 299.146 241.32 299.152 241.396 299.159V300.523C241.35 300.511 241.246 300.494 241.083 300.472C240.924 300.445 240.755 300.432 240.577 300.432C240.153 300.432 239.774 300.521 239.441 300.699C239.112 300.873 238.85 301.116 238.657 301.426C238.468 301.733 238.373 302.083 238.373 302.477V308H237.032ZM247.327 299.273V300.409H242.805V299.273H247.327ZM244.123 297.182H245.464V305.5C245.464 305.879 245.519 306.163 245.629 306.352C245.742 306.538 245.886 306.663 246.06 306.727C246.238 306.788 246.426 306.818 246.623 306.818C246.771 306.818 246.892 306.811 246.987 306.795C247.081 306.777 247.157 306.761 247.214 306.75L247.487 307.955C247.396 307.989 247.269 308.023 247.106 308.057C246.943 308.095 246.737 308.114 246.487 308.114C246.108 308.114 245.737 308.032 245.373 307.869C245.013 307.706 244.714 307.458 244.475 307.125C244.24 306.792 244.123 306.371 244.123 305.864V297.182ZM74.7763 320.227L73.5717 320.568C73.496 320.367 73.3842 320.172 73.2365 319.983C73.0926 319.79 72.8956 319.631 72.6456 319.506C72.3956 319.381 72.0755 319.318 71.6854 319.318C71.1513 319.318 70.7062 319.441 70.3501 319.688C69.9979 319.93 69.8217 320.239 69.8217 320.614C69.8217 320.947 69.9429 321.21 70.1854 321.403C70.4278 321.597 70.8066 321.758 71.3217 321.886L72.6172 322.205C73.3975 322.394 73.9789 322.684 74.3615 323.074C74.7441 323.46 74.9354 323.958 74.9354 324.568C74.9354 325.068 74.7914 325.515 74.5036 325.909C74.2195 326.303 73.8217 326.614 73.3104 326.841C72.799 327.068 72.2043 327.182 71.5263 327.182C70.6361 327.182 69.8994 326.989 69.3161 326.602C68.7327 326.216 68.3634 325.652 68.2081 324.909L69.4808 324.591C69.602 325.061 69.8312 325.413 70.1683 325.648C70.5092 325.883 70.9543 326 71.5036 326C72.1286 326 72.6248 325.867 72.9922 325.602C73.3634 325.333 73.549 325.011 73.549 324.636C73.549 324.333 73.4429 324.08 73.2308 323.875C73.0187 323.667 72.6929 323.511 72.2536 323.409L70.799 323.068C69.9998 322.879 69.4126 322.585 69.0376 322.188C68.6664 321.786 68.4808 321.284 68.4808 320.682C68.4808 320.189 68.6191 319.754 68.8956 319.375C69.1759 318.996 69.5566 318.699 70.0376 318.483C70.5225 318.267 71.0717 318.159 71.6854 318.159C72.549 318.159 73.227 318.348 73.7195 318.727C74.2157 319.106 74.5679 319.606 74.7763 320.227ZM77.8175 330.273C77.5902 330.273 77.3875 330.254 77.2095 330.216C77.0315 330.182 76.9084 330.148 76.8402 330.114L77.1811 328.932C77.5069 329.015 77.7947 329.045 78.0447 329.023C78.2947 329 78.5163 328.888 78.7095 328.688C78.9065 328.491 79.0864 328.17 79.2493 327.727L79.4993 327.045L76.272 318.273H77.7266L80.1357 325.227H80.2266L82.6357 318.273H84.0902L80.3857 328.273C80.219 328.723 80.0125 329.097 79.7663 329.392C79.5201 329.691 79.2341 329.913 78.9084 330.057C78.5864 330.201 78.2228 330.273 77.8175 330.273ZM92.0419 320.227L90.8374 320.568C90.7616 320.367 90.6499 320.172 90.5021 319.983C90.3582 319.79 90.1612 319.631 89.9112 319.506C89.6612 319.381 89.3411 319.318 88.951 319.318C88.4169 319.318 87.9718 319.441 87.6158 319.688C87.2635 319.93 87.0874 320.239 87.0874 320.614C87.0874 320.947 87.2086 321.21 87.451 321.403C87.6934 321.597 88.0722 321.758 88.5874 321.886L89.8828 322.205C90.6631 322.394 91.2446 322.684 91.6271 323.074C92.0097 323.46 92.201 323.958 92.201 324.568C92.201 325.068 92.0571 325.515 91.7692 325.909C91.4851 326.303 91.0874 326.614 90.576 326.841C90.0646 327.068 89.4699 327.182 88.7919 327.182C87.9018 327.182 87.165 326.989 86.5817 326.602C85.9983 326.216 85.629 325.652 85.4737 324.909L86.7464 324.591C86.8677 325.061 87.0968 325.413 87.4339 325.648C87.7749 325.883 88.2199 326 88.7692 326C89.3942 326 89.8904 325.867 90.2578 325.602C90.629 325.333 90.8146 325.011 90.8146 324.636C90.8146 324.333 90.7086 324.08 90.4964 323.875C90.2843 323.667 89.9586 323.511 89.5192 323.409L88.0646 323.068C87.2654 322.879 86.6783 322.585 86.3033 322.188C85.9321 321.786 85.7464 321.284 85.7464 320.682C85.7464 320.189 85.8847 319.754 86.1612 319.375C86.4415 318.996 86.8222 318.699 87.3033 318.483C87.7881 318.267 88.3374 318.159 88.951 318.159C89.8146 318.159 90.4927 318.348 90.9851 318.727C91.4813 319.106 91.8336 319.606 92.0419 320.227ZM98.0149 318.273V319.409H93.4922V318.273H98.0149ZM94.8104 316.182H96.1513V324.5C96.1513 324.879 96.2062 325.163 96.3161 325.352C96.4297 325.538 96.5736 325.663 96.7479 325.727C96.9259 325.788 97.1134 325.818 97.3104 325.818C97.4581 325.818 97.5793 325.811 97.674 325.795C97.7687 325.777 97.8445 325.761 97.9013 325.75L98.174 326.955C98.0831 326.989 97.9562 327.023 97.7933 327.057C97.6304 327.095 97.424 327.114 97.174 327.114C96.7952 327.114 96.424 327.032 96.0604 326.869C95.7005 326.706 95.4013 326.458 95.1626 326.125C94.9278 325.792 94.8104 325.371 94.8104 324.864V316.182ZM103.597 327.182C102.756 327.182 102.031 326.996 101.421 326.625C100.815 326.25 100.347 325.727 100.018 325.057C99.692 324.383 99.5291 323.598 99.5291 322.705C99.5291 321.811 99.692 321.023 100.018 320.341C100.347 319.655 100.806 319.121 101.393 318.739C101.984 318.352 102.673 318.159 103.461 318.159C103.915 318.159 104.364 318.235 104.808 318.386C105.251 318.538 105.654 318.784 106.018 319.125C106.381 319.462 106.671 319.909 106.887 320.466C107.103 321.023 107.211 321.708 107.211 322.523V323.091H100.484V321.932H105.847C105.847 321.439 105.749 321 105.552 320.614C105.359 320.227 105.082 319.922 104.722 319.699C104.366 319.475 103.946 319.364 103.461 319.364C102.927 319.364 102.465 319.496 102.075 319.761C101.688 320.023 101.391 320.364 101.183 320.784C100.974 321.205 100.87 321.655 100.87 322.136V322.909C100.87 323.568 100.984 324.127 101.211 324.585C101.442 325.04 101.762 325.386 102.171 325.625C102.58 325.86 103.056 325.977 103.597 325.977C103.95 325.977 104.268 325.928 104.552 325.83C104.84 325.727 105.088 325.576 105.296 325.375C105.504 325.17 105.665 324.917 105.779 324.614L107.075 324.977C106.938 325.417 106.709 325.803 106.387 326.136C106.065 326.466 105.667 326.723 105.194 326.909C104.72 327.091 104.188 327.182 103.597 327.182ZM109.251 327V318.273H110.546V319.636H110.66C110.842 319.17 111.135 318.809 111.54 318.551C111.946 318.29 112.433 318.159 113.001 318.159C113.576 318.159 114.056 318.29 114.438 318.551C114.825 318.809 115.126 319.17 115.342 319.636H115.433C115.656 319.186 115.991 318.828 116.438 318.562C116.885 318.294 117.421 318.159 118.046 318.159C118.826 318.159 119.465 318.403 119.961 318.892C120.457 319.377 120.705 320.133 120.705 321.159V327H119.364V321.159C119.364 320.515 119.188 320.055 118.836 319.778C118.484 319.502 118.069 319.364 117.592 319.364C116.978 319.364 116.503 319.549 116.165 319.92C115.828 320.288 115.66 320.754 115.66 321.318V327H114.296V321.023C114.296 320.527 114.135 320.127 113.813 319.824C113.491 319.517 113.076 319.364 112.569 319.364C112.22 319.364 111.895 319.456 111.592 319.642C111.292 319.828 111.05 320.085 110.864 320.415C110.683 320.741 110.592 321.117 110.592 321.545V327H109.251ZM130.225 327.205C129.672 327.205 129.17 327.1 128.719 326.892C128.269 326.68 127.911 326.375 127.646 325.977C127.38 325.576 127.248 325.091 127.248 324.523C127.248 324.023 127.346 323.617 127.543 323.307C127.74 322.992 128.004 322.746 128.333 322.568C128.663 322.39 129.026 322.258 129.424 322.17C129.826 322.08 130.229 322.008 130.634 321.955C131.165 321.886 131.594 321.835 131.924 321.801C132.257 321.763 132.5 321.701 132.651 321.614C132.807 321.527 132.884 321.375 132.884 321.159V321.114C132.884 320.553 132.731 320.117 132.424 319.807C132.121 319.496 131.661 319.341 131.043 319.341C130.403 319.341 129.901 319.481 129.538 319.761C129.174 320.042 128.918 320.341 128.771 320.659L127.498 320.205C127.725 319.674 128.028 319.261 128.407 318.966C128.79 318.667 129.206 318.458 129.657 318.341C130.112 318.22 130.558 318.159 130.998 318.159C131.278 318.159 131.6 318.193 131.964 318.261C132.331 318.326 132.685 318.46 133.026 318.665C133.371 318.869 133.657 319.178 133.884 319.591C134.112 320.004 134.225 320.557 134.225 321.25V327H132.884V325.818H132.816C132.725 326.008 132.574 326.21 132.362 326.426C132.149 326.642 131.867 326.826 131.515 326.977C131.163 327.129 130.733 327.205 130.225 327.205ZM130.43 326C130.96 326 131.407 325.896 131.771 325.688C132.138 325.479 132.415 325.21 132.6 324.881C132.79 324.551 132.884 324.205 132.884 323.841V322.614C132.827 322.682 132.702 322.744 132.509 322.801C132.32 322.854 132.1 322.902 131.85 322.943C131.604 322.981 131.363 323.015 131.129 323.045C130.897 323.072 130.71 323.095 130.566 323.114C130.218 323.159 129.892 323.233 129.589 323.335C129.29 323.434 129.047 323.583 128.862 323.784C128.68 323.981 128.589 324.25 128.589 324.591C128.589 325.057 128.761 325.409 129.106 325.648C129.454 325.883 129.896 326 130.43 326ZM138.013 321.75V327H136.673V318.273H137.968V319.636H138.082C138.286 319.193 138.597 318.837 139.013 318.568C139.43 318.295 139.968 318.159 140.627 318.159C141.218 318.159 141.735 318.28 142.178 318.523C142.621 318.761 142.966 319.125 143.212 319.614C143.459 320.098 143.582 320.712 143.582 321.455V327H142.241V321.545C142.241 320.86 142.063 320.326 141.707 319.943C141.351 319.557 140.862 319.364 140.241 319.364C139.813 319.364 139.43 319.456 139.093 319.642C138.76 319.828 138.496 320.098 138.303 320.455C138.11 320.811 138.013 321.242 138.013 321.75ZM149.327 327.182C148.6 327.182 147.958 326.998 147.401 326.631C146.844 326.259 146.409 325.737 146.094 325.062C145.78 324.384 145.623 323.583 145.623 322.659C145.623 321.742 145.78 320.947 146.094 320.273C146.409 319.598 146.846 319.078 147.407 318.71C147.968 318.343 148.615 318.159 149.35 318.159C149.918 318.159 150.367 318.254 150.697 318.443C151.03 318.629 151.284 318.841 151.458 319.08C151.636 319.314 151.774 319.508 151.873 319.659H151.987V315.364H153.327V327H152.032V325.659H151.873C151.774 325.818 151.634 326.019 151.452 326.261C151.271 326.5 151.011 326.714 150.674 326.903C150.337 327.089 149.888 327.182 149.327 327.182ZM149.509 325.977C150.047 325.977 150.502 325.837 150.873 325.557C151.244 325.273 151.526 324.881 151.719 324.381C151.913 323.877 152.009 323.295 152.009 322.636C152.009 321.985 151.915 321.415 151.725 320.926C151.536 320.434 151.255 320.051 150.884 319.778C150.513 319.502 150.055 319.364 149.509 319.364C148.941 319.364 148.468 319.509 148.089 319.801C147.714 320.089 147.432 320.481 147.242 320.977C147.057 321.47 146.964 322.023 146.964 322.636C146.964 323.258 147.058 323.822 147.248 324.33C147.441 324.833 147.725 325.235 148.1 325.534C148.479 325.83 148.949 325.977 149.509 325.977ZM164.129 327.182C163.288 327.182 162.562 326.996 161.952 326.625C161.346 326.25 160.879 325.727 160.549 325.057C160.223 324.383 160.06 323.598 160.06 322.705C160.06 321.811 160.223 321.023 160.549 320.341C160.879 319.655 161.337 319.121 161.924 318.739C162.515 318.352 163.204 318.159 163.992 318.159C164.447 318.159 164.896 318.235 165.339 318.386C165.782 318.538 166.185 318.784 166.549 319.125C166.913 319.462 167.202 319.909 167.418 320.466C167.634 321.023 167.742 321.708 167.742 322.523V323.091H161.015V321.932H166.379C166.379 321.439 166.28 321 166.083 320.614C165.89 320.227 165.613 319.922 165.254 319.699C164.897 319.475 164.477 319.364 163.992 319.364C163.458 319.364 162.996 319.496 162.606 319.761C162.219 320.023 161.922 320.364 161.714 320.784C161.505 321.205 161.401 321.655 161.401 322.136V322.909C161.401 323.568 161.515 324.127 161.742 324.585C161.973 325.04 162.293 325.386 162.702 325.625C163.112 325.86 163.587 325.977 164.129 325.977C164.481 325.977 164.799 325.928 165.083 325.83C165.371 325.727 165.619 325.576 165.827 325.375C166.036 325.17 166.197 324.917 166.31 324.614L167.606 324.977C167.469 325.417 167.24 325.803 166.918 326.136C166.596 326.466 166.199 326.723 165.725 326.909C165.252 327.091 164.719 327.182 164.129 327.182ZM170.548 318.273L172.638 321.841L174.729 318.273H176.275L173.457 322.636L176.275 327H174.729L172.638 323.614L170.548 327H169.002L171.775 322.636L169.002 318.273H170.548ZM178.188 330.273V318.273H179.484V319.659H179.643C179.741 319.508 179.878 319.314 180.052 319.08C180.23 318.841 180.484 318.629 180.813 318.443C181.147 318.254 181.597 318.159 182.165 318.159C182.9 318.159 183.548 318.343 184.109 318.71C184.669 319.078 185.107 319.598 185.421 320.273C185.736 320.947 185.893 321.742 185.893 322.659C185.893 323.583 185.736 324.384 185.421 325.062C185.107 325.737 184.671 326.259 184.114 326.631C183.558 326.998 182.915 327.182 182.188 327.182C181.628 327.182 181.179 327.089 180.842 326.903C180.504 326.714 180.245 326.5 180.063 326.261C179.881 326.019 179.741 325.818 179.643 325.659H179.529V330.273H178.188ZM179.506 322.636C179.506 323.295 179.603 323.877 179.796 324.381C179.989 324.881 180.272 325.273 180.643 325.557C181.014 325.837 181.469 325.977 182.006 325.977C182.567 325.977 183.035 325.83 183.41 325.534C183.789 325.235 184.073 324.833 184.262 324.33C184.455 323.822 184.552 323.258 184.552 322.636C184.552 322.023 184.457 321.47 184.268 320.977C184.082 320.481 183.8 320.089 183.421 319.801C183.046 319.509 182.575 319.364 182.006 319.364C181.461 319.364 181.003 319.502 180.631 319.778C180.26 320.051 179.98 320.434 179.79 320.926C179.601 321.415 179.506 321.985 179.506 322.636ZM191.597 327.182C190.756 327.182 190.031 326.996 189.421 326.625C188.815 326.25 188.347 325.727 188.018 325.057C187.692 324.383 187.529 323.598 187.529 322.705C187.529 321.811 187.692 321.023 188.018 320.341C188.347 319.655 188.806 319.121 189.393 318.739C189.984 318.352 190.673 318.159 191.461 318.159C191.915 318.159 192.364 318.235 192.808 318.386C193.251 318.538 193.654 318.784 194.018 319.125C194.381 319.462 194.671 319.909 194.887 320.466C195.103 321.023 195.211 321.708 195.211 322.523V323.091H188.484V321.932H193.847C193.847 321.439 193.749 321 193.552 320.614C193.359 320.227 193.082 319.922 192.722 319.699C192.366 319.475 191.946 319.364 191.461 319.364C190.927 319.364 190.465 319.496 190.075 319.761C189.688 320.023 189.391 320.364 189.183 320.784C188.974 321.205 188.87 321.655 188.87 322.136V322.909C188.87 323.568 188.984 324.127 189.211 324.585C189.442 325.04 189.762 325.386 190.171 325.625C190.58 325.86 191.056 325.977 191.597 325.977C191.95 325.977 192.268 325.928 192.552 325.83C192.84 325.727 193.088 325.576 193.296 325.375C193.504 325.17 193.665 324.917 193.779 324.614L195.075 324.977C194.938 325.417 194.709 325.803 194.387 326.136C194.065 326.466 193.667 326.723 193.194 326.909C192.72 327.091 192.188 327.182 191.597 327.182ZM197.251 327V318.273H198.546V319.591H198.637C198.796 319.159 199.084 318.809 199.501 318.54C199.917 318.271 200.387 318.136 200.91 318.136C201.008 318.136 201.131 318.138 201.279 318.142C201.427 318.146 201.539 318.152 201.614 318.159V319.523C201.569 319.511 201.465 319.494 201.302 319.472C201.143 319.445 200.974 319.432 200.796 319.432C200.372 319.432 199.993 319.521 199.66 319.699C199.33 319.873 199.069 320.116 198.876 320.426C198.686 320.733 198.592 321.083 198.592 321.477V327H197.251ZM203.204 327V318.273H204.545V327H203.204ZM203.886 316.818C203.624 316.818 203.399 316.729 203.21 316.551C203.024 316.373 202.931 316.159 202.931 315.909C202.931 315.659 203.024 315.445 203.21 315.267C203.399 315.089 203.624 315 203.886 315C204.147 315 204.371 315.089 204.556 315.267C204.746 315.445 204.84 315.659 204.84 315.909C204.84 316.159 204.746 316.373 204.556 316.551C204.371 316.729 204.147 316.818 203.886 316.818ZM210.66 327.182C209.819 327.182 209.094 326.996 208.484 326.625C207.878 326.25 207.41 325.727 207.08 325.057C206.754 324.383 206.592 323.598 206.592 322.705C206.592 321.811 206.754 321.023 207.08 320.341C207.41 319.655 207.868 319.121 208.455 318.739C209.046 318.352 209.736 318.159 210.523 318.159C210.978 318.159 211.427 318.235 211.87 318.386C212.313 318.538 212.717 318.784 213.08 319.125C213.444 319.462 213.734 319.909 213.95 320.466C214.165 321.023 214.273 321.708 214.273 322.523V323.091H207.546V321.932H212.91C212.91 321.439 212.811 321 212.614 320.614C212.421 320.227 212.145 319.922 211.785 319.699C211.429 319.475 211.008 319.364 210.523 319.364C209.989 319.364 209.527 319.496 209.137 319.761C208.751 320.023 208.453 320.364 208.245 320.784C208.037 321.205 207.933 321.655 207.933 322.136V322.909C207.933 323.568 208.046 324.127 208.273 324.585C208.504 325.04 208.825 325.386 209.234 325.625C209.643 325.86 210.118 325.977 210.66 325.977C211.012 325.977 211.33 325.928 211.614 325.83C211.902 325.727 212.15 325.576 212.359 325.375C212.567 325.17 212.728 324.917 212.842 324.614L214.137 324.977C214.001 325.417 213.772 325.803 213.45 326.136C213.128 326.466 212.73 326.723 212.256 326.909C211.783 327.091 211.251 327.182 210.66 327.182ZM217.654 321.75V327H216.313V318.273H217.609V319.636H217.722C217.927 319.193 218.237 318.837 218.654 318.568C219.071 318.295 219.609 318.159 220.268 318.159C220.859 318.159 221.376 318.28 221.819 318.523C222.262 318.761 222.607 319.125 222.853 319.614C223.099 320.098 223.222 320.712 223.222 321.455V327H221.881V321.545C221.881 320.86 221.703 320.326 221.347 319.943C220.991 319.557 220.503 319.364 219.881 319.364C219.453 319.364 219.071 319.456 218.734 319.642C218.4 319.828 218.137 320.098 217.944 320.455C217.751 320.811 217.654 321.242 217.654 321.75ZM229.218 327.182C228.4 327.182 227.695 326.989 227.104 326.602C226.513 326.216 226.059 325.684 225.741 325.006C225.423 324.328 225.263 323.553 225.263 322.682C225.263 321.795 225.426 321.013 225.752 320.335C226.082 319.653 226.54 319.121 227.127 318.739C227.718 318.352 228.407 318.159 229.195 318.159C229.809 318.159 230.362 318.273 230.854 318.5C231.347 318.727 231.75 319.045 232.065 319.455C232.379 319.864 232.574 320.341 232.65 320.886H231.309C231.207 320.489 230.979 320.136 230.627 319.83C230.279 319.519 229.809 319.364 229.218 319.364C228.695 319.364 228.237 319.5 227.843 319.773C227.453 320.042 227.148 320.422 226.928 320.915C226.712 321.403 226.604 321.977 226.604 322.636C226.604 323.311 226.71 323.898 226.923 324.398C227.138 324.898 227.442 325.286 227.832 325.562C228.226 325.839 228.688 325.977 229.218 325.977C229.567 325.977 229.883 325.917 230.167 325.795C230.451 325.674 230.692 325.5 230.888 325.273C231.085 325.045 231.226 324.773 231.309 324.455H232.65C232.574 324.97 232.387 325.434 232.087 325.847C231.792 326.256 231.4 326.581 230.911 326.824C230.426 327.062 229.862 327.182 229.218 327.182ZM238.269 327.182C237.428 327.182 236.703 326.996 236.093 326.625C235.487 326.25 235.019 325.727 234.69 325.057C234.364 324.383 234.201 323.598 234.201 322.705C234.201 321.811 234.364 321.023 234.69 320.341C235.019 319.655 235.478 319.121 236.065 318.739C236.656 318.352 237.345 318.159 238.133 318.159C238.587 318.159 239.036 318.235 239.479 318.386C239.923 318.538 240.326 318.784 240.69 319.125C241.053 319.462 241.343 319.909 241.559 320.466C241.775 321.023 241.883 321.708 241.883 322.523V323.091H235.156V321.932H240.519C240.519 321.439 240.421 321 240.224 320.614C240.031 320.227 239.754 319.922 239.394 319.699C239.038 319.475 238.618 319.364 238.133 319.364C237.599 319.364 237.137 319.496 236.746 319.761C236.36 320.023 236.063 320.364 235.854 320.784C235.646 321.205 235.542 321.655 235.542 322.136V322.909C235.542 323.568 235.656 324.127 235.883 324.585C236.114 325.04 236.434 325.386 236.843 325.625C237.252 325.86 237.728 325.977 238.269 325.977C238.621 325.977 238.94 325.928 239.224 325.83C239.512 325.727 239.76 325.576 239.968 325.375C240.176 325.17 240.337 324.917 240.451 324.614L241.746 324.977C241.61 325.417 241.381 325.803 241.059 326.136C240.737 326.466 240.339 326.723 239.866 326.909C239.392 327.091 238.86 327.182 238.269 327.182ZM247.218 327.182C246.491 327.182 245.849 326.998 245.292 326.631C244.735 326.259 244.299 325.737 243.985 325.062C243.671 324.384 243.513 323.583 243.513 322.659C243.513 321.742 243.671 320.947 243.985 320.273C244.299 319.598 244.737 319.078 245.298 318.71C245.858 318.343 246.506 318.159 247.241 318.159C247.809 318.159 248.258 318.254 248.587 318.443C248.921 318.629 249.174 318.841 249.349 319.08C249.527 319.314 249.665 319.508 249.763 319.659H249.877V315.364H251.218V327H249.923V325.659H249.763C249.665 325.818 249.525 326.019 249.343 326.261C249.161 326.5 248.902 326.714 248.565 326.903C248.228 327.089 247.779 327.182 247.218 327.182ZM247.4 325.977C247.938 325.977 248.392 325.837 248.763 325.557C249.135 325.273 249.417 324.881 249.61 324.381C249.803 323.877 249.9 323.295 249.9 322.636C249.9 321.985 249.805 321.415 249.616 320.926C249.426 320.434 249.146 320.051 248.775 319.778C248.404 319.502 247.945 319.364 247.4 319.364C246.832 319.364 246.358 319.509 245.979 319.801C245.604 320.089 245.322 320.481 245.133 320.977C244.947 321.47 244.854 322.023 244.854 322.636C244.854 323.258 244.949 323.822 245.138 324.33C245.332 324.833 245.616 325.235 245.991 325.534C246.37 325.83 246.839 325.977 247.4 325.977ZM61.0618 346.182C60.3345 346.182 59.6925 345.998 59.1357 345.631C58.5788 345.259 58.1432 344.737 57.8288 344.062C57.5144 343.384 57.3572 342.583 57.3572 341.659C57.3572 340.742 57.5144 339.947 57.8288 339.273C58.1432 338.598 58.5807 338.078 59.1413 337.71C59.7019 337.343 60.3497 337.159 61.0845 337.159C61.6527 337.159 62.1016 337.254 62.4311 337.443C62.7644 337.629 63.0182 337.841 63.1925 338.08C63.3705 338.314 63.5088 338.508 63.6072 338.659H63.7209V334.364H65.0618V346H63.7663V344.659H63.6072C63.5088 344.818 63.3686 345.019 63.1868 345.261C63.005 345.5 62.7455 345.714 62.4084 345.903C62.0713 346.089 61.6224 346.182 61.0618 346.182ZM61.2436 344.977C61.7815 344.977 62.236 344.837 62.6072 344.557C62.9785 344.273 63.2607 343.881 63.4538 343.381C63.647 342.877 63.7436 342.295 63.7436 341.636C63.7436 340.985 63.6489 340.415 63.4595 339.926C63.2701 339.434 62.9898 339.051 62.6186 338.778C62.2474 338.502 61.7891 338.364 61.2436 338.364C60.6754 338.364 60.2019 338.509 59.8232 338.801C59.4482 339.089 59.166 339.481 58.9766 339.977C58.791 340.47 58.6982 341.023 58.6982 341.636C58.6982 342.258 58.7929 342.822 58.9822 343.33C59.1754 343.833 59.4595 344.235 59.8345 344.534C60.2133 344.83 60.683 344.977 61.2436 344.977ZM67.7038 346V337.273H68.9993V338.591H69.0902C69.2493 338.159 69.5372 337.809 69.9538 337.54C70.3705 337.271 70.8402 337.136 71.3629 337.136C71.4614 337.136 71.5845 337.138 71.7322 337.142C71.88 337.146 71.9917 337.152 72.0675 337.159V338.523C72.022 338.511 71.9179 338.494 71.755 338.472C71.5959 338.445 71.4273 338.432 71.2493 338.432C70.825 338.432 70.4463 338.521 70.1129 338.699C69.7834 338.873 69.522 339.116 69.3288 339.426C69.1394 339.733 69.0447 340.083 69.0447 340.477V346H67.7038ZM73.657 346V337.273H74.9979V346H73.657ZM74.3388 335.818C74.0774 335.818 73.852 335.729 73.6626 335.551C73.477 335.373 73.3842 335.159 73.3842 334.909C73.3842 334.659 73.477 334.445 73.6626 334.267C73.852 334.089 74.0774 334 74.3388 334C74.6001 334 74.8236 334.089 75.0092 334.267C75.1986 334.445 75.2933 334.659 75.2933 334.909C75.2933 335.159 75.1986 335.373 75.0092 335.551C74.8236 335.729 74.6001 335.818 74.3388 335.818ZM84.5902 337.273L81.3629 346H79.9993L76.772 337.273H78.2266L80.6357 344.227H80.7266L83.1357 337.273H84.5902ZM89.7067 346.182C88.8658 346.182 88.1404 345.996 87.5305 345.625C86.9245 345.25 86.4567 344.727 86.1271 344.057C85.8014 343.383 85.6385 342.598 85.6385 341.705C85.6385 340.811 85.8014 340.023 86.1271 339.341C86.4567 338.655 86.915 338.121 87.5021 337.739C88.093 337.352 88.7824 337.159 89.5703 337.159C90.0249 337.159 90.4737 337.235 90.9169 337.386C91.3601 337.538 91.7635 337.784 92.1271 338.125C92.4908 338.462 92.7805 338.909 92.9964 339.466C93.2124 340.023 93.3203 340.708 93.3203 341.523V342.091H86.593V340.932H91.9567C91.9567 340.439 91.8582 340 91.6612 339.614C91.468 339.227 91.1915 338.922 90.8317 338.699C90.4756 338.475 90.0552 338.364 89.5703 338.364C89.0362 338.364 88.5741 338.496 88.1839 338.761C87.7976 339.023 87.5002 339.364 87.2919 339.784C87.0836 340.205 86.9794 340.655 86.9794 341.136V341.909C86.9794 342.568 87.093 343.127 87.3203 343.585C87.5514 344.04 87.8714 344.386 88.2805 344.625C88.6896 344.86 89.165 344.977 89.7067 344.977C90.0589 344.977 90.3771 344.928 90.6612 344.83C90.9491 344.727 91.1972 344.576 91.4055 344.375C91.6139 344.17 91.7749 343.917 91.8885 343.614L93.1839 343.977C93.0476 344.417 92.8184 344.803 92.4964 345.136C92.1745 345.466 91.7768 345.723 91.3033 345.909C90.8298 346.091 90.2976 346.182 89.7067 346.182ZM95.3601 346V337.273H96.6555V338.591H96.7464C96.9055 338.159 97.1934 337.809 97.6101 337.54C98.0268 337.271 98.4964 337.136 99.0192 337.136C99.1177 337.136 99.2408 337.138 99.3885 337.142C99.5362 337.146 99.648 337.152 99.7237 337.159V338.523C99.6783 338.511 99.5741 338.494 99.4112 338.472C99.2521 338.445 99.0836 338.432 98.9055 338.432C98.4813 338.432 98.1025 338.521 97.7692 338.699C97.4396 338.873 97.1783 339.116 96.9851 339.426C96.7957 339.733 96.701 340.083 96.701 340.477V346H95.3601ZM107.495 339.227L106.29 339.568C106.215 339.367 106.103 339.172 105.955 338.983C105.811 338.79 105.614 338.631 105.364 338.506C105.114 338.381 104.794 338.318 104.404 338.318C103.87 338.318 103.425 338.441 103.069 338.688C102.717 338.93 102.54 339.239 102.54 339.614C102.54 339.947 102.662 340.21 102.904 340.403C103.147 340.597 103.525 340.758 104.04 340.886L105.336 341.205C106.116 341.394 106.698 341.684 107.08 342.074C107.463 342.46 107.654 342.958 107.654 343.568C107.654 344.068 107.51 344.515 107.222 344.909C106.938 345.303 106.54 345.614 106.029 345.841C105.518 346.068 104.923 346.182 104.245 346.182C103.355 346.182 102.618 345.989 102.035 345.602C101.451 345.216 101.082 344.652 100.927 343.909L102.2 343.591C102.321 344.061 102.55 344.413 102.887 344.648C103.228 344.883 103.673 345 104.222 345C104.847 345 105.344 344.867 105.711 344.602C106.082 344.333 106.268 344.011 106.268 343.636C106.268 343.333 106.162 343.08 105.95 342.875C105.737 342.667 105.412 342.511 104.972 342.409L103.518 342.068C102.719 341.879 102.131 341.585 101.756 341.188C101.385 340.786 101.2 340.284 101.2 339.682C101.2 339.189 101.338 338.754 101.614 338.375C101.895 337.996 102.275 337.699 102.756 337.483C103.241 337.267 103.79 337.159 104.404 337.159C105.268 337.159 105.946 337.348 106.438 337.727C106.934 338.106 107.287 338.606 107.495 339.227ZM116.15 346L113.491 337.273H114.9L116.786 343.955H116.877L118.741 337.273H120.173L122.013 343.932H122.104L123.991 337.273H125.4L122.741 346H121.423L119.513 339.295H119.377L117.468 346H116.15ZM130.535 346.182C129.694 346.182 128.969 345.996 128.359 345.625C127.753 345.25 127.285 344.727 126.955 344.057C126.629 343.383 126.467 342.598 126.467 341.705C126.467 340.811 126.629 340.023 126.955 339.341C127.285 338.655 127.743 338.121 128.33 337.739C128.921 337.352 129.611 337.159 130.398 337.159C130.853 337.159 131.302 337.235 131.745 337.386C132.188 337.538 132.592 337.784 132.955 338.125C133.319 338.462 133.609 338.909 133.825 339.466C134.04 340.023 134.148 340.708 134.148 341.523V342.091H127.421V340.932H132.785C132.785 340.439 132.686 340 132.489 339.614C132.296 339.227 132.02 338.922 131.66 338.699C131.304 338.475 130.883 338.364 130.398 338.364C129.864 338.364 129.402 338.496 129.012 338.761C128.626 339.023 128.328 339.364 128.12 339.784C127.912 340.205 127.808 340.655 127.808 341.136V341.909C127.808 342.568 127.921 343.127 128.148 343.585C128.379 344.04 128.7 344.386 129.109 344.625C129.518 344.86 129.993 344.977 130.535 344.977C130.887 344.977 131.205 344.928 131.489 344.83C131.777 344.727 132.025 344.576 132.234 344.375C132.442 344.17 132.603 343.917 132.717 343.614L134.012 343.977C133.876 344.417 133.647 344.803 133.325 345.136C133.003 345.466 132.605 345.723 132.131 345.909C131.658 346.091 131.126 346.182 130.535 346.182ZM144.347 346.182C143.506 346.182 142.781 345.996 142.171 345.625C141.565 345.25 141.097 344.727 140.768 344.057C140.442 343.383 140.279 342.598 140.279 341.705C140.279 340.811 140.442 340.023 140.768 339.341C141.097 338.655 141.556 338.121 142.143 337.739C142.734 337.352 143.423 337.159 144.211 337.159C144.665 337.159 145.114 337.235 145.558 337.386C146.001 337.538 146.404 337.784 146.768 338.125C147.131 338.462 147.421 338.909 147.637 339.466C147.853 340.023 147.961 340.708 147.961 341.523V342.091H141.234V340.932H146.597C146.597 340.439 146.499 340 146.302 339.614C146.109 339.227 145.832 338.922 145.472 338.699C145.116 338.475 144.696 338.364 144.211 338.364C143.677 338.364 143.215 338.496 142.825 338.761C142.438 339.023 142.141 339.364 141.933 339.784C141.724 340.205 141.62 340.655 141.62 341.136V341.909C141.62 342.568 141.734 343.127 141.961 343.585C142.192 344.04 142.512 344.386 142.921 344.625C143.33 344.86 143.806 344.977 144.347 344.977C144.7 344.977 145.018 344.928 145.302 344.83C145.59 344.727 145.838 344.576 146.046 344.375C146.254 344.17 146.415 343.917 146.529 343.614L147.825 343.977C147.688 344.417 147.459 344.803 147.137 345.136C146.815 345.466 146.417 345.723 145.944 345.909C145.47 346.091 144.938 346.182 144.347 346.182ZM151.342 340.75V346H150.001V337.273H151.296V338.636H151.41C151.614 338.193 151.925 337.837 152.342 337.568C152.758 337.295 153.296 337.159 153.955 337.159C154.546 337.159 155.063 337.28 155.506 337.523C155.95 337.761 156.294 338.125 156.54 338.614C156.787 339.098 156.91 339.712 156.91 340.455V346H155.569V340.545C155.569 339.86 155.391 339.326 155.035 338.943C154.679 338.557 154.19 338.364 153.569 338.364C153.141 338.364 152.758 338.456 152.421 338.642C152.088 338.828 151.825 339.098 151.631 339.455C151.438 339.811 151.342 340.242 151.342 340.75ZM165.542 339.227L164.337 339.568C164.262 339.367 164.15 339.172 164.002 338.983C163.858 338.79 163.661 338.631 163.411 338.506C163.161 338.381 162.841 338.318 162.451 338.318C161.917 338.318 161.472 338.441 161.116 338.688C160.763 338.93 160.587 339.239 160.587 339.614C160.587 339.947 160.709 340.21 160.951 340.403C161.193 340.597 161.572 340.758 162.087 340.886L163.383 341.205C164.163 341.394 164.745 341.684 165.127 342.074C165.51 342.46 165.701 342.958 165.701 343.568C165.701 344.068 165.557 344.515 165.269 344.909C164.985 345.303 164.587 345.614 164.076 345.841C163.565 346.068 162.97 346.182 162.292 346.182C161.402 346.182 160.665 345.989 160.082 345.602C159.498 345.216 159.129 344.652 158.974 343.909L160.246 343.591C160.368 344.061 160.597 344.413 160.934 344.648C161.275 344.883 161.72 345 162.269 345C162.894 345 163.39 344.867 163.758 344.602C164.129 344.333 164.315 344.011 164.315 343.636C164.315 343.333 164.209 343.08 163.996 342.875C163.784 342.667 163.459 342.511 163.019 342.409L161.565 342.068C160.765 341.879 160.178 341.585 159.803 341.188C159.432 340.786 159.246 340.284 159.246 339.682C159.246 339.189 159.385 338.754 159.661 338.375C159.942 337.996 160.322 337.699 160.803 337.483C161.288 337.267 161.837 337.159 162.451 337.159C163.315 337.159 163.993 337.348 164.485 337.727C164.981 338.106 165.334 338.606 165.542 339.227ZM173.219 342.432V337.273H174.56V346H173.219V344.523H173.129C172.924 344.966 172.606 345.343 172.174 345.653C171.742 345.96 171.197 346.114 170.538 346.114C169.992 346.114 169.507 345.994 169.083 345.756C168.659 345.513 168.326 345.15 168.083 344.665C167.841 344.176 167.719 343.561 167.719 342.818V337.273H169.06V342.727C169.06 343.364 169.238 343.871 169.594 344.25C169.954 344.629 170.413 344.818 170.969 344.818C171.303 344.818 171.642 344.733 171.987 344.562C172.335 344.392 172.627 344.131 172.862 343.778C173.1 343.426 173.219 342.977 173.219 342.432ZM177.016 346V337.273H178.312V338.591H178.403C178.562 338.159 178.85 337.809 179.266 337.54C179.683 337.271 180.153 337.136 180.675 337.136C180.774 337.136 180.897 337.138 181.045 337.142C181.192 337.146 181.304 337.152 181.38 337.159V338.523C181.335 338.511 181.23 338.494 181.067 338.472C180.908 338.445 180.74 338.432 180.562 338.432C180.138 338.432 179.759 338.521 179.425 338.699C179.096 338.873 178.835 339.116 178.641 339.426C178.452 339.733 178.357 340.083 178.357 340.477V346H177.016ZM186.363 346.182C185.522 346.182 184.797 345.996 184.187 345.625C183.581 345.25 183.113 344.727 182.783 344.057C182.458 343.383 182.295 342.598 182.295 341.705C182.295 340.811 182.458 340.023 182.783 339.341C183.113 338.655 183.571 338.121 184.158 337.739C184.749 337.352 185.439 337.159 186.227 337.159C186.681 337.159 187.13 337.235 187.573 337.386C188.016 337.538 188.42 337.784 188.783 338.125C189.147 338.462 189.437 338.909 189.653 339.466C189.869 340.023 189.977 340.708 189.977 341.523V342.091H183.249V340.932H188.613C188.613 340.439 188.514 340 188.317 339.614C188.124 339.227 187.848 338.922 187.488 338.699C187.132 338.475 186.711 338.364 186.227 338.364C185.692 338.364 185.23 338.496 184.84 338.761C184.454 339.023 184.156 339.364 183.948 339.784C183.74 340.205 183.636 340.655 183.636 341.136V341.909C183.636 342.568 183.749 343.127 183.977 343.585C184.208 344.04 184.528 344.386 184.937 344.625C185.346 344.86 185.821 344.977 186.363 344.977C186.715 344.977 187.033 344.928 187.317 344.83C187.605 344.727 187.853 344.576 188.062 344.375C188.27 344.17 188.431 343.917 188.545 343.614L189.84 343.977C189.704 344.417 189.475 344.803 189.153 345.136C188.831 345.466 188.433 345.723 187.96 345.909C187.486 346.091 186.954 346.182 186.363 346.182ZM200.312 337.273V338.409H195.789V337.273H200.312ZM197.107 335.182H198.448V343.5C198.448 343.879 198.503 344.163 198.613 344.352C198.727 344.538 198.871 344.663 199.045 344.727C199.223 344.788 199.41 344.818 199.607 344.818C199.755 344.818 199.876 344.811 199.971 344.795C200.066 344.777 200.141 344.761 200.198 344.75L200.471 345.955C200.38 345.989 200.253 346.023 200.09 346.057C199.927 346.095 199.721 346.114 199.471 346.114C199.092 346.114 198.721 346.032 198.357 345.869C197.997 345.706 197.698 345.458 197.46 345.125C197.225 344.792 197.107 344.371 197.107 343.864V335.182ZM203.857 340.75V346H202.516V334.364H203.857V338.636H203.971C204.175 338.186 204.482 337.828 204.891 337.562C205.304 337.294 205.853 337.159 206.539 337.159C207.134 337.159 207.655 337.278 208.102 337.517C208.549 337.752 208.895 338.114 209.141 338.602C209.391 339.087 209.516 339.705 209.516 340.455V346H208.175V340.545C208.175 339.852 207.996 339.316 207.636 338.938C207.28 338.555 206.785 338.364 206.153 338.364C205.713 338.364 205.319 338.456 204.971 338.642C204.626 338.828 204.353 339.098 204.153 339.455C203.956 339.811 203.857 340.242 203.857 340.75ZM214.538 346.205C213.985 346.205 213.483 346.1 213.032 345.892C212.581 345.68 212.223 345.375 211.958 344.977C211.693 344.576 211.56 344.091 211.56 343.523C211.56 343.023 211.659 342.617 211.856 342.307C212.053 341.992 212.316 341.746 212.646 341.568C212.975 341.39 213.339 341.258 213.737 341.17C214.138 341.08 214.541 341.008 214.947 340.955C215.477 340.886 215.907 340.835 216.237 340.801C216.57 340.763 216.812 340.701 216.964 340.614C217.119 340.527 217.197 340.375 217.197 340.159V340.114C217.197 339.553 217.043 339.117 216.737 338.807C216.433 338.496 215.973 338.341 215.356 338.341C214.716 338.341 214.214 338.481 213.85 338.761C213.487 339.042 213.231 339.341 213.083 339.659L211.81 339.205C212.038 338.674 212.341 338.261 212.719 337.966C213.102 337.667 213.519 337.458 213.969 337.341C214.424 337.22 214.871 337.159 215.31 337.159C215.591 337.159 215.913 337.193 216.276 337.261C216.644 337.326 216.998 337.46 217.339 337.665C217.683 337.869 217.969 338.178 218.197 338.591C218.424 339.004 218.538 339.557 218.538 340.25V346H217.197V344.818H217.129C217.038 345.008 216.886 345.21 216.674 345.426C216.462 345.642 216.18 345.826 215.827 345.977C215.475 346.129 215.045 346.205 214.538 346.205ZM214.742 345C215.272 345 215.719 344.896 216.083 344.688C216.451 344.479 216.727 344.21 216.913 343.881C217.102 343.551 217.197 343.205 217.197 342.841V341.614C217.14 341.682 217.015 341.744 216.822 341.801C216.632 341.854 216.413 341.902 216.163 341.943C215.916 341.981 215.676 342.015 215.441 342.045C215.21 342.072 215.022 342.095 214.879 342.114C214.53 342.159 214.204 342.233 213.901 342.335C213.602 342.434 213.36 342.583 213.174 342.784C212.992 342.981 212.901 343.25 212.901 343.591C212.901 344.057 213.074 344.409 213.418 344.648C213.767 344.883 214.208 345 214.742 345ZM224.781 337.273V338.409H220.258V337.273H224.781ZM221.576 335.182H222.917V343.5C222.917 343.879 222.972 344.163 223.082 344.352C223.195 344.538 223.339 344.663 223.513 344.727C223.692 344.788 223.879 344.818 224.076 344.818C224.224 344.818 224.345 344.811 224.44 344.795C224.534 344.777 224.61 344.761 224.667 344.75L224.94 345.955C224.849 345.989 224.722 346.023 224.559 346.057C224.396 346.095 224.19 346.114 223.94 346.114C223.561 346.114 223.19 346.032 222.826 345.869C222.466 345.706 222.167 345.458 221.928 345.125C221.693 344.792 221.576 344.371 221.576 343.864V335.182ZM232.161 349.273C231.934 349.273 231.731 349.254 231.553 349.216C231.375 349.182 231.252 349.148 231.184 349.114L231.525 347.932C231.851 348.015 232.138 348.045 232.388 348.023C232.638 348 232.86 347.888 233.053 347.688C233.25 347.491 233.43 347.17 233.593 346.727L233.843 346.045L230.616 337.273H232.07L234.479 344.227H234.57L236.979 337.273H238.434L234.729 347.273C234.563 347.723 234.356 348.097 234.11 348.392C233.864 348.691 233.578 348.913 233.252 349.057C232.93 349.201 232.567 349.273 232.161 349.273ZM243.437 346.182C242.649 346.182 241.958 345.994 241.363 345.619C240.772 345.244 240.31 344.72 239.977 344.045C239.647 343.371 239.482 342.583 239.482 341.682C239.482 340.773 239.647 339.979 239.977 339.301C240.31 338.623 240.772 338.097 241.363 337.722C241.958 337.347 242.649 337.159 243.437 337.159C244.225 337.159 244.914 337.347 245.505 337.722C246.1 338.097 246.562 338.623 246.891 339.301C247.225 339.979 247.391 340.773 247.391 341.682C247.391 342.583 247.225 343.371 246.891 344.045C246.562 344.72 246.1 345.244 245.505 345.619C244.914 345.994 244.225 346.182 243.437 346.182ZM243.437 344.977C244.035 344.977 244.528 344.824 244.914 344.517C245.3 344.21 245.586 343.807 245.772 343.307C245.958 342.807 246.05 342.265 246.05 341.682C246.05 341.098 245.958 340.555 245.772 340.051C245.586 339.547 245.3 339.14 244.914 338.83C244.528 338.519 244.035 338.364 243.437 338.364C242.838 338.364 242.346 338.519 241.96 338.83C241.573 339.14 241.287 339.547 241.102 340.051C240.916 340.555 240.823 341.098 240.823 341.682C240.823 342.265 240.916 342.807 241.102 343.307C241.287 343.807 241.573 344.21 241.96 344.517C242.346 344.824 242.838 344.977 243.437 344.977ZM254.938 342.432V337.273H256.279V346H254.938V344.523H254.847C254.643 344.966 254.325 345.343 253.893 345.653C253.461 345.96 252.915 346.114 252.256 346.114C251.711 346.114 251.226 345.994 250.802 345.756C250.378 345.513 250.044 345.15 249.802 344.665C249.559 344.176 249.438 343.561 249.438 342.818V337.273H250.779V342.727C250.779 343.364 250.957 343.871 251.313 344.25C251.673 344.629 252.131 344.818 252.688 344.818C253.022 344.818 253.361 344.733 253.705 344.562C254.054 344.392 254.345 344.131 254.58 343.778C254.819 343.426 254.938 342.977 254.938 342.432ZM258.735 346V337.273H260.031V338.591H260.121C260.281 338.159 260.568 337.809 260.985 337.54C261.402 337.271 261.871 337.136 262.394 337.136C262.493 337.136 262.616 337.138 262.763 337.142C262.911 337.146 263.023 337.152 263.099 337.159V338.523C263.053 338.511 262.949 338.494 262.786 338.472C262.627 338.445 262.459 338.432 262.281 338.432C261.856 338.432 261.478 338.521 261.144 338.699C260.815 338.873 260.553 339.116 260.36 339.426C260.171 339.733 260.076 340.083 260.076 340.477V346H258.735ZM60.9844 368.455C60.3366 368.455 59.7798 368.371 59.3139 368.205C58.848 368.042 58.4598 367.826 58.1491 367.557C57.8423 367.292 57.598 367.008 57.4162 366.705L58.4844 365.955C58.6056 366.114 58.759 366.295 58.9446 366.5C59.1302 366.708 59.384 366.888 59.706 367.04C60.0317 367.195 60.4579 367.273 60.9844 367.273C61.6889 367.273 62.2704 367.102 62.7287 366.761C63.187 366.42 63.4162 365.886 63.4162 365.159V363.386H63.3026C63.2041 363.545 63.0639 363.742 62.8821 363.977C62.7041 364.208 62.4465 364.415 62.1094 364.597C61.776 364.775 61.3253 364.864 60.7571 364.864C60.0526 364.864 59.42 364.697 58.8594 364.364C58.3026 364.03 57.8613 363.545 57.5355 362.909C57.2135 362.273 57.0526 361.5 57.0526 360.591C57.0526 359.697 57.2098 358.919 57.5241 358.256C57.8385 357.589 58.276 357.074 58.8366 356.71C59.3973 356.343 60.045 356.159 60.7798 356.159C61.348 356.159 61.7988 356.254 62.1321 356.443C62.4692 356.629 62.7268 356.841 62.9048 357.08C63.0866 357.314 63.2268 357.508 63.3253 357.659H63.4616V356.273H64.7571V365.25C64.7571 366 64.5866 366.61 64.2457 367.08C63.9086 367.553 63.4541 367.9 62.8821 368.119C62.3139 368.343 61.6813 368.455 60.9844 368.455ZM60.9389 363.659C61.4768 363.659 61.9313 363.536 62.3026 363.29C62.6738 363.044 62.956 362.689 63.1491 362.227C63.3423 361.765 63.4389 361.212 63.4389 360.568C63.4389 359.939 63.3442 359.384 63.1548 358.903C62.9654 358.422 62.6851 358.045 62.3139 357.773C61.9427 357.5 61.4844 357.364 60.9389 357.364C60.3707 357.364 59.8973 357.508 59.5185 357.795C59.1435 358.083 58.8613 358.47 58.6719 358.955C58.4863 359.439 58.3935 359.977 58.3935 360.568C58.3935 361.174 58.4882 361.71 58.6776 362.176C58.8707 362.638 59.1548 363.002 59.5298 363.267C59.9086 363.528 60.3783 363.659 60.9389 363.659ZM70.7571 365.182C69.9692 365.182 69.2779 364.994 68.6832 364.619C68.0923 364.244 67.6302 363.72 67.2969 363.045C66.9673 362.371 66.8026 361.583 66.8026 360.682C66.8026 359.773 66.9673 358.979 67.2969 358.301C67.6302 357.623 68.0923 357.097 68.6832 356.722C69.2779 356.347 69.9692 356.159 70.7571 356.159C71.545 356.159 72.2344 356.347 72.8253 356.722C73.42 357.097 73.8821 357.623 74.2116 358.301C74.545 358.979 74.7116 359.773 74.7116 360.682C74.7116 361.583 74.545 362.371 74.2116 363.045C73.8821 363.72 73.42 364.244 72.8253 364.619C72.2344 364.994 71.545 365.182 70.7571 365.182ZM70.7571 363.977C71.3556 363.977 71.848 363.824 72.2344 363.517C72.6207 363.21 72.9067 362.807 73.0923 362.307C73.2779 361.807 73.3707 361.265 73.3707 360.682C73.3707 360.098 73.2779 359.555 73.0923 359.051C72.9067 358.547 72.6207 358.14 72.2344 357.83C71.848 357.519 71.3556 357.364 70.7571 357.364C70.1586 357.364 69.6662 357.519 69.2798 357.83C68.8935 358.14 68.6075 358.547 68.4219 359.051C68.2363 359.555 68.1435 360.098 68.1435 360.682C68.1435 361.265 68.2363 361.807 68.4219 362.307C68.6075 362.807 68.8935 363.21 69.2798 363.517C69.6662 363.824 70.1586 363.977 70.7571 363.977ZM80.304 365.182C79.5161 365.182 78.8248 364.994 78.2301 364.619C77.6392 364.244 77.1771 363.72 76.8438 363.045C76.5142 362.371 76.3494 361.583 76.3494 360.682C76.3494 359.773 76.5142 358.979 76.8438 358.301C77.1771 357.623 77.6392 357.097 78.2301 356.722C78.8248 356.347 79.5161 356.159 80.304 356.159C81.0919 356.159 81.7813 356.347 82.3722 356.722C82.9669 357.097 83.429 357.623 83.7585 358.301C84.0919 358.979 84.2585 359.773 84.2585 360.682C84.2585 361.583 84.0919 362.371 83.7585 363.045C83.429 363.72 82.9669 364.244 82.3722 364.619C81.7813 364.994 81.0919 365.182 80.304 365.182ZM80.304 363.977C80.9025 363.977 81.3949 363.824 81.7812 363.517C82.1676 363.21 82.4536 362.807 82.6392 362.307C82.8248 361.807 82.9176 361.265 82.9176 360.682C82.9176 360.098 82.8248 359.555 82.6392 359.051C82.4536 358.547 82.1676 358.14 81.7812 357.83C81.3949 357.519 80.9025 357.364 80.304 357.364C79.7055 357.364 79.2131 357.519 78.8267 357.83C78.4403 358.14 78.1544 358.547 77.9688 359.051C77.7831 359.555 77.6903 360.098 77.6903 360.682C77.6903 361.265 77.7831 361.807 77.9688 362.307C78.1544 362.807 78.4403 363.21 78.8267 363.517C79.2131 363.824 79.7055 363.977 80.304 363.977ZM89.6009 365.182C88.8736 365.182 88.2315 364.998 87.6747 364.631C87.1179 364.259 86.6823 363.737 86.3679 363.062C86.0535 362.384 85.8963 361.583 85.8963 360.659C85.8963 359.742 86.0535 358.947 86.3679 358.273C86.6823 357.598 87.1198 357.078 87.6804 356.71C88.241 356.343 88.8887 356.159 89.6236 356.159C90.1918 356.159 90.6406 356.254 90.9702 356.443C91.3035 356.629 91.5573 356.841 91.7315 357.08C91.9096 357.314 92.0478 357.508 92.1463 357.659H92.2599V353.364H93.6009V365H92.3054V363.659H92.1463C92.0478 363.818 91.9077 364.019 91.7259 364.261C91.544 364.5 91.2846 364.714 90.9474 364.903C90.6103 365.089 90.1615 365.182 89.6009 365.182ZM89.7827 363.977C90.3205 363.977 90.7751 363.837 91.1463 363.557C91.5175 363.273 91.7997 362.881 91.9929 362.381C92.1861 361.877 92.2827 361.295 92.2827 360.636C92.2827 359.985 92.188 359.415 91.9986 358.926C91.8092 358.434 91.5289 358.051 91.1577 357.778C90.7865 357.502 90.3281 357.364 89.7827 357.364C89.2145 357.364 88.741 357.509 88.3622 357.801C87.9872 358.089 87.705 358.481 87.5156 358.977C87.33 359.47 87.2372 360.023 87.2372 360.636C87.2372 361.258 87.3319 361.822 87.5213 362.33C87.7145 362.833 87.9986 363.235 88.3736 363.534C88.7524 363.83 89.2221 363.977 89.7827 363.977ZM102.425 358.227L101.22 358.568C101.144 358.367 101.033 358.172 100.885 357.983C100.741 357.79 100.544 357.631 100.294 357.506C100.044 357.381 99.724 357.318 99.3338 357.318C98.7997 357.318 98.3546 357.441 97.9986 357.688C97.6463 357.93 97.4702 358.239 97.4702 358.614C97.4702 358.947 97.5914 359.21 97.8338 359.403C98.0762 359.597 98.455 359.758 98.9702 359.886L100.266 360.205C101.046 360.394 101.627 360.684 102.01 361.074C102.393 361.46 102.584 361.958 102.584 362.568C102.584 363.068 102.44 363.515 102.152 363.909C101.868 364.303 101.47 364.614 100.959 364.841C100.447 365.068 99.8527 365.182 99.1747 365.182C98.2846 365.182 97.5478 364.989 96.9645 364.602C96.3812 364.216 96.0118 363.652 95.8565 362.909L97.1293 362.591C97.2505 363.061 97.4796 363.413 97.8168 363.648C98.1577 363.883 98.6027 364 99.152 364C99.777 364 100.273 363.867 100.641 363.602C101.012 363.333 101.197 363.011 101.197 362.636C101.197 362.333 101.091 362.08 100.879 361.875C100.667 361.667 100.341 361.511 99.902 361.409L98.4474 361.068C97.6482 360.879 97.0611 360.585 96.6861 360.188C96.3149 359.786 96.1293 359.284 96.1293 358.682C96.1293 358.189 96.2675 357.754 96.544 357.375C96.8243 356.996 97.205 356.699 97.6861 356.483C98.1709 356.267 98.7202 356.159 99.3338 356.159C100.197 356.159 100.875 356.348 101.368 356.727C101.864 357.106 102.216 357.606 102.425 358.227ZM111.67 365.205C111.117 365.205 110.616 365.1 110.165 364.892C109.714 364.68 109.356 364.375 109.091 363.977C108.826 363.576 108.693 363.091 108.693 362.523C108.693 362.023 108.792 361.617 108.989 361.307C109.186 360.992 109.449 360.746 109.778 360.568C110.108 360.39 110.472 360.258 110.869 360.17C111.271 360.08 111.674 360.008 112.08 359.955C112.61 359.886 113.04 359.835 113.369 359.801C113.703 359.763 113.945 359.701 114.097 359.614C114.252 359.527 114.33 359.375 114.33 359.159V359.114C114.33 358.553 114.176 358.117 113.869 357.807C113.566 357.496 113.106 357.341 112.489 357.341C111.848 357.341 111.347 357.481 110.983 357.761C110.619 358.042 110.364 358.341 110.216 358.659L108.943 358.205C109.17 357.674 109.473 357.261 109.852 356.966C110.235 356.667 110.652 356.458 111.102 356.341C111.557 356.22 112.004 356.159 112.443 356.159C112.723 356.159 113.045 356.193 113.409 356.261C113.777 356.326 114.131 356.46 114.472 356.665C114.816 356.869 115.102 357.178 115.33 357.591C115.557 358.004 115.67 358.557 115.67 359.25V365H114.33V363.818H114.261C114.17 364.008 114.019 364.21 113.807 364.426C113.595 364.642 113.313 364.826 112.96 364.977C112.608 365.129 112.178 365.205 111.67 365.205ZM111.875 364C112.405 364 112.852 363.896 113.216 363.688C113.583 363.479 113.86 363.21 114.045 362.881C114.235 362.551 114.33 362.205 114.33 361.841V360.614C114.273 360.682 114.148 360.744 113.955 360.801C113.765 360.854 113.545 360.902 113.295 360.943C113.049 360.981 112.809 361.015 112.574 361.045C112.343 361.072 112.155 361.095 112.011 361.114C111.663 361.159 111.337 361.233 111.034 361.335C110.735 361.434 110.492 361.583 110.307 361.784C110.125 361.981 110.034 362.25 110.034 362.591C110.034 363.057 110.206 363.409 110.551 363.648C110.9 363.883 111.341 364 111.875 364ZM118.118 365V356.273H119.413V357.591H119.504C119.663 357.159 119.951 356.809 120.368 356.54C120.785 356.271 121.254 356.136 121.777 356.136C121.875 356.136 121.999 356.138 122.146 356.142C122.294 356.146 122.406 356.152 122.482 356.159V357.523C122.436 357.511 122.332 357.494 122.169 357.472C122.01 357.445 121.841 357.432 121.663 357.432C121.239 357.432 120.86 357.521 120.527 357.699C120.197 357.873 119.936 358.116 119.743 358.426C119.554 358.733 119.459 359.083 119.459 359.477V365H118.118ZM127.464 365.182C126.624 365.182 125.898 364.996 125.288 364.625C124.682 364.25 124.214 363.727 123.885 363.057C123.559 362.383 123.396 361.598 123.396 360.705C123.396 359.811 123.559 359.023 123.885 358.341C124.214 357.655 124.673 357.121 125.26 356.739C125.851 356.352 126.54 356.159 127.328 356.159C127.783 356.159 128.232 356.235 128.675 356.386C129.118 356.538 129.521 356.784 129.885 357.125C130.249 357.462 130.538 357.909 130.754 358.466C130.97 359.023 131.078 359.708 131.078 360.523V361.091H124.351V359.932H129.714C129.714 359.439 129.616 359 129.419 358.614C129.226 358.227 128.949 357.922 128.589 357.699C128.233 357.475 127.813 357.364 127.328 357.364C126.794 357.364 126.332 357.496 125.942 357.761C125.555 358.023 125.258 358.364 125.05 358.784C124.841 359.205 124.737 359.655 124.737 360.136V360.909C124.737 361.568 124.851 362.127 125.078 362.585C125.309 363.04 125.629 363.386 126.038 363.625C126.447 363.86 126.923 363.977 127.464 363.977C127.817 363.977 128.135 363.928 128.419 363.83C128.707 363.727 128.955 363.576 129.163 363.375C129.372 363.17 129.533 362.917 129.646 362.614L130.942 362.977C130.805 363.417 130.576 363.803 130.254 364.136C129.932 364.466 129.535 364.723 129.061 364.909C128.588 365.091 128.055 365.182 127.464 365.182ZM140.913 365.182C140.186 365.182 139.544 364.998 138.987 364.631C138.43 364.259 137.995 363.737 137.68 363.062C137.366 362.384 137.209 361.583 137.209 360.659C137.209 359.742 137.366 358.947 137.68 358.273C137.995 357.598 138.432 357.078 138.993 356.71C139.554 356.343 140.201 356.159 140.936 356.159C141.504 356.159 141.953 356.254 142.283 356.443C142.616 356.629 142.87 356.841 143.044 357.08C143.222 357.314 143.36 357.508 143.459 357.659H143.572V353.364H144.913V365H143.618V363.659H143.459C143.36 363.818 143.22 364.019 143.038 364.261C142.857 364.5 142.597 364.714 142.26 364.903C141.923 365.089 141.474 365.182 140.913 365.182ZM141.095 363.977C141.633 363.977 142.088 363.837 142.459 363.557C142.83 363.273 143.112 362.881 143.305 362.381C143.499 361.877 143.595 361.295 143.595 360.636C143.595 359.985 143.5 359.415 143.311 358.926C143.122 358.434 142.841 358.051 142.47 357.778C142.099 357.502 141.641 357.364 141.095 357.364C140.527 357.364 140.054 357.509 139.675 357.801C139.3 358.089 139.018 358.481 138.828 358.977C138.643 359.47 138.55 360.023 138.55 360.636C138.55 361.258 138.644 361.822 138.834 362.33C139.027 362.833 139.311 363.235 139.686 363.534C140.065 363.83 140.535 363.977 141.095 363.977ZM151.214 365.182C150.374 365.182 149.648 364.996 149.038 364.625C148.432 364.25 147.964 363.727 147.635 363.057C147.309 362.383 147.146 361.598 147.146 360.705C147.146 359.811 147.309 359.023 147.635 358.341C147.964 357.655 148.423 357.121 149.01 356.739C149.601 356.352 150.29 356.159 151.078 356.159C151.533 356.159 151.982 356.235 152.425 356.386C152.868 356.538 153.271 356.784 153.635 357.125C153.999 357.462 154.288 357.909 154.504 358.466C154.72 359.023 154.828 359.708 154.828 360.523V361.091H148.101V359.932H153.464C153.464 359.439 153.366 359 153.169 358.614C152.976 358.227 152.699 357.922 152.339 357.699C151.983 357.475 151.563 357.364 151.078 357.364C150.544 357.364 150.082 357.496 149.692 357.761C149.305 358.023 149.008 358.364 148.8 358.784C148.591 359.205 148.487 359.655 148.487 360.136V360.909C148.487 361.568 148.601 362.127 148.828 362.585C149.059 363.04 149.379 363.386 149.788 363.625C150.197 363.86 150.673 363.977 151.214 363.977C151.567 363.977 151.885 363.928 152.169 363.83C152.457 363.727 152.705 363.576 152.913 363.375C153.122 363.17 153.283 362.917 153.396 362.614L154.692 362.977C154.555 363.417 154.326 363.803 154.004 364.136C153.682 364.466 153.285 364.723 152.811 364.909C152.338 365.091 151.805 365.182 151.214 365.182ZM158.209 353.364V365H156.868V353.364H158.209ZM160.665 365V356.273H162.006V365H160.665ZM161.347 354.818C161.085 354.818 160.86 354.729 160.67 354.551C160.485 354.373 160.392 354.159 160.392 353.909C160.392 353.659 160.485 353.445 160.67 353.267C160.86 353.089 161.085 353 161.347 353C161.608 353 161.831 353.089 162.017 353.267C162.206 353.445 162.301 353.659 162.301 353.909C162.301 354.159 162.206 354.373 162.017 354.551C161.831 354.729 161.608 354.818 161.347 354.818ZM171.598 356.273L168.371 365H167.007L163.78 356.273H165.234L167.643 363.227H167.734L170.143 356.273H171.598ZM176.714 365.182C175.874 365.182 175.148 364.996 174.538 364.625C173.932 364.25 173.464 363.727 173.135 363.057C172.809 362.383 172.646 361.598 172.646 360.705C172.646 359.811 172.809 359.023 173.135 358.341C173.464 357.655 173.923 357.121 174.51 356.739C175.101 356.352 175.79 356.159 176.578 356.159C177.033 356.159 177.482 356.235 177.925 356.386C178.368 356.538 178.771 356.784 179.135 357.125C179.499 357.462 179.788 357.909 180.004 358.466C180.22 359.023 180.328 359.708 180.328 360.523V361.091H173.601V359.932H178.964C178.964 359.439 178.866 359 178.669 358.614C178.476 358.227 178.199 357.922 177.839 357.699C177.483 357.475 177.063 357.364 176.578 357.364C176.044 357.364 175.582 357.496 175.192 357.761C174.805 358.023 174.508 358.364 174.3 358.784C174.091 359.205 173.987 359.655 173.987 360.136V360.909C173.987 361.568 174.101 362.127 174.328 362.585C174.559 363.04 174.879 363.386 175.288 363.625C175.697 363.86 176.173 363.977 176.714 363.977C177.067 363.977 177.385 363.928 177.669 363.83C177.957 363.727 178.205 363.576 178.413 363.375C178.622 363.17 178.783 362.917 178.896 362.614L180.192 362.977C180.055 363.417 179.826 363.803 179.504 364.136C179.182 364.466 178.785 364.723 178.311 364.909C177.838 365.091 177.305 365.182 176.714 365.182ZM182.368 365V356.273H183.663V357.591H183.754C183.913 357.159 184.201 356.809 184.618 356.54C185.035 356.271 185.504 356.136 186.027 356.136C186.125 356.136 186.249 356.138 186.396 356.142C186.544 356.146 186.656 356.152 186.732 356.159V357.523C186.686 357.511 186.582 357.494 186.419 357.472C186.26 357.445 186.091 357.432 185.913 357.432C185.489 357.432 185.11 357.521 184.777 357.699C184.447 357.873 184.186 358.116 183.993 358.426C183.804 358.733 183.709 359.083 183.709 359.477V365H182.368ZM191.714 365.182C190.874 365.182 190.148 364.996 189.538 364.625C188.932 364.25 188.464 363.727 188.135 363.057C187.809 362.383 187.646 361.598 187.646 360.705C187.646 359.811 187.809 359.023 188.135 358.341C188.464 357.655 188.923 357.121 189.51 356.739C190.101 356.352 190.79 356.159 191.578 356.159C192.033 356.159 192.482 356.235 192.925 356.386C193.368 356.538 193.771 356.784 194.135 357.125C194.499 357.462 194.788 357.909 195.004 358.466C195.22 359.023 195.328 359.708 195.328 360.523V361.091H188.601V359.932H193.964C193.964 359.439 193.866 359 193.669 358.614C193.476 358.227 193.199 357.922 192.839 357.699C192.483 357.475 192.063 357.364 191.578 357.364C191.044 357.364 190.582 357.496 190.192 357.761C189.805 358.023 189.508 358.364 189.3 358.784C189.091 359.205 188.987 359.655 188.987 360.136V360.909C188.987 361.568 189.101 362.127 189.328 362.585C189.559 363.04 189.879 363.386 190.288 363.625C190.697 363.86 191.173 363.977 191.714 363.977C192.067 363.977 192.385 363.928 192.669 363.83C192.957 363.727 193.205 363.576 193.413 363.375C193.622 363.17 193.783 362.917 193.896 362.614L195.192 362.977C195.055 363.417 194.826 363.803 194.504 364.136C194.182 364.466 193.785 364.723 193.311 364.909C192.838 365.091 192.305 365.182 191.714 365.182ZM200.663 365.182C199.936 365.182 199.294 364.998 198.737 364.631C198.18 364.259 197.745 363.737 197.43 363.062C197.116 362.384 196.959 361.583 196.959 360.659C196.959 359.742 197.116 358.947 197.43 358.273C197.745 357.598 198.182 357.078 198.743 356.71C199.304 356.343 199.951 356.159 200.686 356.159C201.254 356.159 201.703 356.254 202.033 356.443C202.366 356.629 202.62 356.841 202.794 357.08C202.972 357.314 203.11 357.508 203.209 357.659H203.322V353.364H204.663V365H203.368V363.659H203.209C203.11 363.818 202.97 364.019 202.788 364.261C202.607 364.5 202.347 364.714 202.01 364.903C201.673 365.089 201.224 365.182 200.663 365.182ZM200.845 363.977C201.383 363.977 201.838 363.837 202.209 363.557C202.58 363.273 202.862 362.881 203.055 362.381C203.249 361.877 203.345 361.295 203.345 360.636C203.345 359.985 203.25 359.415 203.061 358.926C202.872 358.434 202.591 358.051 202.22 357.778C201.849 357.502 201.391 357.364 200.845 357.364C200.277 357.364 199.804 357.509 199.425 357.801C199.05 358.089 198.768 358.481 198.578 358.977C198.393 359.47 198.3 360.023 198.3 360.636C198.3 361.258 198.394 361.822 198.584 362.33C198.777 362.833 199.061 363.235 199.436 363.534C199.815 363.83 200.285 363.977 200.845 363.977ZM217.76 368.273V363.659H217.646C217.548 363.818 217.408 364.019 217.226 364.261C217.044 364.5 216.785 364.714 216.447 364.903C216.11 365.089 215.661 365.182 215.101 365.182C214.374 365.182 213.732 364.998 213.175 364.631C212.618 364.259 212.182 363.737 211.868 363.062C211.554 362.384 211.396 361.583 211.396 360.659C211.396 359.742 211.554 358.947 211.868 358.273C212.182 357.598 212.62 357.078 213.18 356.71C213.741 356.343 214.389 356.159 215.124 356.159C215.692 356.159 216.141 356.254 216.47 356.443C216.804 356.629 217.057 356.841 217.232 357.08C217.41 357.314 217.548 357.508 217.646 357.659H217.805V356.273H219.101V368.273H217.76ZM215.283 363.977C215.821 363.977 216.275 363.837 216.646 363.557C217.018 363.273 217.3 362.881 217.493 362.381C217.686 361.877 217.783 361.295 217.783 360.636C217.783 359.985 217.688 359.415 217.499 358.926C217.309 358.434 217.029 358.051 216.658 357.778C216.286 357.502 215.828 357.364 215.283 357.364C214.714 357.364 214.241 357.509 213.862 357.801C213.487 358.089 213.205 358.481 213.016 358.977C212.83 359.47 212.737 360.023 212.737 360.636C212.737 361.258 212.832 361.822 213.021 362.33C213.214 362.833 213.499 363.235 213.874 363.534C214.252 363.83 214.722 363.977 215.283 363.977ZM227.055 361.432V356.273H228.396V365H227.055V363.523H226.964C226.76 363.966 226.442 364.343 226.01 364.653C225.578 364.96 225.033 365.114 224.374 365.114C223.828 365.114 223.343 364.994 222.919 364.756C222.495 364.513 222.161 364.15 221.919 363.665C221.677 363.176 221.555 362.561 221.555 361.818V356.273H222.896V361.727C222.896 362.364 223.074 362.871 223.43 363.25C223.79 363.629 224.249 363.818 224.805 363.818C225.139 363.818 225.478 363.733 225.822 363.562C226.171 363.392 226.463 363.131 226.697 362.778C226.936 362.426 227.055 361.977 227.055 361.432ZM230.852 365V356.273H232.193V365H230.852ZM231.534 354.818C231.273 354.818 231.047 354.729 230.858 354.551C230.672 354.373 230.58 354.159 230.58 353.909C230.58 353.659 230.672 353.445 230.858 353.267C231.047 353.089 231.273 353 231.534 353C231.795 353 232.019 353.089 232.205 353.267C232.394 353.445 232.489 353.659 232.489 353.909C232.489 354.159 232.394 354.373 232.205 354.551C232.019 354.729 231.795 354.818 231.534 354.818ZM238.195 365.182C237.376 365.182 236.672 364.989 236.081 364.602C235.49 364.216 235.036 363.684 234.717 363.006C234.399 362.328 234.24 361.553 234.24 360.682C234.24 359.795 234.403 359.013 234.729 358.335C235.058 357.653 235.517 357.121 236.104 356.739C236.695 356.352 237.384 356.159 238.172 356.159C238.786 356.159 239.339 356.273 239.831 356.5C240.323 356.727 240.727 357.045 241.041 357.455C241.356 357.864 241.551 358.341 241.626 358.886H240.286C240.183 358.489 239.956 358.136 239.604 357.83C239.255 357.519 238.786 357.364 238.195 357.364C237.672 357.364 237.214 357.5 236.82 357.773C236.429 358.042 236.125 358.422 235.905 358.915C235.689 359.403 235.581 359.977 235.581 360.636C235.581 361.311 235.687 361.898 235.899 362.398C236.115 362.898 236.418 363.286 236.808 363.562C237.202 363.839 237.664 363.977 238.195 363.977C238.543 363.977 238.859 363.917 239.143 363.795C239.428 363.674 239.668 363.5 239.865 363.273C240.062 363.045 240.202 362.773 240.286 362.455H241.626C241.551 362.97 241.363 363.434 241.064 363.847C240.768 364.256 240.376 364.581 239.888 364.824C239.403 365.062 238.839 365.182 238.195 365.182ZM244.837 361.818L244.814 360.159H245.087L248.905 356.273H250.564L246.496 360.386H246.382L244.837 361.818ZM243.587 365V353.364H244.928V365H243.587ZM249.132 365L245.723 360.682L246.678 359.75L250.837 365H249.132ZM253.631 353.364V365H252.29V353.364H253.631ZM256.95 368.273C256.723 368.273 256.52 368.254 256.342 368.216C256.164 368.182 256.041 368.148 255.973 368.114L256.314 366.932C256.64 367.015 256.928 367.045 257.178 367.023C257.428 367 257.649 366.888 257.842 366.688C258.039 366.491 258.219 366.17 258.382 365.727L258.632 365.045L255.405 356.273H256.859L259.268 363.227H259.359L261.768 356.273H263.223L259.518 366.273C259.352 366.723 259.145 367.097 258.899 367.392C258.653 367.691 258.367 367.913 258.041 368.057C257.719 368.201 257.356 368.273 256.95 368.273ZM88.7649 375.273V376.409H84.2422V375.273H88.7649ZM85.5604 373.182H86.9013V381.5C86.9013 381.879 86.9562 382.163 87.0661 382.352C87.1797 382.538 87.3236 382.663 87.4979 382.727C87.6759 382.788 87.8634 382.818 88.0604 382.818C88.2081 382.818 88.3293 382.811 88.424 382.795C88.5187 382.777 88.5945 382.761 88.6513 382.75L88.924 383.955C88.8331 383.989 88.7062 384.023 88.5433 384.057C88.3804 384.095 88.174 384.114 87.924 384.114C87.5452 384.114 87.174 384.032 86.8104 383.869C86.4505 383.706 86.1513 383.458 85.9126 383.125C85.6778 382.792 85.5604 382.371 85.5604 381.864V373.182ZM94.2337 384.182C93.4458 384.182 92.7545 383.994 92.1598 383.619C91.5689 383.244 91.1068 382.72 90.7734 382.045C90.4439 381.371 90.2791 380.583 90.2791 379.682C90.2791 378.773 90.4439 377.979 90.7734 377.301C91.1068 376.623 91.5689 376.097 92.1598 375.722C92.7545 375.347 93.4458 375.159 94.2337 375.159C95.0215 375.159 95.7109 375.347 96.3018 375.722C96.8965 376.097 97.3587 376.623 97.6882 377.301C98.0215 377.979 98.1882 378.773 98.1882 379.682C98.1882 380.583 98.0215 381.371 97.6882 382.045C97.3587 382.72 96.8965 383.244 96.3018 383.619C95.7109 383.994 95.0215 384.182 94.2337 384.182ZM94.2337 382.977C94.8321 382.977 95.3246 382.824 95.7109 382.517C96.0973 382.21 96.3833 381.807 96.5689 381.307C96.7545 380.807 96.8473 380.265 96.8473 379.682C96.8473 379.098 96.7545 378.555 96.5689 378.051C96.3833 377.547 96.0973 377.14 95.7109 376.83C95.3246 376.519 94.8321 376.364 94.2337 376.364C93.6352 376.364 93.1428 376.519 92.7564 376.83C92.37 377.14 92.084 377.547 91.8984 378.051C91.7128 378.555 91.62 379.098 91.62 379.682C91.62 380.265 91.7128 380.807 91.8984 381.307C92.084 381.807 92.37 382.21 92.7564 382.517C93.1428 382.824 93.6352 382.977 94.2337 382.977ZM108.531 375.273V376.409H104.008V375.273H108.531ZM105.326 373.182H106.667V381.5C106.667 381.879 106.722 382.163 106.832 382.352C106.945 382.538 107.089 382.663 107.263 382.727C107.442 382.788 107.629 382.818 107.826 382.818C107.974 382.818 108.095 382.811 108.19 382.795C108.284 382.777 108.36 382.761 108.417 382.75L108.69 383.955C108.599 383.989 108.472 384.023 108.309 384.057C108.146 384.095 107.94 384.114 107.69 384.114C107.311 384.114 106.94 384.032 106.576 383.869C106.216 383.706 105.917 383.458 105.678 383.125C105.443 382.792 105.326 382.371 105.326 381.864V373.182ZM112.076 378.75V384H110.735V372.364H112.076V376.636H112.19C112.394 376.186 112.701 375.828 113.11 375.562C113.523 375.294 114.072 375.159 114.758 375.159C115.353 375.159 115.873 375.278 116.32 375.517C116.767 375.752 117.114 376.114 117.36 376.602C117.61 377.087 117.735 377.705 117.735 378.455V384H116.394V378.545C116.394 377.852 116.214 377.316 115.854 376.938C115.498 376.555 115.004 376.364 114.371 376.364C113.932 376.364 113.538 376.456 113.19 376.642C112.845 376.828 112.572 377.098 112.371 377.455C112.174 377.811 112.076 378.242 112.076 378.75ZM123.847 384.182C123.006 384.182 122.281 383.996 121.671 383.625C121.065 383.25 120.597 382.727 120.268 382.057C119.942 381.383 119.779 380.598 119.779 379.705C119.779 378.811 119.942 378.023 120.268 377.341C120.597 376.655 121.056 376.121 121.643 375.739C122.234 375.352 122.923 375.159 123.711 375.159C124.165 375.159 124.614 375.235 125.058 375.386C125.501 375.538 125.904 375.784 126.268 376.125C126.631 376.462 126.921 376.909 127.137 377.466C127.353 378.023 127.461 378.708 127.461 379.523V380.091H120.734V378.932H126.097C126.097 378.439 125.999 378 125.802 377.614C125.609 377.227 125.332 376.922 124.972 376.699C124.616 376.475 124.196 376.364 123.711 376.364C123.177 376.364 122.715 376.496 122.325 376.761C121.938 377.023 121.641 377.364 121.433 377.784C121.224 378.205 121.12 378.655 121.12 379.136V379.909C121.12 380.568 121.234 381.127 121.461 381.585C121.692 382.04 122.012 382.386 122.421 382.625C122.83 382.86 123.306 382.977 123.847 382.977C124.2 382.977 124.518 382.928 124.802 382.83C125.09 382.727 125.338 382.576 125.546 382.375C125.754 382.17 125.915 381.917 126.029 381.614L127.325 381.977C127.188 382.417 126.959 382.803 126.637 383.136C126.315 383.466 125.917 383.723 125.444 383.909C124.97 384.091 124.438 384.182 123.847 384.182ZM134.001 384V375.273H135.296V376.591H135.387C135.546 376.159 135.834 375.809 136.251 375.54C136.667 375.271 137.137 375.136 137.66 375.136C137.758 375.136 137.881 375.138 138.029 375.142C138.177 375.146 138.289 375.152 138.364 375.159V376.523C138.319 376.511 138.215 376.494 138.052 376.472C137.893 376.445 137.724 376.432 137.546 376.432C137.122 376.432 136.743 376.521 136.41 376.699C136.08 376.873 135.819 377.116 135.626 377.426C135.436 377.733 135.342 378.083 135.342 378.477V384H134.001ZM139.954 384V375.273H141.295V384H139.954ZM140.636 373.818C140.374 373.818 140.149 373.729 139.96 373.551C139.774 373.373 139.681 373.159 139.681 372.909C139.681 372.659 139.774 372.445 139.96 372.267C140.149 372.089 140.374 372 140.636 372C140.897 372 141.121 372.089 141.306 372.267C141.496 372.445 141.59 372.659 141.59 372.909C141.59 373.159 141.496 373.373 141.306 373.551C141.121 373.729 140.897 373.818 140.636 373.818ZM147.273 387.455C146.626 387.455 146.069 387.371 145.603 387.205C145.137 387.042 144.749 386.826 144.438 386.557C144.131 386.292 143.887 386.008 143.705 385.705L144.773 384.955C144.895 385.114 145.048 385.295 145.234 385.5C145.419 385.708 145.673 385.888 145.995 386.04C146.321 386.195 146.747 386.273 147.273 386.273C147.978 386.273 148.559 386.102 149.018 385.761C149.476 385.42 149.705 384.886 149.705 384.159V382.386H149.592C149.493 382.545 149.353 382.742 149.171 382.977C148.993 383.208 148.736 383.415 148.398 383.597C148.065 383.775 147.614 383.864 147.046 383.864C146.342 383.864 145.709 383.697 145.148 383.364C144.592 383.03 144.15 382.545 143.825 381.909C143.503 381.273 143.342 380.5 143.342 379.591C143.342 378.697 143.499 377.919 143.813 377.256C144.128 376.589 144.565 376.074 145.126 375.71C145.686 375.343 146.334 375.159 147.069 375.159C147.637 375.159 148.088 375.254 148.421 375.443C148.758 375.629 149.016 375.841 149.194 376.08C149.376 376.314 149.516 376.508 149.614 376.659H149.751V375.273H151.046V384.25C151.046 385 150.876 385.61 150.535 386.08C150.198 386.553 149.743 386.9 149.171 387.119C148.603 387.343 147.97 387.455 147.273 387.455ZM147.228 382.659C147.766 382.659 148.22 382.536 148.592 382.29C148.963 382.044 149.245 381.689 149.438 381.227C149.631 380.765 149.728 380.212 149.728 379.568C149.728 378.939 149.633 378.384 149.444 377.903C149.254 377.422 148.974 377.045 148.603 376.773C148.232 376.5 147.773 376.364 147.228 376.364C146.66 376.364 146.186 376.508 145.808 376.795C145.433 377.083 145.15 377.47 144.961 377.955C144.775 378.439 144.683 378.977 144.683 379.568C144.683 380.174 144.777 380.71 144.967 381.176C145.16 381.638 145.444 382.002 145.819 382.267C146.198 382.528 146.667 382.659 147.228 382.659ZM154.842 378.75V384H153.501V372.364H154.842V376.636H154.955C155.16 376.186 155.467 375.828 155.876 375.562C156.289 375.294 156.838 375.159 157.523 375.159C158.118 375.159 158.639 375.278 159.086 375.517C159.533 375.752 159.879 376.114 160.126 376.602C160.376 377.087 160.501 377.705 160.501 378.455V384H159.16V378.545C159.16 377.852 158.98 377.316 158.62 376.938C158.264 376.555 157.77 376.364 157.137 376.364C156.698 376.364 156.304 376.456 155.955 376.642C155.611 376.828 155.338 377.098 155.137 377.455C154.94 377.811 154.842 378.242 154.842 378.75ZM166.749 375.273V376.409H162.227V375.273H166.749ZM163.545 373.182H164.886V381.5C164.886 381.879 164.941 382.163 165.05 382.352C165.164 382.538 165.308 382.663 165.482 382.727C165.66 382.788 165.848 382.818 166.045 382.818C166.192 382.818 166.314 382.811 166.408 382.795C166.503 382.777 166.579 382.761 166.636 382.75L166.908 383.955C166.817 383.989 166.691 384.023 166.528 384.057C166.365 384.095 166.158 384.114 165.908 384.114C165.53 384.114 165.158 384.032 164.795 383.869C164.435 383.706 164.136 383.458 163.897 383.125C163.662 382.792 163.545 382.371 163.545 381.864V373.182ZM174.607 372.364V384H173.266V372.364H174.607ZM180.609 384.182C179.821 384.182 179.129 383.994 178.535 383.619C177.944 383.244 177.482 382.72 177.148 382.045C176.819 381.371 176.654 380.583 176.654 379.682C176.654 378.773 176.819 377.979 177.148 377.301C177.482 376.623 177.944 376.097 178.535 375.722C179.129 375.347 179.821 375.159 180.609 375.159C181.397 375.159 182.086 375.347 182.677 375.722C183.272 376.097 183.734 376.623 184.063 377.301C184.397 377.979 184.563 378.773 184.563 379.682C184.563 380.583 184.397 381.371 184.063 382.045C183.734 382.72 183.272 383.244 182.677 383.619C182.086 383.994 181.397 384.182 180.609 384.182ZM180.609 382.977C181.207 382.977 181.7 382.824 182.086 382.517C182.472 382.21 182.758 381.807 182.944 381.307C183.129 380.807 183.222 380.265 183.222 379.682C183.222 379.098 183.129 378.555 182.944 378.051C182.758 377.547 182.472 377.14 182.086 376.83C181.7 376.519 181.207 376.364 180.609 376.364C180.01 376.364 179.518 376.519 179.131 376.83C178.745 377.14 178.459 377.547 178.273 378.051C178.088 378.555 177.995 379.098 177.995 379.682C177.995 380.265 178.088 380.807 178.273 381.307C178.459 381.807 178.745 382.21 179.131 382.517C179.518 382.824 180.01 382.977 180.609 382.977ZM190.156 384.182C189.337 384.182 188.633 383.989 188.042 383.602C187.451 383.216 186.996 382.684 186.678 382.006C186.36 381.328 186.201 380.553 186.201 379.682C186.201 378.795 186.364 378.013 186.69 377.335C187.019 376.653 187.478 376.121 188.065 375.739C188.656 375.352 189.345 375.159 190.133 375.159C190.746 375.159 191.299 375.273 191.792 375.5C192.284 375.727 192.688 376.045 193.002 376.455C193.317 376.864 193.512 377.341 193.587 377.886H192.246C192.144 377.489 191.917 377.136 191.565 376.83C191.216 376.519 190.746 376.364 190.156 376.364C189.633 376.364 189.174 376.5 188.781 376.773C188.39 377.042 188.085 377.422 187.866 377.915C187.65 378.403 187.542 378.977 187.542 379.636C187.542 380.311 187.648 380.898 187.86 381.398C188.076 381.898 188.379 382.286 188.769 382.562C189.163 382.839 189.625 382.977 190.156 382.977C190.504 382.977 190.82 382.917 191.104 382.795C191.388 382.674 191.629 382.5 191.826 382.273C192.023 382.045 192.163 381.773 192.246 381.455H193.587C193.512 381.97 193.324 382.434 193.025 382.847C192.729 383.256 192.337 383.581 191.849 383.824C191.364 384.062 190.799 384.182 190.156 384.182ZM198.116 384.205C197.563 384.205 197.061 384.1 196.61 383.892C196.159 383.68 195.801 383.375 195.536 382.977C195.271 382.576 195.138 382.091 195.138 381.523C195.138 381.023 195.237 380.617 195.434 380.307C195.631 379.992 195.894 379.746 196.224 379.568C196.553 379.39 196.917 379.258 197.315 379.17C197.716 379.08 198.12 379.008 198.525 378.955C199.055 378.886 199.485 378.835 199.815 378.801C200.148 378.763 200.39 378.701 200.542 378.614C200.697 378.527 200.775 378.375 200.775 378.159V378.114C200.775 377.553 200.621 377.117 200.315 376.807C200.012 376.496 199.551 376.341 198.934 376.341C198.294 376.341 197.792 376.481 197.428 376.761C197.065 377.042 196.809 377.341 196.661 377.659L195.388 377.205C195.616 376.674 195.919 376.261 196.298 375.966C196.68 375.667 197.097 375.458 197.548 375.341C198.002 375.22 198.449 375.159 198.888 375.159C199.169 375.159 199.491 375.193 199.854 375.261C200.222 375.326 200.576 375.46 200.917 375.665C201.262 375.869 201.548 376.178 201.775 376.591C202.002 377.004 202.116 377.557 202.116 378.25V384H200.775V382.818H200.707C200.616 383.008 200.464 383.21 200.252 383.426C200.04 383.642 199.758 383.826 199.406 383.977C199.053 384.129 198.623 384.205 198.116 384.205ZM198.32 383C198.851 383 199.298 382.896 199.661 382.688C200.029 382.479 200.305 382.21 200.491 381.881C200.68 381.551 200.775 381.205 200.775 380.841V379.614C200.718 379.682 200.593 379.744 200.4 379.801C200.21 379.854 199.991 379.902 199.741 379.943C199.495 379.981 199.254 380.015 199.019 380.045C198.788 380.072 198.601 380.095 198.457 380.114C198.108 380.159 197.782 380.233 197.479 380.335C197.18 380.434 196.938 380.583 196.752 380.784C196.57 380.981 196.479 381.25 196.479 381.591C196.479 382.057 196.652 382.409 196.996 382.648C197.345 382.883 197.786 383 198.32 383ZM208.359 375.273V376.409H203.836V375.273H208.359ZM205.154 373.182H206.495V381.5C206.495 381.879 206.55 382.163 206.66 382.352C206.773 382.538 206.917 382.663 207.092 382.727C207.27 382.788 207.457 382.818 207.654 382.818C207.802 382.818 207.923 382.811 208.018 382.795C208.112 382.777 208.188 382.761 208.245 382.75L208.518 383.955C208.427 383.989 208.3 384.023 208.137 384.057C207.974 384.095 207.768 384.114 207.518 384.114C207.139 384.114 206.768 384.032 206.404 383.869C206.044 383.706 205.745 383.458 205.506 383.125C205.272 382.792 205.154 382.371 205.154 381.864V373.182ZM210.376 384V375.273H211.717V384H210.376ZM211.058 373.818C210.796 373.818 210.571 373.729 210.381 373.551C210.196 373.373 210.103 373.159 210.103 372.909C210.103 372.659 210.196 372.445 210.381 372.267C210.571 372.089 210.796 372 211.058 372C211.319 372 211.542 372.089 211.728 372.267C211.917 372.445 212.012 372.659 212.012 372.909C212.012 373.159 211.917 373.373 211.728 373.551C211.542 373.729 211.319 373.818 211.058 373.818ZM217.718 384.182C216.93 384.182 216.239 383.994 215.644 383.619C215.053 383.244 214.591 382.72 214.258 382.045C213.928 381.371 213.763 380.583 213.763 379.682C213.763 378.773 213.928 377.979 214.258 377.301C214.591 376.623 215.053 376.097 215.644 375.722C216.239 375.347 216.93 375.159 217.718 375.159C218.506 375.159 219.195 375.347 219.786 375.722C220.381 376.097 220.843 376.623 221.173 377.301C221.506 377.979 221.673 378.773 221.673 379.682C221.673 380.583 221.506 381.371 221.173 382.045C220.843 382.72 220.381 383.244 219.786 383.619C219.195 383.994 218.506 384.182 217.718 384.182ZM217.718 382.977C218.317 382.977 218.809 382.824 219.195 382.517C219.582 382.21 219.868 381.807 220.053 381.307C220.239 380.807 220.332 380.265 220.332 379.682C220.332 379.098 220.239 378.555 220.053 378.051C219.868 377.547 219.582 377.14 219.195 376.83C218.809 376.519 218.317 376.364 217.718 376.364C217.12 376.364 216.627 376.519 216.241 376.83C215.854 377.14 215.568 377.547 215.383 378.051C215.197 378.555 215.104 379.098 215.104 379.682C215.104 380.265 215.197 380.807 215.383 381.307C215.568 381.807 215.854 382.21 216.241 382.517C216.627 382.824 217.12 382.977 217.718 382.977ZM225.06 378.75V384H223.719V375.273H225.015V376.636H225.129C225.333 376.193 225.644 375.837 226.06 375.568C226.477 375.295 227.015 375.159 227.674 375.159C228.265 375.159 228.782 375.28 229.225 375.523C229.668 375.761 230.013 376.125 230.259 376.614C230.505 377.098 230.629 377.712 230.629 378.455V384H229.288V378.545C229.288 377.86 229.11 377.326 228.754 376.943C228.397 376.557 227.909 376.364 227.288 376.364C226.86 376.364 226.477 376.456 226.14 376.642C225.807 376.828 225.543 377.098 225.35 377.455C225.157 377.811 225.06 378.242 225.06 378.75ZM234.056 384.091C233.776 384.091 233.535 383.991 233.335 383.79C233.134 383.589 233.033 383.348 233.033 383.068C233.033 382.788 233.134 382.547 233.335 382.347C233.535 382.146 233.776 382.045 234.056 382.045C234.336 382.045 234.577 382.146 234.778 382.347C234.978 382.547 235.079 382.788 235.079 383.068C235.079 383.254 235.031 383.424 234.937 383.58C234.846 383.735 234.723 383.86 234.567 383.955C234.416 384.045 234.246 384.091 234.056 384.091Z" fill="black"/>
</svg>
