<svg width="35" height="35" viewBox="0 0 35 35" fill="none" xmlns="http://www.w3.org/2000/svg">
<ellipse cx="17.4626" cy="17.5468" rx="17.4216" ry="16.7708" fill="white"/>
<g clip-path="url(#clip0_956_6108)">
<path d="M23.4158 12.0116C23.1574 12.0116 22.9048 12.0854 22.6899 12.2236C22.475 12.3618 22.3076 12.5582 22.2087 12.788C22.1098 13.0179 22.0839 13.2708 22.1343 13.5148C22.1847 13.7588 22.3092 13.9829 22.4919 14.1588C22.6746 14.3347 22.9075 14.4545 23.1609 14.503C23.4144 14.5516 23.6771 14.5267 23.9158 14.4315C24.1546 14.3363 24.3587 14.175 24.5022 13.9682C24.6458 13.7614 24.7224 13.5182 24.7224 13.2694C24.7224 12.9358 24.5848 12.6159 24.3397 12.38C24.0947 12.1441 23.7624 12.0116 23.4158 12.0116ZM28.4245 14.5482C28.4034 13.6785 28.2341 12.8181 27.9237 12.0011C27.6468 11.3021 27.2159 10.6692 26.6606 10.1458C26.1214 9.60856 25.4624 9.19636 24.7333 8.94042C23.8869 8.63243 22.9921 8.46582 22.0874 8.44778C20.9333 8.38489 20.563 8.38489 17.6014 8.38489C14.6397 8.38489 14.2695 8.38489 13.1153 8.44778C12.2107 8.46582 11.3158 8.63243 10.4694 8.94042C9.74171 9.19895 9.08324 9.61079 8.54216 10.1458C7.98404 10.6649 7.55585 11.2993 7.28998 12.0011C6.97003 12.8159 6.79696 13.6773 6.77822 14.5482C6.71289 15.6592 6.71289 16.0156 6.71289 18.8667C6.71289 21.7177 6.71289 22.0741 6.77822 23.1851C6.79696 24.056 6.97003 24.9174 7.28998 25.7322C7.55585 26.434 7.98404 27.0685 8.54216 27.5875C9.08324 28.1225 9.74171 28.5344 10.4694 28.7929C11.3158 29.1009 12.2107 29.2675 13.1153 29.2855C14.2695 29.3484 14.6397 29.3484 17.6014 29.3484C20.563 29.3484 20.9333 29.3484 22.0874 29.2855C22.9921 29.2675 23.8869 29.1009 24.7333 28.7929C25.4624 28.537 26.1214 28.1248 26.6606 27.5875C27.2183 27.0661 27.6496 26.4326 27.9237 25.7322C28.2341 24.9153 28.4034 24.0548 28.4245 23.1851C28.4245 22.0741 28.4899 21.7177 28.4899 18.8667C28.4899 16.0156 28.4899 15.6592 28.4245 14.5482ZM26.4646 23.0594C26.4567 23.7247 26.3315 24.384 26.0944 25.009C25.9205 25.4651 25.6413 25.8773 25.2778 26.2144C24.9246 26.5608 24.4973 26.8291 24.0256 27.0005C23.3763 27.2288 22.6915 27.3493 22.0003 27.3569C20.9115 27.4093 20.5086 27.4198 17.6449 27.4198C14.7813 27.4198 14.3784 27.4198 13.2895 27.3569C12.5719 27.3698 11.8573 27.2635 11.1772 27.0424C10.7261 26.8622 10.3185 26.5946 9.97944 26.2563C9.61803 25.9196 9.34229 25.5071 9.17369 25.0509C8.90785 24.4169 8.76041 23.7427 8.73815 23.0594C8.73815 22.0112 8.67282 21.6234 8.67282 18.8667C8.67282 16.11 8.67282 15.7221 8.73815 14.674C8.74303 13.9937 8.87202 13.3196 9.11925 12.6824C9.31093 12.24 9.60516 11.8456 9.97944 11.5294C10.3102 11.169 10.7191 10.8828 11.1772 10.6909C11.8409 10.4603 12.5404 10.3398 13.246 10.3345C14.3348 10.3345 14.7377 10.2716 17.6014 10.2716C20.465 10.2716 20.8679 10.2716 21.9568 10.3345C22.6479 10.3421 23.3328 10.4626 23.982 10.6909C24.4768 10.8677 24.9209 11.1551 25.2778 11.5294C25.6346 11.8514 25.9134 12.245 26.0944 12.6824C26.3364 13.3207 26.4616 13.9945 26.4646 14.674C26.519 15.7221 26.5299 16.11 26.5299 18.8667C26.5299 21.6234 26.519 22.0112 26.4646 23.0594ZM17.6014 13.4895C16.4971 13.4916 15.4182 13.8087 14.501 14.4008C13.5839 14.9929 12.8697 15.8334 12.4485 16.8162C12.0274 17.7989 11.9184 18.8797 12.1351 19.9221C12.3519 20.9645 12.8847 21.9216 13.6664 22.6726C14.448 23.4235 15.4433 23.9346 16.5265 24.1412C17.6098 24.3479 18.7323 24.2408 19.7524 23.8335C20.7724 23.4262 21.6441 22.737 22.2574 21.853C22.8707 20.9689 23.1981 19.9297 23.1981 18.8667C23.1995 18.1592 23.0556 17.4585 22.7748 16.8048C22.4939 16.1512 22.0815 15.5574 21.5614 15.0576C21.0412 14.5579 20.4236 14.1621 19.744 13.893C19.0644 13.6239 18.3362 13.4867 17.6014 13.4895ZM17.6014 22.3571C16.8842 22.3571 16.1832 22.1524 15.587 21.7688C14.9907 21.3853 14.5259 20.8402 14.2515 20.2024C13.9771 19.5646 13.9053 18.8628 14.0452 18.1857C14.1851 17.5086 14.5304 16.8867 15.0375 16.3986C15.5446 15.9104 16.1907 15.578 16.894 15.4433C17.5974 15.3086 18.3264 15.3777 18.9889 15.6419C19.6515 15.9061 20.2178 16.3535 20.6162 16.9275C21.0146 17.5015 21.2272 18.1763 21.2272 18.8667C21.2272 19.325 21.1335 19.7789 20.9512 20.2024C20.769 20.6259 20.5019 21.0106 20.1652 21.3348C19.8286 21.6589 19.4288 21.916 18.9889 22.0914C18.549 22.2668 18.0775 22.3571 17.6014 22.3571Z" fill="#1B1919"/>
</g>
<defs>
<clipPath id="clip0_956_6108">
<rect width="26.1324" height="25.1562" fill="white" transform="translate(4.53516 4.66968)"/>
</clipPath>
</defs>
</svg>
