<svg width="37" height="36" viewBox="0 0 37 36" fill="none" xmlns="http://www.w3.org/2000/svg">
<g clip-path="url(#clip0_956_6112)">
<path d="M18.9089 0.046875C9.28709 0.046875 1.4873 7.71145 1.4873 17.1664C1.4873 26.6214 9.28709 34.286 18.9089 34.286C28.5307 34.286 36.3305 26.6214 36.3305 17.1664C36.3305 7.71145 28.5307 0.046875 18.9089 0.046875ZM14.6442 24.2621H11.1164V13.1059H14.6442V24.2621ZM12.8585 11.7363C11.7443 11.7363 11.0238 10.9606 11.0238 10.0012C11.0238 9.02216 11.766 8.26962 12.9039 8.26962C14.0417 8.26962 14.7386 9.02216 14.7604 10.0012C14.7604 10.9606 14.0417 11.7363 12.8585 11.7363ZM27.5289 24.2621H24.0011V18.0795C24.0011 16.6404 23.4893 15.6631 22.2135 15.6631C21.239 15.6631 20.6601 16.3247 20.4042 16.9614C20.3099 17.1878 20.2863 17.5088 20.2863 17.828V24.2604H16.7566V16.6636C16.7566 15.2708 16.7112 14.1063 16.664 13.1041H19.7291L19.8907 14.6538H19.9614C20.426 13.9262 21.5639 12.8527 23.4675 12.8527C25.7886 12.8527 27.5289 14.3809 27.5289 17.6658V24.2621Z" fill="white"/>
</g>
<defs>
<clipPath id="clip0_956_6112">
<rect width="35.54" height="35" fill="white" transform="translate(0.790039 0.046875)"/>
</clipPath>
</defs>
</svg>
