<svg width="320" height="457" viewBox="0 0 320 457" fill="none" xmlns="http://www.w3.org/2000/svg">
<rect width="320" height="457" rx="20" fill="white"/>
<path d="M88.3333 110.889C90.3241 110.889 91.7176 110.093 92.5139 108.5C93.3102 106.907 93.3102 105.315 92.5139 103.722C91.7176 102.13 90.3241 101.333 88.3333 101.333C86.3426 101.333 84.9491 102.13 84.1528 103.722C83.3565 105.315 83.3565 106.907 84.1528 108.5C84.9491 110.093 86.3426 110.889 88.3333 110.889ZM198.297 106.559C197.799 105.912 196.841 104.668 195.423 102.826C194.004 100.985 192.972 99.6412 192.325 98.7951C191.678 97.9491 190.732 96.7297 189.488 95.1371C188.244 93.5446 187.186 92.2257 186.315 91.1806C185.444 90.1354 184.436 88.9659 183.292 87.6719C182.147 86.3779 181.027 85.1586 179.932 84.0139L170.601 94.4653C166.47 99.1435 161.282 101.433 155.036 101.333C148.79 101.234 143.676 98.7951 139.694 94.0174C136.858 90.5833 135.452 86.6516 135.477 82.2222C135.501 77.7928 136.957 73.886 139.844 70.5017L153.057 55.1233C151.962 54.5758 150.693 54.1652 149.25 53.8915C147.807 53.6178 146.625 53.4685 145.704 53.4436C144.783 53.4187 143.377 53.4311 141.486 53.4809C139.595 53.5307 138.376 53.5556 137.828 53.5556C133.249 53.5556 129.318 55.1979 126.033 58.4826L114.238 70.2778H102.667V110.889C102.916 110.889 103.438 110.876 104.234 110.852C105.031 110.827 105.578 110.827 105.877 110.852C106.175 110.876 106.661 110.926 107.332 111.001C108.004 111.076 108.514 111.188 108.863 111.337C109.211 111.486 109.647 111.698 110.169 111.971C110.692 112.245 111.152 112.581 111.55 112.979L133.722 134.778C139.446 140.302 145.094 143.064 150.668 143.064C154.55 143.064 157.661 141.895 160 139.556C162.837 140.551 165.636 140.352 168.398 138.958C171.161 137.565 172.965 135.45 173.811 132.613C177.494 132.911 180.654 131.817 183.292 129.328C184.287 128.432 185.183 127.3 185.979 125.931C186.775 124.563 187.124 123.306 187.024 122.161C187.522 122.659 188.592 122.908 190.234 122.908C192.374 122.908 194.291 122.385 195.983 121.34C197.675 120.295 198.907 118.976 199.678 117.384C200.449 115.791 200.748 114.012 200.574 112.046C200.4 110.08 199.641 108.251 198.297 106.559ZM210.167 110.889H217.333V72.6667H210.391L198.67 59.2292C195.385 55.4468 191.18 53.5556 186.054 53.5556H173.587C169.157 53.5556 165.524 55.2228 162.688 58.5573L147.085 76.6979C145.692 78.3403 144.995 80.2066 144.995 82.2969C144.995 84.3872 145.667 86.2535 147.01 87.8958C149.15 90.434 151.888 91.728 155.222 91.7778C158.557 91.8275 161.319 90.6082 163.509 88.1198L177.917 71.8455C179.161 70.7008 180.492 70.1658 181.911 70.2404C183.329 70.3151 184.499 70.987 185.419 72.2561C186.34 73.5252 186.551 74.9311 186.054 76.474C186.85 77.4196 188.244 78.9873 190.234 81.1771C192.225 83.3669 193.718 85.059 194.714 86.2535C196.157 88.0451 198.21 90.6704 200.872 94.1293C203.535 97.5882 205.14 99.691 205.688 100.438C208.275 103.722 209.769 107.206 210.167 110.889ZM231.667 110.889C233.657 110.889 235.051 110.093 235.847 108.5C236.644 106.907 236.644 105.315 235.847 103.722C235.051 102.13 233.657 101.333 231.667 101.333C229.676 101.333 228.282 102.13 227.486 103.722C226.69 105.315 226.69 106.907 227.486 108.5C228.282 110.093 229.676 110.889 231.667 110.889ZM246 67.8889V115.667C246 116.961 245.527 118.08 244.582 119.026C243.636 119.972 242.516 120.444 241.222 120.444H208.823C207.479 123.679 205.439 126.33 202.701 128.395C199.964 130.46 196.854 131.742 193.37 132.24C191.727 134.628 189.724 136.657 187.36 138.324C184.996 139.991 182.446 141.123 179.708 141.72C177.618 144.358 175.018 146.386 171.907 147.805C168.797 149.223 165.599 149.833 162.314 149.634C159.328 151.326 156.193 152.309 152.908 152.582C149.623 152.856 146.451 152.508 143.39 151.537C140.329 150.567 137.418 149.236 134.655 147.543C131.893 145.851 129.318 143.836 126.929 141.497L105.503 120.444H78.7778C77.4838 120.444 76.364 119.972 75.4184 119.026C74.4728 118.08 74 116.961 74 115.667V65.5C74 64.206 74.4728 63.0862 75.4184 62.1406C76.364 61.195 77.4838 60.7222 78.7778 60.7222H110.207C110.903 60.0255 112.073 58.831 113.715 57.1389C115.358 55.4468 116.54 54.2523 117.261 53.5556C117.983 52.8588 119.078 51.8634 120.546 50.5694C122.014 49.2755 123.271 48.3423 124.316 47.77C125.361 47.1976 126.63 46.5631 128.123 45.8663C129.616 45.1696 131.159 44.6843 132.752 44.4106C134.344 44.1369 136.036 44 137.828 44H146.562C151.49 44 155.994 45.3935 160.075 48.1806C164.156 45.3935 168.66 44 173.587 44H186.054C187.796 44 189.463 44.1493 191.056 44.4479C192.648 44.7465 194.054 45.1073 195.273 45.5304C196.493 45.9534 197.774 46.6128 199.118 47.5087C200.462 48.4045 201.569 49.1759 202.44 49.8229C203.311 50.4699 204.381 51.4528 205.65 52.7717C206.919 54.0906 207.89 55.1357 208.562 55.9071C209.234 56.6785 210.254 57.873 211.622 59.4905C212.991 61.1079 214.024 62.3148 214.72 63.1111H241.222C242.516 63.1111 243.636 63.5839 244.582 64.5295C245.527 65.4751 246 66.5949 246 67.8889Z" fill="#D71F20"/>
<path d="M99.0227 240V216.727H108.205C109.962 216.727 111.462 217.042 112.705 217.67C113.955 218.292 114.905 219.174 115.557 220.318C116.216 221.455 116.545 222.792 116.545 224.33C116.545 225.875 116.212 227.205 115.545 228.318C114.879 229.424 113.913 230.273 112.648 230.864C111.39 231.455 109.867 231.75 108.08 231.75H101.932V227.795H107.284C108.223 227.795 109.004 227.667 109.625 227.409C110.246 227.152 110.708 226.765 111.011 226.25C111.322 225.735 111.477 225.095 111.477 224.33C111.477 223.557 111.322 222.905 111.011 222.375C110.708 221.845 110.242 221.443 109.614 221.17C108.992 220.89 108.208 220.75 107.261 220.75H103.943V240H99.0227ZM111.591 229.409L117.375 240H111.943L106.284 229.409H111.591ZM127.605 240.341C125.81 240.341 124.264 239.977 122.969 239.25C121.681 238.515 120.688 237.477 119.991 236.136C119.295 234.788 118.946 233.193 118.946 231.352C118.946 229.557 119.295 227.981 119.991 226.625C120.688 225.269 121.67 224.212 122.935 223.455C124.207 222.697 125.7 222.318 127.412 222.318C128.563 222.318 129.635 222.504 130.628 222.875C131.628 223.239 132.499 223.788 133.241 224.523C133.991 225.258 134.575 226.182 134.991 227.295C135.408 228.402 135.616 229.697 135.616 231.182V232.511H120.878V229.511H131.06C131.06 228.814 130.908 228.197 130.605 227.659C130.302 227.121 129.882 226.701 129.344 226.398C128.813 226.087 128.196 225.932 127.491 225.932C126.757 225.932 126.105 226.102 125.537 226.443C124.976 226.777 124.537 227.227 124.219 227.795C123.901 228.356 123.738 228.981 123.73 229.67V232.523C123.73 233.386 123.889 234.133 124.207 234.761C124.533 235.39 124.991 235.875 125.582 236.216C126.173 236.557 126.874 236.727 127.685 236.727C128.223 236.727 128.715 236.652 129.162 236.5C129.609 236.348 129.991 236.121 130.31 235.818C130.628 235.515 130.87 235.144 131.037 234.705L135.514 235C135.287 236.076 134.821 237.015 134.116 237.818C133.42 238.614 132.518 239.235 131.412 239.682C130.313 240.121 129.045 240.341 127.605 240.341ZM143.616 216.727V240H138.776V216.727H143.616ZM147.494 240V222.545H152.335V240H147.494ZM149.926 220.295C149.206 220.295 148.589 220.057 148.074 219.58C147.566 219.095 147.312 218.515 147.312 217.841C147.312 217.174 147.566 216.602 148.074 216.125C148.589 215.64 149.206 215.398 149.926 215.398C150.646 215.398 151.259 215.64 151.767 216.125C152.282 216.602 152.54 217.174 152.54 217.841C152.54 218.515 152.282 219.095 151.767 219.58C151.259 220.057 150.646 220.295 149.926 220.295ZM161.19 240.33C160.077 240.33 159.084 240.136 158.213 239.75C157.342 239.356 156.652 238.777 156.145 238.011C155.645 237.239 155.395 236.277 155.395 235.125C155.395 234.155 155.573 233.341 155.929 232.682C156.285 232.023 156.77 231.492 157.384 231.091C157.997 230.689 158.694 230.386 159.474 230.182C160.262 229.977 161.088 229.833 161.952 229.75C162.967 229.644 163.785 229.545 164.406 229.455C165.027 229.356 165.478 229.212 165.759 229.023C166.039 228.833 166.179 228.553 166.179 228.182V228.114C166.179 227.394 165.952 226.837 165.497 226.443C165.05 226.049 164.414 225.852 163.588 225.852C162.717 225.852 162.024 226.045 161.509 226.432C160.993 226.811 160.652 227.288 160.486 227.864L156.009 227.5C156.236 226.439 156.683 225.523 157.349 224.75C158.016 223.97 158.876 223.371 159.929 222.955C160.99 222.53 162.217 222.318 163.611 222.318C164.58 222.318 165.509 222.432 166.395 222.659C167.289 222.886 168.08 223.239 168.77 223.716C169.467 224.193 170.016 224.807 170.418 225.557C170.819 226.299 171.02 227.189 171.02 228.227V240H166.429V237.58H166.293C166.012 238.125 165.637 238.606 165.168 239.023C164.698 239.432 164.134 239.754 163.474 239.989C162.815 240.216 162.054 240.33 161.19 240.33ZM162.577 236.989C163.289 236.989 163.918 236.848 164.463 236.568C165.009 236.28 165.437 235.894 165.747 235.409C166.058 234.924 166.213 234.375 166.213 233.761V231.909C166.062 232.008 165.853 232.098 165.588 232.182C165.33 232.258 165.039 232.33 164.713 232.398C164.387 232.458 164.062 232.515 163.736 232.568C163.41 232.614 163.115 232.655 162.849 232.693C162.281 232.777 161.785 232.909 161.361 233.091C160.937 233.273 160.607 233.519 160.372 233.83C160.137 234.133 160.02 234.511 160.02 234.966C160.02 235.625 160.259 236.129 160.736 236.477C161.221 236.818 161.834 236.989 162.577 236.989ZM174.866 240V216.727H179.707V225.477H179.855C180.067 225.008 180.374 224.53 180.776 224.045C181.185 223.553 181.715 223.144 182.366 222.818C183.026 222.485 183.844 222.318 184.821 222.318C186.094 222.318 187.268 222.652 188.344 223.318C189.42 223.977 190.279 224.973 190.923 226.307C191.567 227.633 191.889 229.295 191.889 231.295C191.889 233.242 191.575 234.886 190.946 236.227C190.325 237.561 189.476 238.572 188.401 239.261C187.332 239.943 186.135 240.284 184.81 240.284C183.87 240.284 183.071 240.129 182.412 239.818C181.76 239.508 181.226 239.117 180.81 238.648C180.393 238.17 180.075 237.689 179.855 237.205H179.639V240H174.866ZM179.605 231.273C179.605 232.311 179.749 233.216 180.037 233.989C180.325 234.761 180.741 235.364 181.287 235.795C181.832 236.22 182.495 236.432 183.276 236.432C184.063 236.432 184.73 236.216 185.276 235.784C185.821 235.345 186.234 234.739 186.514 233.966C186.802 233.186 186.946 232.288 186.946 231.273C186.946 230.265 186.806 229.379 186.526 228.614C186.245 227.848 185.832 227.25 185.287 226.818C184.741 226.386 184.071 226.17 183.276 226.17C182.488 226.17 181.821 226.379 181.276 226.795C180.738 227.212 180.325 227.803 180.037 228.568C179.749 229.333 179.605 230.235 179.605 231.273ZM199.96 216.727V240H195.119V216.727H199.96ZM211.793 240.341C209.997 240.341 208.452 239.977 207.156 239.25C205.868 238.515 204.876 237.477 204.179 236.136C203.482 234.788 203.134 233.193 203.134 231.352C203.134 229.557 203.482 227.981 204.179 226.625C204.876 225.269 205.857 224.212 207.122 223.455C208.395 222.697 209.887 222.318 211.599 222.318C212.751 222.318 213.823 222.504 214.815 222.875C215.815 223.239 216.687 223.788 217.429 224.523C218.179 225.258 218.762 226.182 219.179 227.295C219.596 228.402 219.804 229.697 219.804 231.182V232.511H205.065V229.511H215.247C215.247 228.814 215.096 228.197 214.793 227.659C214.49 227.121 214.069 226.701 213.531 226.398C213.001 226.087 212.384 225.932 211.679 225.932C210.944 225.932 210.293 226.102 209.724 226.443C209.164 226.777 208.724 227.227 208.406 227.795C208.088 228.356 207.925 228.981 207.918 229.67V232.523C207.918 233.386 208.077 234.133 208.395 234.761C208.721 235.39 209.179 235.875 209.77 236.216C210.361 236.557 211.062 236.727 211.872 236.727C212.41 236.727 212.902 236.652 213.349 236.5C213.796 236.348 214.179 236.121 214.497 235.818C214.815 235.515 215.058 235.144 215.224 234.705L219.702 235C219.474 236.076 219.009 237.015 218.304 237.818C217.607 238.614 216.705 239.235 215.599 239.682C214.501 240.121 213.232 240.341 211.793 240.341Z" fill="#2C2A2A"/>
<path d="M66.2727 308L63.0909 296.364H64.5227L66.9545 305.841H67.0682L69.5455 296.364H71.1364L73.6136 305.841H73.7273L76.1591 296.364H77.5909L74.4091 308H72.9545L70.3864 298.727H70.2955L67.7273 308H66.2727ZM80.5057 302.75V308H79.1648V296.364H80.5057V300.636H80.6193C80.8239 300.186 81.1307 299.828 81.5398 299.562C81.9527 299.294 82.5019 299.159 83.1875 299.159C83.7822 299.159 84.303 299.278 84.75 299.517C85.197 299.752 85.5436 300.114 85.7898 300.602C86.0398 301.087 86.1648 301.705 86.1648 302.455V308H84.8239V302.545C84.8239 301.852 84.6439 301.316 84.2841 300.938C83.928 300.555 83.4337 300.364 82.8011 300.364C82.3617 300.364 81.9678 300.456 81.6193 300.642C81.2746 300.828 81.0019 301.098 80.8011 301.455C80.6042 301.811 80.5057 302.242 80.5057 302.75ZM92.277 308.182C91.4361 308.182 90.7107 307.996 90.1009 307.625C89.4948 307.25 89.027 306.727 88.6974 306.057C88.3717 305.383 88.2088 304.598 88.2088 303.705C88.2088 302.811 88.3717 302.023 88.6974 301.341C89.027 300.655 89.4853 300.121 90.0724 299.739C90.6634 299.352 91.3527 299.159 92.1406 299.159C92.5952 299.159 93.044 299.235 93.4872 299.386C93.9304 299.538 94.3338 299.784 94.6974 300.125C95.0611 300.462 95.3509 300.909 95.5668 301.466C95.7827 302.023 95.8906 302.708 95.8906 303.523V304.091H89.1634V302.932H94.527C94.527 302.439 94.4285 302 94.2315 301.614C94.0384 301.227 93.7618 300.922 93.402 300.699C93.0459 300.475 92.6255 300.364 92.1406 300.364C91.6065 300.364 91.1444 300.496 90.7543 300.761C90.3679 301.023 90.0705 301.364 89.8622 301.784C89.6539 302.205 89.5497 302.655 89.5497 303.136V303.909C89.5497 304.568 89.6634 305.127 89.8906 305.585C90.1217 306.04 90.4418 306.386 90.8509 306.625C91.2599 306.86 91.7353 306.977 92.277 306.977C92.6293 306.977 92.9474 306.928 93.2315 306.83C93.5194 306.727 93.7675 306.576 93.9759 306.375C94.1842 306.17 94.3452 305.917 94.4588 305.614L95.7543 305.977C95.6179 306.417 95.3887 306.803 95.0668 307.136C94.7448 307.466 94.3471 307.723 93.8736 307.909C93.4001 308.091 92.8679 308.182 92.277 308.182ZM99.2713 302.75V308H97.9304V299.273H99.2259V300.636H99.3395C99.544 300.193 99.8546 299.837 100.271 299.568C100.688 299.295 101.226 299.159 101.885 299.159C102.476 299.159 102.993 299.28 103.436 299.523C103.879 299.761 104.224 300.125 104.47 300.614C104.716 301.098 104.839 301.712 104.839 302.455V308H103.499V302.545C103.499 301.86 103.321 301.326 102.964 300.943C102.608 300.557 102.12 300.364 101.499 300.364C101.071 300.364 100.688 300.456 100.351 300.642C100.018 300.828 99.7543 301.098 99.5611 301.455C99.3679 301.811 99.2713 302.242 99.2713 302.75ZM112.653 311.273C112.426 311.273 112.223 311.254 112.045 311.216C111.867 311.182 111.744 311.148 111.676 311.114L112.017 309.932C112.343 310.015 112.631 310.045 112.881 310.023C113.131 310 113.352 309.888 113.545 309.688C113.742 309.491 113.922 309.17 114.085 308.727L114.335 308.045L111.108 299.273H112.562L114.972 306.227H115.062L117.472 299.273H118.926L115.222 309.273C115.055 309.723 114.848 310.097 114.602 310.392C114.356 310.691 114.07 310.913 113.744 311.057C113.422 311.201 113.059 311.273 112.653 311.273ZM123.929 308.182C123.141 308.182 122.45 307.994 121.855 307.619C121.264 307.244 120.802 306.72 120.469 306.045C120.139 305.371 119.974 304.583 119.974 303.682C119.974 302.773 120.139 301.979 120.469 301.301C120.802 300.623 121.264 300.097 121.855 299.722C122.45 299.347 123.141 299.159 123.929 299.159C124.717 299.159 125.406 299.347 125.997 299.722C126.592 300.097 127.054 300.623 127.384 301.301C127.717 301.979 127.884 302.773 127.884 303.682C127.884 304.583 127.717 305.371 127.384 306.045C127.054 306.72 126.592 307.244 125.997 307.619C125.406 307.994 124.717 308.182 123.929 308.182ZM123.929 306.977C124.527 306.977 125.02 306.824 125.406 306.517C125.793 306.21 126.079 305.807 126.264 305.307C126.45 304.807 126.543 304.265 126.543 303.682C126.543 303.098 126.45 302.555 126.264 302.051C126.079 301.547 125.793 301.14 125.406 300.83C125.02 300.519 124.527 300.364 123.929 300.364C123.33 300.364 122.838 300.519 122.452 300.83C122.065 301.14 121.779 301.547 121.594 302.051C121.408 302.555 121.315 303.098 121.315 303.682C121.315 304.265 121.408 304.807 121.594 305.307C121.779 305.807 122.065 306.21 122.452 306.517C122.838 306.824 123.33 306.977 123.929 306.977ZM135.43 304.432V299.273H136.771V308H135.43V306.523H135.339C135.135 306.966 134.817 307.343 134.385 307.653C133.953 307.96 133.408 308.114 132.749 308.114C132.203 308.114 131.718 307.994 131.294 307.756C130.87 307.513 130.536 307.15 130.294 306.665C130.052 306.176 129.93 305.561 129.93 304.818V299.273H131.271V304.727C131.271 305.364 131.449 305.871 131.805 306.25C132.165 306.629 132.624 306.818 133.18 306.818C133.514 306.818 133.853 306.733 134.197 306.562C134.546 306.392 134.838 306.131 135.072 305.778C135.311 305.426 135.43 304.977 135.43 304.432ZM147.273 308.182C146.455 308.182 145.75 307.989 145.159 307.602C144.568 307.216 144.114 306.684 143.795 306.006C143.477 305.328 143.318 304.553 143.318 303.682C143.318 302.795 143.481 302.013 143.807 301.335C144.136 300.653 144.595 300.121 145.182 299.739C145.773 299.352 146.462 299.159 147.25 299.159C147.864 299.159 148.417 299.273 148.909 299.5C149.402 299.727 149.805 300.045 150.119 300.455C150.434 300.864 150.629 301.341 150.705 301.886H149.364C149.261 301.489 149.034 301.136 148.682 300.83C148.333 300.519 147.864 300.364 147.273 300.364C146.75 300.364 146.292 300.5 145.898 300.773C145.508 301.042 145.203 301.422 144.983 301.915C144.767 302.403 144.659 302.977 144.659 303.636C144.659 304.311 144.765 304.898 144.977 305.398C145.193 305.898 145.496 306.286 145.886 306.562C146.28 306.839 146.742 306.977 147.273 306.977C147.621 306.977 147.938 306.917 148.222 306.795C148.506 306.674 148.746 306.5 148.943 306.273C149.14 306.045 149.28 305.773 149.364 305.455H150.705C150.629 305.97 150.441 306.434 150.142 306.847C149.847 307.256 149.455 307.581 148.966 307.824C148.481 308.062 147.917 308.182 147.273 308.182ZM155.233 308.205C154.68 308.205 154.178 308.1 153.727 307.892C153.277 307.68 152.919 307.375 152.653 306.977C152.388 306.576 152.256 306.091 152.256 305.523C152.256 305.023 152.354 304.617 152.551 304.307C152.748 303.992 153.011 303.746 153.341 303.568C153.67 303.39 154.034 303.258 154.432 303.17C154.833 303.08 155.237 303.008 155.642 302.955C156.172 302.886 156.602 302.835 156.932 302.801C157.265 302.763 157.508 302.701 157.659 302.614C157.814 302.527 157.892 302.375 157.892 302.159V302.114C157.892 301.553 157.739 301.117 157.432 300.807C157.129 300.496 156.669 300.341 156.051 300.341C155.411 300.341 154.909 300.481 154.545 300.761C154.182 301.042 153.926 301.341 153.778 301.659L152.506 301.205C152.733 300.674 153.036 300.261 153.415 299.966C153.797 299.667 154.214 299.458 154.665 299.341C155.119 299.22 155.566 299.159 156.006 299.159C156.286 299.159 156.608 299.193 156.972 299.261C157.339 299.326 157.693 299.46 158.034 299.665C158.379 299.869 158.665 300.178 158.892 300.591C159.119 301.004 159.233 301.557 159.233 302.25V308H157.892V306.818H157.824C157.733 307.008 157.581 307.21 157.369 307.426C157.157 307.642 156.875 307.826 156.523 307.977C156.17 308.129 155.741 308.205 155.233 308.205ZM155.438 307C155.968 307 156.415 306.896 156.778 306.688C157.146 306.479 157.422 306.21 157.608 305.881C157.797 305.551 157.892 305.205 157.892 304.841V303.614C157.835 303.682 157.71 303.744 157.517 303.801C157.328 303.854 157.108 303.902 156.858 303.943C156.612 303.981 156.371 304.015 156.136 304.045C155.905 304.072 155.718 304.095 155.574 304.114C155.225 304.159 154.9 304.233 154.597 304.335C154.297 304.434 154.055 304.583 153.869 304.784C153.688 304.981 153.597 305.25 153.597 305.591C153.597 306.057 153.769 306.409 154.114 306.648C154.462 306.883 154.903 307 155.438 307ZM163.021 296.364V308H161.68V296.364H163.021ZM166.818 296.364V308H165.477V296.364H166.818ZM175.751 308L173.092 299.273H174.501L176.388 305.955H176.479L178.342 299.273H179.774L181.615 305.932H181.706L183.592 299.273H185.001L182.342 308H181.024L179.115 301.295H178.979L177.07 308H175.751ZM190.136 308.182C189.295 308.182 188.57 307.996 187.96 307.625C187.354 307.25 186.886 306.727 186.557 306.057C186.231 305.383 186.068 304.598 186.068 303.705C186.068 302.811 186.231 302.023 186.557 301.341C186.886 300.655 187.345 300.121 187.932 299.739C188.523 299.352 189.212 299.159 190 299.159C190.455 299.159 190.903 299.235 191.347 299.386C191.79 299.538 192.193 299.784 192.557 300.125C192.92 300.462 193.21 300.909 193.426 301.466C193.642 302.023 193.75 302.708 193.75 303.523V304.091H187.023V302.932H192.386C192.386 302.439 192.288 302 192.091 301.614C191.898 301.227 191.621 300.922 191.261 300.699C190.905 300.475 190.485 300.364 190 300.364C189.466 300.364 189.004 300.496 188.614 300.761C188.227 301.023 187.93 301.364 187.722 301.784C187.513 302.205 187.409 302.655 187.409 303.136V303.909C187.409 304.568 187.523 305.127 187.75 305.585C187.981 306.04 188.301 306.386 188.71 306.625C189.119 306.86 189.595 306.977 190.136 306.977C190.489 306.977 190.807 306.928 191.091 306.83C191.379 306.727 191.627 306.576 191.835 306.375C192.044 306.17 192.205 305.917 192.318 305.614L193.614 305.977C193.477 306.417 193.248 306.803 192.926 307.136C192.604 307.466 192.206 307.723 191.733 307.909C191.259 308.091 190.727 308.182 190.136 308.182ZM202.858 308.205C202.305 308.205 201.803 308.1 201.352 307.892C200.902 307.68 200.544 307.375 200.278 306.977C200.013 306.576 199.881 306.091 199.881 305.523C199.881 305.023 199.979 304.617 200.176 304.307C200.373 303.992 200.636 303.746 200.966 303.568C201.295 303.39 201.659 303.258 202.057 303.17C202.458 303.08 202.862 303.008 203.267 302.955C203.797 302.886 204.227 302.835 204.557 302.801C204.89 302.763 205.133 302.701 205.284 302.614C205.439 302.527 205.517 302.375 205.517 302.159V302.114C205.517 301.553 205.364 301.117 205.057 300.807C204.754 300.496 204.294 300.341 203.676 300.341C203.036 300.341 202.534 300.481 202.17 300.761C201.807 301.042 201.551 301.341 201.403 301.659L200.131 301.205C200.358 300.674 200.661 300.261 201.04 299.966C201.422 299.667 201.839 299.458 202.29 299.341C202.744 299.22 203.191 299.159 203.631 299.159C203.911 299.159 204.233 299.193 204.597 299.261C204.964 299.326 205.318 299.46 205.659 299.665C206.004 299.869 206.29 300.178 206.517 300.591C206.744 301.004 206.858 301.557 206.858 302.25V308H205.517V306.818H205.449C205.358 307.008 205.206 307.21 204.994 307.426C204.782 307.642 204.5 307.826 204.148 307.977C203.795 308.129 203.366 308.205 202.858 308.205ZM203.062 307C203.593 307 204.04 306.896 204.403 306.688C204.771 306.479 205.047 306.21 205.233 305.881C205.422 305.551 205.517 305.205 205.517 304.841V303.614C205.46 303.682 205.335 303.744 205.142 303.801C204.953 303.854 204.733 303.902 204.483 303.943C204.237 303.981 203.996 304.015 203.761 304.045C203.53 304.072 203.343 304.095 203.199 304.114C202.85 304.159 202.525 304.233 202.222 304.335C201.922 304.434 201.68 304.583 201.494 304.784C201.313 304.981 201.222 305.25 201.222 305.591C201.222 306.057 201.394 306.409 201.739 306.648C202.087 306.883 202.528 307 203.062 307ZM210.646 302.75V308H209.305V299.273H210.601V300.636H210.714C210.919 300.193 211.23 299.837 211.646 299.568C212.063 299.295 212.601 299.159 213.26 299.159C213.851 299.159 214.368 299.28 214.811 299.523C215.254 299.761 215.599 300.125 215.845 300.614C216.091 301.098 216.214 301.712 216.214 302.455V308H214.874V302.545C214.874 301.86 214.696 301.326 214.339 300.943C213.983 300.557 213.495 300.364 212.874 300.364C212.446 300.364 212.063 300.456 211.726 300.642C211.393 300.828 211.129 301.098 210.936 301.455C210.743 301.811 210.646 302.242 210.646 302.75ZM224.847 301.227L223.642 301.568C223.566 301.367 223.455 301.172 223.307 300.983C223.163 300.79 222.966 300.631 222.716 300.506C222.466 300.381 222.146 300.318 221.756 300.318C221.222 300.318 220.777 300.441 220.42 300.688C220.068 300.93 219.892 301.239 219.892 301.614C219.892 301.947 220.013 302.21 220.256 302.403C220.498 302.597 220.877 302.758 221.392 302.886L222.688 303.205C223.468 303.394 224.049 303.684 224.432 304.074C224.814 304.46 225.006 304.958 225.006 305.568C225.006 306.068 224.862 306.515 224.574 306.909C224.29 307.303 223.892 307.614 223.381 307.841C222.869 308.068 222.275 308.182 221.597 308.182C220.706 308.182 219.97 307.989 219.386 307.602C218.803 307.216 218.434 306.652 218.278 305.909L219.551 305.591C219.672 306.061 219.902 306.413 220.239 306.648C220.58 306.883 221.025 307 221.574 307C222.199 307 222.695 306.867 223.062 306.602C223.434 306.333 223.619 306.011 223.619 305.636C223.619 305.333 223.513 305.08 223.301 304.875C223.089 304.667 222.763 304.511 222.324 304.409L220.869 304.068C220.07 303.879 219.483 303.585 219.108 303.188C218.737 302.786 218.551 302.284 218.551 301.682C218.551 301.189 218.689 300.754 218.966 300.375C219.246 299.996 219.627 299.699 220.108 299.483C220.593 299.267 221.142 299.159 221.756 299.159C222.619 299.159 223.297 299.348 223.79 299.727C224.286 300.106 224.638 300.606 224.847 301.227ZM229.001 308L226.342 299.273H227.751L229.638 305.955H229.729L231.592 299.273H233.024L234.865 305.932H234.956L236.842 299.273H238.251L235.592 308H234.274L232.365 301.295H232.229L230.32 308H229.001ZM243.386 308.182C242.545 308.182 241.82 307.996 241.21 307.625C240.604 307.25 240.136 306.727 239.807 306.057C239.481 305.383 239.318 304.598 239.318 303.705C239.318 302.811 239.481 302.023 239.807 301.341C240.136 300.655 240.595 300.121 241.182 299.739C241.773 299.352 242.462 299.159 243.25 299.159C243.705 299.159 244.153 299.235 244.597 299.386C245.04 299.538 245.443 299.784 245.807 300.125C246.17 300.462 246.46 300.909 246.676 301.466C246.892 302.023 247 302.708 247 303.523V304.091H240.273V302.932H245.636C245.636 302.439 245.538 302 245.341 301.614C245.148 301.227 244.871 300.922 244.511 300.699C244.155 300.475 243.735 300.364 243.25 300.364C242.716 300.364 242.254 300.496 241.864 300.761C241.477 301.023 241.18 301.364 240.972 301.784C240.763 302.205 240.659 302.655 240.659 303.136V303.909C240.659 304.568 240.773 305.127 241 305.585C241.231 306.04 241.551 306.386 241.96 306.625C242.369 306.86 242.845 306.977 243.386 306.977C243.739 306.977 244.057 306.928 244.341 306.83C244.629 306.727 244.877 306.576 245.085 306.375C245.294 306.17 245.455 305.917 245.568 305.614L246.864 305.977C246.727 306.417 246.498 306.803 246.176 307.136C245.854 307.466 245.456 307.723 244.983 307.909C244.509 308.091 243.977 308.182 243.386 308.182ZM249.04 308V299.273H250.335V300.591H250.426C250.585 300.159 250.873 299.809 251.29 299.54C251.706 299.271 252.176 299.136 252.699 299.136C252.797 299.136 252.92 299.138 253.068 299.142C253.216 299.146 253.328 299.152 253.403 299.159V300.523C253.358 300.511 253.254 300.494 253.091 300.472C252.932 300.445 252.763 300.432 252.585 300.432C252.161 300.432 251.782 300.521 251.449 300.699C251.119 300.873 250.858 301.116 250.665 301.426C250.475 301.733 250.381 302.083 250.381 302.477V308H249.04ZM255.993 306.409L255.902 307.023C255.838 307.455 255.739 307.917 255.607 308.409C255.478 308.902 255.343 309.366 255.203 309.801C255.063 310.237 254.947 310.583 254.857 310.841H253.834C253.883 310.598 253.947 310.278 254.027 309.881C254.107 309.483 254.186 309.038 254.266 308.545C254.349 308.057 254.417 307.557 254.47 307.045L254.538 306.409H255.993ZM65.3217 327L62.6626 318.273H64.0717L65.9581 324.955H66.049L67.9126 318.273H69.3445L71.1854 324.932H71.2763L73.1626 318.273H74.5717L71.9126 327H70.5945L68.6854 320.295H68.549L66.6399 327H65.3217ZM79.7067 327.182C78.8658 327.182 78.1404 326.996 77.5305 326.625C76.9245 326.25 76.4567 325.727 76.1271 325.057C75.8014 324.383 75.6385 323.598 75.6385 322.705C75.6385 321.811 75.8014 321.023 76.1271 320.341C76.4567 319.655 76.915 319.121 77.5021 318.739C78.093 318.352 78.7824 318.159 79.5703 318.159C80.0249 318.159 80.4737 318.235 80.9169 318.386C81.3601 318.538 81.7635 318.784 82.1271 319.125C82.4908 319.462 82.7805 319.909 82.9964 320.466C83.2124 321.023 83.3203 321.708 83.3203 322.523V323.091H76.593V321.932H81.9567C81.9567 321.439 81.8582 321 81.6612 320.614C81.468 320.227 81.1915 319.922 80.8317 319.699C80.4756 319.475 80.0552 319.364 79.5703 319.364C79.0362 319.364 78.5741 319.496 78.1839 319.761C77.7976 320.023 77.5002 320.364 77.2919 320.784C77.0836 321.205 76.9794 321.655 76.9794 322.136V322.909C76.9794 323.568 77.093 324.127 77.3203 324.585C77.5514 325.04 77.8714 325.386 78.2805 325.625C78.6896 325.86 79.165 325.977 79.7067 325.977C80.0589 325.977 80.3771 325.928 80.6612 325.83C80.9491 325.727 81.1972 325.576 81.4055 325.375C81.6139 325.17 81.7749 324.917 81.8885 324.614L83.1839 324.977C83.0476 325.417 82.8184 325.803 82.4964 326.136C82.1745 326.466 81.7768 326.723 81.3033 326.909C80.8298 327.091 80.2976 327.182 79.7067 327.182ZM92.4283 327.205C91.8752 327.205 91.3733 327.1 90.9226 326.892C90.4718 326.68 90.1139 326.375 89.8487 325.977C89.5836 325.576 89.451 325.091 89.451 324.523C89.451 324.023 89.5495 323.617 89.7464 323.307C89.9434 322.992 90.2067 322.746 90.5362 322.568C90.8658 322.39 91.2294 322.258 91.6271 322.17C92.0286 322.08 92.4321 322.008 92.8374 321.955C93.3677 321.886 93.7976 321.835 94.1271 321.801C94.4605 321.763 94.7029 321.701 94.8544 321.614C95.0097 321.527 95.0874 321.375 95.0874 321.159V321.114C95.0874 320.553 94.9339 320.117 94.6271 319.807C94.3241 319.496 93.8639 319.341 93.2464 319.341C92.6063 319.341 92.1044 319.481 91.7408 319.761C91.3771 320.042 91.1214 320.341 90.9737 320.659L89.701 320.205C89.9283 319.674 90.2313 319.261 90.6101 318.966C90.9927 318.667 91.4093 318.458 91.8601 318.341C92.3146 318.22 92.7616 318.159 93.201 318.159C93.4813 318.159 93.8033 318.193 94.1669 318.261C94.5343 318.326 94.8885 318.46 95.2294 318.665C95.5741 318.869 95.8601 319.178 96.0874 319.591C96.3146 320.004 96.4283 320.557 96.4283 321.25V327H95.0874V325.818H95.0192C94.9283 326.008 94.7768 326.21 94.5646 326.426C94.3525 326.642 94.0703 326.826 93.718 326.977C93.3658 327.129 92.9358 327.205 92.4283 327.205ZM92.6328 326C93.1631 326 93.6101 325.896 93.9737 325.688C94.3411 325.479 94.6177 325.21 94.8033 324.881C94.9927 324.551 95.0874 324.205 95.0874 323.841V322.614C95.0305 322.682 94.9055 322.744 94.7124 322.801C94.523 322.854 94.3033 322.902 94.0533 322.943C93.8071 322.981 93.5665 323.015 93.3317 323.045C93.1006 323.072 92.9131 323.095 92.7692 323.114C92.4207 323.159 92.0949 323.233 91.7919 323.335C91.4927 323.434 91.2502 323.583 91.0646 323.784C90.8828 323.981 90.7919 324.25 90.7919 324.591C90.7919 325.057 90.9643 325.409 91.3089 325.648C91.6574 325.883 92.0987 326 92.6328 326ZM98.8757 327V318.273H100.171V319.591H100.262C100.421 319.159 100.709 318.809 101.126 318.54C101.542 318.271 102.012 318.136 102.535 318.136C102.633 318.136 102.756 318.138 102.904 318.142C103.052 318.146 103.164 318.152 103.239 318.159V319.523C103.194 319.511 103.09 319.494 102.927 319.472C102.768 319.445 102.599 319.432 102.421 319.432C101.997 319.432 101.618 319.521 101.285 319.699C100.955 319.873 100.694 320.116 100.501 320.426C100.311 320.733 100.217 321.083 100.217 321.477V327H98.8757ZM108.222 327.182C107.381 327.182 106.656 326.996 106.046 326.625C105.44 326.25 104.972 325.727 104.643 325.057C104.317 324.383 104.154 323.598 104.154 322.705C104.154 321.811 104.317 321.023 104.643 320.341C104.972 319.655 105.431 319.121 106.018 318.739C106.609 318.352 107.298 318.159 108.086 318.159C108.54 318.159 108.989 318.235 109.433 318.386C109.876 318.538 110.279 318.784 110.643 319.125C111.006 319.462 111.296 319.909 111.512 320.466C111.728 321.023 111.836 321.708 111.836 322.523V323.091H105.109V321.932H110.472C110.472 321.439 110.374 321 110.177 320.614C109.984 320.227 109.707 319.922 109.347 319.699C108.991 319.475 108.571 319.364 108.086 319.364C107.552 319.364 107.09 319.496 106.7 319.761C106.313 320.023 106.016 320.364 105.808 320.784C105.599 321.205 105.495 321.655 105.495 322.136V322.909C105.495 323.568 105.609 324.127 105.836 324.585C106.067 325.04 106.387 325.386 106.796 325.625C107.205 325.86 107.681 325.977 108.222 325.977C108.575 325.977 108.893 325.928 109.177 325.83C109.465 325.727 109.713 325.576 109.921 325.375C110.129 325.17 110.29 324.917 110.404 324.614L111.7 324.977C111.563 325.417 111.334 325.803 111.012 326.136C110.69 326.466 110.292 326.723 109.819 326.909C109.345 327.091 108.813 327.182 108.222 327.182ZM118.376 327V318.273H119.671V319.591H119.762C119.921 319.159 120.209 318.809 120.626 318.54C121.042 318.271 121.512 318.136 122.035 318.136C122.133 318.136 122.256 318.138 122.404 318.142C122.552 318.146 122.664 318.152 122.739 318.159V319.523C122.694 319.511 122.59 319.494 122.427 319.472C122.268 319.445 122.099 319.432 121.921 319.432C121.497 319.432 121.118 319.521 120.785 319.699C120.455 319.873 120.194 320.116 120.001 320.426C119.811 320.733 119.717 321.083 119.717 321.477V327H118.376ZM127.722 327.182C126.881 327.182 126.156 326.996 125.546 326.625C124.94 326.25 124.472 325.727 124.143 325.057C123.817 324.383 123.654 323.598 123.654 322.705C123.654 321.811 123.817 321.023 124.143 320.341C124.472 319.655 124.931 319.121 125.518 318.739C126.109 318.352 126.798 318.159 127.586 318.159C128.04 318.159 128.489 318.235 128.933 318.386C129.376 318.538 129.779 318.784 130.143 319.125C130.506 319.462 130.796 319.909 131.012 320.466C131.228 321.023 131.336 321.708 131.336 322.523V323.091H124.609V321.932H129.972C129.972 321.439 129.874 321 129.677 320.614C129.484 320.227 129.207 319.922 128.847 319.699C128.491 319.475 128.071 319.364 127.586 319.364C127.052 319.364 126.59 319.496 126.2 319.761C125.813 320.023 125.516 320.364 125.308 320.784C125.099 321.205 124.995 321.655 124.995 322.136V322.909C124.995 323.568 125.109 324.127 125.336 324.585C125.567 325.04 125.887 325.386 126.296 325.625C126.705 325.86 127.181 325.977 127.722 325.977C128.075 325.977 128.393 325.928 128.677 325.83C128.965 325.727 129.213 325.576 129.421 325.375C129.629 325.17 129.79 324.917 129.904 324.614L131.2 324.977C131.063 325.417 130.834 325.803 130.512 326.136C130.19 326.466 129.792 326.723 129.319 326.909C128.845 327.091 128.313 327.182 127.722 327.182ZM135.944 327.205C135.391 327.205 134.889 327.1 134.438 326.892C133.987 326.68 133.629 326.375 133.364 325.977C133.099 325.576 132.967 325.091 132.967 324.523C132.967 324.023 133.065 323.617 133.262 323.307C133.459 322.992 133.722 322.746 134.052 322.568C134.381 322.39 134.745 322.258 135.143 322.17C135.544 322.08 135.948 322.008 136.353 321.955C136.883 321.886 137.313 321.835 137.643 321.801C137.976 321.763 138.219 321.701 138.37 321.614C138.525 321.527 138.603 321.375 138.603 321.159V321.114C138.603 320.553 138.45 320.117 138.143 319.807C137.84 319.496 137.379 319.341 136.762 319.341C136.122 319.341 135.62 319.481 135.256 319.761C134.893 320.042 134.637 320.341 134.489 320.659L133.217 320.205C133.444 319.674 133.747 319.261 134.126 318.966C134.508 318.667 134.925 318.458 135.376 318.341C135.83 318.22 136.277 318.159 136.717 318.159C136.997 318.159 137.319 318.193 137.683 318.261C138.05 318.326 138.404 318.46 138.745 318.665C139.09 318.869 139.376 319.178 139.603 319.591C139.83 320.004 139.944 320.557 139.944 321.25V327H138.603V325.818H138.535C138.444 326.008 138.292 326.21 138.08 326.426C137.868 326.642 137.586 326.826 137.234 326.977C136.881 327.129 136.451 327.205 135.944 327.205ZM136.148 326C136.679 326 137.126 325.896 137.489 325.688C137.857 325.479 138.133 325.21 138.319 324.881C138.508 324.551 138.603 324.205 138.603 323.841V322.614C138.546 322.682 138.421 322.744 138.228 322.801C138.039 322.854 137.819 322.902 137.569 322.943C137.323 322.981 137.082 323.015 136.847 323.045C136.616 323.072 136.429 323.095 136.285 323.114C135.936 323.159 135.611 323.233 135.308 323.335C135.008 323.434 134.766 323.583 134.58 323.784C134.398 323.981 134.308 324.25 134.308 324.591C134.308 325.057 134.48 325.409 134.825 325.648C135.173 325.883 135.614 326 136.148 326ZM145.687 327.182C144.96 327.182 144.317 326.998 143.761 326.631C143.204 326.259 142.768 325.737 142.454 325.062C142.139 324.384 141.982 323.583 141.982 322.659C141.982 321.742 142.139 320.947 142.454 320.273C142.768 319.598 143.206 319.078 143.766 318.71C144.327 318.343 144.975 318.159 145.71 318.159C146.278 318.159 146.727 318.254 147.056 318.443C147.389 318.629 147.643 318.841 147.817 319.08C147.996 319.314 148.134 319.508 148.232 319.659H148.346V315.364H149.687V327H148.391V325.659H148.232C148.134 325.818 147.994 326.019 147.812 326.261C147.63 326.5 147.371 326.714 147.033 326.903C146.696 327.089 146.247 327.182 145.687 327.182ZM145.869 325.977C146.406 325.977 146.861 325.837 147.232 325.557C147.603 325.273 147.886 324.881 148.079 324.381C148.272 323.877 148.369 323.295 148.369 322.636C148.369 321.985 148.274 321.415 148.085 320.926C147.895 320.434 147.615 320.051 147.244 319.778C146.872 319.502 146.414 319.364 145.869 319.364C145.3 319.364 144.827 319.509 144.448 319.801C144.073 320.089 143.791 320.481 143.602 320.977C143.416 321.47 143.323 322.023 143.323 322.636C143.323 323.258 143.418 323.822 143.607 324.33C143.8 324.833 144.085 325.235 144.46 325.534C144.838 325.83 145.308 325.977 145.869 325.977ZM152.329 327V318.273H153.67V327H152.329ZM153.011 316.818C152.749 316.818 152.524 316.729 152.335 316.551C152.149 316.373 152.056 316.159 152.056 315.909C152.056 315.659 152.149 315.445 152.335 315.267C152.524 315.089 152.749 315 153.011 315C153.272 315 153.496 315.089 153.681 315.267C153.871 315.445 153.965 315.659 153.965 315.909C153.965 316.159 153.871 316.373 153.681 316.551C153.496 316.729 153.272 316.818 153.011 316.818ZM157.467 315.364V327H156.126V315.364H157.467ZM160.786 330.273C160.559 330.273 160.356 330.254 160.178 330.216C160 330.182 159.877 330.148 159.809 330.114L160.15 328.932C160.476 329.015 160.763 329.045 161.013 329.023C161.263 329 161.485 328.888 161.678 328.688C161.875 328.491 162.055 328.17 162.218 327.727L162.468 327.045L159.241 318.273H160.695L163.104 325.227H163.195L165.604 318.273H167.059L163.354 328.273C163.188 328.723 162.981 329.097 162.735 329.392C162.489 329.691 162.203 329.913 161.877 330.057C161.555 330.201 161.192 330.273 160.786 330.273ZM175.897 327.205C175.344 327.205 174.842 327.1 174.391 326.892C173.941 326.68 173.583 326.375 173.317 325.977C173.052 325.576 172.92 325.091 172.92 324.523C172.92 324.023 173.018 323.617 173.215 323.307C173.412 322.992 173.675 322.746 174.005 322.568C174.335 322.39 174.698 322.258 175.096 322.17C175.497 322.08 175.901 322.008 176.306 321.955C176.836 321.886 177.266 321.835 177.596 321.801C177.929 321.763 178.172 321.701 178.323 321.614C178.478 321.527 178.556 321.375 178.556 321.159V321.114C178.556 320.553 178.403 320.117 178.096 319.807C177.793 319.496 177.333 319.341 176.715 319.341C176.075 319.341 175.573 319.481 175.21 319.761C174.846 320.042 174.59 320.341 174.442 320.659L173.17 320.205C173.397 319.674 173.7 319.261 174.079 318.966C174.461 318.667 174.878 318.458 175.329 318.341C175.783 318.22 176.23 318.159 176.67 318.159C176.95 318.159 177.272 318.193 177.636 318.261C178.003 318.326 178.357 318.46 178.698 318.665C179.043 318.869 179.329 319.178 179.556 319.591C179.783 320.004 179.897 320.557 179.897 321.25V327H178.556V325.818H178.488C178.397 326.008 178.246 326.21 178.033 326.426C177.821 326.642 177.539 326.826 177.187 326.977C176.835 327.129 176.405 327.205 175.897 327.205ZM176.102 326C176.632 326 177.079 325.896 177.442 325.688C177.81 325.479 178.086 325.21 178.272 324.881C178.461 324.551 178.556 324.205 178.556 323.841V322.614C178.499 322.682 178.374 322.744 178.181 322.801C177.992 322.854 177.772 322.902 177.522 322.943C177.276 322.981 177.035 323.015 176.8 323.045C176.569 323.072 176.382 323.095 176.238 323.114C175.889 323.159 175.564 323.233 175.261 323.335C174.961 323.434 174.719 323.583 174.533 323.784C174.352 323.981 174.261 324.25 174.261 324.591C174.261 325.057 174.433 325.409 174.778 325.648C175.126 325.883 175.567 326 176.102 326ZM189.168 318.273L185.941 327H184.577L181.35 318.273H182.805L185.214 325.227H185.305L187.714 318.273H189.168ZM193.241 327.205C192.688 327.205 192.186 327.1 191.735 326.892C191.284 326.68 190.926 326.375 190.661 325.977C190.396 325.576 190.263 325.091 190.263 324.523C190.263 324.023 190.362 323.617 190.559 323.307C190.756 322.992 191.019 322.746 191.349 322.568C191.678 322.39 192.042 322.258 192.44 322.17C192.841 322.08 193.245 322.008 193.65 321.955C194.18 321.886 194.61 321.835 194.94 321.801C195.273 321.763 195.515 321.701 195.667 321.614C195.822 321.527 195.9 321.375 195.9 321.159V321.114C195.9 320.553 195.746 320.117 195.44 319.807C195.137 319.496 194.676 319.341 194.059 319.341C193.419 319.341 192.917 319.481 192.553 319.761C192.19 320.042 191.934 320.341 191.786 320.659L190.513 320.205C190.741 319.674 191.044 319.261 191.423 318.966C191.805 318.667 192.222 318.458 192.673 318.341C193.127 318.22 193.574 318.159 194.013 318.159C194.294 318.159 194.616 318.193 194.979 318.261C195.347 318.326 195.701 318.46 196.042 318.665C196.387 318.869 196.673 319.178 196.9 319.591C197.127 320.004 197.241 320.557 197.241 321.25V327H195.9V325.818H195.832C195.741 326.008 195.589 326.21 195.377 326.426C195.165 326.642 194.883 326.826 194.531 326.977C194.178 327.129 193.748 327.205 193.241 327.205ZM193.445 326C193.976 326 194.423 325.896 194.786 325.688C195.154 325.479 195.43 325.21 195.616 324.881C195.805 324.551 195.9 324.205 195.9 323.841V322.614C195.843 322.682 195.718 322.744 195.525 322.801C195.335 322.854 195.116 322.902 194.866 322.943C194.62 322.981 194.379 323.015 194.144 323.045C193.913 323.072 193.726 323.095 193.582 323.114C193.233 323.159 192.907 323.233 192.604 323.335C192.305 323.434 192.063 323.583 191.877 323.784C191.695 323.981 191.604 324.25 191.604 324.591C191.604 325.057 191.777 325.409 192.121 325.648C192.47 325.883 192.911 326 193.445 326ZM199.688 327V318.273H201.029V327H199.688ZM200.37 316.818C200.109 316.818 199.883 316.729 199.694 316.551C199.508 316.373 199.415 316.159 199.415 315.909C199.415 315.659 199.508 315.445 199.694 315.267C199.883 315.089 200.109 315 200.37 315C200.631 315 200.855 315.089 201.04 315.267C201.23 315.445 201.325 315.659 201.325 315.909C201.325 316.159 201.23 316.373 201.04 316.551C200.855 316.729 200.631 316.818 200.37 316.818ZM204.826 315.364V327H203.485V315.364H204.826ZM209.85 327.205C209.297 327.205 208.795 327.1 208.344 326.892C207.894 326.68 207.536 326.375 207.271 325.977C207.005 325.576 206.873 325.091 206.873 324.523C206.873 324.023 206.971 323.617 207.168 323.307C207.365 322.992 207.629 322.746 207.958 322.568C208.288 322.39 208.651 322.258 209.049 322.17C209.451 322.08 209.854 322.008 210.259 321.955C210.79 321.886 211.219 321.835 211.549 321.801C211.882 321.763 212.125 321.701 212.276 321.614C212.432 321.527 212.509 321.375 212.509 321.159V321.114C212.509 320.553 212.356 320.117 212.049 319.807C211.746 319.496 211.286 319.341 210.668 319.341C210.028 319.341 209.526 319.481 209.163 319.761C208.799 320.042 208.543 320.341 208.396 320.659L207.123 320.205C207.35 319.674 207.653 319.261 208.032 318.966C208.415 318.667 208.831 318.458 209.282 318.341C209.737 318.22 210.183 318.159 210.623 318.159C210.903 318.159 211.225 318.193 211.589 318.261C211.956 318.326 212.31 318.46 212.651 318.665C212.996 318.869 213.282 319.178 213.509 319.591C213.737 320.004 213.85 320.557 213.85 321.25V327H212.509V325.818H212.441C212.35 326.008 212.199 326.21 211.987 326.426C211.774 326.642 211.492 326.826 211.14 326.977C210.788 327.129 210.358 327.205 209.85 327.205ZM210.055 326C210.585 326 211.032 325.896 211.396 325.688C211.763 325.479 212.04 325.21 212.225 324.881C212.415 324.551 212.509 324.205 212.509 323.841V322.614C212.452 322.682 212.327 322.744 212.134 322.801C211.945 322.854 211.725 322.902 211.475 322.943C211.229 322.981 210.988 323.015 210.754 323.045C210.522 323.072 210.335 323.095 210.191 323.114C209.843 323.159 209.517 323.233 209.214 323.335C208.915 323.434 208.672 323.583 208.487 323.784C208.305 323.981 208.214 324.25 208.214 324.591C208.214 325.057 208.386 325.409 208.731 325.648C209.079 325.883 209.521 326 210.055 326ZM216.479 327V315.364H217.82V319.659H217.934C218.032 319.508 218.169 319.314 218.343 319.08C218.521 318.841 218.775 318.629 219.104 318.443C219.438 318.254 219.888 318.159 220.457 318.159C221.192 318.159 221.839 318.343 222.4 318.71C222.96 319.078 223.398 319.598 223.712 320.273C224.027 320.947 224.184 321.742 224.184 322.659C224.184 323.583 224.027 324.384 223.712 325.062C223.398 325.737 222.962 326.259 222.406 326.631C221.849 326.998 221.207 327.182 220.479 327.182C219.919 327.182 219.47 327.089 219.133 326.903C218.796 326.714 218.536 326.5 218.354 326.261C218.173 326.019 218.032 325.818 217.934 325.659H217.775V327H216.479ZM217.798 322.636C217.798 323.295 217.894 323.877 218.087 324.381C218.281 324.881 218.563 325.273 218.934 325.557C219.305 325.837 219.76 325.977 220.298 325.977C220.858 325.977 221.326 325.83 221.701 325.534C222.08 325.235 222.364 324.833 222.553 324.33C222.746 323.822 222.843 323.258 222.843 322.636C222.843 322.023 222.748 321.47 222.559 320.977C222.373 320.481 222.091 320.089 221.712 319.801C221.337 319.509 220.866 319.364 220.298 319.364C219.752 319.364 219.294 319.502 218.923 319.778C218.551 320.051 218.271 320.434 218.082 320.926C217.892 321.415 217.798 321.985 217.798 322.636ZM227.576 315.364V327H226.235V315.364H227.576ZM233.691 327.182C232.85 327.182 232.125 326.996 231.515 326.625C230.909 326.25 230.441 325.727 230.112 325.057C229.786 324.383 229.623 323.598 229.623 322.705C229.623 321.811 229.786 321.023 230.112 320.341C230.441 319.655 230.899 319.121 231.487 318.739C232.077 318.352 232.767 318.159 233.555 318.159C234.009 318.159 234.458 318.235 234.901 318.386C235.344 318.538 235.748 318.784 236.112 319.125C236.475 319.462 236.765 319.909 236.981 320.466C237.197 321.023 237.305 321.708 237.305 322.523V323.091H230.577V321.932H235.941C235.941 321.439 235.843 321 235.646 320.614C235.452 320.227 235.176 319.922 234.816 319.699C234.46 319.475 234.04 319.364 233.555 319.364C233.021 319.364 232.558 319.496 232.168 319.761C231.782 320.023 231.485 320.364 231.276 320.784C231.068 321.205 230.964 321.655 230.964 322.136V322.909C230.964 323.568 231.077 324.127 231.305 324.585C231.536 325.04 231.856 325.386 232.265 325.625C232.674 325.86 233.149 325.977 233.691 325.977C234.043 325.977 234.362 325.928 234.646 325.83C234.933 325.727 235.182 325.576 235.39 325.375C235.598 325.17 235.759 324.917 235.873 324.614L237.168 324.977C237.032 325.417 236.803 325.803 236.481 326.136C236.159 326.466 235.761 326.723 235.288 326.909C234.814 327.091 234.282 327.182 233.691 327.182ZM247.64 318.273V319.409H243.117V318.273H247.64ZM244.435 316.182H245.776V324.5C245.776 324.879 245.831 325.163 245.941 325.352C246.055 325.538 246.199 325.663 246.373 325.727C246.551 325.788 246.738 325.818 246.935 325.818C247.083 325.818 247.204 325.811 247.299 325.795C247.394 325.777 247.469 325.761 247.526 325.75L247.799 326.955C247.708 326.989 247.581 327.023 247.418 327.057C247.255 327.095 247.049 327.114 246.799 327.114C246.42 327.114 246.049 327.032 245.685 326.869C245.326 326.706 245.026 326.458 244.788 326.125C244.553 325.792 244.435 325.371 244.435 324.864V316.182ZM253.109 327.182C252.321 327.182 251.629 326.994 251.035 326.619C250.444 326.244 249.982 325.72 249.648 325.045C249.319 324.371 249.154 323.583 249.154 322.682C249.154 321.773 249.319 320.979 249.648 320.301C249.982 319.623 250.444 319.097 251.035 318.722C251.629 318.347 252.321 318.159 253.109 318.159C253.897 318.159 254.586 318.347 255.177 318.722C255.772 319.097 256.234 319.623 256.563 320.301C256.897 320.979 257.063 321.773 257.063 322.682C257.063 323.583 256.897 324.371 256.563 325.045C256.234 325.72 255.772 326.244 255.177 326.619C254.586 326.994 253.897 327.182 253.109 327.182ZM253.109 325.977C253.707 325.977 254.2 325.824 254.586 325.517C254.972 325.21 255.258 324.807 255.444 324.307C255.629 323.807 255.722 323.265 255.722 322.682C255.722 322.098 255.629 321.555 255.444 321.051C255.258 320.547 254.972 320.14 254.586 319.83C254.2 319.519 253.707 319.364 253.109 319.364C252.51 319.364 252.018 319.519 251.631 319.83C251.245 320.14 250.959 320.547 250.773 321.051C250.588 321.555 250.495 322.098 250.495 322.682C250.495 323.265 250.588 323.807 250.773 324.307C250.959 324.807 251.245 325.21 251.631 325.517C252.018 325.824 252.51 325.977 253.109 325.977ZM73.8743 346.182C73.147 346.182 72.505 345.998 71.9482 345.631C71.3913 345.259 70.9557 344.737 70.6413 344.062C70.3269 343.384 70.1697 342.583 70.1697 341.659C70.1697 340.742 70.3269 339.947 70.6413 339.273C70.9557 338.598 71.3932 338.078 71.9538 337.71C72.5144 337.343 73.1622 337.159 73.897 337.159C74.4652 337.159 74.9141 337.254 75.2436 337.443C75.5769 337.629 75.8307 337.841 76.005 338.08C76.183 338.314 76.3213 338.508 76.4197 338.659H76.5334V334.364H77.8743V346H76.5788V344.659H76.4197C76.3213 344.818 76.1811 345.019 75.9993 345.261C75.8175 345.5 75.558 345.714 75.2209 345.903C74.8838 346.089 74.4349 346.182 73.8743 346.182ZM74.0561 344.977C74.594 344.977 75.0485 344.837 75.4197 344.557C75.791 344.273 76.0732 343.881 76.2663 343.381C76.4595 342.877 76.5561 342.295 76.5561 341.636C76.5561 340.985 76.4614 340.415 76.272 339.926C76.0826 339.434 75.8023 339.051 75.4311 338.778C75.0599 338.502 74.6016 338.364 74.0561 338.364C73.4879 338.364 73.0144 338.509 72.6357 338.801C72.2607 339.089 71.9785 339.481 71.7891 339.977C71.6035 340.47 71.5107 341.023 71.5107 341.636C71.5107 342.258 71.6054 342.822 71.7947 343.33C71.9879 343.833 72.272 344.235 72.647 344.534C73.0258 344.83 73.4955 344.977 74.0561 344.977ZM84.1754 346.182C83.3345 346.182 82.6091 345.996 81.9993 345.625C81.3932 345.25 80.9254 344.727 80.5959 344.057C80.2701 343.383 80.1072 342.598 80.1072 341.705C80.1072 340.811 80.2701 340.023 80.5959 339.341C80.9254 338.655 81.3838 338.121 81.9709 337.739C82.5618 337.352 83.2512 337.159 84.0391 337.159C84.4936 337.159 84.9425 337.235 85.3857 337.386C85.8288 337.538 86.2322 337.784 86.5959 338.125C86.9595 338.462 87.2493 338.909 87.4652 339.466C87.6811 340.023 87.7891 340.708 87.7891 341.523V342.091H81.0618V340.932H86.4254C86.4254 340.439 86.3269 340 86.13 339.614C85.9368 339.227 85.6603 338.922 85.3004 338.699C84.9444 338.475 84.5239 338.364 84.0391 338.364C83.505 338.364 83.0429 338.496 82.6527 338.761C82.2663 339.023 81.969 339.364 81.7607 339.784C81.5523 340.205 81.4482 340.655 81.4482 341.136V341.909C81.4482 342.568 81.5618 343.127 81.7891 343.585C82.0201 344.04 82.3402 344.386 82.7493 344.625C83.1584 344.86 83.6338 344.977 84.1754 344.977C84.5277 344.977 84.8459 344.928 85.13 344.83C85.4179 344.727 85.666 344.576 85.8743 344.375C86.0826 344.17 86.2436 343.917 86.3572 343.614L87.6527 343.977C87.5163 344.417 87.2872 344.803 86.9652 345.136C86.6432 345.466 86.2455 345.723 85.772 345.909C85.2985 346.091 84.7663 346.182 84.1754 346.182ZM91.1697 334.364V346H89.8288V334.364H91.1697ZM93.6257 346V337.273H94.9666V346H93.6257ZM94.3075 335.818C94.0462 335.818 93.8208 335.729 93.6314 335.551C93.4458 335.373 93.353 335.159 93.353 334.909C93.353 334.659 93.4458 334.445 93.6314 334.267C93.8208 334.089 94.0462 334 94.3075 334C94.5689 334 94.7924 334.089 94.978 334.267C95.1674 334.445 95.2621 334.659 95.2621 334.909C95.2621 335.159 95.1674 335.373 94.978 335.551C94.7924 335.729 94.5689 335.818 94.3075 335.818ZM104.559 337.273L101.332 346H99.968L96.7408 337.273H98.1953L100.604 344.227H100.695L103.104 337.273H104.559ZM109.675 346.182C108.835 346.182 108.109 345.996 107.499 345.625C106.893 345.25 106.425 344.727 106.096 344.057C105.77 343.383 105.607 342.598 105.607 341.705C105.607 340.811 105.77 340.023 106.096 339.341C106.425 338.655 106.884 338.121 107.471 337.739C108.062 337.352 108.751 337.159 109.539 337.159C109.994 337.159 110.442 337.235 110.886 337.386C111.329 337.538 111.732 337.784 112.096 338.125C112.46 338.462 112.749 338.909 112.965 339.466C113.181 340.023 113.289 340.708 113.289 341.523V342.091H106.562V340.932H111.925C111.925 340.439 111.827 340 111.63 339.614C111.437 339.227 111.16 338.922 110.8 338.699C110.444 338.475 110.024 338.364 109.539 338.364C109.005 338.364 108.543 338.496 108.153 338.761C107.766 339.023 107.469 339.364 107.261 339.784C107.052 340.205 106.948 340.655 106.948 341.136V341.909C106.948 342.568 107.062 343.127 107.289 343.585C107.52 344.04 107.84 344.386 108.249 344.625C108.658 344.86 109.134 344.977 109.675 344.977C110.028 344.977 110.346 344.928 110.63 344.83C110.918 344.727 111.166 344.576 111.374 344.375C111.583 344.17 111.744 343.917 111.857 343.614L113.153 343.977C113.016 344.417 112.787 344.803 112.465 345.136C112.143 345.466 111.746 345.723 111.272 345.909C110.799 346.091 110.266 346.182 109.675 346.182ZM115.329 346V337.273H116.624V338.591H116.715C116.874 338.159 117.162 337.809 117.579 337.54C117.996 337.271 118.465 337.136 118.988 337.136C119.086 337.136 119.21 337.138 119.357 337.142C119.505 337.146 119.617 337.152 119.692 337.159V338.523C119.647 338.511 119.543 338.494 119.38 338.472C119.221 338.445 119.052 338.432 118.874 338.432C118.45 338.432 118.071 338.521 117.738 338.699C117.408 338.873 117.147 339.116 116.954 339.426C116.764 339.733 116.67 340.083 116.67 340.477V346H115.329ZM126.646 349.273C126.418 349.273 126.216 349.254 126.038 349.216C125.86 349.182 125.737 349.148 125.668 349.114L126.009 347.932C126.335 348.015 126.623 348.045 126.873 348.023C127.123 348 127.344 347.888 127.538 347.688C127.735 347.491 127.915 347.17 128.077 346.727L128.327 346.045L125.1 337.273H126.555L128.964 344.227H129.055L131.464 337.273H132.918L129.214 347.273C129.047 347.723 128.841 348.097 128.594 348.392C128.348 348.691 128.062 348.913 127.737 349.057C127.415 349.201 127.051 349.273 126.646 349.273ZM137.921 346.182C137.133 346.182 136.442 345.994 135.847 345.619C135.256 345.244 134.794 344.72 134.461 344.045C134.131 343.371 133.967 342.583 133.967 341.682C133.967 340.773 134.131 339.979 134.461 339.301C134.794 338.623 135.256 338.097 135.847 337.722C136.442 337.347 137.133 337.159 137.921 337.159C138.709 337.159 139.398 337.347 139.989 337.722C140.584 338.097 141.046 338.623 141.376 339.301C141.709 339.979 141.876 340.773 141.876 341.682C141.876 342.583 141.709 343.371 141.376 344.045C141.046 344.72 140.584 345.244 139.989 345.619C139.398 345.994 138.709 346.182 137.921 346.182ZM137.921 344.977C138.52 344.977 139.012 344.824 139.398 344.517C139.785 344.21 140.071 343.807 140.256 343.307C140.442 342.807 140.535 342.265 140.535 341.682C140.535 341.098 140.442 340.555 140.256 340.051C140.071 339.547 139.785 339.14 139.398 338.83C139.012 338.519 138.52 338.364 137.921 338.364C137.323 338.364 136.83 338.519 136.444 338.83C136.058 339.14 135.772 339.547 135.586 340.051C135.4 340.555 135.308 341.098 135.308 341.682C135.308 342.265 135.4 342.807 135.586 343.307C135.772 343.807 136.058 344.21 136.444 344.517C136.83 344.824 137.323 344.977 137.921 344.977ZM149.423 342.432V337.273H150.763V346H149.423V344.523H149.332C149.127 344.966 148.809 345.343 148.377 345.653C147.945 345.96 147.4 346.114 146.741 346.114C146.195 346.114 145.71 345.994 145.286 345.756C144.862 345.513 144.529 345.15 144.286 344.665C144.044 344.176 143.923 343.561 143.923 342.818V337.273H145.263V342.727C145.263 343.364 145.442 343.871 145.798 344.25C146.157 344.629 146.616 344.818 147.173 344.818C147.506 344.818 147.845 344.733 148.19 344.562C148.538 344.392 148.83 344.131 149.065 343.778C149.303 343.426 149.423 342.977 149.423 342.432ZM153.219 346V337.273H154.515V338.591H154.606C154.765 338.159 155.053 337.809 155.469 337.54C155.886 337.271 156.356 337.136 156.879 337.136C156.977 337.136 157.1 337.138 157.248 337.142C157.396 337.146 157.507 337.152 157.583 337.159V338.523C157.538 338.511 157.433 338.494 157.271 338.472C157.112 338.445 156.943 338.432 156.765 338.432C156.341 338.432 155.962 338.521 155.629 338.699C155.299 338.873 155.038 339.116 154.844 339.426C154.655 339.733 154.56 340.083 154.56 340.477V346H153.219ZM167.195 349.455C166.548 349.455 165.991 349.371 165.525 349.205C165.059 349.042 164.671 348.826 164.36 348.557C164.053 348.292 163.809 348.008 163.627 347.705L164.695 346.955C164.817 347.114 164.97 347.295 165.156 347.5C165.341 347.708 165.595 347.888 165.917 348.04C166.243 348.195 166.669 348.273 167.195 348.273C167.9 348.273 168.481 348.102 168.94 347.761C169.398 347.42 169.627 346.886 169.627 346.159V344.386H169.513C169.415 344.545 169.275 344.742 169.093 344.977C168.915 345.208 168.657 345.415 168.32 345.597C167.987 345.775 167.536 345.864 166.968 345.864C166.263 345.864 165.631 345.697 165.07 345.364C164.513 345.03 164.072 344.545 163.746 343.909C163.424 343.273 163.263 342.5 163.263 341.591C163.263 340.697 163.421 339.919 163.735 339.256C164.049 338.589 164.487 338.074 165.048 337.71C165.608 337.343 166.256 337.159 166.991 337.159C167.559 337.159 168.01 337.254 168.343 337.443C168.68 337.629 168.938 337.841 169.116 338.08C169.298 338.314 169.438 338.508 169.536 338.659H169.673V337.273H170.968V346.25C170.968 347 170.798 347.61 170.457 348.08C170.12 348.553 169.665 348.9 169.093 349.119C168.525 349.343 167.892 349.455 167.195 349.455ZM167.15 344.659C167.688 344.659 168.142 344.536 168.513 344.29C168.885 344.044 169.167 343.689 169.36 343.227C169.553 342.765 169.65 342.212 169.65 341.568C169.65 340.939 169.555 340.384 169.366 339.903C169.176 339.422 168.896 339.045 168.525 338.773C168.154 338.5 167.695 338.364 167.15 338.364C166.582 338.364 166.108 338.508 165.729 338.795C165.354 339.083 165.072 339.47 164.883 339.955C164.697 340.439 164.604 340.977 164.604 341.568C164.604 342.174 164.699 342.71 164.888 343.176C165.082 343.638 165.366 344.002 165.741 344.267C166.12 344.528 166.589 344.659 167.15 344.659ZM176.968 346.182C176.18 346.182 175.489 345.994 174.894 345.619C174.303 345.244 173.841 344.72 173.508 344.045C173.178 343.371 173.013 342.583 173.013 341.682C173.013 340.773 173.178 339.979 173.508 339.301C173.841 338.623 174.303 338.097 174.894 337.722C175.489 337.347 176.18 337.159 176.968 337.159C177.756 337.159 178.445 337.347 179.036 337.722C179.631 338.097 180.093 338.623 180.423 339.301C180.756 339.979 180.923 340.773 180.923 341.682C180.923 342.583 180.756 343.371 180.423 344.045C180.093 344.72 179.631 345.244 179.036 345.619C178.445 345.994 177.756 346.182 176.968 346.182ZM176.968 344.977C177.567 344.977 178.059 344.824 178.445 344.517C178.832 344.21 179.118 343.807 179.303 343.307C179.489 342.807 179.582 342.265 179.582 341.682C179.582 341.098 179.489 340.555 179.303 340.051C179.118 339.547 178.832 339.14 178.445 338.83C178.059 338.519 177.567 338.364 176.968 338.364C176.37 338.364 175.877 338.519 175.491 338.83C175.104 339.14 174.818 339.547 174.633 340.051C174.447 340.555 174.354 341.098 174.354 341.682C174.354 342.265 174.447 342.807 174.633 343.307C174.818 343.807 175.104 344.21 175.491 344.517C175.877 344.824 176.37 344.977 176.968 344.977ZM186.515 346.182C185.727 346.182 185.036 345.994 184.441 345.619C183.85 345.244 183.388 344.72 183.055 344.045C182.725 343.371 182.56 342.583 182.56 341.682C182.56 340.773 182.725 339.979 183.055 339.301C183.388 338.623 183.85 338.097 184.441 337.722C185.036 337.347 185.727 337.159 186.515 337.159C187.303 337.159 187.992 337.347 188.583 337.722C189.178 338.097 189.64 338.623 189.969 339.301C190.303 339.979 190.469 340.773 190.469 341.682C190.469 342.583 190.303 343.371 189.969 344.045C189.64 344.72 189.178 345.244 188.583 345.619C187.992 345.994 187.303 346.182 186.515 346.182ZM186.515 344.977C187.113 344.977 187.606 344.824 187.992 344.517C188.379 344.21 188.665 343.807 188.85 343.307C189.036 342.807 189.129 342.265 189.129 341.682C189.129 341.098 189.036 340.555 188.85 340.051C188.665 339.547 188.379 339.14 187.992 338.83C187.606 338.519 187.113 338.364 186.515 338.364C185.916 338.364 185.424 338.519 185.038 338.83C184.651 339.14 184.365 339.547 184.18 340.051C183.994 340.555 183.901 341.098 183.901 341.682C183.901 342.265 183.994 342.807 184.18 343.307C184.365 343.807 184.651 344.21 185.038 344.517C185.424 344.824 185.916 344.977 186.515 344.977ZM195.812 346.182C195.085 346.182 194.442 345.998 193.886 345.631C193.329 345.259 192.893 344.737 192.579 344.062C192.264 343.384 192.107 342.583 192.107 341.659C192.107 340.742 192.264 339.947 192.579 339.273C192.893 338.598 193.331 338.078 193.891 337.71C194.452 337.343 195.1 337.159 195.835 337.159C196.403 337.159 196.852 337.254 197.181 337.443C197.514 337.629 197.768 337.841 197.942 338.08C198.121 338.314 198.259 338.508 198.357 338.659H198.471V334.364H199.812V346H198.516V344.659H198.357C198.259 344.818 198.119 345.019 197.937 345.261C197.755 345.5 197.496 345.714 197.158 345.903C196.821 346.089 196.372 346.182 195.812 346.182ZM195.994 344.977C196.531 344.977 196.986 344.837 197.357 344.557C197.728 344.273 198.011 343.881 198.204 343.381C198.397 342.877 198.494 342.295 198.494 341.636C198.494 340.985 198.399 340.415 198.21 339.926C198.02 339.434 197.74 339.051 197.369 338.778C196.997 338.502 196.539 338.364 195.994 338.364C195.425 338.364 194.952 338.509 194.573 338.801C194.198 339.089 193.916 339.481 193.727 339.977C193.541 340.47 193.448 341.023 193.448 341.636C193.448 342.258 193.543 342.822 193.732 343.33C193.925 343.833 194.21 344.235 194.585 344.534C194.963 344.83 195.433 344.977 195.994 344.977ZM208.636 339.227L207.431 339.568C207.355 339.367 207.244 339.172 207.096 338.983C206.952 338.79 206.755 338.631 206.505 338.506C206.255 338.381 205.935 338.318 205.545 338.318C205.011 338.318 204.566 338.441 204.21 338.688C203.857 338.93 203.681 339.239 203.681 339.614C203.681 339.947 203.802 340.21 204.045 340.403C204.287 340.597 204.666 340.758 205.181 340.886L206.477 341.205C207.257 341.394 207.838 341.684 208.221 342.074C208.603 342.46 208.795 342.958 208.795 343.568C208.795 344.068 208.651 344.515 208.363 344.909C208.079 345.303 207.681 345.614 207.17 345.841C206.658 346.068 206.064 346.182 205.386 346.182C204.496 346.182 203.759 345.989 203.175 345.602C202.592 345.216 202.223 344.652 202.067 343.909L203.34 343.591C203.461 344.061 203.691 344.413 204.028 344.648C204.369 344.883 204.814 345 205.363 345C205.988 345 206.484 344.867 206.852 344.602C207.223 344.333 207.408 344.011 207.408 343.636C207.408 343.333 207.302 343.08 207.09 342.875C206.878 342.667 206.552 342.511 206.113 342.409L204.658 342.068C203.859 341.879 203.272 341.585 202.897 341.188C202.526 340.786 202.34 340.284 202.34 339.682C202.34 339.189 202.478 338.754 202.755 338.375C203.035 337.996 203.416 337.699 203.897 337.483C204.382 337.267 204.931 337.159 205.545 337.159C206.408 337.159 207.086 337.348 207.579 337.727C208.075 338.106 208.427 338.606 208.636 339.227ZM215.313 346V337.273H216.654V346H215.313ZM215.995 335.818C215.734 335.818 215.508 335.729 215.319 335.551C215.133 335.373 215.04 335.159 215.04 334.909C215.04 334.659 215.133 334.445 215.319 334.267C215.508 334.089 215.734 334 215.995 334C216.256 334 216.48 334.089 216.665 334.267C216.855 334.445 216.95 334.659 216.95 334.909C216.95 335.159 216.855 335.373 216.665 335.551C216.48 335.729 216.256 335.818 215.995 335.818ZM220.451 340.75V346H219.11V337.273H220.406V338.636H220.519C220.724 338.193 221.034 337.837 221.451 337.568C221.868 337.295 222.406 337.159 223.065 337.159C223.656 337.159 224.173 337.28 224.616 337.523C225.059 337.761 225.404 338.125 225.65 338.614C225.896 339.098 226.019 339.712 226.019 340.455V346H224.678V340.545C224.678 339.86 224.5 339.326 224.144 338.943C223.788 338.557 223.299 338.364 222.678 338.364C222.25 338.364 221.868 338.456 221.531 338.642C221.197 338.828 220.934 339.098 220.741 339.455C220.548 339.811 220.451 340.242 220.451 340.75ZM234.31 340.75V346H232.969V337.273H234.265V338.636H234.379C234.583 338.193 234.894 337.837 235.31 337.568C235.727 337.295 236.265 337.159 236.924 337.159C237.515 337.159 238.032 337.28 238.475 337.523C238.918 337.761 239.263 338.125 239.509 338.614C239.755 339.098 239.879 339.712 239.879 340.455V346H238.538V340.545C238.538 339.86 238.36 339.326 238.004 338.943C237.647 338.557 237.159 338.364 236.538 338.364C236.11 338.364 235.727 338.456 235.39 338.642C235.057 338.828 234.793 339.098 234.6 339.455C234.407 339.811 234.31 340.242 234.31 340.75ZM245.874 346.182C245.086 346.182 244.395 345.994 243.8 345.619C243.21 345.244 242.747 344.72 242.414 344.045C242.085 343.371 241.92 342.583 241.92 341.682C241.92 340.773 242.085 339.979 242.414 339.301C242.747 338.623 243.21 338.097 243.8 337.722C244.395 337.347 245.086 337.159 245.874 337.159C246.662 337.159 247.352 337.347 247.942 337.722C248.537 338.097 248.999 338.623 249.329 339.301C249.662 339.979 249.829 340.773 249.829 341.682C249.829 342.583 249.662 343.371 249.329 344.045C248.999 344.72 248.537 345.244 247.942 345.619C247.352 345.994 246.662 346.182 245.874 346.182ZM245.874 344.977C246.473 344.977 246.965 344.824 247.352 344.517C247.738 344.21 248.024 343.807 248.21 343.307C248.395 342.807 248.488 342.265 248.488 341.682C248.488 341.098 248.395 340.555 248.21 340.051C248.024 339.547 247.738 339.14 247.352 338.83C246.965 338.519 246.473 338.364 245.874 338.364C245.276 338.364 244.783 338.519 244.397 338.83C244.011 339.14 243.725 339.547 243.539 340.051C243.353 340.555 243.261 341.098 243.261 341.682C243.261 342.265 243.353 342.807 243.539 343.307C243.725 343.807 244.011 344.21 244.397 344.517C244.783 344.824 245.276 344.977 245.874 344.977ZM146.406 356.273V357.409H141.883V356.273H146.406ZM143.201 354.182H144.542V362.5C144.542 362.879 144.597 363.163 144.707 363.352C144.82 363.538 144.964 363.663 145.138 363.727C145.317 363.788 145.504 363.818 145.701 363.818C145.849 363.818 145.97 363.811 146.065 363.795C146.159 363.777 146.235 363.761 146.292 363.75L146.565 364.955C146.474 364.989 146.347 365.023 146.184 365.057C146.021 365.095 145.815 365.114 145.565 365.114C145.186 365.114 144.815 365.032 144.451 364.869C144.091 364.706 143.792 364.458 143.553 364.125C143.318 363.792 143.201 363.371 143.201 362.864V354.182ZM148.423 365V356.273H149.763V365H148.423ZM149.104 354.818C148.843 354.818 148.618 354.729 148.428 354.551C148.243 354.373 148.15 354.159 148.15 353.909C148.15 353.659 148.243 353.445 148.428 353.267C148.618 353.089 148.843 353 149.104 353C149.366 353 149.589 353.089 149.775 353.267C149.964 353.445 150.059 353.659 150.059 353.909C150.059 354.159 149.964 354.373 149.775 354.551C149.589 354.729 149.366 354.818 149.104 354.818ZM152.219 365V356.273H153.515V357.636H153.629C153.81 357.17 154.104 356.809 154.509 356.551C154.915 356.29 155.401 356.159 155.969 356.159C156.545 356.159 157.024 356.29 157.407 356.551C157.793 356.809 158.094 357.17 158.31 357.636H158.401C158.625 357.186 158.96 356.828 159.407 356.562C159.854 356.294 160.39 356.159 161.015 356.159C161.795 356.159 162.433 356.403 162.93 356.892C163.426 357.377 163.674 358.133 163.674 359.159V365H162.333V359.159C162.333 358.515 162.157 358.055 161.805 357.778C161.452 357.502 161.038 357.364 160.56 357.364C159.947 357.364 159.471 357.549 159.134 357.92C158.797 358.288 158.629 358.754 158.629 359.318V365H157.265V359.023C157.265 358.527 157.104 358.127 156.782 357.824C156.46 357.517 156.045 357.364 155.538 357.364C155.189 357.364 154.863 357.456 154.56 357.642C154.261 357.828 154.019 358.085 153.833 358.415C153.651 358.741 153.56 359.117 153.56 359.545V365H152.219ZM169.785 365.182C168.944 365.182 168.219 364.996 167.609 364.625C167.003 364.25 166.535 363.727 166.205 363.057C165.879 362.383 165.717 361.598 165.717 360.705C165.717 359.811 165.879 359.023 166.205 358.341C166.535 357.655 166.993 357.121 167.58 356.739C168.171 356.352 168.861 356.159 169.648 356.159C170.103 356.159 170.552 356.235 170.995 356.386C171.438 356.538 171.842 356.784 172.205 357.125C172.569 357.462 172.859 357.909 173.075 358.466C173.29 359.023 173.398 359.708 173.398 360.523V361.091H166.671V359.932H172.035C172.035 359.439 171.936 359 171.739 358.614C171.546 358.227 171.27 357.922 170.91 357.699C170.554 357.475 170.133 357.364 169.648 357.364C169.114 357.364 168.652 357.496 168.262 357.761C167.876 358.023 167.578 358.364 167.37 358.784C167.162 359.205 167.058 359.655 167.058 360.136V360.909C167.058 361.568 167.171 362.127 167.398 362.585C167.629 363.04 167.95 363.386 168.359 363.625C168.768 363.86 169.243 363.977 169.785 363.977C170.137 363.977 170.455 363.928 170.739 363.83C171.027 363.727 171.275 363.576 171.484 363.375C171.692 363.17 171.853 362.917 171.967 362.614L173.262 362.977C173.126 363.417 172.897 363.803 172.575 364.136C172.253 364.466 171.855 364.723 171.381 364.909C170.908 365.091 170.376 365.182 169.785 365.182ZM176.415 365.091C176.135 365.091 175.895 364.991 175.694 364.79C175.493 364.589 175.393 364.348 175.393 364.068C175.393 363.788 175.493 363.547 175.694 363.347C175.895 363.146 176.135 363.045 176.415 363.045C176.696 363.045 176.936 363.146 177.137 363.347C177.338 363.547 177.438 363.788 177.438 364.068C177.438 364.254 177.391 364.424 177.296 364.58C177.205 364.735 177.082 364.86 176.927 364.955C176.775 365.045 176.605 365.091 176.415 365.091Z" fill="black"/>
</svg>
