<svg width="320" height="457" viewBox="0 0 320 457" fill="none" xmlns="http://www.w3.org/2000/svg">
<path d="M0 20C0 8.95432 8.95431 0 20 0H300C311.046 0 320 8.9543 320 20V437C320 448.046 311.046 457 300 457H20C8.95431 457 0 448.046 0 437V20Z" fill="white"/>
<path d="M206.985 55.6611L161.054 40.2789C160.5 40.093 159.757 40 159.013 40C158.27 40 157.526 40.093 156.972 40.2789L111.041 55.6611C109.919 56.033 109 57.3082 109 58.4771V122.556C109 123.725 109.77 125.266 110.703 125.996L157.297 161.675C157.77 162.034 158.378 162.22 159 162.22C159.621 162.22 160.243 162.034 160.703 161.675L207.296 125.996C208.229 125.279 208.999 123.738 208.999 122.556V58.4771C209.026 57.3082 208.107 56.0463 206.985 55.6611ZM183.682 78.349L154.945 117.229C154.743 117.501 154.478 117.722 154.173 117.874C153.867 118.027 153.53 118.106 153.187 118.106C152.845 118.106 152.507 118.027 152.202 117.874C151.897 117.722 151.632 117.501 151.43 117.229L134.345 94.1163C133.831 93.4123 134.345 92.4293 135.223 92.4293H142.685C143.374 92.4293 144.036 92.7614 144.442 93.306L153.187 105.128L173.585 77.5254C173.99 76.9808 174.639 76.6487 175.342 76.6487H182.803C183.682 76.662 184.196 77.645 183.682 78.349Z" fill="#D71F20"/>
<path d="M138.648 223.42C138.557 222.504 138.167 221.792 137.477 221.284C136.788 220.777 135.852 220.523 134.67 220.523C133.867 220.523 133.189 220.636 132.636 220.864C132.083 221.083 131.659 221.39 131.364 221.784C131.076 222.178 130.932 222.625 130.932 223.125C130.917 223.542 131.004 223.905 131.193 224.216C131.39 224.527 131.659 224.795 132 225.023C132.341 225.242 132.735 225.436 133.182 225.602C133.629 225.761 134.106 225.898 134.614 226.011L136.705 226.511C137.72 226.739 138.652 227.042 139.5 227.42C140.348 227.799 141.083 228.265 141.705 228.818C142.326 229.371 142.807 230.023 143.148 230.773C143.496 231.523 143.674 232.383 143.682 233.352C143.674 234.777 143.311 236.011 142.591 237.057C141.879 238.095 140.848 238.902 139.5 239.477C138.159 240.045 136.542 240.33 134.648 240.33C132.769 240.33 131.133 240.042 129.739 239.466C128.352 238.89 127.269 238.038 126.489 236.909C125.716 235.773 125.311 234.367 125.273 232.693H130.034C130.087 233.473 130.311 234.125 130.705 234.648C131.106 235.163 131.64 235.553 132.307 235.818C132.981 236.076 133.742 236.205 134.591 236.205C135.424 236.205 136.148 236.083 136.761 235.841C137.383 235.598 137.864 235.261 138.205 234.83C138.545 234.398 138.716 233.902 138.716 233.341C138.716 232.818 138.561 232.379 138.25 232.023C137.947 231.667 137.5 231.364 136.909 231.114C136.326 230.864 135.61 230.636 134.761 230.432L132.227 229.795C130.265 229.318 128.716 228.572 127.58 227.557C126.443 226.542 125.879 225.174 125.886 223.455C125.879 222.045 126.254 220.814 127.011 219.761C127.777 218.708 128.826 217.886 130.159 217.295C131.492 216.705 133.008 216.409 134.705 216.409C136.432 216.409 137.939 216.705 139.227 217.295C140.523 217.886 141.53 218.708 142.25 219.761C142.97 220.814 143.341 222.034 143.364 223.42H138.648ZM151.878 240.33C150.764 240.33 149.772 240.136 148.901 239.75C148.029 239.356 147.34 238.777 146.832 238.011C146.332 237.239 146.082 236.277 146.082 235.125C146.082 234.155 146.26 233.341 146.616 232.682C146.973 232.023 147.457 231.492 148.071 231.091C148.685 230.689 149.382 230.386 150.162 230.182C150.95 229.977 151.776 229.833 152.639 229.75C153.654 229.644 154.473 229.545 155.094 229.455C155.715 229.356 156.166 229.212 156.446 229.023C156.726 228.833 156.866 228.553 156.866 228.182V228.114C156.866 227.394 156.639 226.837 156.185 226.443C155.738 226.049 155.101 225.852 154.276 225.852C153.404 225.852 152.711 226.045 152.196 226.432C151.681 226.811 151.34 227.288 151.173 227.864L146.696 227.5C146.923 226.439 147.37 225.523 148.037 224.75C148.704 223.97 149.563 223.371 150.616 222.955C151.677 222.53 152.904 222.318 154.298 222.318C155.268 222.318 156.196 222.432 157.082 222.659C157.976 222.886 158.768 223.239 159.457 223.716C160.154 224.193 160.704 224.807 161.105 225.557C161.507 226.299 161.707 227.189 161.707 228.227V240H157.116V237.58H156.98C156.7 238.125 156.325 238.606 155.855 239.023C155.385 239.432 154.821 239.754 154.162 239.989C153.503 240.216 152.741 240.33 151.878 240.33ZM153.264 236.989C153.976 236.989 154.605 236.848 155.151 236.568C155.696 236.28 156.124 235.894 156.435 235.409C156.745 234.924 156.901 234.375 156.901 233.761V231.909C156.749 232.008 156.541 232.098 156.276 232.182C156.018 232.258 155.726 232.33 155.401 232.398C155.075 232.458 154.749 232.515 154.423 232.568C154.098 232.614 153.802 232.655 153.537 232.693C152.969 232.777 152.473 232.909 152.048 233.091C151.624 233.273 151.295 233.519 151.06 233.83C150.825 234.133 150.707 234.511 150.707 234.966C150.707 235.625 150.946 236.129 151.423 236.477C151.908 236.818 152.522 236.989 153.264 236.989ZM174.849 222.545V226.182H164.077V222.545H174.849ZM166.543 240V221.284C166.543 220.019 166.789 218.97 167.281 218.136C167.781 217.303 168.463 216.678 169.327 216.261C170.19 215.845 171.171 215.636 172.27 215.636C173.012 215.636 173.69 215.693 174.304 215.807C174.925 215.92 175.387 216.023 175.69 216.114L174.827 219.75C174.637 219.689 174.402 219.633 174.122 219.58C173.849 219.527 173.569 219.5 173.281 219.5C172.569 219.5 172.073 219.667 171.793 220C171.512 220.326 171.372 220.784 171.372 221.375V240H166.543ZM185.136 240.341C183.341 240.341 181.795 239.977 180.5 239.25C179.212 238.515 178.22 237.477 177.523 236.136C176.826 234.788 176.477 233.193 176.477 231.352C176.477 229.557 176.826 227.981 177.523 226.625C178.22 225.269 179.201 224.212 180.466 223.455C181.739 222.697 183.231 222.318 184.943 222.318C186.095 222.318 187.167 222.504 188.159 222.875C189.159 223.239 190.03 223.788 190.773 224.523C191.523 225.258 192.106 226.182 192.523 227.295C192.939 228.402 193.148 229.697 193.148 231.182V232.511H178.409V229.511H188.591C188.591 228.814 188.439 228.197 188.136 227.659C187.833 227.121 187.413 226.701 186.875 226.398C186.345 226.087 185.727 225.932 185.023 225.932C184.288 225.932 183.636 226.102 183.068 226.443C182.508 226.777 182.068 227.227 181.75 227.795C181.432 228.356 181.269 228.981 181.261 229.67V232.523C181.261 233.386 181.42 234.133 181.739 234.761C182.064 235.39 182.523 235.875 183.114 236.216C183.705 236.557 184.405 236.727 185.216 236.727C185.754 236.727 186.246 236.652 186.693 236.5C187.14 236.348 187.523 236.121 187.841 235.818C188.159 235.515 188.402 235.144 188.568 234.705L193.045 235C192.818 236.076 192.352 237.015 191.648 237.818C190.951 238.614 190.049 239.235 188.943 239.682C187.845 240.121 186.576 240.341 185.136 240.341Z" fill="#2C2A2A"/>
<path d="M60.8665 308L57.6847 296.364H59.1165L61.5483 305.841H61.6619L64.1392 296.364H65.7301L68.2074 305.841H68.321L70.7528 296.364H72.1847L69.0028 308H67.5483L64.9801 298.727H64.8892L62.321 308H60.8665ZM76.6051 308.182C75.7642 308.182 75.0388 307.996 74.429 307.625C73.8229 307.25 73.3551 306.727 73.0256 306.057C72.6998 305.383 72.5369 304.598 72.5369 303.705C72.5369 302.811 72.6998 302.023 73.0256 301.341C73.3551 300.655 73.8134 300.121 74.4006 299.739C74.9915 299.352 75.6809 299.159 76.4688 299.159C76.9233 299.159 77.3722 299.235 77.8153 299.386C78.2585 299.538 78.6619 299.784 79.0256 300.125C79.3892 300.462 79.679 300.909 79.8949 301.466C80.1108 302.023 80.2188 302.708 80.2188 303.523V304.091H73.4915V302.932H78.8551C78.8551 302.439 78.7566 302 78.5597 301.614C78.3665 301.227 78.09 300.922 77.7301 300.699C77.3741 300.475 76.9536 300.364 76.4688 300.364C75.9347 300.364 75.4725 300.496 75.0824 300.761C74.696 301.023 74.3987 301.364 74.1903 301.784C73.982 302.205 73.8778 302.655 73.8778 303.136V303.909C73.8778 304.568 73.9915 305.127 74.2188 305.585C74.4498 306.04 74.7699 306.386 75.179 306.625C75.5881 306.86 76.0634 306.977 76.6051 306.977C76.9574 306.977 77.2756 306.928 77.5597 306.83C77.8475 306.727 78.0956 306.576 78.304 306.375C78.5123 306.17 78.6733 305.917 78.7869 305.614L80.0824 305.977C79.946 306.417 79.7169 306.803 79.3949 307.136C79.0729 307.466 78.6752 307.723 78.2017 307.909C77.7282 308.091 77.196 308.182 76.6051 308.182ZM90.2812 311.455C89.6335 311.455 89.0767 311.371 88.6108 311.205C88.1449 311.042 87.7566 310.826 87.446 310.557C87.1392 310.292 86.8949 310.008 86.7131 309.705L87.7812 308.955C87.9025 309.114 88.0559 309.295 88.2415 309.5C88.4271 309.708 88.6809 309.888 89.0028 310.04C89.3286 310.195 89.7547 310.273 90.2812 310.273C90.9858 310.273 91.5672 310.102 92.0256 309.761C92.4839 309.42 92.7131 308.886 92.7131 308.159V306.386H92.5994C92.5009 306.545 92.3608 306.742 92.179 306.977C92.0009 307.208 91.7434 307.415 91.4062 307.597C91.0729 307.775 90.6222 307.864 90.054 307.864C89.3494 307.864 88.7169 307.697 88.1562 307.364C87.5994 307.03 87.1581 306.545 86.8324 305.909C86.5104 305.273 86.3494 304.5 86.3494 303.591C86.3494 302.697 86.5066 301.919 86.821 301.256C87.1354 300.589 87.5729 300.074 88.1335 299.71C88.6941 299.343 89.3419 299.159 90.0767 299.159C90.6449 299.159 91.0956 299.254 91.429 299.443C91.7661 299.629 92.0237 299.841 92.2017 300.08C92.3835 300.314 92.5237 300.508 92.6222 300.659H92.7585V299.273H94.054V308.25C94.054 309 93.8835 309.61 93.5426 310.08C93.2055 310.553 92.7509 310.9 92.179 311.119C91.6108 311.343 90.9782 311.455 90.2812 311.455ZM90.2358 306.659C90.7737 306.659 91.2282 306.536 91.5994 306.29C91.9706 306.044 92.2528 305.689 92.446 305.227C92.6392 304.765 92.7358 304.212 92.7358 303.568C92.7358 302.939 92.6411 302.384 92.4517 301.903C92.2623 301.422 91.982 301.045 91.6108 300.773C91.2396 300.5 90.7813 300.364 90.2358 300.364C89.6676 300.364 89.1941 300.508 88.8153 300.795C88.4403 301.083 88.1581 301.47 87.9688 301.955C87.7831 302.439 87.6903 302.977 87.6903 303.568C87.6903 304.174 87.785 304.71 87.9744 305.176C88.1676 305.638 88.4517 306.002 88.8267 306.267C89.2055 306.528 89.6752 306.659 90.2358 306.659ZM102.009 304.432V299.273H103.349V308H102.009V306.523H101.918C101.713 306.966 101.395 307.343 100.963 307.653C100.531 307.96 99.9858 308.114 99.3267 308.114C98.7812 308.114 98.2964 307.994 97.8722 307.756C97.4479 307.513 97.1146 307.15 96.8722 306.665C96.6297 306.176 96.5085 305.561 96.5085 304.818V299.273H97.8494V304.727C97.8494 305.364 98.0275 305.871 98.3835 306.25C98.7434 306.629 99.2017 306.818 99.7585 306.818C100.092 306.818 100.431 306.733 100.776 306.562C101.124 306.392 101.416 306.131 101.651 305.778C101.889 305.426 102.009 304.977 102.009 304.432ZM108.374 308.205C107.821 308.205 107.319 308.1 106.868 307.892C106.417 307.68 106.059 307.375 105.794 306.977C105.529 306.576 105.396 306.091 105.396 305.523C105.396 305.023 105.495 304.617 105.692 304.307C105.889 303.992 106.152 303.746 106.482 303.568C106.811 303.39 107.175 303.258 107.572 303.17C107.974 303.08 108.377 303.008 108.783 302.955C109.313 302.886 109.743 302.835 110.072 302.801C110.406 302.763 110.648 302.701 110.8 302.614C110.955 302.527 111.033 302.375 111.033 302.159V302.114C111.033 301.553 110.879 301.117 110.572 300.807C110.269 300.496 109.809 300.341 109.192 300.341C108.552 300.341 108.05 300.481 107.686 300.761C107.322 301.042 107.067 301.341 106.919 301.659L105.646 301.205C105.874 300.674 106.177 300.261 106.555 299.966C106.938 299.667 107.355 299.458 107.805 299.341C108.26 299.22 108.707 299.159 109.146 299.159C109.427 299.159 109.749 299.193 110.112 299.261C110.48 299.326 110.834 299.46 111.175 299.665C111.519 299.869 111.805 300.178 112.033 300.591C112.26 301.004 112.374 301.557 112.374 302.25V308H111.033V306.818H110.964C110.874 307.008 110.722 307.21 110.51 307.426C110.298 307.642 110.016 307.826 109.663 307.977C109.311 308.129 108.881 308.205 108.374 308.205ZM108.578 307C109.108 307 109.555 306.896 109.919 306.688C110.286 306.479 110.563 306.21 110.749 305.881C110.938 305.551 111.033 305.205 111.033 304.841V303.614C110.976 303.682 110.851 303.744 110.658 303.801C110.468 303.854 110.249 303.902 109.999 303.943C109.752 303.981 109.512 304.015 109.277 304.045C109.046 304.072 108.858 304.095 108.714 304.114C108.366 304.159 108.04 304.233 107.737 304.335C107.438 304.434 107.196 304.583 107.01 304.784C106.828 304.981 106.737 305.25 106.737 305.591C106.737 306.057 106.91 306.409 107.254 306.648C107.603 306.883 108.044 307 108.578 307ZM114.821 308V299.273H116.116V300.591H116.207C116.366 300.159 116.654 299.809 117.071 299.54C117.488 299.271 117.957 299.136 118.48 299.136C118.579 299.136 118.702 299.138 118.849 299.142C118.997 299.146 119.109 299.152 119.185 299.159V300.523C119.139 300.511 119.035 300.494 118.872 300.472C118.713 300.445 118.545 300.432 118.366 300.432C117.942 300.432 117.563 300.521 117.23 300.699C116.901 300.873 116.639 301.116 116.446 301.426C116.257 301.733 116.162 302.083 116.162 302.477V308H114.821ZM123.342 308.205C122.789 308.205 122.287 308.1 121.837 307.892C121.386 307.68 121.028 307.375 120.763 306.977C120.498 306.576 120.365 306.091 120.365 305.523C120.365 305.023 120.464 304.617 120.661 304.307C120.857 303.992 121.121 303.746 121.45 303.568C121.78 303.39 122.143 303.258 122.541 303.17C122.943 303.08 123.346 303.008 123.751 302.955C124.282 302.886 124.712 302.835 125.041 302.801C125.375 302.763 125.617 302.701 125.768 302.614C125.924 302.527 126.001 302.375 126.001 302.159V302.114C126.001 301.553 125.848 301.117 125.541 300.807C125.238 300.496 124.778 300.341 124.161 300.341C123.52 300.341 123.018 300.481 122.655 300.761C122.291 301.042 122.036 301.341 121.888 301.659L120.615 301.205C120.842 300.674 121.145 300.261 121.524 299.966C121.907 299.667 122.323 299.458 122.774 299.341C123.229 299.22 123.676 299.159 124.115 299.159C124.395 299.159 124.717 299.193 125.081 299.261C125.448 299.326 125.803 299.46 126.143 299.665C126.488 299.869 126.774 300.178 127.001 300.591C127.229 301.004 127.342 301.557 127.342 302.25V308H126.001V306.818H125.933C125.842 307.008 125.691 307.21 125.479 307.426C125.267 307.642 124.984 307.826 124.632 307.977C124.28 308.129 123.85 308.205 123.342 308.205ZM123.547 307C124.077 307 124.524 306.896 124.888 306.688C125.255 306.479 125.532 306.21 125.717 305.881C125.907 305.551 126.001 305.205 126.001 304.841V303.614C125.945 303.682 125.82 303.744 125.626 303.801C125.437 303.854 125.217 303.902 124.967 303.943C124.721 303.981 124.481 304.015 124.246 304.045C124.015 304.072 123.827 304.095 123.683 304.114C123.335 304.159 123.009 304.233 122.706 304.335C122.407 304.434 122.164 304.583 121.979 304.784C121.797 304.981 121.706 305.25 121.706 305.591C121.706 306.057 121.878 306.409 122.223 306.648C122.571 306.883 123.013 307 123.547 307ZM131.131 302.75V308H129.79V299.273H131.085V300.636H131.199C131.403 300.193 131.714 299.837 132.131 299.568C132.547 299.295 133.085 299.159 133.744 299.159C134.335 299.159 134.852 299.28 135.295 299.523C135.739 299.761 136.083 300.125 136.33 300.614C136.576 301.098 136.699 301.712 136.699 302.455V308H135.358V302.545C135.358 301.86 135.18 301.326 134.824 300.943C134.468 300.557 133.979 300.364 133.358 300.364C132.93 300.364 132.547 300.456 132.21 300.642C131.877 300.828 131.614 301.098 131.42 301.455C131.227 301.811 131.131 302.242 131.131 302.75ZM142.945 299.273V300.409H138.422V299.273H142.945ZM139.74 297.182H141.081V305.5C141.081 305.879 141.136 306.163 141.246 306.352C141.359 306.538 141.503 306.663 141.678 306.727C141.856 306.788 142.043 306.818 142.24 306.818C142.388 306.818 142.509 306.811 142.604 306.795C142.698 306.777 142.774 306.761 142.831 306.75L143.104 307.955C143.013 307.989 142.886 308.023 142.723 308.057C142.56 308.095 142.354 308.114 142.104 308.114C141.725 308.114 141.354 308.032 140.99 307.869C140.63 307.706 140.331 307.458 140.092 307.125C139.857 306.792 139.74 306.371 139.74 305.864V297.182ZM148.527 308.182C147.686 308.182 146.961 307.996 146.351 307.625C145.745 307.25 145.277 306.727 144.947 306.057C144.622 305.383 144.459 304.598 144.459 303.705C144.459 302.811 144.622 302.023 144.947 301.341C145.277 300.655 145.735 300.121 146.322 299.739C146.913 299.352 147.603 299.159 148.391 299.159C148.845 299.159 149.294 299.235 149.737 299.386C150.18 299.538 150.584 299.784 150.947 300.125C151.311 300.462 151.601 300.909 151.817 301.466C152.033 302.023 152.141 302.708 152.141 303.523V304.091H145.413V302.932H150.777C150.777 302.439 150.679 302 150.482 301.614C150.288 301.227 150.012 300.922 149.652 300.699C149.296 300.475 148.875 300.364 148.391 300.364C147.857 300.364 147.394 300.496 147.004 300.761C146.618 301.023 146.321 301.364 146.112 301.784C145.904 302.205 145.8 302.655 145.8 303.136V303.909C145.8 304.568 145.913 305.127 146.141 305.585C146.372 306.04 146.692 306.386 147.101 306.625C147.51 306.86 147.985 306.977 148.527 306.977C148.879 306.977 149.197 306.928 149.482 306.83C149.769 306.727 150.018 306.576 150.226 306.375C150.434 306.17 150.595 305.917 150.709 305.614L152.004 305.977C151.868 306.417 151.639 306.803 151.317 307.136C150.995 307.466 150.597 307.723 150.124 307.909C149.65 308.091 149.118 308.182 148.527 308.182ZM157.839 308.182C156.999 308.182 156.273 307.996 155.663 307.625C155.057 307.25 154.589 306.727 154.26 306.057C153.934 305.383 153.771 304.598 153.771 303.705C153.771 302.811 153.934 302.023 154.26 301.341C154.589 300.655 155.048 300.121 155.635 299.739C156.226 299.352 156.915 299.159 157.703 299.159C158.158 299.159 158.607 299.235 159.05 299.386C159.493 299.538 159.896 299.784 160.26 300.125C160.624 300.462 160.913 300.909 161.129 301.466C161.345 302.023 161.453 302.708 161.453 303.523V304.091H154.726V302.932H160.089C160.089 302.439 159.991 302 159.794 301.614C159.601 301.227 159.324 300.922 158.964 300.699C158.608 300.475 158.188 300.364 157.703 300.364C157.169 300.364 156.707 300.496 156.317 300.761C155.93 301.023 155.633 301.364 155.425 301.784C155.216 302.205 155.112 302.655 155.112 303.136V303.909C155.112 304.568 155.226 305.127 155.453 305.585C155.684 306.04 156.004 306.386 156.413 306.625C156.822 306.86 157.298 306.977 157.839 306.977C158.192 306.977 158.51 306.928 158.794 306.83C159.082 306.727 159.33 306.576 159.538 306.375C159.747 306.17 159.908 305.917 160.021 305.614L161.317 305.977C161.18 306.417 160.951 306.803 160.629 307.136C160.307 307.466 159.91 307.723 159.436 307.909C158.963 308.091 158.43 308.182 157.839 308.182ZM171.788 299.273V300.409H167.266V299.273H171.788ZM168.584 297.182H169.925V305.5C169.925 305.879 169.98 306.163 170.089 306.352C170.203 306.538 170.347 306.663 170.521 306.727C170.699 306.788 170.887 306.818 171.084 306.818C171.232 306.818 171.353 306.811 171.447 306.795C171.542 306.777 171.618 306.761 171.675 306.75L171.947 307.955C171.857 307.989 171.73 308.023 171.567 308.057C171.404 308.095 171.197 308.114 170.947 308.114C170.569 308.114 170.197 308.032 169.834 307.869C169.474 307.706 169.175 307.458 168.936 307.125C168.701 306.792 168.584 306.371 168.584 305.864V297.182ZM175.334 302.75V308H173.993V296.364H175.334V300.636H175.447C175.652 300.186 175.959 299.828 176.368 299.562C176.781 299.294 177.33 299.159 178.016 299.159C178.61 299.159 179.131 299.278 179.578 299.517C180.025 299.752 180.372 300.114 180.618 300.602C180.868 301.087 180.993 301.705 180.993 302.455V308H179.652V302.545C179.652 301.852 179.472 301.316 179.112 300.938C178.756 300.555 178.262 300.364 177.629 300.364C177.19 300.364 176.796 300.456 176.447 300.642C176.103 300.828 175.83 301.098 175.629 301.455C175.432 301.811 175.334 302.242 175.334 302.75ZM187.105 308.182C186.264 308.182 185.539 307.996 184.929 307.625C184.323 307.25 183.855 306.727 183.526 306.057C183.2 305.383 183.037 304.598 183.037 303.705C183.037 302.811 183.2 302.023 183.526 301.341C183.855 300.655 184.313 300.121 184.901 299.739C185.491 299.352 186.181 299.159 186.969 299.159C187.423 299.159 187.872 299.235 188.315 299.386C188.759 299.538 189.162 299.784 189.526 300.125C189.889 300.462 190.179 300.909 190.395 301.466C190.611 302.023 190.719 302.708 190.719 303.523V304.091H183.991V302.932H189.355C189.355 302.439 189.257 302 189.06 301.614C188.866 301.227 188.59 300.922 188.23 300.699C187.874 300.475 187.454 300.364 186.969 300.364C186.435 300.364 185.973 300.496 185.582 300.761C185.196 301.023 184.899 301.364 184.69 301.784C184.482 302.205 184.378 302.655 184.378 303.136V303.909C184.378 304.568 184.491 305.127 184.719 305.585C184.95 306.04 185.27 306.386 185.679 306.625C186.088 306.86 186.563 306.977 187.105 306.977C187.457 306.977 187.776 306.928 188.06 306.83C188.348 306.727 188.596 306.576 188.804 306.375C189.012 306.17 189.173 305.917 189.287 305.614L190.582 305.977C190.446 306.417 190.217 306.803 189.895 307.136C189.573 307.466 189.175 307.723 188.702 307.909C188.228 308.091 187.696 308.182 187.105 308.182ZM203.44 301.227L202.236 301.568C202.16 301.367 202.048 301.172 201.901 300.983C201.757 300.79 201.56 300.631 201.31 300.506C201.06 300.381 200.74 300.318 200.349 300.318C199.815 300.318 199.37 300.441 199.014 300.688C198.662 300.93 198.486 301.239 198.486 301.614C198.486 301.947 198.607 302.21 198.849 302.403C199.092 302.597 199.471 302.758 199.986 302.886L201.281 303.205C202.062 303.394 202.643 303.684 203.026 304.074C203.408 304.46 203.599 304.958 203.599 305.568C203.599 306.068 203.455 306.515 203.168 306.909C202.884 307.303 202.486 307.614 201.974 307.841C201.463 308.068 200.868 308.182 200.19 308.182C199.3 308.182 198.563 307.989 197.98 307.602C197.397 307.216 197.027 306.652 196.872 305.909L198.145 305.591C198.266 306.061 198.495 306.413 198.832 306.648C199.173 306.883 199.618 307 200.168 307C200.793 307 201.289 306.867 201.656 306.602C202.027 306.333 202.213 306.011 202.213 305.636C202.213 305.333 202.107 305.08 201.895 304.875C201.683 304.667 201.357 304.511 200.918 304.409L199.463 304.068C198.664 303.879 198.077 303.585 197.702 303.188C197.33 302.786 197.145 302.284 197.145 301.682C197.145 301.189 197.283 300.754 197.56 300.375C197.84 299.996 198.221 299.699 198.702 299.483C199.187 299.267 199.736 299.159 200.349 299.159C201.213 299.159 201.891 299.348 202.384 299.727C202.88 300.106 203.232 300.606 203.44 301.227ZM208.186 308.205C207.633 308.205 207.131 308.1 206.68 307.892C206.23 307.68 205.872 307.375 205.607 306.977C205.341 306.576 205.209 306.091 205.209 305.523C205.209 305.023 205.307 304.617 205.504 304.307C205.701 303.992 205.964 303.746 206.294 303.568C206.624 303.39 206.987 303.258 207.385 303.17C207.786 303.08 208.19 303.008 208.595 302.955C209.125 302.886 209.555 302.835 209.885 302.801C210.218 302.763 210.461 302.701 210.612 302.614C210.768 302.527 210.845 302.375 210.845 302.159V302.114C210.845 301.553 210.692 301.117 210.385 300.807C210.082 300.496 209.622 300.341 209.004 300.341C208.364 300.341 207.862 300.481 207.499 300.761C207.135 301.042 206.879 301.341 206.732 301.659L205.459 301.205C205.686 300.674 205.989 300.261 206.368 299.966C206.75 299.667 207.167 299.458 207.618 299.341C208.072 299.22 208.519 299.159 208.959 299.159C209.239 299.159 209.561 299.193 209.925 299.261C210.292 299.326 210.646 299.46 210.987 299.665C211.332 299.869 211.618 300.178 211.845 300.591C212.072 301.004 212.186 301.557 212.186 302.25V308H210.845V306.818H210.777C210.686 307.008 210.535 307.21 210.322 307.426C210.11 307.642 209.828 307.826 209.476 307.977C209.124 308.129 208.694 308.205 208.186 308.205ZM208.391 307C208.921 307 209.368 306.896 209.732 306.688C210.099 306.479 210.375 306.21 210.561 305.881C210.75 305.551 210.845 305.205 210.845 304.841V303.614C210.788 303.682 210.663 303.744 210.47 303.801C210.281 303.854 210.061 303.902 209.811 303.943C209.565 303.981 209.324 304.015 209.089 304.045C208.858 304.072 208.671 304.095 208.527 304.114C208.179 304.159 207.853 304.233 207.55 304.335C207.25 304.434 207.008 304.583 206.822 304.784C206.641 304.981 206.55 305.25 206.55 305.591C206.55 306.057 206.722 306.409 207.067 306.648C207.415 306.883 207.857 307 208.391 307ZM218.52 299.273V300.409H213.815V299.273H218.52ZM215.224 308V298.068C215.224 297.568 215.342 297.152 215.577 296.818C215.812 296.485 216.116 296.235 216.491 296.068C216.866 295.902 217.262 295.818 217.679 295.818C218.009 295.818 218.277 295.845 218.486 295.898C218.694 295.951 218.849 296 218.952 296.045L218.565 297.205C218.497 297.182 218.402 297.153 218.281 297.119C218.164 297.085 218.009 297.068 217.815 297.068C217.372 297.068 217.052 297.18 216.855 297.403C216.662 297.627 216.565 297.955 216.565 298.386V308H215.224ZM223.699 308.182C222.858 308.182 222.133 307.996 221.523 307.625C220.917 307.25 220.449 306.727 220.119 306.057C219.794 305.383 219.631 304.598 219.631 303.705C219.631 302.811 219.794 302.023 220.119 301.341C220.449 300.655 220.907 300.121 221.494 299.739C222.085 299.352 222.775 299.159 223.562 299.159C224.017 299.159 224.466 299.235 224.909 299.386C225.352 299.538 225.756 299.784 226.119 300.125C226.483 300.462 226.773 300.909 226.989 301.466C227.205 302.023 227.312 302.708 227.312 303.523V304.091H220.585V302.932H225.949C225.949 302.439 225.85 302 225.653 301.614C225.46 301.227 225.184 300.922 224.824 300.699C224.468 300.475 224.047 300.364 223.562 300.364C223.028 300.364 222.566 300.496 222.176 300.761C221.79 301.023 221.492 301.364 221.284 301.784C221.076 302.205 220.972 302.655 220.972 303.136V303.909C220.972 304.568 221.085 305.127 221.312 305.585C221.544 306.04 221.864 306.386 222.273 306.625C222.682 306.86 223.157 306.977 223.699 306.977C224.051 306.977 224.369 306.928 224.653 306.83C224.941 306.727 225.189 306.576 225.398 306.375C225.606 306.17 225.767 305.917 225.881 305.614L227.176 305.977C227.04 306.417 226.811 306.803 226.489 307.136C226.167 307.466 225.769 307.723 225.295 307.909C224.822 308.091 224.29 308.182 223.699 308.182ZM233.148 299.273V300.409H228.625V299.273H233.148ZM229.943 297.182H231.284V305.5C231.284 305.879 231.339 306.163 231.449 306.352C231.563 306.538 231.706 306.663 231.881 306.727C232.059 306.788 232.246 306.818 232.443 306.818C232.591 306.818 232.712 306.811 232.807 306.795C232.902 306.777 232.977 306.761 233.034 306.75L233.307 307.955C233.216 307.989 233.089 308.023 232.926 308.057C232.763 308.095 232.557 308.114 232.307 308.114C231.928 308.114 231.557 308.032 231.193 307.869C230.833 307.706 230.534 307.458 230.295 307.125C230.061 306.792 229.943 306.371 229.943 305.864V297.182ZM236.028 311.273C235.801 311.273 235.598 311.254 235.42 311.216C235.242 311.182 235.119 311.148 235.051 311.114L235.392 309.932C235.718 310.015 236.006 310.045 236.256 310.023C236.506 310 236.727 309.888 236.92 309.688C237.117 309.491 237.297 309.17 237.46 308.727L237.71 308.045L234.483 299.273H235.938L238.347 306.227H238.438L240.847 299.273H242.301L238.597 309.273C238.43 309.723 238.223 310.097 237.977 310.392C237.731 310.691 237.445 310.913 237.119 311.057C236.797 311.201 236.434 311.273 236.028 311.273ZM252.116 308.182C251.329 308.182 250.637 307.994 250.043 307.619C249.452 307.244 248.99 306.72 248.656 306.045C248.327 305.371 248.162 304.583 248.162 303.682C248.162 302.773 248.327 301.979 248.656 301.301C248.99 300.623 249.452 300.097 250.043 299.722C250.637 299.347 251.329 299.159 252.116 299.159C252.904 299.159 253.594 299.347 254.185 299.722C254.779 300.097 255.241 300.623 255.571 301.301C255.904 301.979 256.071 302.773 256.071 303.682C256.071 304.583 255.904 305.371 255.571 306.045C255.241 306.72 254.779 307.244 254.185 307.619C253.594 307.994 252.904 308.182 252.116 308.182ZM252.116 306.977C252.715 306.977 253.207 306.824 253.594 306.517C253.98 306.21 254.266 305.807 254.452 305.307C254.637 304.807 254.73 304.265 254.73 303.682C254.73 303.098 254.637 302.555 254.452 302.051C254.266 301.547 253.98 301.14 253.594 300.83C253.207 300.519 252.715 300.364 252.116 300.364C251.518 300.364 251.026 300.519 250.639 300.83C250.253 301.14 249.967 301.547 249.781 302.051C249.596 302.555 249.503 303.098 249.503 303.682C249.503 304.265 249.596 304.807 249.781 305.307C249.967 305.807 250.253 306.21 250.639 306.517C251.026 306.824 251.518 306.977 252.116 306.977ZM262.004 299.273V300.409H257.3V299.273H262.004ZM258.709 308V298.068C258.709 297.568 258.826 297.152 259.061 296.818C259.296 296.485 259.601 296.235 259.976 296.068C260.351 295.902 260.747 295.818 261.163 295.818C261.493 295.818 261.762 295.845 261.97 295.898C262.179 295.951 262.334 296 262.436 296.045L262.05 297.205C261.982 297.182 261.887 297.153 261.766 297.119C261.648 297.085 261.493 297.068 261.3 297.068C260.857 297.068 260.536 297.18 260.339 297.403C260.146 297.627 260.05 297.955 260.05 298.386V308H258.709ZM66.7315 330.273C66.5043 330.273 66.3016 330.254 66.1236 330.216C65.9455 330.182 65.8224 330.148 65.7543 330.114L66.0952 328.932C66.4209 329.015 66.7088 329.045 66.9588 329.023C67.2088 329 67.4304 328.888 67.6236 328.688C67.8205 328.491 68.0005 328.17 68.1634 327.727L68.4134 327.045L65.1861 318.273H66.6406L69.0497 325.227H69.1406L71.5497 318.273H73.0043L69.2997 328.273C69.133 328.723 68.9266 329.097 68.6804 329.392C68.4342 329.691 68.1482 329.913 67.8224 330.057C67.5005 330.201 67.1368 330.273 66.7315 330.273ZM78.0071 327.182C77.2192 327.182 76.5279 326.994 75.9332 326.619C75.3423 326.244 74.8802 325.72 74.5469 325.045C74.2173 324.371 74.0526 323.583 74.0526 322.682C74.0526 321.773 74.2173 320.979 74.5469 320.301C74.8802 319.623 75.3423 319.097 75.9332 318.722C76.5279 318.347 77.2192 318.159 78.0071 318.159C78.795 318.159 79.4844 318.347 80.0753 318.722C80.67 319.097 81.1321 319.623 81.4616 320.301C81.795 320.979 81.9616 321.773 81.9616 322.682C81.9616 323.583 81.795 324.371 81.4616 325.045C81.1321 325.72 80.67 326.244 80.0753 326.619C79.4844 326.994 78.795 327.182 78.0071 327.182ZM78.0071 325.977C78.6056 325.977 79.098 325.824 79.4844 325.517C79.8707 325.21 80.1567 324.807 80.3423 324.307C80.5279 323.807 80.6207 323.265 80.6207 322.682C80.6207 322.098 80.5279 321.555 80.3423 321.051C80.1567 320.547 79.8707 320.14 79.4844 319.83C79.098 319.519 78.6056 319.364 78.0071 319.364C77.4086 319.364 76.9162 319.519 76.5298 319.83C76.1435 320.14 75.8575 320.547 75.6719 321.051C75.4863 321.555 75.3935 322.098 75.3935 322.682C75.3935 323.265 75.4863 323.807 75.6719 324.307C75.8575 324.807 76.1435 325.21 76.5298 325.517C76.9162 325.824 77.4086 325.977 78.0071 325.977ZM89.5085 323.432V318.273H90.8494V327H89.5085V325.523H89.4176C89.2131 325.966 88.8949 326.343 88.4631 326.653C88.0313 326.96 87.4858 327.114 86.8267 327.114C86.2812 327.114 85.7964 326.994 85.3722 326.756C84.9479 326.513 84.6146 326.15 84.3722 325.665C84.1297 325.176 84.0085 324.561 84.0085 323.818V318.273H85.3494V323.727C85.3494 324.364 85.5275 324.871 85.8835 325.25C86.2434 325.629 86.7017 325.818 87.2585 325.818C87.5919 325.818 87.9309 325.733 88.2756 325.562C88.6241 325.392 88.9157 325.131 89.1506 324.778C89.3892 324.426 89.5085 323.977 89.5085 323.432ZM93.3054 327V318.273H94.6009V319.591H94.6918C94.8509 319.159 95.1387 318.809 95.5554 318.54C95.9721 318.271 96.4418 318.136 96.9645 318.136C97.063 318.136 97.1861 318.138 97.3338 318.142C97.4815 318.146 97.5933 318.152 97.669 318.159V319.523C97.6236 319.511 97.5194 319.494 97.3565 319.472C97.1974 319.445 97.0289 319.432 96.8509 319.432C96.4266 319.432 96.0478 319.521 95.7145 319.699C95.3849 319.873 95.1236 320.116 94.9304 320.426C94.741 320.733 94.6463 321.083 94.6463 321.477V327H93.3054ZM107.281 330.455C106.634 330.455 106.077 330.371 105.611 330.205C105.145 330.042 104.757 329.826 104.446 329.557C104.139 329.292 103.895 329.008 103.713 328.705L104.781 327.955C104.902 328.114 105.056 328.295 105.241 328.5C105.427 328.708 105.681 328.888 106.003 329.04C106.329 329.195 106.755 329.273 107.281 329.273C107.986 329.273 108.567 329.102 109.026 328.761C109.484 328.42 109.713 327.886 109.713 327.159V325.386H109.599C109.501 325.545 109.361 325.742 109.179 325.977C109.001 326.208 108.743 326.415 108.406 326.597C108.073 326.775 107.622 326.864 107.054 326.864C106.349 326.864 105.717 326.697 105.156 326.364C104.599 326.03 104.158 325.545 103.832 324.909C103.51 324.273 103.349 323.5 103.349 322.591C103.349 321.697 103.507 320.919 103.821 320.256C104.135 319.589 104.573 319.074 105.134 318.71C105.694 318.343 106.342 318.159 107.077 318.159C107.645 318.159 108.096 318.254 108.429 318.443C108.766 318.629 109.024 318.841 109.202 319.08C109.384 319.314 109.524 319.508 109.622 319.659H109.759V318.273H111.054V327.25C111.054 328 110.884 328.61 110.543 329.08C110.205 329.553 109.751 329.9 109.179 330.119C108.611 330.343 107.978 330.455 107.281 330.455ZM107.236 325.659C107.774 325.659 108.228 325.536 108.599 325.29C108.971 325.044 109.253 324.689 109.446 324.227C109.639 323.765 109.736 323.212 109.736 322.568C109.736 321.939 109.641 321.384 109.452 320.903C109.262 320.422 108.982 320.045 108.611 319.773C108.24 319.5 107.781 319.364 107.236 319.364C106.668 319.364 106.194 319.508 105.815 319.795C105.44 320.083 105.158 320.47 104.969 320.955C104.783 321.439 104.69 321.977 104.69 322.568C104.69 323.174 104.785 323.71 104.974 324.176C105.168 324.638 105.452 325.002 105.827 325.267C106.205 325.528 106.675 325.659 107.236 325.659ZM117.054 327.182C116.266 327.182 115.575 326.994 114.98 326.619C114.389 326.244 113.927 325.72 113.594 325.045C113.264 324.371 113.099 323.583 113.099 322.682C113.099 321.773 113.264 320.979 113.594 320.301C113.927 319.623 114.389 319.097 114.98 318.722C115.575 318.347 116.266 318.159 117.054 318.159C117.842 318.159 118.531 318.347 119.122 318.722C119.717 319.097 120.179 319.623 120.509 320.301C120.842 320.979 121.009 321.773 121.009 322.682C121.009 323.583 120.842 324.371 120.509 325.045C120.179 325.72 119.717 326.244 119.122 326.619C118.531 326.994 117.842 327.182 117.054 327.182ZM117.054 325.977C117.652 325.977 118.145 325.824 118.531 325.517C118.918 325.21 119.204 324.807 119.389 324.307C119.575 323.807 119.668 323.265 119.668 322.682C119.668 322.098 119.575 321.555 119.389 321.051C119.204 320.547 118.918 320.14 118.531 319.83C118.145 319.519 117.652 319.364 117.054 319.364C116.455 319.364 115.963 319.519 115.577 319.83C115.19 320.14 114.904 320.547 114.719 321.051C114.533 321.555 114.44 322.098 114.44 322.682C114.44 323.265 114.533 323.807 114.719 324.307C114.904 324.807 115.19 325.21 115.577 325.517C115.963 325.824 116.455 325.977 117.054 325.977ZM126.601 327.182C125.813 327.182 125.122 326.994 124.527 326.619C123.936 326.244 123.474 325.72 123.141 325.045C122.811 324.371 122.646 323.583 122.646 322.682C122.646 321.773 122.811 320.979 123.141 320.301C123.474 319.623 123.936 319.097 124.527 318.722C125.122 318.347 125.813 318.159 126.601 318.159C127.389 318.159 128.078 318.347 128.669 318.722C129.264 319.097 129.726 319.623 130.055 320.301C130.389 320.979 130.555 321.773 130.555 322.682C130.555 323.583 130.389 324.371 130.055 325.045C129.726 325.72 129.264 326.244 128.669 326.619C128.078 326.994 127.389 327.182 126.601 327.182ZM126.601 325.977C127.199 325.977 127.692 325.824 128.078 325.517C128.464 325.21 128.75 324.807 128.936 324.307C129.122 323.807 129.214 323.265 129.214 322.682C129.214 322.098 129.122 321.555 128.936 321.051C128.75 320.547 128.464 320.14 128.078 319.83C127.692 319.519 127.199 319.364 126.601 319.364C126.002 319.364 125.51 319.519 125.124 319.83C124.737 320.14 124.451 320.547 124.266 321.051C124.08 321.555 123.987 322.098 123.987 322.682C123.987 323.265 124.08 323.807 124.266 324.307C124.451 324.807 124.737 325.21 125.124 325.517C125.51 325.824 126.002 325.977 126.601 325.977ZM135.898 327.182C135.17 327.182 134.528 326.998 133.972 326.631C133.415 326.259 132.979 325.737 132.665 325.062C132.35 324.384 132.193 323.583 132.193 322.659C132.193 321.742 132.35 320.947 132.665 320.273C132.979 319.598 133.417 319.078 133.977 318.71C134.538 318.343 135.186 318.159 135.92 318.159C136.489 318.159 136.938 318.254 137.267 318.443C137.6 318.629 137.854 318.841 138.028 319.08C138.206 319.314 138.345 319.508 138.443 319.659H138.557V315.364H139.898V327H138.602V325.659H138.443C138.345 325.818 138.205 326.019 138.023 326.261C137.841 326.5 137.581 326.714 137.244 326.903C136.907 327.089 136.458 327.182 135.898 327.182ZM136.08 325.977C136.617 325.977 137.072 325.837 137.443 325.557C137.814 325.273 138.097 324.881 138.29 324.381C138.483 323.877 138.58 323.295 138.58 322.636C138.58 321.985 138.485 321.415 138.295 320.926C138.106 320.434 137.826 320.051 137.455 319.778C137.083 319.502 136.625 319.364 136.08 319.364C135.511 319.364 135.038 319.509 134.659 319.801C134.284 320.089 134.002 320.481 133.812 320.977C133.627 321.47 133.534 322.023 133.534 322.636C133.534 323.258 133.629 323.822 133.818 324.33C134.011 324.833 134.295 325.235 134.67 325.534C135.049 325.83 135.519 325.977 136.08 325.977ZM148.722 320.227L147.517 320.568C147.441 320.367 147.33 320.172 147.182 319.983C147.038 319.79 146.841 319.631 146.591 319.506C146.341 319.381 146.021 319.318 145.631 319.318C145.097 319.318 144.652 319.441 144.295 319.688C143.943 319.93 143.767 320.239 143.767 320.614C143.767 320.947 143.888 321.21 144.131 321.403C144.373 321.597 144.752 321.758 145.267 321.886L146.562 322.205C147.343 322.394 147.924 322.684 148.307 323.074C148.689 323.46 148.881 323.958 148.881 324.568C148.881 325.068 148.737 325.515 148.449 325.909C148.165 326.303 147.767 326.614 147.256 326.841C146.744 327.068 146.15 327.182 145.472 327.182C144.581 327.182 143.845 326.989 143.261 326.602C142.678 326.216 142.309 325.652 142.153 324.909L143.426 324.591C143.547 325.061 143.777 325.413 144.114 325.648C144.455 325.883 144.9 326 145.449 326C146.074 326 146.57 325.867 146.938 325.602C147.309 325.333 147.494 325.011 147.494 324.636C147.494 324.333 147.388 324.08 147.176 323.875C146.964 323.667 146.638 323.511 146.199 323.409L144.744 323.068C143.945 322.879 143.358 322.585 142.983 322.188C142.612 321.786 142.426 321.284 142.426 320.682C142.426 320.189 142.564 319.754 142.841 319.375C143.121 318.996 143.502 318.699 143.983 318.483C144.468 318.267 145.017 318.159 145.631 318.159C146.494 318.159 147.172 318.348 147.665 318.727C148.161 319.106 148.513 319.606 148.722 320.227ZM157.967 327.205C157.414 327.205 156.912 327.1 156.462 326.892C156.011 326.68 155.653 326.375 155.388 325.977C155.123 325.576 154.99 325.091 154.99 324.523C154.99 324.023 155.089 323.617 155.286 323.307C155.482 322.992 155.746 322.746 156.075 322.568C156.405 322.39 156.768 322.258 157.166 322.17C157.568 322.08 157.971 322.008 158.376 321.955C158.907 321.886 159.337 321.835 159.666 321.801C160 321.763 160.242 321.701 160.393 321.614C160.549 321.527 160.626 321.375 160.626 321.159V321.114C160.626 320.553 160.473 320.117 160.166 319.807C159.863 319.496 159.403 319.341 158.786 319.341C158.145 319.341 157.643 319.481 157.28 319.761C156.916 320.042 156.661 320.341 156.513 320.659L155.24 320.205C155.467 319.674 155.77 319.261 156.149 318.966C156.532 318.667 156.948 318.458 157.399 318.341C157.854 318.22 158.301 318.159 158.74 318.159C159.02 318.159 159.342 318.193 159.706 318.261C160.073 318.326 160.428 318.46 160.768 318.665C161.113 318.869 161.399 319.178 161.626 319.591C161.854 320.004 161.967 320.557 161.967 321.25V327H160.626V325.818H160.558C160.467 326.008 160.316 326.21 160.104 326.426C159.892 326.642 159.609 326.826 159.257 326.977C158.905 327.129 158.475 327.205 157.967 327.205ZM158.172 326C158.702 326 159.149 325.896 159.513 325.688C159.88 325.479 160.157 325.21 160.342 324.881C160.532 324.551 160.626 324.205 160.626 323.841V322.614C160.57 322.682 160.445 322.744 160.251 322.801C160.062 322.854 159.842 322.902 159.592 322.943C159.346 322.981 159.106 323.015 158.871 323.045C158.64 323.072 158.452 323.095 158.308 323.114C157.96 323.159 157.634 323.233 157.331 323.335C157.032 323.434 156.789 323.583 156.604 323.784C156.422 323.981 156.331 324.25 156.331 324.591C156.331 325.057 156.503 325.409 156.848 325.648C157.196 325.883 157.638 326 158.172 326ZM170.597 320.227L169.392 320.568C169.316 320.367 169.205 320.172 169.057 319.983C168.913 319.79 168.716 319.631 168.466 319.506C168.216 319.381 167.896 319.318 167.506 319.318C166.972 319.318 166.527 319.441 166.17 319.688C165.818 319.93 165.642 320.239 165.642 320.614C165.642 320.947 165.763 321.21 166.006 321.403C166.248 321.597 166.627 321.758 167.142 321.886L168.438 322.205C169.218 322.394 169.799 322.684 170.182 323.074C170.564 323.46 170.756 323.958 170.756 324.568C170.756 325.068 170.612 325.515 170.324 325.909C170.04 326.303 169.642 326.614 169.131 326.841C168.619 327.068 168.025 327.182 167.347 327.182C166.456 327.182 165.72 326.989 165.136 326.602C164.553 326.216 164.184 325.652 164.028 324.909L165.301 324.591C165.422 325.061 165.652 325.413 165.989 325.648C166.33 325.883 166.775 326 167.324 326C167.949 326 168.445 325.867 168.812 325.602C169.184 325.333 169.369 325.011 169.369 324.636C169.369 324.333 169.263 324.08 169.051 323.875C168.839 323.667 168.513 323.511 168.074 323.409L166.619 323.068C165.82 322.879 165.233 322.585 164.858 322.188C164.487 321.786 164.301 321.284 164.301 320.682C164.301 320.189 164.439 319.754 164.716 319.375C164.996 318.996 165.377 318.699 165.858 318.483C166.343 318.267 166.892 318.159 167.506 318.159C168.369 318.159 169.047 318.348 169.54 318.727C170.036 319.106 170.388 319.606 170.597 320.227ZM180.933 327.182C180.092 327.182 179.367 326.996 178.757 326.625C178.151 326.25 177.683 325.727 177.354 325.057C177.028 324.383 176.865 323.598 176.865 322.705C176.865 321.811 177.028 321.023 177.354 320.341C177.683 319.655 178.142 319.121 178.729 318.739C179.32 318.352 180.009 318.159 180.797 318.159C181.251 318.159 181.7 318.235 182.143 318.386C182.587 318.538 182.99 318.784 183.354 319.125C183.717 319.462 184.007 319.909 184.223 320.466C184.439 321.023 184.547 321.708 184.547 322.523V323.091H177.82V321.932H183.183C183.183 321.439 183.085 321 182.888 320.614C182.695 320.227 182.418 319.922 182.058 319.699C181.702 319.475 181.282 319.364 180.797 319.364C180.263 319.364 179.801 319.496 179.411 319.761C179.024 320.023 178.727 320.364 178.518 320.784C178.31 321.205 178.206 321.655 178.206 322.136V322.909C178.206 323.568 178.32 324.127 178.547 324.585C178.778 325.04 179.098 325.386 179.507 325.625C179.916 325.86 180.392 325.977 180.933 325.977C181.286 325.977 181.604 325.928 181.888 325.83C182.176 325.727 182.424 325.576 182.632 325.375C182.84 325.17 183.001 324.917 183.115 324.614L184.411 324.977C184.274 325.417 184.045 325.803 183.723 326.136C183.401 326.466 183.003 326.723 182.53 326.909C182.056 327.091 181.524 327.182 180.933 327.182ZM193.457 318.273L190.23 327H188.866L185.639 318.273H187.094L189.503 325.227H189.594L192.003 318.273H193.457ZM198.574 327.182C197.733 327.182 197.008 326.996 196.398 326.625C195.792 326.25 195.324 325.727 194.994 325.057C194.669 324.383 194.506 323.598 194.506 322.705C194.506 321.811 194.669 321.023 194.994 320.341C195.324 319.655 195.782 319.121 196.369 318.739C196.96 318.352 197.65 318.159 198.438 318.159C198.892 318.159 199.341 318.235 199.784 318.386C200.227 318.538 200.631 318.784 200.994 319.125C201.358 319.462 201.648 319.909 201.864 320.466C202.08 321.023 202.188 321.708 202.188 322.523V323.091H195.46V321.932H200.824C200.824 321.439 200.725 321 200.528 320.614C200.335 320.227 200.059 319.922 199.699 319.699C199.343 319.475 198.922 319.364 198.438 319.364C197.903 319.364 197.441 319.496 197.051 319.761C196.665 320.023 196.367 320.364 196.159 320.784C195.951 321.205 195.847 321.655 195.847 322.136V322.909C195.847 323.568 195.96 324.127 196.188 324.585C196.419 325.04 196.739 325.386 197.148 325.625C197.557 325.86 198.032 325.977 198.574 325.977C198.926 325.977 199.244 325.928 199.528 325.83C199.816 325.727 200.064 325.576 200.273 325.375C200.481 325.17 200.642 324.917 200.756 324.614L202.051 324.977C201.915 325.417 201.686 325.803 201.364 326.136C201.042 326.466 200.644 326.723 200.17 326.909C199.697 327.091 199.165 327.182 198.574 327.182ZM204.227 327V318.273H205.523V319.591H205.614C205.773 319.159 206.061 318.809 206.477 318.54C206.894 318.271 207.364 318.136 207.886 318.136C207.985 318.136 208.108 318.138 208.256 318.142C208.403 318.146 208.515 318.152 208.591 318.159V319.523C208.545 319.511 208.441 319.494 208.278 319.472C208.119 319.445 207.951 319.432 207.773 319.432C207.348 319.432 206.97 319.521 206.636 319.699C206.307 319.873 206.045 320.116 205.852 320.426C205.663 320.733 205.568 321.083 205.568 321.477V327H204.227ZM211.31 330.273C211.082 330.273 210.88 330.254 210.702 330.216C210.524 330.182 210.401 330.148 210.332 330.114L210.673 328.932C210.999 329.015 211.287 329.045 211.537 329.023C211.787 329 212.009 328.888 212.202 328.688C212.399 328.491 212.579 328.17 212.741 327.727L212.991 327.045L209.764 318.273H211.219L213.628 325.227H213.719L216.128 318.273H217.582L213.878 328.273C213.711 328.723 213.505 329.097 213.259 329.392C213.012 329.691 212.726 329.913 212.401 330.057C212.079 330.201 211.715 330.273 211.31 330.273ZM223.852 327V318.273H225.193V327H223.852ZM224.534 316.818C224.273 316.818 224.047 316.729 223.858 316.551C223.672 316.373 223.58 316.159 223.58 315.909C223.58 315.659 223.672 315.445 223.858 315.267C224.047 315.089 224.273 315 224.534 315C224.795 315 225.019 315.089 225.205 315.267C225.394 315.445 225.489 315.659 225.489 315.909C225.489 316.159 225.394 316.373 225.205 316.551C225.019 316.729 224.795 316.818 224.534 316.818ZM231.445 318.273V319.409H226.922V318.273H231.445ZM228.24 316.182H229.581V324.5C229.581 324.879 229.636 325.163 229.746 325.352C229.859 325.538 230.003 325.663 230.178 325.727C230.356 325.788 230.543 325.818 230.74 325.818C230.888 325.818 231.009 325.811 231.104 325.795C231.198 325.777 231.274 325.761 231.331 325.75L231.604 326.955C231.513 326.989 231.386 327.023 231.223 327.057C231.06 327.095 230.854 327.114 230.604 327.114C230.225 327.114 229.854 327.032 229.49 326.869C229.13 326.706 228.831 326.458 228.592 326.125C228.357 325.792 228.24 325.371 228.24 324.864V316.182ZM237.027 327.182C236.186 327.182 235.461 326.996 234.851 326.625C234.245 326.25 233.777 325.727 233.447 325.057C233.122 324.383 232.959 323.598 232.959 322.705C232.959 321.811 233.122 321.023 233.447 320.341C233.777 319.655 234.235 319.121 234.822 318.739C235.413 318.352 236.103 318.159 236.891 318.159C237.345 318.159 237.794 318.235 238.237 318.386C238.68 318.538 239.084 318.784 239.447 319.125C239.811 319.462 240.101 319.909 240.317 320.466C240.533 321.023 240.641 321.708 240.641 322.523V323.091H233.913V321.932H239.277C239.277 321.439 239.179 321 238.982 320.614C238.788 320.227 238.512 319.922 238.152 319.699C237.796 319.475 237.375 319.364 236.891 319.364C236.357 319.364 235.894 319.496 235.504 319.761C235.118 320.023 234.821 320.364 234.612 320.784C234.404 321.205 234.3 321.655 234.3 322.136V322.909C234.3 323.568 234.413 324.127 234.641 324.585C234.872 325.04 235.192 325.386 235.601 325.625C236.01 325.86 236.485 325.977 237.027 325.977C237.379 325.977 237.697 325.928 237.982 325.83C238.269 325.727 238.518 325.576 238.726 325.375C238.934 325.17 239.095 324.917 239.209 324.614L240.504 324.977C240.368 325.417 240.139 325.803 239.817 326.136C239.495 326.466 239.097 326.723 238.624 326.909C238.15 327.091 237.618 327.182 237.027 327.182ZM242.68 327V318.273H243.976V319.636H244.089C244.271 319.17 244.565 318.809 244.97 318.551C245.375 318.29 245.862 318.159 246.43 318.159C247.006 318.159 247.485 318.29 247.868 318.551C248.254 318.809 248.555 319.17 248.771 319.636H248.862C249.086 319.186 249.421 318.828 249.868 318.562C250.315 318.294 250.851 318.159 251.476 318.159C252.256 318.159 252.894 318.403 253.391 318.892C253.887 319.377 254.135 320.133 254.135 321.159V327H252.794V321.159C252.794 320.515 252.618 320.055 252.266 319.778C251.913 319.502 251.499 319.364 251.021 319.364C250.408 319.364 249.932 319.549 249.595 319.92C249.258 320.288 249.089 320.754 249.089 321.318V327H247.726V321.023C247.726 320.527 247.565 320.127 247.243 319.824C246.921 319.517 246.506 319.364 245.999 319.364C245.65 319.364 245.324 319.456 245.021 319.642C244.722 319.828 244.48 320.085 244.294 320.415C244.112 320.741 244.021 321.117 244.021 321.545V327H242.68ZM79.6371 337.273V338.409H74.9325V337.273H79.6371ZM76.3416 346V336.068C76.3416 335.568 76.459 335.152 76.6939 334.818C76.9287 334.485 77.2337 334.235 77.6087 334.068C77.9837 333.902 78.3795 333.818 78.7962 333.818C79.1257 333.818 79.3946 333.845 79.603 333.898C79.8113 333.951 79.9666 334 80.0689 334.045L79.6825 335.205C79.6143 335.182 79.5196 335.153 79.3984 335.119C79.281 335.085 79.1257 335.068 78.9325 335.068C78.4893 335.068 78.1693 335.18 77.9723 335.403C77.7791 335.627 77.6825 335.955 77.6825 336.386V346H76.3416ZM84.7024 346.182C83.9145 346.182 83.2232 345.994 82.6286 345.619C82.0376 345.244 81.5755 344.72 81.2422 344.045C80.9126 343.371 80.7479 342.583 80.7479 341.682C80.7479 340.773 80.9126 339.979 81.2422 339.301C81.5755 338.623 82.0376 338.097 82.6286 337.722C83.2232 337.347 83.9145 337.159 84.7024 337.159C85.4903 337.159 86.1797 337.347 86.7706 337.722C87.3653 338.097 87.8274 338.623 88.157 339.301C88.4903 339.979 88.657 340.773 88.657 341.682C88.657 342.583 88.4903 343.371 88.157 344.045C87.8274 344.72 87.3653 345.244 86.7706 345.619C86.1797 345.994 85.4903 346.182 84.7024 346.182ZM84.7024 344.977C85.3009 344.977 85.7933 344.824 86.1797 344.517C86.5661 344.21 86.852 343.807 87.0376 343.307C87.2232 342.807 87.3161 342.265 87.3161 341.682C87.3161 341.098 87.2232 340.555 87.0376 340.051C86.852 339.547 86.5661 339.14 86.1797 338.83C85.7933 338.519 85.3009 338.364 84.7024 338.364C84.1039 338.364 83.6115 338.519 83.2251 338.83C82.8388 339.14 82.5528 339.547 82.3672 340.051C82.1816 340.555 82.0888 341.098 82.0888 341.682C82.0888 342.265 82.1816 342.807 82.3672 343.307C82.5528 343.807 82.8388 344.21 83.2251 344.517C83.6115 344.824 84.1039 344.977 84.7024 344.977ZM90.7038 346V337.273H91.9993V338.591H92.0902C92.2493 338.159 92.5372 337.809 92.9538 337.54C93.3705 337.271 93.8402 337.136 94.3629 337.136C94.4614 337.136 94.5845 337.138 94.7322 337.142C94.88 337.146 94.9917 337.152 95.0675 337.159V338.523C95.022 338.511 94.9179 338.494 94.755 338.472C94.5959 338.445 94.4273 338.432 94.2493 338.432C93.825 338.432 93.4463 338.521 93.1129 338.699C92.7834 338.873 92.522 339.116 92.3288 339.426C92.1394 339.733 92.0447 340.083 92.0447 340.477V346H90.7038ZM104.452 346.182C103.725 346.182 103.083 345.998 102.526 345.631C101.969 345.259 101.534 344.737 101.219 344.062C100.905 343.384 100.748 342.583 100.748 341.659C100.748 340.742 100.905 339.947 101.219 339.273C101.534 338.598 101.971 338.078 102.532 337.71C103.093 337.343 103.74 337.159 104.475 337.159C105.043 337.159 105.492 337.254 105.822 337.443C106.155 337.629 106.409 337.841 106.583 338.08C106.761 338.314 106.899 338.508 106.998 338.659H107.112V334.364H108.452V346H107.157V344.659H106.998C106.899 344.818 106.759 345.019 106.577 345.261C106.396 345.5 106.136 345.714 105.799 345.903C105.462 346.089 105.013 346.182 104.452 346.182ZM104.634 344.977C105.172 344.977 105.627 344.837 105.998 344.557C106.369 344.273 106.651 343.881 106.844 343.381C107.038 342.877 107.134 342.295 107.134 341.636C107.134 340.985 107.04 340.415 106.85 339.926C106.661 339.434 106.38 339.051 106.009 338.778C105.638 338.502 105.18 338.364 104.634 338.364C104.066 338.364 103.593 338.509 103.214 338.801C102.839 339.089 102.557 339.481 102.367 339.977C102.182 340.47 102.089 341.023 102.089 341.636C102.089 342.258 102.183 342.822 102.373 343.33C102.566 343.833 102.85 344.235 103.225 344.534C103.604 344.83 104.074 344.977 104.634 344.977ZM114.754 346.182C113.913 346.182 113.187 345.996 112.577 345.625C111.971 345.25 111.504 344.727 111.174 344.057C110.848 343.383 110.685 342.598 110.685 341.705C110.685 340.811 110.848 340.023 111.174 339.341C111.504 338.655 111.962 338.121 112.549 337.739C113.14 337.352 113.829 337.159 114.617 337.159C115.072 337.159 115.521 337.235 115.964 337.386C116.407 337.538 116.81 337.784 117.174 338.125C117.538 338.462 117.827 338.909 118.043 339.466C118.259 340.023 118.367 340.708 118.367 341.523V342.091H111.64V340.932H117.004C117.004 340.439 116.905 340 116.708 339.614C116.515 339.227 116.238 338.922 115.879 338.699C115.522 338.475 115.102 338.364 114.617 338.364C114.083 338.364 113.621 338.496 113.231 338.761C112.844 339.023 112.547 339.364 112.339 339.784C112.13 340.205 112.026 340.655 112.026 341.136V341.909C112.026 342.568 112.14 343.127 112.367 343.585C112.598 344.04 112.918 344.386 113.327 344.625C113.737 344.86 114.212 344.977 114.754 344.977C115.106 344.977 115.424 344.928 115.708 344.83C115.996 344.727 116.244 344.576 116.452 344.375C116.661 344.17 116.822 343.917 116.935 343.614L118.231 343.977C118.094 344.417 117.865 344.803 117.543 345.136C117.221 345.466 116.824 345.723 116.35 345.909C115.877 346.091 115.344 346.182 114.754 346.182ZM121.748 334.364V346H120.407V334.364H121.748ZM124.204 346V337.273H125.545V346H124.204ZM124.886 335.818C124.624 335.818 124.399 335.729 124.21 335.551C124.024 335.373 123.931 335.159 123.931 334.909C123.931 334.659 124.024 334.445 124.21 334.267C124.399 334.089 124.624 334 124.886 334C125.147 334 125.371 334.089 125.556 334.267C125.746 334.445 125.84 334.659 125.84 334.909C125.84 335.159 125.746 335.373 125.556 335.551C125.371 335.729 125.147 335.818 124.886 335.818ZM135.137 337.273L131.91 346H130.546L127.319 337.273H128.773L131.183 344.227H131.273L133.683 337.273H135.137ZM140.254 346.182C139.413 346.182 138.687 345.996 138.077 345.625C137.471 345.25 137.004 344.727 136.674 344.057C136.348 343.383 136.185 342.598 136.185 341.705C136.185 340.811 136.348 340.023 136.674 339.341C137.004 338.655 137.462 338.121 138.049 337.739C138.64 337.352 139.329 337.159 140.117 337.159C140.572 337.159 141.021 337.235 141.464 337.386C141.907 337.538 142.31 337.784 142.674 338.125C143.038 338.462 143.327 338.909 143.543 339.466C143.759 340.023 143.867 340.708 143.867 341.523V342.091H137.14V340.932H142.504C142.504 340.439 142.405 340 142.208 339.614C142.015 339.227 141.738 338.922 141.379 338.699C141.022 338.475 140.602 338.364 140.117 338.364C139.583 338.364 139.121 338.496 138.731 338.761C138.344 339.023 138.047 339.364 137.839 339.784C137.63 340.205 137.526 340.655 137.526 341.136V341.909C137.526 342.568 137.64 343.127 137.867 343.585C138.098 344.04 138.418 344.386 138.827 344.625C139.237 344.86 139.712 344.977 140.254 344.977C140.606 344.977 140.924 344.928 141.208 344.83C141.496 344.727 141.744 344.576 141.952 344.375C142.161 344.17 142.322 343.917 142.435 343.614L143.731 343.977C143.594 344.417 143.365 344.803 143.043 345.136C142.721 345.466 142.324 345.723 141.85 345.909C141.377 346.091 140.844 346.182 140.254 346.182ZM145.907 346V337.273H147.202V338.591H147.293C147.452 338.159 147.74 337.809 148.157 337.54C148.574 337.271 149.043 337.136 149.566 337.136C149.665 337.136 149.788 337.138 149.935 337.142C150.083 337.146 150.195 337.152 150.271 337.159V338.523C150.225 338.511 150.121 338.494 149.958 338.472C149.799 338.445 149.63 338.432 149.452 338.432C149.028 338.432 148.649 338.521 148.316 338.699C147.987 338.873 147.725 339.116 147.532 339.426C147.343 339.733 147.248 340.083 147.248 340.477V346H145.907ZM152.989 349.273C152.762 349.273 152.559 349.254 152.381 349.216C152.203 349.182 152.08 349.148 152.012 349.114L152.353 347.932C152.679 348.015 152.967 348.045 153.217 348.023C153.467 348 153.688 347.888 153.881 347.688C154.078 347.491 154.258 347.17 154.421 346.727L154.671 346.045L151.444 337.273H152.898L155.308 344.227H155.398L157.808 337.273H159.262L155.558 347.273C155.391 347.723 155.184 348.097 154.938 348.392C154.692 348.691 154.406 348.913 154.08 349.057C153.758 349.201 153.395 349.273 152.989 349.273ZM165.532 346V337.273H166.873V346H165.532ZM166.214 335.818C165.952 335.818 165.727 335.729 165.538 335.551C165.352 335.373 165.259 335.159 165.259 334.909C165.259 334.659 165.352 334.445 165.538 334.267C165.727 334.089 165.952 334 166.214 334C166.475 334 166.699 334.089 166.884 334.267C167.074 334.445 167.168 334.659 167.168 334.909C167.168 335.159 167.074 335.373 166.884 335.551C166.699 335.729 166.475 335.818 166.214 335.818ZM175.511 339.227L174.306 339.568C174.23 339.367 174.119 339.172 173.971 338.983C173.827 338.79 173.63 338.631 173.38 338.506C173.13 338.381 172.81 338.318 172.42 338.318C171.886 338.318 171.441 338.441 171.085 338.688C170.732 338.93 170.556 339.239 170.556 339.614C170.556 339.947 170.677 340.21 170.92 340.403C171.162 340.597 171.541 340.758 172.056 340.886L173.352 341.205C174.132 341.394 174.713 341.684 175.096 342.074C175.478 342.46 175.67 342.958 175.67 343.568C175.67 344.068 175.526 344.515 175.238 344.909C174.954 345.303 174.556 345.614 174.045 345.841C173.533 346.068 172.939 346.182 172.261 346.182C171.371 346.182 170.634 345.989 170.05 345.602C169.467 345.216 169.098 344.652 168.942 343.909L170.215 343.591C170.336 344.061 170.566 344.413 170.903 344.648C171.244 344.883 171.689 345 172.238 345C172.863 345 173.359 344.867 173.727 344.602C174.098 344.333 174.283 344.011 174.283 343.636C174.283 343.333 174.177 343.08 173.965 342.875C173.753 342.667 173.427 342.511 172.988 342.409L171.533 342.068C170.734 341.879 170.147 341.585 169.772 341.188C169.401 340.786 169.215 340.284 169.215 339.682C169.215 339.189 169.353 338.754 169.63 338.375C169.91 337.996 170.291 337.699 170.772 337.483C171.257 337.267 171.806 337.159 172.42 337.159C173.283 337.159 173.961 337.348 174.454 337.727C174.95 338.106 175.302 338.606 175.511 339.227ZM185.734 346.182C184.915 346.182 184.211 345.989 183.62 345.602C183.029 345.216 182.575 344.684 182.256 344.006C181.938 343.328 181.779 342.553 181.779 341.682C181.779 340.795 181.942 340.013 182.268 339.335C182.597 338.653 183.056 338.121 183.643 337.739C184.234 337.352 184.923 337.159 185.711 337.159C186.325 337.159 186.878 337.273 187.37 337.5C187.862 337.727 188.266 338.045 188.58 338.455C188.895 338.864 189.09 339.341 189.165 339.886H187.825C187.722 339.489 187.495 339.136 187.143 338.83C186.794 338.519 186.325 338.364 185.734 338.364C185.211 338.364 184.753 338.5 184.359 338.773C183.969 339.042 183.664 339.422 183.444 339.915C183.228 340.403 183.12 340.977 183.12 341.636C183.12 342.311 183.226 342.898 183.438 343.398C183.654 343.898 183.957 344.286 184.347 344.562C184.741 344.839 185.203 344.977 185.734 344.977C186.082 344.977 186.398 344.917 186.683 344.795C186.967 344.674 187.207 344.5 187.404 344.273C187.601 344.045 187.741 343.773 187.825 343.455H189.165C189.09 343.97 188.902 344.434 188.603 344.847C188.308 345.256 187.915 345.581 187.427 345.824C186.942 346.062 186.378 346.182 185.734 346.182ZM193.694 346.205C193.141 346.205 192.639 346.1 192.188 345.892C191.737 345.68 191.379 345.375 191.114 344.977C190.849 344.576 190.717 344.091 190.717 343.523C190.717 343.023 190.815 342.617 191.012 342.307C191.209 341.992 191.472 341.746 191.802 341.568C192.131 341.39 192.495 341.258 192.893 341.17C193.294 341.08 193.698 341.008 194.103 340.955C194.633 340.886 195.063 340.835 195.393 340.801C195.726 340.763 195.969 340.701 196.12 340.614C196.275 340.527 196.353 340.375 196.353 340.159V340.114C196.353 339.553 196.2 339.117 195.893 338.807C195.59 338.496 195.129 338.341 194.512 338.341C193.872 338.341 193.37 338.481 193.006 338.761C192.643 339.042 192.387 339.341 192.239 339.659L190.967 339.205C191.194 338.674 191.497 338.261 191.876 337.966C192.258 337.667 192.675 337.458 193.126 337.341C193.58 337.22 194.027 337.159 194.467 337.159C194.747 337.159 195.069 337.193 195.433 337.261C195.8 337.326 196.154 337.46 196.495 337.665C196.84 337.869 197.126 338.178 197.353 338.591C197.58 339.004 197.694 339.557 197.694 340.25V346H196.353V344.818H196.285C196.194 345.008 196.042 345.21 195.83 345.426C195.618 345.642 195.336 345.826 194.984 345.977C194.631 346.129 194.201 346.205 193.694 346.205ZM193.898 345C194.429 345 194.876 344.896 195.239 344.688C195.607 344.479 195.883 344.21 196.069 343.881C196.258 343.551 196.353 343.205 196.353 342.841V341.614C196.296 341.682 196.171 341.744 195.978 341.801C195.789 341.854 195.569 341.902 195.319 341.943C195.073 341.981 194.832 342.015 194.597 342.045C194.366 342.072 194.179 342.095 194.035 342.114C193.686 342.159 193.361 342.233 193.058 342.335C192.758 342.434 192.516 342.583 192.33 342.784C192.148 342.981 192.058 343.25 192.058 343.591C192.058 344.057 192.23 344.409 192.575 344.648C192.923 344.883 193.364 345 193.898 345ZM200.141 346V337.273H201.437V338.591H201.528C201.687 338.159 201.975 337.809 202.391 337.54C202.808 337.271 203.278 337.136 203.8 337.136C203.899 337.136 204.022 337.138 204.17 337.142C204.317 337.146 204.429 337.152 204.505 337.159V338.523C204.46 338.511 204.355 338.494 204.192 338.472C204.033 338.445 203.865 338.432 203.687 338.432C203.263 338.432 202.884 338.521 202.55 338.699C202.221 338.873 201.96 339.116 201.766 339.426C201.577 339.733 201.482 340.083 201.482 340.477V346H200.141ZM209.488 346.182C208.647 346.182 207.922 345.996 207.312 345.625C206.706 345.25 206.238 344.727 205.908 344.057C205.583 343.383 205.42 342.598 205.42 341.705C205.42 340.811 205.583 340.023 205.908 339.341C206.238 338.655 206.696 338.121 207.283 337.739C207.874 337.352 208.564 337.159 209.352 337.159C209.806 337.159 210.255 337.235 210.698 337.386C211.141 337.538 211.545 337.784 211.908 338.125C212.272 338.462 212.562 338.909 212.778 339.466C212.994 340.023 213.102 340.708 213.102 341.523V342.091H206.374V340.932H211.738C211.738 340.439 211.639 340 211.442 339.614C211.249 339.227 210.973 338.922 210.613 338.699C210.257 338.475 209.836 338.364 209.352 338.364C208.817 338.364 208.355 338.496 207.965 338.761C207.579 339.023 207.281 339.364 207.073 339.784C206.865 340.205 206.761 340.655 206.761 341.136V341.909C206.761 342.568 206.874 343.127 207.102 343.585C207.333 344.04 207.653 344.386 208.062 344.625C208.471 344.86 208.946 344.977 209.488 344.977C209.84 344.977 210.158 344.928 210.442 344.83C210.73 344.727 210.978 344.576 211.187 344.375C211.395 344.17 211.556 343.917 211.67 343.614L212.965 343.977C212.829 344.417 212.6 344.803 212.278 345.136C211.956 345.466 211.558 345.723 211.085 345.909C210.611 346.091 210.079 346.182 209.488 346.182ZM219.028 337.273V338.409H214.323V337.273H219.028ZM215.732 346V336.068C215.732 335.568 215.85 335.152 216.085 334.818C216.319 334.485 216.624 334.235 216.999 334.068C217.374 333.902 217.77 333.818 218.187 333.818C218.516 333.818 218.785 333.845 218.994 333.898C219.202 333.951 219.357 334 219.46 334.045L219.073 335.205C219.005 335.182 218.91 335.153 218.789 335.119C218.672 335.085 218.516 335.068 218.323 335.068C217.88 335.068 217.56 335.18 217.363 335.403C217.17 335.627 217.073 335.955 217.073 336.386V346H215.732ZM226.407 342.432V337.273H227.748V346H226.407V344.523H226.316C226.112 344.966 225.793 345.343 225.362 345.653C224.93 345.96 224.384 346.114 223.725 346.114C223.18 346.114 222.695 345.994 222.271 345.756C221.846 345.513 221.513 345.15 221.271 344.665C221.028 344.176 220.907 343.561 220.907 342.818V337.273H222.248V342.727C222.248 343.364 222.426 343.871 222.782 344.25C223.142 344.629 223.6 344.818 224.157 344.818C224.49 344.818 224.829 344.733 225.174 344.562C225.522 344.392 225.814 344.131 226.049 343.778C226.288 343.426 226.407 342.977 226.407 342.432ZM231.545 334.364V346H230.204V334.364H231.545ZM235.342 334.364V346H234.001V334.364H235.342ZM238.661 349.273C238.434 349.273 238.231 349.254 238.053 349.216C237.875 349.182 237.752 349.148 237.684 349.114L238.025 347.932C238.351 348.015 238.638 348.045 238.888 348.023C239.138 348 239.36 347.888 239.553 347.688C239.75 347.491 239.93 347.17 240.093 346.727L240.343 346.045L237.116 337.273H238.57L240.979 344.227H241.07L243.479 337.273H244.934L241.229 347.273C241.063 347.723 240.856 348.097 240.61 348.392C240.364 348.691 240.078 348.913 239.752 349.057C239.43 349.201 239.067 349.273 238.661 349.273ZM84.1165 365.182C83.2983 365.182 82.5938 364.989 82.0028 364.602C81.4119 364.216 80.9574 363.684 80.6392 363.006C80.321 362.328 80.1619 361.553 80.1619 360.682C80.1619 359.795 80.3248 359.013 80.6506 358.335C80.9801 357.653 81.4384 357.121 82.0256 356.739C82.6165 356.352 83.3059 356.159 84.0938 356.159C84.7074 356.159 85.2604 356.273 85.7528 356.5C86.2453 356.727 86.6487 357.045 86.9631 357.455C87.2775 357.864 87.4725 358.341 87.5483 358.886H86.2074C86.1051 358.489 85.8778 358.136 85.5256 357.83C85.1771 357.519 84.7074 357.364 84.1165 357.364C83.5938 357.364 83.1354 357.5 82.7415 357.773C82.3513 358.042 82.0464 358.422 81.8267 358.915C81.6108 359.403 81.5028 359.977 81.5028 360.636C81.5028 361.311 81.6089 361.898 81.821 362.398C82.0369 362.898 82.34 363.286 82.7301 363.562C83.1241 363.839 83.5862 363.977 84.1165 363.977C84.465 363.977 84.7812 363.917 85.0653 363.795C85.3494 363.674 85.59 363.5 85.7869 363.273C85.9839 363.045 86.1241 362.773 86.2074 362.455H87.5483C87.4725 362.97 87.285 363.434 86.9858 363.847C86.6903 364.256 86.2983 364.581 85.8097 364.824C85.3248 365.062 84.7604 365.182 84.1165 365.182ZM93.054 365.182C92.2661 365.182 91.5748 364.994 90.9801 364.619C90.3892 364.244 89.9271 363.72 89.5938 363.045C89.2642 362.371 89.0994 361.583 89.0994 360.682C89.0994 359.773 89.2642 358.979 89.5938 358.301C89.9271 357.623 90.3892 357.097 90.9801 356.722C91.5748 356.347 92.2661 356.159 93.054 356.159C93.8419 356.159 94.5313 356.347 95.1222 356.722C95.7169 357.097 96.179 357.623 96.5085 358.301C96.8419 358.979 97.0085 359.773 97.0085 360.682C97.0085 361.583 96.8419 362.371 96.5085 363.045C96.179 363.72 95.7169 364.244 95.1222 364.619C94.5313 364.994 93.8419 365.182 93.054 365.182ZM93.054 363.977C93.6525 363.977 94.1449 363.824 94.5312 363.517C94.9176 363.21 95.2036 362.807 95.3892 362.307C95.5748 361.807 95.6676 361.265 95.6676 360.682C95.6676 360.098 95.5748 359.555 95.3892 359.051C95.2036 358.547 94.9176 358.14 94.5312 357.83C94.1449 357.519 93.6525 357.364 93.054 357.364C92.4555 357.364 91.9631 357.519 91.5767 357.83C91.1903 358.14 90.9044 358.547 90.7188 359.051C90.5331 359.555 90.4403 360.098 90.4403 360.682C90.4403 361.265 90.5331 361.807 90.7188 362.307C90.9044 362.807 91.1903 363.21 91.5767 363.517C91.9631 363.824 92.4555 363.977 93.054 363.977ZM100.396 359.75V365H99.0554V356.273H100.351V357.636H100.464C100.669 357.193 100.98 356.837 101.396 356.568C101.813 356.295 102.351 356.159 103.01 356.159C103.601 356.159 104.118 356.28 104.561 356.523C105.004 356.761 105.349 357.125 105.595 357.614C105.841 358.098 105.964 358.712 105.964 359.455V365H104.624V359.545C104.624 358.86 104.446 358.326 104.089 357.943C103.733 357.557 103.245 357.364 102.624 357.364C102.196 357.364 101.813 357.456 101.476 357.642C101.143 357.828 100.879 358.098 100.686 358.455C100.493 358.811 100.396 359.242 100.396 359.75ZM115.239 356.273L112.011 365H110.648L107.42 356.273H108.875L111.284 363.227H111.375L113.784 356.273H115.239ZM120.355 365.182C119.514 365.182 118.789 364.996 118.179 364.625C117.573 364.25 117.105 363.727 116.776 363.057C116.45 362.383 116.287 361.598 116.287 360.705C116.287 359.811 116.45 359.023 116.776 358.341C117.105 357.655 117.563 357.121 118.151 356.739C118.741 356.352 119.431 356.159 120.219 356.159C120.673 356.159 121.122 356.235 121.565 356.386C122.009 356.538 122.412 356.784 122.776 357.125C123.139 357.462 123.429 357.909 123.645 358.466C123.861 359.023 123.969 359.708 123.969 360.523V361.091H117.241V359.932H122.605C122.605 359.439 122.507 359 122.31 358.614C122.116 358.227 121.84 357.922 121.48 357.699C121.124 357.475 120.704 357.364 120.219 357.364C119.685 357.364 119.223 357.496 118.832 357.761C118.446 358.023 118.149 358.364 117.94 358.784C117.732 359.205 117.628 359.655 117.628 360.136V360.909C117.628 361.568 117.741 362.127 117.969 362.585C118.2 363.04 118.52 363.386 118.929 363.625C119.338 363.86 119.813 363.977 120.355 363.977C120.707 363.977 121.026 363.928 121.31 363.83C121.598 363.727 121.846 363.576 122.054 363.375C122.262 363.17 122.423 362.917 122.537 362.614L123.832 362.977C123.696 363.417 123.467 363.803 123.145 364.136C122.823 364.466 122.425 364.723 121.952 364.909C121.478 365.091 120.946 365.182 120.355 365.182ZM126.607 368.273C126.379 368.273 126.177 368.254 125.999 368.216C125.821 368.182 125.697 368.148 125.629 368.114L125.97 366.932C126.296 367.015 126.584 367.045 126.834 367.023C127.084 367 127.305 366.888 127.499 366.688C127.696 366.491 127.875 366.17 128.038 365.727L128.288 365.045L125.061 356.273H126.516L128.925 363.227H129.016L131.425 356.273H132.879L129.175 366.273C129.008 366.723 128.802 367.097 128.555 367.392C128.309 367.691 128.023 367.913 127.697 368.057C127.375 368.201 127.012 368.273 126.607 368.273ZM137.996 365.182C137.155 365.182 136.429 364.996 135.82 364.625C135.214 364.25 134.746 363.727 134.416 363.057C134.09 362.383 133.928 361.598 133.928 360.705C133.928 359.811 134.09 359.023 134.416 358.341C134.746 357.655 135.204 357.121 135.791 356.739C136.382 356.352 137.071 356.159 137.859 356.159C138.314 356.159 138.763 356.235 139.206 356.386C139.649 356.538 140.053 356.784 140.416 357.125C140.78 357.462 141.07 357.909 141.286 358.466C141.501 359.023 141.609 359.708 141.609 360.523V361.091H134.882V359.932H140.246C140.246 359.439 140.147 359 139.95 358.614C139.757 358.227 139.481 357.922 139.121 357.699C138.765 357.475 138.344 357.364 137.859 357.364C137.325 357.364 136.863 357.496 136.473 357.761C136.087 358.023 135.789 358.364 135.581 358.784C135.373 359.205 135.268 359.655 135.268 360.136V360.909C135.268 361.568 135.382 362.127 135.609 362.585C135.84 363.04 136.161 363.386 136.57 363.625C136.979 363.86 137.454 363.977 137.996 363.977C138.348 363.977 138.666 363.928 138.95 363.83C139.238 363.727 139.486 363.576 139.695 363.375C139.903 363.17 140.064 362.917 140.178 362.614L141.473 362.977C141.337 363.417 141.107 363.803 140.786 364.136C140.464 364.466 140.066 364.723 139.592 364.909C139.119 365.091 138.587 365.182 137.996 365.182ZM146.945 365.182C146.217 365.182 145.575 364.998 145.018 364.631C144.462 364.259 144.026 363.737 143.712 363.062C143.397 362.384 143.24 361.583 143.24 360.659C143.24 359.742 143.397 358.947 143.712 358.273C144.026 357.598 144.464 357.078 145.024 356.71C145.585 356.343 146.232 356.159 146.967 356.159C147.536 356.159 147.984 356.254 148.314 356.443C148.647 356.629 148.901 356.841 149.075 357.08C149.253 357.314 149.392 357.508 149.49 357.659H149.604V353.364H150.945V365H149.649V363.659H149.49C149.392 363.818 149.251 364.019 149.07 364.261C148.888 364.5 148.628 364.714 148.291 364.903C147.954 365.089 147.505 365.182 146.945 365.182ZM147.126 363.977C147.664 363.977 148.119 363.837 148.49 363.557C148.861 363.273 149.143 362.881 149.337 362.381C149.53 361.877 149.626 361.295 149.626 360.636C149.626 359.985 149.532 359.415 149.342 358.926C149.153 358.434 148.873 358.051 148.501 357.778C148.13 357.502 147.672 357.364 147.126 357.364C146.558 357.364 146.085 357.509 145.706 357.801C145.331 358.089 145.049 358.481 144.859 358.977C144.674 359.47 144.581 360.023 144.581 360.636C144.581 361.258 144.676 361.822 144.865 362.33C145.058 362.833 145.342 363.235 145.717 363.534C146.096 363.83 146.566 363.977 147.126 363.977ZM161.882 356.273V357.409H157.359V356.273H161.882ZM158.678 354.182H160.018V362.5C160.018 362.879 160.073 363.163 160.183 363.352C160.297 363.538 160.441 363.663 160.615 363.727C160.793 363.788 160.981 363.818 161.178 363.818C161.325 363.818 161.446 363.811 161.541 363.795C161.636 363.777 161.712 363.761 161.768 363.75L162.041 364.955C161.95 364.989 161.823 365.023 161.661 365.057C161.498 365.095 161.291 365.114 161.041 365.114C160.662 365.114 160.291 365.032 159.928 364.869C159.568 364.706 159.268 364.458 159.03 364.125C158.795 363.792 158.678 363.371 158.678 362.864V354.182ZM167.351 365.182C166.563 365.182 165.872 364.994 165.277 364.619C164.686 364.244 164.224 363.72 163.891 363.045C163.561 362.371 163.396 361.583 163.396 360.682C163.396 359.773 163.561 358.979 163.891 358.301C164.224 357.623 164.686 357.097 165.277 356.722C165.872 356.347 166.563 356.159 167.351 356.159C168.139 356.159 168.828 356.347 169.419 356.722C170.014 357.097 170.476 357.623 170.805 358.301C171.139 358.979 171.305 359.773 171.305 360.682C171.305 361.583 171.139 362.371 170.805 363.045C170.476 363.72 170.014 364.244 169.419 364.619C168.828 364.994 168.139 365.182 167.351 365.182ZM167.351 363.977C167.949 363.977 168.442 363.824 168.828 363.517C169.214 363.21 169.5 362.807 169.686 362.307C169.872 361.807 169.964 361.265 169.964 360.682C169.964 360.098 169.872 359.555 169.686 359.051C169.5 358.547 169.214 358.14 168.828 357.83C168.442 357.519 167.949 357.364 167.351 357.364C166.752 357.364 166.26 357.519 165.874 357.83C165.487 358.14 165.201 358.547 165.016 359.051C164.83 359.555 164.737 360.098 164.737 360.682C164.737 361.265 164.83 361.807 165.016 362.307C165.201 362.807 165.487 363.21 165.874 363.517C166.26 363.824 166.752 363.977 167.351 363.977ZM181.648 356.273V357.409H177.125V356.273H181.648ZM178.443 354.182H179.784V362.5C179.784 362.879 179.839 363.163 179.949 363.352C180.063 363.538 180.206 363.663 180.381 363.727C180.559 363.788 180.746 363.818 180.943 363.818C181.091 363.818 181.212 363.811 181.307 363.795C181.402 363.777 181.477 363.761 181.534 363.75L181.807 364.955C181.716 364.989 181.589 365.023 181.426 365.057C181.263 365.095 181.057 365.114 180.807 365.114C180.428 365.114 180.057 365.032 179.693 364.869C179.333 364.706 179.034 364.458 178.795 364.125C178.561 363.792 178.443 363.371 178.443 362.864V354.182ZM185.193 359.75V365H183.852V353.364H185.193V357.636H185.307C185.511 357.186 185.818 356.828 186.227 356.562C186.64 356.294 187.189 356.159 187.875 356.159C188.47 356.159 188.991 356.278 189.438 356.517C189.884 356.752 190.231 357.114 190.477 357.602C190.727 358.087 190.852 358.705 190.852 359.455V365H189.511V359.545C189.511 358.852 189.331 358.316 188.972 357.938C188.616 357.555 188.121 357.364 187.489 357.364C187.049 357.364 186.655 357.456 186.307 357.642C185.962 357.828 185.689 358.098 185.489 358.455C185.292 358.811 185.193 359.242 185.193 359.75ZM196.964 365.182C196.124 365.182 195.398 364.996 194.788 364.625C194.182 364.25 193.714 363.727 193.385 363.057C193.059 362.383 192.896 361.598 192.896 360.705C192.896 359.811 193.059 359.023 193.385 358.341C193.714 357.655 194.173 357.121 194.76 356.739C195.351 356.352 196.04 356.159 196.828 356.159C197.283 356.159 197.732 356.235 198.175 356.386C198.618 356.538 199.021 356.784 199.385 357.125C199.749 357.462 200.038 357.909 200.254 358.466C200.47 359.023 200.578 359.708 200.578 360.523V361.091H193.851V359.932H199.214C199.214 359.439 199.116 359 198.919 358.614C198.726 358.227 198.449 357.922 198.089 357.699C197.733 357.475 197.313 357.364 196.828 357.364C196.294 357.364 195.832 357.496 195.442 357.761C195.055 358.023 194.758 358.364 194.55 358.784C194.341 359.205 194.237 359.655 194.237 360.136V360.909C194.237 361.568 194.351 362.127 194.578 362.585C194.809 363.04 195.129 363.386 195.538 363.625C195.947 363.86 196.423 363.977 196.964 363.977C197.317 363.977 197.635 363.928 197.919 363.83C198.207 363.727 198.455 363.576 198.663 363.375C198.872 363.17 199.033 362.917 199.146 362.614L200.442 362.977C200.305 363.417 200.076 363.803 199.754 364.136C199.432 364.466 199.035 364.723 198.561 364.909C198.088 365.091 197.555 365.182 196.964 365.182ZM207.118 365V356.273H208.413V357.591H208.504C208.663 357.159 208.951 356.809 209.368 356.54C209.785 356.271 210.254 356.136 210.777 356.136C210.875 356.136 210.999 356.138 211.146 356.142C211.294 356.146 211.406 356.152 211.482 356.159V357.523C211.436 357.511 211.332 357.494 211.169 357.472C211.01 357.445 210.841 357.432 210.663 357.432C210.239 357.432 209.86 357.521 209.527 357.699C209.197 357.873 208.936 358.116 208.743 358.426C208.554 358.733 208.459 359.083 208.459 359.477V365H207.118ZM213.071 365V356.273H214.412V365H213.071ZM213.753 354.818C213.491 354.818 213.266 354.729 213.077 354.551C212.891 354.373 212.798 354.159 212.798 353.909C212.798 353.659 212.891 353.445 213.077 353.267C213.266 353.089 213.491 353 213.753 353C214.014 353 214.238 353.089 214.423 353.267C214.613 353.445 214.707 353.659 214.707 353.909C214.707 354.159 214.613 354.373 214.423 354.551C214.238 354.729 214.014 354.818 213.753 354.818ZM220.391 368.455C219.743 368.455 219.186 368.371 218.72 368.205C218.254 368.042 217.866 367.826 217.555 367.557C217.249 367.292 217.004 367.008 216.822 366.705L217.891 365.955C218.012 366.114 218.165 366.295 218.351 366.5C218.536 366.708 218.79 366.888 219.112 367.04C219.438 367.195 219.864 367.273 220.391 367.273C221.095 367.273 221.677 367.102 222.135 366.761C222.593 366.42 222.822 365.886 222.822 365.159V363.386H222.709C222.61 363.545 222.47 363.742 222.288 363.977C222.11 364.208 221.853 364.415 221.516 364.597C221.182 364.775 220.732 364.864 220.163 364.864C219.459 364.864 218.826 364.697 218.266 364.364C217.709 364.03 217.268 363.545 216.942 362.909C216.62 362.273 216.459 361.5 216.459 360.591C216.459 359.697 216.616 358.919 216.93 358.256C217.245 357.589 217.682 357.074 218.243 356.71C218.804 356.343 219.451 356.159 220.186 356.159C220.754 356.159 221.205 356.254 221.538 356.443C221.875 356.629 222.133 356.841 222.311 357.08C222.493 357.314 222.633 357.508 222.732 357.659H222.868V356.273H224.163V365.25C224.163 366 223.993 366.61 223.652 367.08C223.315 367.553 222.86 367.9 222.288 368.119C221.72 368.343 221.088 368.455 220.391 368.455ZM220.345 363.659C220.883 363.659 221.338 363.536 221.709 363.29C222.08 363.044 222.362 362.689 222.555 362.227C222.749 361.765 222.845 361.212 222.845 360.568C222.845 359.939 222.75 359.384 222.561 358.903C222.372 358.422 222.091 358.045 221.72 357.773C221.349 357.5 220.891 357.364 220.345 357.364C219.777 357.364 219.304 357.508 218.925 357.795C218.55 358.083 218.268 358.47 218.078 358.955C217.893 359.439 217.8 359.977 217.8 360.568C217.8 361.174 217.894 361.71 218.084 362.176C218.277 362.638 218.561 363.002 218.936 363.267C219.315 363.528 219.785 363.659 220.345 363.659ZM227.959 359.75V365H226.618V353.364H227.959V357.636H228.072C228.277 357.186 228.584 356.828 228.993 356.562C229.406 356.294 229.955 356.159 230.641 356.159C231.235 356.159 231.756 356.278 232.203 356.517C232.65 356.752 232.997 357.114 233.243 357.602C233.493 358.087 233.618 358.705 233.618 359.455V365H232.277V359.545C232.277 358.852 232.097 358.316 231.737 357.938C231.381 357.555 230.887 357.364 230.254 357.364C229.815 357.364 229.421 357.456 229.072 357.642C228.728 357.828 228.455 358.098 228.254 358.455C228.057 358.811 227.959 359.242 227.959 359.75ZM239.866 356.273V357.409H235.344V356.273H239.866ZM236.662 354.182H238.003V362.5C238.003 362.879 238.058 363.163 238.168 363.352C238.281 363.538 238.425 363.663 238.599 363.727C238.777 363.788 238.965 363.818 239.162 363.818C239.31 363.818 239.431 363.811 239.526 363.795C239.62 363.777 239.696 363.761 239.753 363.75L240.026 364.955C239.935 364.989 239.808 365.023 239.645 365.057C239.482 365.095 239.276 365.114 239.026 365.114C238.647 365.114 238.276 365.032 237.912 364.869C237.552 364.706 237.253 364.458 237.014 364.125C236.779 363.792 236.662 363.371 236.662 362.864V354.182ZM120.265 384.182C119.538 384.182 118.896 383.998 118.339 383.631C117.782 383.259 117.346 382.737 117.032 382.062C116.718 381.384 116.56 380.583 116.56 379.659C116.56 378.742 116.718 377.947 117.032 377.273C117.346 376.598 117.784 376.078 118.344 375.71C118.905 375.343 119.553 375.159 120.288 375.159C120.856 375.159 121.305 375.254 121.634 375.443C121.968 375.629 122.221 375.841 122.396 376.08C122.574 376.314 122.712 376.508 122.81 376.659H122.924V372.364H124.265V384H122.969V382.659H122.81C122.712 382.818 122.572 383.019 122.39 383.261C122.208 383.5 121.949 383.714 121.612 383.903C121.274 384.089 120.826 384.182 120.265 384.182ZM120.447 382.977C120.985 382.977 121.439 382.837 121.81 382.557C122.182 382.273 122.464 381.881 122.657 381.381C122.85 380.877 122.947 380.295 122.947 379.636C122.947 378.985 122.852 378.415 122.663 377.926C122.473 377.434 122.193 377.051 121.822 376.778C121.451 376.502 120.992 376.364 120.447 376.364C119.879 376.364 119.405 376.509 119.026 376.801C118.651 377.089 118.369 377.481 118.18 377.977C117.994 378.47 117.901 379.023 117.901 379.636C117.901 380.258 117.996 380.822 118.185 381.33C118.379 381.833 118.663 382.235 119.038 382.534C119.416 382.83 119.886 382.977 120.447 382.977ZM130.566 384.182C129.725 384.182 129 383.996 128.39 383.625C127.784 383.25 127.316 382.727 126.987 382.057C126.661 381.383 126.498 380.598 126.498 379.705C126.498 378.811 126.661 378.023 126.987 377.341C127.316 376.655 127.774 376.121 128.362 375.739C128.952 375.352 129.642 375.159 130.43 375.159C130.884 375.159 131.333 375.235 131.776 375.386C132.219 375.538 132.623 375.784 132.987 376.125C133.35 376.462 133.64 376.909 133.856 377.466C134.072 378.023 134.18 378.708 134.18 379.523V380.091H127.452V378.932H132.816C132.816 378.439 132.718 378 132.521 377.614C132.327 377.227 132.051 376.922 131.691 376.699C131.335 376.475 130.915 376.364 130.43 376.364C129.896 376.364 129.433 376.496 129.043 376.761C128.657 377.023 128.36 377.364 128.151 377.784C127.943 378.205 127.839 378.655 127.839 379.136V379.909C127.839 380.568 127.952 381.127 128.18 381.585C128.411 382.04 128.731 382.386 129.14 382.625C129.549 382.86 130.024 382.977 130.566 382.977C130.918 382.977 131.237 382.928 131.521 382.83C131.808 382.727 132.057 382.576 132.265 382.375C132.473 382.17 132.634 381.917 132.748 381.614L134.043 381.977C133.907 382.417 133.678 382.803 133.356 383.136C133.034 383.466 132.636 383.723 132.163 383.909C131.689 384.091 131.157 384.182 130.566 384.182ZM142.401 377.227L141.197 377.568C141.121 377.367 141.009 377.172 140.862 376.983C140.718 376.79 140.521 376.631 140.271 376.506C140.021 376.381 139.701 376.318 139.31 376.318C138.776 376.318 138.331 376.441 137.975 376.688C137.623 376.93 137.447 377.239 137.447 377.614C137.447 377.947 137.568 378.21 137.81 378.403C138.053 378.597 138.432 378.758 138.947 378.886L140.242 379.205C141.022 379.394 141.604 379.684 141.987 380.074C142.369 380.46 142.56 380.958 142.56 381.568C142.56 382.068 142.416 382.515 142.129 382.909C141.844 383.303 141.447 383.614 140.935 383.841C140.424 384.068 139.829 384.182 139.151 384.182C138.261 384.182 137.524 383.989 136.941 383.602C136.358 383.216 135.988 382.652 135.833 381.909L137.106 381.591C137.227 382.061 137.456 382.413 137.793 382.648C138.134 382.883 138.579 383 139.129 383C139.754 383 140.25 382.867 140.617 382.602C140.988 382.333 141.174 382.011 141.174 381.636C141.174 381.333 141.068 381.08 140.856 380.875C140.644 380.667 140.318 380.511 139.879 380.409L138.424 380.068C137.625 379.879 137.038 379.585 136.663 379.188C136.291 378.786 136.106 378.284 136.106 377.682C136.106 377.189 136.244 376.754 136.521 376.375C136.801 375.996 137.182 375.699 137.663 375.483C138.147 375.267 138.697 375.159 139.31 375.159C140.174 375.159 140.852 375.348 141.344 375.727C141.841 376.106 142.193 376.606 142.401 377.227ZM148.374 375.273V376.409H143.852V375.273H148.374ZM145.17 373.182H146.511V381.5C146.511 381.879 146.566 382.163 146.675 382.352C146.789 382.538 146.933 382.663 147.107 382.727C147.285 382.788 147.473 382.818 147.67 382.818C147.817 382.818 147.939 382.811 148.033 382.795C148.128 382.777 148.204 382.761 148.261 382.75L148.533 383.955C148.442 383.989 148.316 384.023 148.153 384.057C147.99 384.095 147.783 384.114 147.533 384.114C147.155 384.114 146.783 384.032 146.42 383.869C146.06 383.706 145.761 383.458 145.522 383.125C145.287 382.792 145.17 382.371 145.17 381.864V373.182ZM150.391 384V375.273H151.732V384H150.391ZM151.073 373.818C150.812 373.818 150.586 373.729 150.397 373.551C150.211 373.373 150.119 373.159 150.119 372.909C150.119 372.659 150.211 372.445 150.397 372.267C150.586 372.089 150.812 372 151.073 372C151.335 372 151.558 372.089 151.744 372.267C151.933 372.445 152.028 372.659 152.028 372.909C152.028 373.159 151.933 373.373 151.744 373.551C151.558 373.729 151.335 373.818 151.073 373.818ZM155.529 378.75V384H154.188V375.273H155.484V376.636H155.597C155.802 376.193 156.112 375.837 156.529 375.568C156.946 375.295 157.484 375.159 158.143 375.159C158.734 375.159 159.251 375.28 159.694 375.523C160.137 375.761 160.482 376.125 160.728 376.614C160.974 377.098 161.097 377.712 161.097 378.455V384H159.756V378.545C159.756 377.86 159.578 377.326 159.222 376.943C158.866 376.557 158.378 376.364 157.756 376.364C157.328 376.364 156.946 376.456 156.609 376.642C156.275 376.828 156.012 377.098 155.819 377.455C155.626 377.811 155.529 378.242 155.529 378.75ZM166.116 384.205C165.563 384.205 165.061 384.1 164.61 383.892C164.159 383.68 163.801 383.375 163.536 382.977C163.271 382.576 163.138 382.091 163.138 381.523C163.138 381.023 163.237 380.617 163.434 380.307C163.631 379.992 163.894 379.746 164.224 379.568C164.553 379.39 164.917 379.258 165.315 379.17C165.716 379.08 166.12 379.008 166.525 378.955C167.055 378.886 167.485 378.835 167.815 378.801C168.148 378.763 168.39 378.701 168.542 378.614C168.697 378.527 168.775 378.375 168.775 378.159V378.114C168.775 377.553 168.621 377.117 168.315 376.807C168.012 376.496 167.551 376.341 166.934 376.341C166.294 376.341 165.792 376.481 165.428 376.761C165.065 377.042 164.809 377.341 164.661 377.659L163.388 377.205C163.616 376.674 163.919 376.261 164.298 375.966C164.68 375.667 165.097 375.458 165.548 375.341C166.002 375.22 166.449 375.159 166.888 375.159C167.169 375.159 167.491 375.193 167.854 375.261C168.222 375.326 168.576 375.46 168.917 375.665C169.262 375.869 169.548 376.178 169.775 376.591C170.002 377.004 170.116 377.557 170.116 378.25V384H168.775V382.818H168.707C168.616 383.008 168.464 383.21 168.252 383.426C168.04 383.642 167.758 383.826 167.406 383.977C167.053 384.129 166.623 384.205 166.116 384.205ZM166.32 383C166.851 383 167.298 382.896 167.661 382.688C168.029 382.479 168.305 382.21 168.491 381.881C168.68 381.551 168.775 381.205 168.775 380.841V379.614C168.718 379.682 168.593 379.744 168.4 379.801C168.21 379.854 167.991 379.902 167.741 379.943C167.495 379.981 167.254 380.015 167.019 380.045C166.788 380.072 166.601 380.095 166.457 380.114C166.108 380.159 165.782 380.233 165.479 380.335C165.18 380.434 164.938 380.583 164.752 380.784C164.57 380.981 164.479 381.25 164.479 381.591C164.479 382.057 164.652 382.409 164.996 382.648C165.345 382.883 165.786 383 166.32 383ZM176.359 375.273V376.409H171.836V375.273H176.359ZM173.154 373.182H174.495V381.5C174.495 381.879 174.55 382.163 174.66 382.352C174.773 382.538 174.917 382.663 175.092 382.727C175.27 382.788 175.457 382.818 175.654 382.818C175.802 382.818 175.923 382.811 176.018 382.795C176.112 382.777 176.188 382.761 176.245 382.75L176.518 383.955C176.427 383.989 176.3 384.023 176.137 384.057C175.974 384.095 175.768 384.114 175.518 384.114C175.139 384.114 174.768 384.032 174.404 383.869C174.044 383.706 173.745 383.458 173.506 383.125C173.272 382.792 173.154 382.371 173.154 381.864V373.182ZM178.376 384V375.273H179.717V384H178.376ZM179.058 373.818C178.796 373.818 178.571 373.729 178.381 373.551C178.196 373.373 178.103 373.159 178.103 372.909C178.103 372.659 178.196 372.445 178.381 372.267C178.571 372.089 178.796 372 179.058 372C179.319 372 179.542 372.089 179.728 372.267C179.917 372.445 180.012 372.659 180.012 372.909C180.012 373.159 179.917 373.373 179.728 373.551C179.542 373.729 179.319 373.818 179.058 373.818ZM185.718 384.182C184.93 384.182 184.239 383.994 183.644 383.619C183.053 383.244 182.591 382.72 182.258 382.045C181.928 381.371 181.763 380.583 181.763 379.682C181.763 378.773 181.928 377.979 182.258 377.301C182.591 376.623 183.053 376.097 183.644 375.722C184.239 375.347 184.93 375.159 185.718 375.159C186.506 375.159 187.195 375.347 187.786 375.722C188.381 376.097 188.843 376.623 189.173 377.301C189.506 377.979 189.673 378.773 189.673 379.682C189.673 380.583 189.506 381.371 189.173 382.045C188.843 382.72 188.381 383.244 187.786 383.619C187.195 383.994 186.506 384.182 185.718 384.182ZM185.718 382.977C186.317 382.977 186.809 382.824 187.195 382.517C187.582 382.21 187.868 381.807 188.053 381.307C188.239 380.807 188.332 380.265 188.332 379.682C188.332 379.098 188.239 378.555 188.053 378.051C187.868 377.547 187.582 377.14 187.195 376.83C186.809 376.519 186.317 376.364 185.718 376.364C185.12 376.364 184.627 376.519 184.241 376.83C183.854 377.14 183.568 377.547 183.383 378.051C183.197 378.555 183.104 379.098 183.104 379.682C183.104 380.265 183.197 380.807 183.383 381.307C183.568 381.807 183.854 382.21 184.241 382.517C184.627 382.824 185.12 382.977 185.718 382.977ZM193.06 378.75V384H191.719V375.273H193.015V376.636H193.129C193.333 376.193 193.644 375.837 194.06 375.568C194.477 375.295 195.015 375.159 195.674 375.159C196.265 375.159 196.782 375.28 197.225 375.523C197.668 375.761 198.013 376.125 198.259 376.614C198.505 377.098 198.629 377.712 198.629 378.455V384H197.288V378.545C197.288 377.86 197.11 377.326 196.754 376.943C196.397 376.557 195.909 376.364 195.288 376.364C194.86 376.364 194.477 376.456 194.14 376.642C193.807 376.828 193.543 377.098 193.35 377.455C193.157 377.811 193.06 378.242 193.06 378.75ZM202.056 384.091C201.776 384.091 201.535 383.991 201.335 383.79C201.134 383.589 201.033 383.348 201.033 383.068C201.033 382.788 201.134 382.547 201.335 382.347C201.535 382.146 201.776 382.045 202.056 382.045C202.336 382.045 202.577 382.146 202.778 382.347C202.978 382.547 203.079 382.788 203.079 383.068C203.079 383.254 203.031 383.424 202.937 383.58C202.846 383.735 202.723 383.86 202.567 383.955C202.416 384.045 202.246 384.091 202.056 384.091Z" fill="black"/>
</svg>
