<svg width="531" height="122" viewBox="0 0 531 122" fill="none" xmlns="http://www.w3.org/2000/svg">
<path d="M2.02273 8.05735H8.09091L14.5 23.6937H14.7727L21.1818 8.05735H27.25V31.3301H22.4773V16.1824H22.2841L16.2614 31.2164H13.0114L6.98864 16.1255H6.79545V31.3301H2.02273V8.05735ZM36.1903 31.6596C35.0767 31.6596 34.0843 31.4664 33.2131 31.0801C32.3419 30.6861 31.6525 30.1066 31.1449 29.3414C30.6449 28.5687 30.3949 27.6066 30.3949 26.4551C30.3949 25.4854 30.5729 24.671 30.929 24.0119C31.285 23.3528 31.7699 22.8225 32.3835 22.421C32.9972 22.0195 33.6941 21.7164 34.4744 21.5119C35.2623 21.3074 36.0881 21.1634 36.9517 21.0801C37.9669 20.974 38.785 20.8755 39.4062 20.7846C40.0275 20.6861 40.4782 20.5422 40.7585 20.3528C41.0388 20.1634 41.179 19.8831 41.179 19.5119V19.4437C41.179 18.724 40.9517 18.1672 40.4972 17.7733C40.0502 17.3793 39.4138 17.1824 38.5881 17.1824C37.7169 17.1824 37.0237 17.3755 36.5085 17.7619C35.9934 18.1407 35.6525 18.618 35.4858 19.1937L31.0085 18.8301C31.2358 17.7695 31.6828 16.8528 32.3494 16.0801C33.0161 15.2998 33.8759 14.7013 34.929 14.2846C35.9896 13.8604 37.2169 13.6483 38.6108 13.6483C39.5805 13.6483 40.5085 13.7619 41.3949 13.9892C42.2888 14.2164 43.0805 14.5687 43.7699 15.046C44.4669 15.5233 45.0161 16.1369 45.4176 16.8869C45.8191 17.6293 46.0199 18.5195 46.0199 19.5574V31.3301H41.429V28.9096H41.2926C41.0123 29.4551 40.6373 29.9361 40.1676 30.3528C39.6979 30.7619 39.1335 31.0839 38.4744 31.3187C37.8153 31.546 37.054 31.6596 36.1903 31.6596ZM37.5767 28.3187C38.2888 28.3187 38.9176 28.1786 39.4631 27.8983C40.0085 27.6104 40.4366 27.224 40.7472 26.7392C41.0578 26.2543 41.2131 25.7051 41.2131 25.0914V23.2392C41.0616 23.3377 40.8532 23.4286 40.5881 23.5119C40.3305 23.5877 40.0388 23.6596 39.7131 23.7278C39.3873 23.7884 39.0616 23.8452 38.7358 23.8983C38.41 23.9437 38.1146 23.9854 37.8494 24.0233C37.2813 24.1066 36.785 24.2392 36.3608 24.421C35.9366 24.6028 35.607 24.849 35.3722 25.1596C35.1373 25.4627 35.0199 25.8414 35.0199 26.296C35.0199 26.9551 35.2585 27.4589 35.7358 27.8074C36.2206 28.1483 36.8343 28.3187 37.5767 28.3187ZM54.1619 26.3074L54.1733 20.5005H54.8778L60.4688 13.8755H66.0256L58.5142 22.6483H57.3665L54.1619 26.3074ZM49.7756 31.3301V8.05735H54.6165V31.3301H49.7756ZM60.6847 31.3301L55.5483 23.7278L58.7756 20.3074L66.3551 31.3301H60.6847ZM75.6364 31.671C73.8409 31.671 72.2955 31.3074 71 30.5801C69.7121 29.8452 68.7197 28.8074 68.0227 27.4664C67.3258 26.118 66.9773 24.5233 66.9773 22.6824C66.9773 20.8869 67.3258 19.3111 68.0227 17.9551C68.7197 16.599 69.7008 15.5422 70.9659 14.7846C72.2386 14.027 73.7311 13.6483 75.4432 13.6483C76.5947 13.6483 77.6667 13.8339 78.6591 14.2051C79.6591 14.5687 80.5303 15.118 81.2727 15.8528C82.0227 16.5877 82.6061 17.5119 83.0227 18.6255C83.4394 19.7316 83.6477 21.027 83.6477 22.5119V23.8414H68.9091V20.8414H79.0909C79.0909 20.1445 78.9394 19.527 78.6364 18.9892C78.3333 18.4513 77.9129 18.0308 77.375 17.7278C76.8447 17.4172 76.2273 17.2619 75.5227 17.2619C74.7879 17.2619 74.1364 17.4324 73.5682 17.7733C73.0076 18.1066 72.5682 18.5574 72.25 19.1255C71.9318 19.6861 71.7689 20.3111 71.7614 21.0005V23.8528C71.7614 24.7164 71.9205 25.4627 72.2386 26.0914C72.5644 26.7202 73.0227 27.2051 73.6136 27.546C74.2045 27.8869 74.9053 28.0574 75.7159 28.0574C76.2538 28.0574 76.7462 27.9816 77.1932 27.8301C77.6402 27.6786 78.0227 27.4513 78.3409 27.1483C78.6591 26.8452 78.9015 26.474 79.0682 26.0346L83.5455 26.3301C83.3182 27.4058 82.8523 28.3452 82.1477 29.1483C81.4508 29.9437 80.5492 30.5649 79.4432 31.0119C78.3447 31.4513 77.0758 31.671 75.6364 31.671ZM101.71 31.3301V8.05735H110.892C112.657 8.05735 114.161 8.39447 115.403 9.06871C116.646 9.73538 117.593 10.6634 118.244 11.8528C118.903 13.0346 119.233 14.3983 119.233 15.9437C119.233 17.4892 118.9 18.8528 118.233 20.0346C117.566 21.2164 116.6 22.1369 115.335 22.796C114.078 23.4551 112.555 23.7846 110.767 23.7846H104.915V19.8414H109.972C110.919 19.8414 111.699 19.6786 112.312 19.3528C112.934 19.0195 113.396 18.5611 113.699 17.9778C114.009 17.3869 114.165 16.7089 114.165 15.9437C114.165 15.171 114.009 14.4967 113.699 13.921C113.396 13.3377 112.934 12.8869 112.312 12.5687C111.691 12.243 110.903 12.0801 109.949 12.0801H106.631V31.3301H101.71ZM126.847 31.6596C125.733 31.6596 124.741 31.4664 123.869 31.0801C122.998 30.6861 122.309 30.1066 121.801 29.3414C121.301 28.5687 121.051 27.6066 121.051 26.4551C121.051 25.4854 121.229 24.671 121.585 24.0119C121.941 23.3528 122.426 22.8225 123.04 22.421C123.653 22.0195 124.35 21.7164 125.131 21.5119C125.919 21.3074 126.744 21.1634 127.608 21.0801C128.623 20.974 129.441 20.8755 130.062 20.7846C130.684 20.6861 131.134 20.5422 131.415 20.3528C131.695 20.1634 131.835 19.8831 131.835 19.5119V19.4437C131.835 18.724 131.608 18.1672 131.153 17.7733C130.706 17.3793 130.07 17.1824 129.244 17.1824C128.373 17.1824 127.68 17.3755 127.165 17.7619C126.65 18.1407 126.309 18.618 126.142 19.1937L121.665 18.8301C121.892 17.7695 122.339 16.8528 123.006 16.0801C123.672 15.2998 124.532 14.7013 125.585 14.2846C126.646 13.8604 127.873 13.6483 129.267 13.6483C130.237 13.6483 131.165 13.7619 132.051 13.9892C132.945 14.2164 133.737 14.5687 134.426 15.046C135.123 15.5233 135.672 16.1369 136.074 16.8869C136.475 17.6293 136.676 18.5195 136.676 19.5574V31.3301H132.085V28.9096H131.949C131.669 29.4551 131.294 29.9361 130.824 30.3528C130.354 30.7619 129.79 31.0839 129.131 31.3187C128.472 31.546 127.71 31.6596 126.847 31.6596ZM128.233 28.3187C128.945 28.3187 129.574 28.1786 130.119 27.8983C130.665 27.6104 131.093 27.224 131.403 26.7392C131.714 26.2543 131.869 25.7051 131.869 25.0914V23.2392C131.718 23.3377 131.509 23.4286 131.244 23.5119C130.987 23.5877 130.695 23.6596 130.369 23.7278C130.044 23.7884 129.718 23.8452 129.392 23.8983C129.066 23.9437 128.771 23.9854 128.506 24.0233C127.938 24.1066 127.441 24.2392 127.017 24.421C126.593 24.6028 126.263 24.849 126.028 25.1596C125.794 25.4627 125.676 25.8414 125.676 26.296C125.676 26.9551 125.915 27.4589 126.392 27.8074C126.877 28.1483 127.491 28.3187 128.233 28.3187ZM142.795 37.8755C142.182 37.8755 141.606 37.8263 141.068 37.7278C140.538 37.6369 140.098 37.5195 139.75 37.3755L140.841 33.7619C141.409 33.9361 141.92 34.0308 142.375 34.046C142.837 34.0611 143.235 33.9551 143.568 33.7278C143.909 33.5005 144.186 33.1142 144.398 32.5687L144.682 31.8301L138.42 13.8755H143.511L147.125 26.6937H147.307L150.955 13.8755H156.08L149.295 33.2164C148.97 34.1558 148.527 34.974 147.966 35.671C147.413 36.3755 146.712 36.9172 145.864 37.296C145.015 37.6824 143.992 37.8755 142.795 37.8755ZM158.557 31.3301V13.8755H163.17V16.9551H163.375C163.739 15.9324 164.345 15.1255 165.193 14.5346C166.042 13.9437 167.057 13.6483 168.239 13.6483C169.436 13.6483 170.455 13.9475 171.295 14.546C172.136 15.1369 172.697 15.9399 172.977 16.9551H173.159C173.515 15.9551 174.159 15.1558 175.091 14.5574C176.03 13.9513 177.14 13.6483 178.42 13.6483C180.049 13.6483 181.371 14.1672 182.386 15.2051C183.409 16.2354 183.92 17.6975 183.92 19.5914V31.3301H179.091V20.546C179.091 19.5763 178.833 18.849 178.318 18.3642C177.803 17.8793 177.159 17.6369 176.386 17.6369C175.508 17.6369 174.822 17.9172 174.33 18.4778C173.837 19.0308 173.591 19.7619 173.591 20.671V31.3301H168.898V20.4437C168.898 19.5877 168.652 18.9058 168.159 18.3983C167.674 17.8907 167.034 17.6369 166.239 17.6369C165.701 17.6369 165.216 17.7733 164.784 18.046C164.36 18.3111 164.023 18.6861 163.773 19.171C163.523 19.6483 163.398 20.2089 163.398 20.8528V31.3301H158.557ZM195.699 31.671C193.903 31.671 192.358 31.3074 191.062 30.5801C189.775 29.8452 188.782 28.8074 188.085 27.4664C187.388 26.118 187.04 24.5233 187.04 22.6824C187.04 20.8869 187.388 19.3111 188.085 17.9551C188.782 16.599 189.763 15.5422 191.028 14.7846C192.301 14.027 193.794 13.6483 195.506 13.6483C196.657 13.6483 197.729 13.8339 198.722 14.2051C199.722 14.5687 200.593 15.118 201.335 15.8528C202.085 16.5877 202.669 17.5119 203.085 18.6255C203.502 19.7316 203.71 21.027 203.71 22.5119V23.8414H188.972V20.8414H199.153C199.153 20.1445 199.002 19.527 198.699 18.9892C198.396 18.4513 197.975 18.0308 197.438 17.7278C196.907 17.4172 196.29 17.2619 195.585 17.2619C194.85 17.2619 194.199 17.4324 193.631 17.7733C193.07 18.1066 192.631 18.5574 192.312 19.1255C191.994 19.6861 191.831 20.3111 191.824 21.0005V23.8528C191.824 24.7164 191.983 25.4627 192.301 26.0914C192.627 26.7202 193.085 27.2051 193.676 27.546C194.267 27.8869 194.968 28.0574 195.778 28.0574C196.316 28.0574 196.809 27.9816 197.256 27.8301C197.703 27.6786 198.085 27.4513 198.403 27.1483C198.722 26.8452 198.964 26.474 199.131 26.0346L203.608 26.3301C203.381 27.4058 202.915 28.3452 202.21 29.1483C201.513 29.9437 200.612 30.5649 199.506 31.0119C198.407 31.4513 197.138 31.671 195.699 31.671ZM211.71 21.2392V31.3301H206.869V13.8755H211.483V16.9551H211.688C212.074 15.9399 212.722 15.1369 213.631 14.546C214.54 13.9475 215.642 13.6483 216.938 13.6483C218.15 13.6483 219.206 13.9134 220.108 14.4437C221.009 14.974 221.71 15.7316 222.21 16.7164C222.71 17.6937 222.96 18.8604 222.96 20.2164V31.3301H218.119V21.0801C218.127 20.0119 217.854 19.1786 217.301 18.5801C216.748 17.974 215.987 17.671 215.017 17.671C214.366 17.671 213.79 17.8111 213.29 18.0914C212.797 18.3717 212.411 18.7808 212.131 19.3187C211.858 19.849 211.718 20.4892 211.71 21.2392ZM236.06 13.8755V17.5119H225.548V13.8755H236.06ZM227.935 9.69371H232.776V25.9664C232.776 26.4134 232.844 26.7619 232.98 27.0119C233.116 27.2543 233.306 27.4248 233.548 27.5233C233.798 27.6217 234.086 27.671 234.412 27.671C234.639 27.671 234.866 27.652 235.094 27.6142C235.321 27.5687 235.495 27.5346 235.616 27.5119L236.378 31.1142C236.135 31.1899 235.795 31.277 235.355 31.3755C234.916 31.4816 234.382 31.546 233.753 31.5687C232.586 31.6142 231.563 31.4589 230.685 31.1028C229.813 30.7467 229.135 30.1937 228.651 29.4437C228.166 28.6937 227.927 27.7467 227.935 26.6028V9.69371ZM259.003 31.6596C257.889 31.6596 256.897 31.4664 256.026 31.0801C255.154 30.6861 254.465 30.1066 253.957 29.3414C253.457 28.5687 253.207 27.6066 253.207 26.4551C253.207 25.4854 253.385 24.671 253.741 24.0119C254.098 23.3528 254.582 22.8225 255.196 22.421C255.81 22.0195 256.507 21.7164 257.287 21.5119C258.075 21.3074 258.901 21.1634 259.764 21.0801C260.779 20.974 261.598 20.8755 262.219 20.7846C262.84 20.6861 263.291 20.5422 263.571 20.3528C263.851 20.1634 263.991 19.8831 263.991 19.5119V19.4437C263.991 18.724 263.764 18.1672 263.31 17.7733C262.863 17.3793 262.226 17.1824 261.401 17.1824C260.529 17.1824 259.836 17.3755 259.321 17.7619C258.806 18.1407 258.465 18.618 258.298 19.1937L253.821 18.8301C254.048 17.7695 254.495 16.8528 255.162 16.0801C255.829 15.2998 256.688 14.7013 257.741 14.2846C258.802 13.8604 260.029 13.6483 261.423 13.6483C262.393 13.6483 263.321 13.7619 264.207 13.9892C265.101 14.2164 265.893 14.5687 266.582 15.046C267.279 15.5233 267.829 16.1369 268.23 16.8869C268.632 17.6293 268.832 18.5195 268.832 19.5574V31.3301H264.241V28.9096H264.105C263.825 29.4551 263.45 29.9361 262.98 30.3528C262.51 30.7619 261.946 31.0839 261.287 31.3187C260.628 31.546 259.866 31.6596 259.003 31.6596ZM260.389 28.3187C261.101 28.3187 261.73 28.1786 262.276 27.8983C262.821 27.6104 263.249 27.224 263.56 26.7392C263.87 26.2543 264.026 25.7051 264.026 25.0914V23.2392C263.874 23.3377 263.666 23.4286 263.401 23.5119C263.143 23.5877 262.851 23.6596 262.526 23.7278C262.2 23.7884 261.874 23.8452 261.548 23.8983C261.223 23.9437 260.927 23.9854 260.662 24.0233C260.094 24.1066 259.598 24.2392 259.173 24.421C258.749 24.6028 258.42 24.849 258.185 25.1596C257.95 25.4627 257.832 25.8414 257.832 26.296C257.832 26.9551 258.071 27.4589 258.548 27.8074C259.033 28.1483 259.647 28.3187 260.389 28.3187ZM277.429 21.2392V31.3301H272.588V13.8755H277.202V16.9551H277.406C277.793 15.9399 278.44 15.1369 279.349 14.546C280.259 13.9475 281.361 13.6483 282.656 13.6483C283.868 13.6483 284.925 13.9134 285.827 14.4437C286.728 14.974 287.429 15.7316 287.929 16.7164C288.429 17.6937 288.679 18.8604 288.679 20.2164V31.3301H283.838V21.0801C283.846 20.0119 283.573 19.1786 283.02 18.5801C282.467 17.974 281.705 17.671 280.736 17.671C280.084 17.671 279.509 17.8111 279.009 18.0914C278.516 18.3717 278.13 18.7808 277.849 19.3187C277.577 19.849 277.437 20.4892 277.429 21.2392ZM298.926 31.6142C297.6 31.6142 296.4 31.2733 295.324 30.5914C294.256 29.902 293.407 28.8907 292.778 27.5574C292.157 26.2164 291.847 24.5725 291.847 22.6255C291.847 20.6255 292.169 18.9627 292.812 17.6369C293.456 16.3036 294.313 15.3074 295.381 14.6483C296.456 13.9816 297.634 13.6483 298.915 13.6483C299.892 13.6483 300.706 13.8149 301.358 14.1483C302.017 14.474 302.547 14.8831 302.949 15.3755C303.358 15.8604 303.669 16.3377 303.881 16.8074H304.028V8.05735H308.858V31.3301H304.085V28.5346H303.881C303.653 29.0195 303.331 29.5005 302.915 29.9778C302.506 30.4475 301.972 30.8377 301.312 31.1483C300.661 31.4589 299.866 31.6142 298.926 31.6142ZM300.46 27.7619C301.241 27.7619 301.9 27.5498 302.438 27.1255C302.983 26.6937 303.4 26.0914 303.688 25.3187C303.983 24.546 304.131 23.6407 304.131 22.6028C304.131 21.5649 303.987 20.6634 303.699 19.8983C303.411 19.1331 302.994 18.5422 302.449 18.1255C301.903 17.7089 301.241 17.5005 300.46 17.5005C299.665 17.5005 298.994 17.7164 298.449 18.1483C297.903 18.5801 297.491 19.1786 297.21 19.9437C296.93 20.7089 296.79 21.5952 296.79 22.6028C296.79 23.618 296.93 24.5157 297.21 25.296C297.498 26.0687 297.911 26.6748 298.449 27.1142C298.994 27.546 299.665 27.7619 300.46 27.7619ZM340.869 16.2051H335.892C335.801 15.5611 335.616 14.9892 335.335 14.4892C335.055 13.9816 334.695 13.5498 334.256 13.1937C333.816 12.8377 333.309 12.5649 332.733 12.3755C332.165 12.1861 331.547 12.0914 330.881 12.0914C329.676 12.0914 328.627 12.3907 327.733 12.9892C326.839 13.5801 326.146 14.4437 325.653 15.5801C325.161 16.7089 324.915 18.0801 324.915 19.6937C324.915 21.3528 325.161 22.7467 325.653 23.8755C326.153 25.0043 326.85 25.8566 327.744 26.4324C328.638 27.0081 329.672 27.296 330.847 27.296C331.506 27.296 332.116 27.2089 332.676 27.0346C333.244 26.8604 333.748 26.6066 334.188 26.2733C334.627 25.9324 334.991 25.5195 335.278 25.0346C335.574 24.5498 335.778 23.9967 335.892 23.3755L340.869 23.3983C340.741 24.4664 340.419 25.4967 339.903 26.4892C339.396 27.474 338.71 28.3566 337.847 29.1369C336.991 29.9096 335.968 30.5233 334.778 30.9778C333.597 31.4248 332.259 31.6483 330.767 31.6483C328.691 31.6483 326.835 31.1786 325.199 30.2392C323.57 29.2998 322.282 27.9399 321.335 26.1596C320.396 24.3793 319.926 22.224 319.926 19.6937C319.926 17.1558 320.403 14.9967 321.358 13.2164C322.313 11.4361 323.608 10.0801 325.244 9.14826C326.881 8.20887 328.722 7.73917 330.767 7.73917C332.116 7.73917 333.366 7.92856 334.517 8.30735C335.676 8.68614 336.703 9.23917 337.597 9.96644C338.491 10.6861 339.218 11.5687 339.778 12.6142C340.347 13.6596 340.71 14.8566 340.869 16.2051ZM349.148 21.2392V31.3301H344.307V8.05735H349.011V16.9551H349.216C349.61 15.9248 350.246 15.118 351.125 14.5346C352.004 13.9437 353.106 13.6483 354.432 13.6483C355.644 13.6483 356.701 13.9134 357.602 14.4437C358.511 14.9664 359.216 15.7202 359.716 16.7051C360.223 17.6824 360.473 18.8528 360.466 20.2164V31.3301H355.625V21.0801C355.633 20.0043 355.36 19.1672 354.807 18.5687C354.261 17.9702 353.496 17.671 352.511 17.671C351.852 17.671 351.269 17.8111 350.761 18.0914C350.261 18.3717 349.867 18.7808 349.58 19.3187C349.299 19.849 349.155 20.4892 349.148 21.2392ZM369.253 31.6596C368.139 31.6596 367.147 31.4664 366.276 31.0801C365.404 30.6861 364.715 30.1066 364.207 29.3414C363.707 28.5687 363.457 27.6066 363.457 26.4551C363.457 25.4854 363.635 24.671 363.991 24.0119C364.348 23.3528 364.832 22.8225 365.446 22.421C366.06 22.0195 366.757 21.7164 367.537 21.5119C368.325 21.3074 369.151 21.1634 370.014 21.0801C371.029 20.974 371.848 20.8755 372.469 20.7846C373.09 20.6861 373.541 20.5422 373.821 20.3528C374.101 20.1634 374.241 19.8831 374.241 19.5119V19.4437C374.241 18.724 374.014 18.1672 373.56 17.7733C373.113 17.3793 372.476 17.1824 371.651 17.1824C370.779 17.1824 370.086 17.3755 369.571 17.7619C369.056 18.1407 368.715 18.618 368.548 19.1937L364.071 18.8301C364.298 17.7695 364.745 16.8528 365.412 16.0801C366.079 15.2998 366.938 14.7013 367.991 14.2846C369.052 13.8604 370.279 13.6483 371.673 13.6483C372.643 13.6483 373.571 13.7619 374.457 13.9892C375.351 14.2164 376.143 14.5687 376.832 15.046C377.529 15.5233 378.079 16.1369 378.48 16.8869C378.882 17.6293 379.082 18.5195 379.082 19.5574V31.3301H374.491V28.9096H374.355C374.075 29.4551 373.7 29.9361 373.23 30.3528C372.76 30.7619 372.196 31.0839 371.537 31.3187C370.878 31.546 370.116 31.6596 369.253 31.6596ZM370.639 28.3187C371.351 28.3187 371.98 28.1786 372.526 27.8983C373.071 27.6104 373.499 27.224 373.81 26.7392C374.12 26.2543 374.276 25.7051 374.276 25.0914V23.2392C374.124 23.3377 373.916 23.4286 373.651 23.5119C373.393 23.5877 373.101 23.6596 372.776 23.7278C372.45 23.7884 372.124 23.8452 371.798 23.8983C371.473 23.9437 371.177 23.9854 370.912 24.0233C370.344 24.1066 369.848 24.2392 369.423 24.421C368.999 24.6028 368.67 24.849 368.435 25.1596C368.2 25.4627 368.082 25.8414 368.082 26.296C368.082 26.9551 368.321 27.4589 368.798 27.8074C369.283 28.1483 369.897 28.3187 370.639 28.3187ZM392.122 13.8755V17.5119H381.611V13.8755H392.122ZM383.997 9.69371H388.838V25.9664C388.838 26.4134 388.906 26.7619 389.043 27.0119C389.179 27.2543 389.368 27.4248 389.611 27.5233C389.861 27.6217 390.149 27.671 390.474 27.671C390.702 27.671 390.929 27.652 391.156 27.6142C391.384 27.5687 391.558 27.5346 391.679 27.5119L392.44 31.1142C392.198 31.1899 391.857 31.277 391.418 31.3755C390.978 31.4816 390.444 31.546 389.815 31.5687C388.649 31.6142 387.626 31.4589 386.747 31.1028C385.876 30.7467 385.198 30.1937 384.713 29.4437C384.228 28.6937 383.99 27.7467 383.997 26.6028V9.69371ZM408.011 31.3301L401.352 8.05735H406.727L410.58 24.2278H410.773L415.023 8.05735H419.625L423.864 24.2619H424.068L427.92 8.05735H433.295L426.636 31.3301H421.841L417.409 16.1142H417.227L412.807 31.3301H408.011ZM435.838 31.3301V13.8755H440.679V31.3301H435.838ZM438.27 11.6255C437.55 11.6255 436.933 11.3869 436.418 10.9096C435.91 10.4248 435.656 9.84523 435.656 9.17099C435.656 8.50432 435.91 7.93235 436.418 7.45508C436.933 6.97023 437.55 6.7278 438.27 6.7278C438.99 6.7278 439.603 6.97023 440.111 7.45508C440.626 7.93235 440.884 8.50432 440.884 9.17099C440.884 9.84523 440.626 10.4248 440.111 10.9096C439.603 11.3869 438.99 11.6255 438.27 11.6255ZM453.841 13.8755V17.5119H443.33V13.8755H453.841ZM445.716 9.69371H450.557V25.9664C450.557 26.4134 450.625 26.7619 450.761 27.0119C450.898 27.2543 451.087 27.4248 451.33 27.5233C451.58 27.6217 451.867 27.671 452.193 27.671C452.42 27.671 452.648 27.652 452.875 27.6142C453.102 27.5687 453.277 27.5346 453.398 27.5119L454.159 31.1142C453.917 31.1899 453.576 31.277 453.136 31.3755C452.697 31.4816 452.163 31.546 451.534 31.5687C450.367 31.6142 449.345 31.4589 448.466 31.1028C447.595 30.7467 446.917 30.1937 446.432 29.4437C445.947 28.6937 445.708 27.7467 445.716 26.6028V9.69371ZM462.21 21.2392V31.3301H457.369V8.05735H462.074V16.9551H462.278C462.672 15.9248 463.309 15.118 464.188 14.5346C465.066 13.9437 466.169 13.6483 467.494 13.6483C468.706 13.6483 469.763 13.9134 470.665 14.4437C471.574 14.9664 472.278 15.7202 472.778 16.7051C473.286 17.6824 473.536 18.8528 473.528 20.2164V31.3301H468.688V21.0801C468.695 20.0043 468.422 19.1672 467.869 18.5687C467.324 17.9702 466.559 17.671 465.574 17.671C464.915 17.671 464.331 17.8111 463.824 18.0914C463.324 18.3717 462.93 18.7808 462.642 19.3187C462.362 19.849 462.218 20.4892 462.21 21.2392ZM499.21 8.05735H504.131V23.171C504.131 24.868 503.725 26.3528 502.915 27.6255C502.112 28.8983 500.987 29.8907 499.54 30.6028C498.093 31.3074 496.407 31.6596 494.483 31.6596C492.551 31.6596 490.862 31.3074 489.415 30.6028C487.968 29.8907 486.843 28.8983 486.04 27.6255C485.237 26.3528 484.835 24.868 484.835 23.171V8.05735H489.756V22.7505C489.756 23.6369 489.949 24.4248 490.335 25.1142C490.729 25.8036 491.282 26.3452 491.994 26.7392C492.706 27.1331 493.536 27.3301 494.483 27.3301C495.438 27.3301 496.267 27.1331 496.972 26.7392C497.684 26.3452 498.233 25.8036 498.619 25.1142C499.013 24.4248 499.21 23.6369 499.21 22.7505V8.05735ZM522.611 18.8528L518.179 19.1255C518.103 18.7467 517.94 18.4058 517.69 18.1028C517.44 17.7922 517.111 17.546 516.702 17.3642C516.3 17.1748 515.819 17.0801 515.259 17.0801C514.509 17.0801 513.876 17.2392 513.361 17.5574C512.846 17.868 512.588 18.2846 512.588 18.8074C512.588 19.224 512.755 19.5763 513.088 19.8642C513.421 20.152 513.993 20.3831 514.804 20.5574L517.963 21.1937C519.66 21.5422 520.925 22.1028 521.759 22.8755C522.592 23.6483 523.009 24.6634 523.009 25.921C523.009 27.0649 522.671 28.0687 521.997 28.9324C521.33 29.796 520.414 30.4702 519.247 30.9551C518.088 31.4324 516.751 31.671 515.236 31.671C512.925 31.671 511.084 31.1899 509.713 30.2278C508.349 29.2581 507.55 27.9399 507.315 26.2733L512.077 26.0233C512.221 26.7278 512.569 27.2657 513.122 27.6369C513.675 28.0005 514.384 28.1824 515.247 28.1824C516.096 28.1824 516.777 28.0195 517.293 27.6937C517.815 27.3604 518.08 26.9324 518.088 26.4096C518.08 25.9702 517.895 25.6104 517.531 25.3301C517.168 25.0422 516.607 24.8225 515.849 24.671L512.827 24.0687C511.122 23.7278 509.853 23.1369 509.02 22.296C508.194 21.4551 507.781 20.3831 507.781 19.0801C507.781 17.9589 508.084 16.993 508.69 16.1824C509.304 15.3717 510.164 14.7467 511.27 14.3074C512.384 13.868 513.687 13.6483 515.179 13.6483C517.384 13.6483 519.118 14.1142 520.384 15.046C521.656 15.9778 522.399 17.2467 522.611 18.8528Z" fill="black"/>
<path d="M0.511364 70.7846H2.52841L6.5625 77.5744H6.73295L10.767 70.7846H12.7841L7.52841 79.3358V85.3301H5.76705V79.3358L0.511364 70.7846ZM17.7237 85.5574C16.7389 85.5574 15.8748 85.323 15.1314 84.8542C14.3928 84.3855 13.8151 83.7297 13.3984 82.8869C12.9865 82.0441 12.7805 81.0592 12.7805 79.9324C12.7805 78.796 12.9865 77.804 13.3984 76.9565C13.8151 76.109 14.3928 75.4508 15.1314 74.9821C15.8748 74.5133 16.7389 74.2789 17.7237 74.2789C18.7086 74.2789 19.5703 74.5133 20.3089 74.9821C21.0523 75.4508 21.63 76.109 22.0419 76.9565C22.4586 77.804 22.6669 78.796 22.6669 79.9324C22.6669 81.0592 22.4586 82.0441 22.0419 82.8869C21.63 83.7297 21.0523 84.3855 20.3089 84.8542C19.5703 85.323 18.7086 85.5574 17.7237 85.5574ZM17.7237 84.0517C18.4718 84.0517 19.0874 83.8599 19.5703 83.4764C20.0533 83.0929 20.4107 82.5886 20.6428 81.9636C20.8748 81.3386 20.9908 80.6615 20.9908 79.9324C20.9908 79.2032 20.8748 78.5237 20.6428 77.894C20.4107 77.2643 20.0533 76.7553 19.5703 76.367C19.0874 75.9788 18.4718 75.7846 17.7237 75.7846C16.9756 75.7846 16.3601 75.9788 15.8771 76.367C15.3942 76.7553 15.0367 77.2643 14.8047 77.894C14.5727 78.5237 14.4567 79.2032 14.4567 79.9324C14.4567 80.6615 14.5727 81.3386 14.8047 81.9636C15.0367 82.5886 15.3942 83.0929 15.8771 83.4764C16.3601 83.8599 16.9756 84.0517 17.7237 84.0517ZM32.1005 80.8699V74.421H33.7766V85.3301H32.1005V83.4835H31.9869C31.7312 84.0375 31.3335 84.5086 30.7937 84.8968C30.2539 85.2804 29.5721 85.4721 28.7482 85.4721C28.0664 85.4721 27.4603 85.323 26.93 85.0247C26.3997 84.7217 25.9831 84.2671 25.68 83.661C25.377 83.0502 25.2255 82.2808 25.2255 81.3528V74.421H26.9016V81.2392C26.9016 82.0346 27.1242 82.6691 27.5692 83.1426C28.0191 83.6161 28.592 83.8528 29.288 83.8528C29.7047 83.8528 30.1284 83.7463 30.5593 83.5332C30.9949 83.3201 31.3595 82.9934 31.6531 82.5531C31.9513 82.1127 32.1005 81.5517 32.1005 80.8699ZM46.9034 85.5574C45.8807 85.5574 45 85.3159 44.2614 84.8329C43.5227 84.35 42.9545 83.6847 42.5568 82.8372C42.1591 81.9896 41.9602 81.0214 41.9602 79.9324C41.9602 78.8244 42.1638 77.8466 42.571 76.9991C42.983 76.1468 43.5559 75.4816 44.2898 75.0034C45.0284 74.5204 45.8902 74.2789 46.875 74.2789C47.642 74.2789 48.3333 74.421 48.9489 74.7051C49.5644 74.9892 50.0687 75.3869 50.4616 75.8983C50.8546 76.4096 51.0985 77.0062 51.1932 77.688H49.517C49.3892 77.1909 49.1051 76.7505 48.6648 76.367C48.2292 75.9788 47.642 75.7846 46.9034 75.7846C46.25 75.7846 45.6771 75.9551 45.1847 76.296C44.697 76.6322 44.3158 77.108 44.0412 77.7235C43.7713 78.3343 43.6364 79.0517 43.6364 79.8755C43.6364 80.7183 43.7689 81.4522 44.0341 82.0772C44.304 82.7022 44.6828 83.1876 45.1705 83.5332C45.6629 83.8788 46.2405 84.0517 46.9034 84.0517C47.339 84.0517 47.7344 83.9759 48.0895 83.8244C48.4446 83.6729 48.7453 83.4551 48.9915 83.171C49.2377 82.8869 49.4129 82.546 49.517 82.1483H51.1932C51.0985 82.7922 50.8641 83.3722 50.4901 83.8883C50.1207 84.3997 49.6307 84.8069 49.0199 85.1099C48.4138 85.4082 47.7083 85.5574 46.9034 85.5574ZM56.8537 85.5858C56.1624 85.5858 55.535 85.4556 54.9716 85.1951C54.4081 84.93 53.9607 84.5488 53.6293 84.0517C53.2978 83.5498 53.1321 82.9437 53.1321 82.2335C53.1321 81.6085 53.2552 81.1019 53.5014 80.7136C53.7476 80.3206 54.0767 80.0128 54.4886 79.7903C54.9006 79.5678 55.3551 79.402 55.8523 79.2931C56.3542 79.1795 56.8584 79.0895 57.3651 79.0233C58.0279 78.938 58.5653 78.8741 58.9773 78.8315C59.3939 78.7841 59.697 78.706 59.8864 78.5971C60.0805 78.4882 60.1776 78.2988 60.1776 78.0289V77.9721C60.1776 77.2714 59.9858 76.7269 59.6023 76.3386C59.2235 75.9503 58.6482 75.7562 57.8764 75.7562C57.0762 75.7562 56.4489 75.9314 55.9943 76.2818C55.5398 76.6322 55.2202 77.0062 55.0355 77.4039L53.4446 76.8358C53.7287 76.1729 54.1075 75.6568 54.581 75.2875C55.0592 74.9134 55.58 74.653 56.1435 74.5062C56.7116 74.3547 57.2704 74.2789 57.8196 74.2789C58.17 74.2789 58.5724 74.3216 59.027 74.4068C59.4863 74.4873 59.929 74.6554 60.3551 74.911C60.786 75.1667 61.1435 75.5526 61.4276 76.0687C61.7116 76.5848 61.8537 77.2761 61.8537 78.1426V85.3301H60.1776V83.8528H60.0923C59.9787 84.0895 59.7893 84.3429 59.5241 84.6127C59.259 84.8826 58.9063 85.1123 58.4659 85.3017C58.0256 85.4911 57.4882 85.5858 56.8537 85.5858ZM57.1094 84.0801C57.7723 84.0801 58.331 83.9499 58.7855 83.6895C59.2448 83.429 59.5904 83.0929 59.8224 82.6809C60.0592 82.269 60.1776 81.8358 60.1776 81.3812V79.8471C60.1065 79.9324 59.9503 80.0105 59.7088 80.0815C59.4721 80.1478 59.1974 80.207 58.8849 80.2591C58.5772 80.3064 58.2765 80.349 57.983 80.3869C57.6941 80.42 57.4598 80.4484 57.2798 80.4721C56.8442 80.5289 56.437 80.6213 56.0582 80.7491C55.6842 80.8722 55.3812 81.0592 55.1491 81.3102C54.9219 81.5564 54.8082 81.8926 54.8082 82.3187C54.8082 82.9011 55.0237 83.3414 55.4545 83.6397C55.8902 83.9333 56.4418 84.0801 57.1094 84.0801ZM66.5891 78.7676V85.3301H64.913V74.421H66.5323V76.1255H66.6744C66.93 75.5716 67.3183 75.1265 67.8391 74.7903C68.36 74.4494 69.0323 74.2789 69.8562 74.2789C70.5948 74.2789 71.2411 74.4305 71.7951 74.7335C72.3491 75.0318 72.7799 75.4863 73.0877 76.0971C73.3955 76.7032 73.5494 77.4702 73.5494 78.3983V85.3301H71.8732V78.5119C71.8732 77.6549 71.6507 76.9873 71.2056 76.5091C70.7605 76.0261 70.1497 75.7846 69.3732 75.7846C68.8382 75.7846 68.36 75.9006 67.9386 76.1326C67.5219 76.3646 67.1928 76.7032 66.9513 77.1483C66.7099 77.5933 66.5891 78.1331 66.5891 78.7676ZM86.669 85.5574C85.6463 85.5574 84.7656 85.3159 84.027 84.8329C83.2884 84.35 82.7202 83.6847 82.3224 82.8372C81.9247 81.9896 81.7259 81.0214 81.7259 79.9324C81.7259 78.8244 81.9295 77.8466 82.3366 76.9991C82.7486 76.1468 83.3215 75.4816 84.0554 75.0034C84.794 74.5204 85.6558 74.2789 86.6406 74.2789C87.4077 74.2789 88.099 74.421 88.7145 74.7051C89.33 74.9892 89.8343 75.3869 90.2273 75.8983C90.6203 76.4096 90.8641 77.0062 90.9588 77.688H89.2827C89.1548 77.1909 88.8707 76.7505 88.4304 76.367C87.9948 75.9788 87.4077 75.7846 86.669 75.7846C86.0156 75.7846 85.4427 75.9551 84.9503 76.296C84.4626 76.6322 84.0814 77.108 83.8068 77.7235C83.5369 78.3343 83.402 79.0517 83.402 79.8755C83.402 80.7183 83.5346 81.4522 83.7997 82.0772C84.0696 82.7022 84.4484 83.1876 84.9361 83.5332C85.4285 83.8788 86.0062 84.0517 86.669 84.0517C87.1046 84.0517 87.5 83.9759 87.8551 83.8244C88.2102 83.6729 88.5109 83.4551 88.7571 83.171C89.0033 82.8869 89.1785 82.546 89.2827 82.1483H90.9588C90.8641 82.7922 90.6297 83.3722 90.2557 83.8883C89.8864 84.3997 89.3963 84.8069 88.7855 85.1099C88.1795 85.4082 87.474 85.5574 86.669 85.5574ZM97.8409 85.5574C96.8561 85.5574 95.992 85.323 95.2486 84.8542C94.5099 84.3855 93.9323 83.7297 93.5156 82.8869C93.1037 82.0441 92.8977 81.0592 92.8977 79.9324C92.8977 78.796 93.1037 77.804 93.5156 76.9565C93.9323 76.109 94.5099 75.4508 95.2486 74.9821C95.992 74.5133 96.8561 74.2789 97.8409 74.2789C98.8258 74.2789 99.6875 74.5133 100.426 74.9821C101.17 75.4508 101.747 76.109 102.159 76.9565C102.576 77.804 102.784 78.796 102.784 79.9324C102.784 81.0592 102.576 82.0441 102.159 82.8869C101.747 83.7297 101.17 84.3855 100.426 84.8542C99.6875 85.323 98.8258 85.5574 97.8409 85.5574ZM97.8409 84.0517C98.589 84.0517 99.2045 83.8599 99.6875 83.4764C100.17 83.0929 100.528 82.5886 100.76 81.9636C100.992 81.3386 101.108 80.6615 101.108 79.9324C101.108 79.2032 100.992 78.5237 100.76 77.894C100.528 77.2643 100.17 76.7553 99.6875 76.367C99.2045 75.9788 98.589 75.7846 97.8409 75.7846C97.0928 75.7846 96.4773 75.9788 95.9943 76.367C95.5114 76.7553 95.1539 77.2643 94.9219 77.894C94.6899 78.5237 94.5739 79.2032 94.5739 79.9324C94.5739 80.6615 94.6899 81.3386 94.9219 81.9636C95.1539 82.5886 95.5114 83.0929 95.9943 83.4764C96.4773 83.8599 97.0928 84.0517 97.8409 84.0517ZM107.019 78.7676V85.3301H105.343V74.421H106.962V76.1255H107.104C107.36 75.5716 107.748 75.1265 108.269 74.7903C108.79 74.4494 109.462 74.2789 110.286 74.2789C111.025 74.2789 111.671 74.4305 112.225 74.7335C112.779 75.0318 113.21 75.4863 113.517 76.0971C113.825 76.7032 113.979 77.4702 113.979 78.3983V85.3301H112.303V78.5119C112.303 77.6549 112.08 76.9873 111.635 76.5091C111.19 76.0261 110.579 75.7846 109.803 75.7846C109.268 75.7846 108.79 75.9006 108.368 76.1326C107.952 76.3646 107.623 76.7032 107.381 77.1483C107.14 77.5933 107.019 78.1331 107.019 78.7676ZM121.786 74.421V75.8414H116.133V74.421H121.786ZM117.781 71.8074H119.457V82.2051C119.457 82.6786 119.525 83.0337 119.663 83.2704C119.805 83.5024 119.985 83.6587 120.202 83.7392C120.425 83.8149 120.659 83.8528 120.906 83.8528C121.09 83.8528 121.242 83.8433 121.36 83.8244C121.478 83.8007 121.573 83.7818 121.644 83.7676L121.985 85.2733C121.871 85.3159 121.713 85.3585 121.509 85.4011C121.306 85.4484 121.048 85.4721 120.735 85.4721C120.262 85.4721 119.798 85.3703 119.343 85.1667C118.893 84.9631 118.519 84.653 118.221 84.2363C117.927 83.8197 117.781 83.2941 117.781 82.6596V71.8074ZM127.518 85.5858C126.826 85.5858 126.199 85.4556 125.636 85.1951C125.072 84.93 124.625 84.5488 124.293 84.0517C123.962 83.5498 123.796 82.9437 123.796 82.2335C123.796 81.6085 123.919 81.1019 124.165 80.7136C124.412 80.3206 124.741 80.0128 125.153 79.7903C125.565 79.5678 126.019 79.402 126.516 79.2931C127.018 79.1795 127.522 79.0895 128.029 79.0233C128.692 78.938 129.229 78.8741 129.641 78.8315C130.058 78.7841 130.361 78.706 130.55 78.5971C130.745 78.4882 130.842 78.2988 130.842 78.0289V77.9721C130.842 77.2714 130.65 76.7269 130.266 76.3386C129.888 75.9503 129.312 75.7562 128.54 75.7562C127.74 75.7562 127.113 75.9314 126.658 76.2818C126.204 76.6322 125.884 77.0062 125.7 77.4039L124.109 76.8358C124.393 76.1729 124.772 75.6568 125.245 75.2875C125.723 74.9134 126.244 74.653 126.808 74.5062C127.376 74.3547 127.934 74.2789 128.484 74.2789C128.834 74.2789 129.237 74.3216 129.691 74.4068C130.15 74.4873 130.593 74.6554 131.019 74.911C131.45 75.1667 131.808 75.5526 132.092 76.0687C132.376 76.5848 132.518 77.2761 132.518 78.1426V85.3301H130.842V83.8528H130.756C130.643 84.0895 130.453 84.3429 130.188 84.6127C129.923 84.8826 129.57 85.1123 129.13 85.3017C128.69 85.4911 128.152 85.5858 127.518 85.5858ZM127.773 84.0801C128.436 84.0801 128.995 83.9499 129.45 83.6895C129.909 83.429 130.254 83.0929 130.487 82.6809C130.723 82.269 130.842 81.8358 130.842 81.3812V79.8471C130.771 79.9324 130.614 80.0105 130.373 80.0815C130.136 80.1478 129.862 80.207 129.549 80.2591C129.241 80.3064 128.941 80.349 128.647 80.3869C128.358 80.42 128.124 80.4484 127.944 80.4721C127.508 80.5289 127.101 80.6213 126.722 80.7491C126.348 80.8722 126.045 81.0592 125.813 81.3102C125.586 81.5564 125.472 81.8926 125.472 82.3187C125.472 82.9011 125.688 83.3414 126.119 83.6397C126.554 83.9333 127.106 84.0801 127.773 84.0801ZM140.009 85.5574C138.986 85.5574 138.105 85.3159 137.367 84.8329C136.628 84.35 136.06 83.6847 135.662 82.8372C135.265 81.9896 135.066 81.0214 135.066 79.9324C135.066 78.8244 135.269 77.8466 135.676 76.9991C136.088 76.1468 136.661 75.4816 137.395 75.0034C138.134 74.5204 138.996 74.2789 139.98 74.2789C140.748 74.2789 141.439 74.421 142.054 74.7051C142.67 74.9892 143.174 75.3869 143.567 75.8983C143.96 76.4096 144.204 77.0062 144.299 77.688H142.623C142.495 77.1909 142.211 76.7505 141.77 76.367C141.335 75.9788 140.748 75.7846 140.009 75.7846C139.355 75.7846 138.783 75.9551 138.29 76.296C137.802 76.6322 137.421 77.108 137.147 77.7235C136.877 78.3343 136.742 79.0517 136.742 79.8755C136.742 80.7183 136.874 81.4522 137.14 82.0772C137.409 82.7022 137.788 83.1876 138.276 83.5332C138.768 83.8788 139.346 84.0517 140.009 84.0517C140.444 84.0517 140.84 83.9759 141.195 83.8244C141.55 83.6729 141.851 83.4551 142.097 83.171C142.343 82.8869 142.518 82.546 142.623 82.1483H144.299C144.204 82.7922 143.97 83.3722 143.596 83.8883C143.226 84.3997 142.736 84.8069 142.125 85.1099C141.519 85.4082 140.814 85.5574 140.009 85.5574ZM151.493 74.421V75.8414H145.84V74.421H151.493ZM147.488 71.8074H149.164V82.2051C149.164 82.6786 149.232 83.0337 149.37 83.2704C149.512 83.5024 149.692 83.6587 149.909 83.7392C150.132 83.8149 150.366 83.8528 150.613 83.8528C150.797 83.8528 150.949 83.8433 151.067 83.8244C151.185 83.8007 151.28 83.7818 151.351 83.7676L151.692 85.2733C151.578 85.3159 151.42 85.3585 151.216 85.4011C151.013 85.4484 150.755 85.4721 150.442 85.4721C149.969 85.4721 149.505 85.3703 149.05 85.1667C148.6 84.9631 148.226 84.653 147.928 84.2363C147.634 83.8197 147.488 83.2941 147.488 82.6596V71.8074ZM164.071 85.5574C163.087 85.5574 162.222 85.323 161.479 84.8542C160.74 84.3855 160.163 83.7297 159.746 82.8869C159.334 82.0441 159.128 81.0592 159.128 79.9324C159.128 78.796 159.334 77.804 159.746 76.9565C160.163 76.109 160.74 75.4508 161.479 74.9821C162.222 74.5133 163.087 74.2789 164.071 74.2789C165.056 74.2789 165.918 74.5133 166.657 74.9821C167.4 75.4508 167.978 76.109 168.39 76.9565C168.806 77.804 169.015 78.796 169.015 79.9324C169.015 81.0592 168.806 82.0441 168.39 82.8869C167.978 83.7297 167.4 84.3855 166.657 84.8542C165.918 85.323 165.056 85.5574 164.071 85.5574ZM164.071 84.0517C164.819 84.0517 165.435 83.8599 165.918 83.4764C166.401 83.0929 166.758 82.5886 166.99 81.9636C167.222 81.3386 167.338 80.6615 167.338 79.9324C167.338 79.2032 167.222 78.5237 166.99 77.894C166.758 77.2643 166.401 76.7553 165.918 76.367C165.435 75.9788 164.819 75.7846 164.071 75.7846C163.323 75.7846 162.708 75.9788 162.225 76.367C161.742 76.7553 161.384 77.2643 161.152 77.894C160.92 78.5237 160.804 79.2032 160.804 79.9324C160.804 80.6615 160.92 81.3386 161.152 81.9636C161.384 82.5886 161.742 83.0929 162.225 83.4764C162.708 83.8599 163.323 84.0517 164.071 84.0517ZM178.448 80.8699V74.421H180.124V85.3301H178.448V83.4835H178.335C178.079 84.0375 177.681 84.5086 177.141 84.8968C176.602 85.2804 175.92 85.4721 175.096 85.4721C174.414 85.4721 173.808 85.323 173.278 85.0247C172.747 84.7217 172.331 84.2671 172.028 83.661C171.725 83.0502 171.573 82.2808 171.573 81.3528V74.421H173.249V81.2392C173.249 82.0346 173.472 82.6691 173.917 83.1426C174.367 83.6161 174.94 83.8528 175.636 83.8528C176.052 83.8528 176.476 83.7463 176.907 83.5332C177.343 83.3201 177.707 82.9934 178.001 82.5531C178.299 82.1127 178.448 81.5517 178.448 80.8699ZM183.194 85.3301V74.421H184.814V76.0687H184.927C185.126 75.5289 185.486 75.091 186.007 74.7548C186.528 74.4186 187.115 74.2505 187.768 74.2505C187.891 74.2505 188.045 74.2529 188.23 74.2576C188.414 74.2624 188.554 74.2695 188.649 74.2789V75.9835C188.592 75.9693 188.462 75.948 188.258 75.9196C188.059 75.8864 187.849 75.8699 187.626 75.8699C187.096 75.8699 186.622 75.9811 186.206 76.2037C185.794 76.4215 185.467 76.7245 185.225 77.1127C184.989 77.4963 184.87 77.9342 184.87 78.4267V85.3301H183.194ZM200.692 85.5574C199.67 85.5574 198.789 85.3159 198.05 84.8329C197.312 84.35 196.744 83.6847 196.346 82.8372C195.948 81.9896 195.749 81.0214 195.749 79.9324C195.749 78.8244 195.953 77.8466 196.36 76.9991C196.772 76.1468 197.345 75.4816 198.079 75.0034C198.817 74.5204 199.679 74.2789 200.664 74.2789C201.431 74.2789 202.122 74.421 202.738 74.7051C203.353 74.9892 203.858 75.3869 204.251 75.8983C204.644 76.4096 204.888 77.0062 204.982 77.688H203.306C203.178 77.1909 202.894 76.7505 202.454 76.367C202.018 75.9788 201.431 75.7846 200.692 75.7846C200.039 75.7846 199.466 75.9551 198.974 76.296C198.486 76.6322 198.105 77.108 197.83 77.7235C197.56 78.3343 197.425 79.0517 197.425 79.8755C197.425 80.7183 197.558 81.4522 197.823 82.0772C198.093 82.7022 198.472 83.1876 198.96 83.5332C199.452 83.8788 200.03 84.0517 200.692 84.0517C201.128 84.0517 201.523 83.9759 201.879 83.8244C202.234 83.6729 202.534 83.4551 202.781 83.171C203.027 82.8869 203.202 82.546 203.306 82.1483H204.982C204.888 82.7922 204.653 83.3722 204.279 83.8883C203.91 84.3997 203.42 84.8069 202.809 85.1099C202.203 85.4082 201.497 85.5574 200.692 85.5574ZM214.308 80.8699V74.421H215.984V85.3301H214.308V83.4835H214.194C213.938 84.0375 213.54 84.5086 213.001 84.8968C212.461 85.2804 211.779 85.4721 210.955 85.4721C210.273 85.4721 209.667 85.323 209.137 85.0247C208.607 84.7217 208.19 84.2671 207.887 83.661C207.584 83.0502 207.433 82.2808 207.433 81.3528V74.421H209.109V81.2392C209.109 82.0346 209.331 82.6691 209.776 83.1426C210.226 83.6161 210.799 83.8528 211.495 83.8528C211.912 83.8528 212.335 83.7463 212.766 83.5332C213.202 83.3201 213.567 82.9934 213.86 82.5531C214.158 82.1127 214.308 81.5517 214.308 80.8699ZM226.781 76.8642L225.275 77.2903C225.181 77.0394 225.041 76.7955 224.856 76.5588C224.676 76.3173 224.43 76.1184 224.118 75.9622C223.805 75.8059 223.405 75.7278 222.917 75.7278C222.25 75.7278 221.693 75.8817 221.248 76.1895C220.808 76.4925 220.588 76.8784 220.588 77.3471C220.588 77.7638 220.739 78.0929 221.042 78.3343C221.345 78.5758 221.819 78.777 222.463 78.938L224.082 79.3358C225.057 79.5725 225.784 79.9347 226.262 80.4224C226.741 80.9054 226.98 81.528 226.98 82.2903C226.98 82.9153 226.8 83.474 226.44 83.9664C226.085 84.4589 225.588 84.8471 224.949 85.1312C224.309 85.4153 223.566 85.5574 222.718 85.5574C221.606 85.5574 220.685 85.3159 219.956 84.8329C219.226 84.35 218.765 83.6445 218.571 82.7164L220.162 82.3187C220.313 82.9058 220.6 83.3462 221.021 83.6397C221.447 83.9333 222.003 84.0801 222.69 84.0801C223.471 84.0801 224.092 83.9144 224.551 83.5829C225.015 83.2467 225.247 82.8443 225.247 82.3755C225.247 81.9967 225.114 81.6795 224.849 81.4238C224.584 81.1634 224.177 80.9693 223.627 80.8414L221.809 80.4153C220.81 80.1786 220.076 79.8116 219.608 79.3145C219.144 78.8126 218.912 78.1852 218.912 77.4324C218.912 76.8168 219.084 76.2723 219.43 75.7988C219.78 75.3253 220.256 74.9537 220.858 74.6838C221.464 74.4139 222.15 74.2789 222.917 74.2789C223.997 74.2789 224.844 74.5157 225.46 74.9892C226.08 75.4627 226.52 76.0877 226.781 76.8642ZM234.247 74.421V75.8414H228.594V74.421H234.247ZM230.241 71.8074H231.918V82.2051C231.918 82.6786 231.986 83.0337 232.124 83.2704C232.266 83.5024 232.446 83.6587 232.663 83.7392C232.886 83.8149 233.12 83.8528 233.366 83.8528C233.551 83.8528 233.703 83.8433 233.821 83.8244C233.939 83.8007 234.034 83.7818 234.105 83.7676L234.446 85.2733C234.332 85.3159 234.174 85.3585 233.97 85.4011C233.767 85.4484 233.509 85.4721 233.196 85.4721C232.723 85.4721 232.259 85.3703 231.804 85.1667C231.354 84.9631 230.98 84.653 230.682 84.2363C230.388 83.8197 230.241 83.2941 230.241 82.6596V71.8074ZM241.083 85.5574C240.098 85.5574 239.234 85.323 238.491 84.8542C237.752 84.3855 237.174 83.7297 236.758 82.8869C236.346 82.0441 236.14 81.0592 236.14 79.9324C236.14 78.796 236.346 77.804 236.758 76.9565C237.174 76.109 237.752 75.4508 238.491 74.9821C239.234 74.5133 240.098 74.2789 241.083 74.2789C242.068 74.2789 242.93 74.5133 243.668 74.9821C244.412 75.4508 244.989 76.109 245.401 76.9565C245.818 77.804 246.026 78.796 246.026 79.9324C246.026 81.0592 245.818 82.0441 245.401 82.8869C244.989 83.7297 244.412 84.3855 243.668 84.8542C242.93 85.323 242.068 85.5574 241.083 85.5574ZM241.083 84.0517C241.831 84.0517 242.447 83.8599 242.93 83.4764C243.413 83.0929 243.77 82.5886 244.002 81.9636C244.234 81.3386 244.35 80.6615 244.35 79.9324C244.35 79.2032 244.234 78.5237 244.002 77.894C243.77 77.2643 243.413 76.7553 242.93 76.367C242.447 75.9788 241.831 75.7846 241.083 75.7846C240.335 75.7846 239.719 75.9788 239.237 76.367C238.754 76.7553 238.396 77.2643 238.164 77.894C237.932 78.5237 237.816 79.2032 237.816 79.9324C237.816 80.6615 237.932 81.3386 238.164 81.9636C238.396 82.5886 238.754 83.0929 239.237 83.4764C239.719 83.8599 240.335 84.0517 241.083 84.0517ZM248.585 85.3301V74.421H250.204V76.1255H250.346C250.574 75.5431 250.94 75.091 251.447 74.769C251.954 74.4423 252.562 74.2789 253.272 74.2789C253.992 74.2789 254.591 74.4423 255.069 74.769C255.552 75.091 255.929 75.5431 256.199 76.1255H256.312C256.592 75.5621 257.011 75.1146 257.569 74.7832C258.128 74.447 258.798 74.2789 259.579 74.2789C260.555 74.2789 261.352 74.5843 261.973 75.1951C262.593 75.8012 262.903 76.7458 262.903 78.0289V85.3301H261.227V78.0289C261.227 77.224 261.007 76.6487 260.566 76.3031C260.126 75.9574 259.608 75.7846 259.011 75.7846C258.244 75.7846 257.65 76.0166 257.228 76.4806C256.807 76.9399 256.596 77.5223 256.596 78.2278V85.3301H254.892V77.8585C254.892 77.2382 254.69 76.7387 254.288 76.3599C253.886 75.9764 253.367 75.7846 252.733 75.7846C252.297 75.7846 251.89 75.9006 251.511 76.1326C251.137 76.3646 250.834 76.6866 250.602 77.0985C250.375 77.5057 250.261 77.9769 250.261 78.5119V85.3301H248.585ZM270.542 85.5574C269.49 85.5574 268.584 85.3253 267.821 84.8613C267.064 84.3926 266.479 83.7392 266.067 82.9011C265.66 82.0583 265.456 81.0782 265.456 79.9608C265.456 78.8433 265.66 77.8585 266.067 77.0062C266.479 76.1492 267.052 75.4816 267.786 75.0034C268.525 74.5204 269.386 74.2789 270.371 74.2789C270.939 74.2789 271.5 74.3736 272.054 74.563C272.608 74.7524 273.113 75.0602 273.567 75.4863C274.022 75.9077 274.384 76.4664 274.654 77.1625C274.924 77.8585 275.059 78.7155 275.059 79.7335V80.4437H266.65V78.9949H273.354C273.354 78.3793 273.231 77.8301 272.985 77.3471C272.743 76.8642 272.398 76.483 271.948 76.2037C271.503 75.9243 270.977 75.7846 270.371 75.7846C269.703 75.7846 269.126 75.9503 268.638 76.2818C268.155 76.6085 267.783 77.0346 267.523 77.5602C267.263 78.0858 267.132 78.6492 267.132 79.2505V80.2164C267.132 81.0403 267.275 81.7387 267.559 82.3116C267.847 82.8798 268.248 83.313 268.759 83.6113C269.27 83.9049 269.864 84.0517 270.542 84.0517C270.982 84.0517 271.38 83.9901 271.735 83.867C272.095 83.7392 272.405 83.5498 272.665 83.2988C272.926 83.0431 273.127 82.7259 273.269 82.3471L274.888 82.8017C274.718 83.3509 274.431 83.8339 274.029 84.2505C273.626 84.6625 273.129 84.9844 272.537 85.2164C271.945 85.4437 271.28 85.5574 270.542 85.5574ZM277.608 85.3301V74.421H279.228V76.0687H279.341C279.54 75.5289 279.9 75.091 280.421 74.7548C280.942 74.4186 281.529 74.2505 282.182 74.2505C282.305 74.2505 282.459 74.2529 282.644 74.2576C282.828 74.2624 282.968 74.2695 283.063 74.2789V75.9835C283.006 75.9693 282.876 75.948 282.672 75.9196C282.473 75.8864 282.263 75.8699 282.04 75.8699C281.51 75.8699 281.036 75.9811 280.62 76.2037C280.208 76.4215 279.881 76.7245 279.64 77.1127C279.403 77.4963 279.284 77.9342 279.284 78.4267V85.3301H277.608ZM298.402 76.8642L296.896 77.2903C296.802 77.0394 296.662 76.7955 296.477 76.5588C296.297 76.3173 296.051 76.1184 295.739 75.9622C295.426 75.8059 295.026 75.7278 294.538 75.7278C293.871 75.7278 293.314 75.8817 292.869 76.1895C292.429 76.4925 292.209 76.8784 292.209 77.3471C292.209 77.7638 292.36 78.0929 292.663 78.3343C292.966 78.5758 293.44 78.777 294.084 78.938L295.703 79.3358C296.679 79.5725 297.405 79.9347 297.884 80.4224C298.362 80.9054 298.601 81.528 298.601 82.2903C298.601 82.9153 298.421 83.474 298.061 83.9664C297.706 84.4589 297.209 84.8471 296.57 85.1312C295.93 85.4153 295.187 85.5574 294.339 85.5574C293.227 85.5574 292.306 85.3159 291.577 84.8329C290.848 84.35 290.386 83.6445 290.192 82.7164L291.783 82.3187C291.934 82.9058 292.221 83.3462 292.642 83.6397C293.068 83.9333 293.625 84.0801 294.311 84.0801C295.092 84.0801 295.713 83.9144 296.172 83.5829C296.636 83.2467 296.868 82.8443 296.868 82.3755C296.868 81.9967 296.735 81.6795 296.47 81.4238C296.205 81.1634 295.798 80.9693 295.249 80.8414L293.43 80.4153C292.431 80.1786 291.697 79.8116 291.229 79.3145C290.765 78.8126 290.533 78.1852 290.533 77.4324C290.533 76.8168 290.705 76.2723 291.051 75.7988C291.402 75.3253 291.877 74.9537 292.479 74.6838C293.085 74.4139 293.771 74.2789 294.538 74.2789C295.618 74.2789 296.465 74.5157 297.081 74.9892C297.701 75.4627 298.142 76.0877 298.402 76.8642ZM305.698 85.5574C304.647 85.5574 303.74 85.3253 302.978 84.8613C302.22 84.3926 301.635 83.7392 301.223 82.9011C300.816 82.0583 300.613 81.0782 300.613 79.9608C300.613 78.8433 300.816 77.8585 301.223 77.0062C301.635 76.1492 302.208 75.4816 302.942 75.0034C303.681 74.5204 304.542 74.2789 305.527 74.2789C306.096 74.2789 306.657 74.3736 307.211 74.563C307.765 74.7524 308.269 75.0602 308.723 75.4863C309.178 75.9077 309.54 76.4664 309.81 77.1625C310.08 77.8585 310.215 78.7155 310.215 79.7335V80.4437H301.806V78.9949H308.51C308.51 78.3793 308.387 77.8301 308.141 77.3471C307.9 76.8642 307.554 76.483 307.104 76.2037C306.659 75.9243 306.133 75.7846 305.527 75.7846C304.86 75.7846 304.282 75.9503 303.794 76.2818C303.311 76.6085 302.94 77.0346 302.679 77.5602C302.419 78.0858 302.289 78.6492 302.289 79.2505V80.2164C302.289 81.0403 302.431 81.7387 302.715 82.3116C303.004 82.8798 303.404 83.313 303.915 83.6113C304.426 83.9049 305.021 84.0517 305.698 84.0517C306.138 84.0517 306.536 83.9901 306.891 83.867C307.251 83.7392 307.561 83.5498 307.821 83.2988C308.082 83.0431 308.283 82.7259 308.425 82.3471L310.044 82.8017C309.874 83.3509 309.587 83.8339 309.185 84.2505C308.783 84.6625 308.285 84.9844 307.694 85.2164C307.102 85.4437 306.436 85.5574 305.698 85.5574ZM312.765 85.3301V74.421H314.384V76.0687H314.498C314.696 75.5289 315.056 75.091 315.577 74.7548C316.098 74.4186 316.685 74.2505 317.338 74.2505C317.462 74.2505 317.615 74.2529 317.8 74.2576C317.985 74.2624 318.124 74.2695 318.219 74.2789V75.9835C318.162 75.9693 318.032 75.948 317.828 75.9196C317.63 75.8864 317.419 75.8699 317.196 75.8699C316.666 75.8699 316.193 75.9811 315.776 76.2037C315.364 76.4215 315.037 76.7245 314.796 77.1127C314.559 77.4963 314.441 77.9342 314.441 78.4267V85.3301H312.765ZM329.458 74.421L325.424 85.3301H323.72L319.686 74.421H321.504L324.515 83.1142H324.629L327.64 74.421H329.458ZM331.671 85.3301V74.421H333.347V85.3301H331.671ZM332.523 72.6028C332.196 72.6028 331.915 72.4915 331.678 72.269C331.446 72.0465 331.33 71.7789 331.33 71.4664C331.33 71.1539 331.446 70.8864 331.678 70.6639C331.915 70.4413 332.196 70.3301 332.523 70.3301C332.85 70.3301 333.129 70.4413 333.361 70.6639C333.598 70.8864 333.716 71.1539 333.716 71.4664C333.716 71.7789 333.598 72.0465 333.361 72.269C333.129 72.4915 332.85 72.6028 332.523 72.6028ZM340.849 85.5574C339.826 85.5574 338.945 85.3159 338.207 84.8329C337.468 84.35 336.9 83.6847 336.502 82.8372C336.104 81.9896 335.906 81.0214 335.906 79.9324C335.906 78.8244 336.109 77.8466 336.516 76.9991C336.928 76.1468 337.501 75.4816 338.235 75.0034C338.974 74.5204 339.835 74.2789 340.82 74.2789C341.587 74.2789 342.279 74.421 342.894 74.7051C343.51 74.9892 344.014 75.3869 344.407 75.8983C344.8 76.4096 345.044 77.0062 345.138 77.688H343.462C343.335 77.1909 343.05 76.7505 342.61 76.367C342.174 75.9788 341.587 75.7846 340.849 75.7846C340.195 75.7846 339.622 75.9551 339.13 76.296C338.642 76.6322 338.261 77.108 337.987 77.7235C337.717 78.3343 337.582 79.0517 337.582 79.8755C337.582 80.7183 337.714 81.4522 337.979 82.0772C338.249 82.7022 338.628 83.1876 339.116 83.5332C339.608 83.8788 340.186 84.0517 340.849 84.0517C341.284 84.0517 341.68 83.9759 342.035 83.8244C342.39 83.6729 342.691 83.4551 342.937 83.171C343.183 82.8869 343.358 82.546 343.462 82.1483H345.138C345.044 82.7922 344.809 83.3722 344.435 83.8883C344.066 84.3997 343.576 84.8069 342.965 85.1099C342.359 85.4082 341.654 85.5574 340.849 85.5574ZM352.163 85.5574C351.112 85.5574 350.205 85.3253 349.442 84.8613C348.685 84.3926 348.1 83.7392 347.688 82.9011C347.281 82.0583 347.077 81.0782 347.077 79.9608C347.077 78.8433 347.281 77.8585 347.688 77.0062C348.1 76.1492 348.673 75.4816 349.407 75.0034C350.146 74.5204 351.007 74.2789 351.992 74.2789C352.56 74.2789 353.121 74.3736 353.675 74.563C354.229 74.7524 354.734 75.0602 355.188 75.4863C355.643 75.9077 356.005 76.4664 356.275 77.1625C356.545 77.8585 356.68 78.7155 356.68 79.7335V80.4437H348.271V78.9949H354.975C354.975 78.3793 354.852 77.8301 354.606 77.3471C354.364 76.8642 354.019 76.483 353.569 76.2037C353.124 75.9243 352.598 75.7846 351.992 75.7846C351.325 75.7846 350.747 75.9503 350.259 76.2818C349.776 76.6085 349.405 77.0346 349.144 77.5602C348.884 78.0858 348.754 78.6492 348.754 79.2505V80.2164C348.754 81.0403 348.896 81.7387 349.18 82.3116C349.469 82.8798 349.869 83.313 350.38 83.6113C350.891 83.9049 351.486 84.0517 352.163 84.0517C352.603 84.0517 353.001 83.9901 353.356 83.867C353.716 83.7392 354.026 83.5498 354.286 83.2988C354.547 83.0431 354.748 82.7259 354.89 82.3471L356.509 82.8017C356.339 83.3509 356.052 83.8339 355.65 84.2505C355.247 84.6625 354.75 84.9844 354.158 85.2164C353.567 85.4437 352.901 85.5574 352.163 85.5574ZM368.065 85.5858C367.373 85.5858 366.746 85.4556 366.183 85.1951C365.619 84.93 365.172 84.5488 364.84 84.0517C364.509 83.5498 364.343 82.9437 364.343 82.2335C364.343 81.6085 364.466 81.1019 364.712 80.7136C364.959 80.3206 365.288 80.0128 365.7 79.7903C366.112 79.5678 366.566 79.402 367.063 79.2931C367.565 79.1795 368.069 79.0895 368.576 79.0233C369.239 78.938 369.776 78.8741 370.188 78.8315C370.605 78.7841 370.908 78.706 371.097 78.5971C371.291 78.4882 371.388 78.2988 371.388 78.0289V77.9721C371.388 77.2714 371.197 76.7269 370.813 76.3386C370.434 75.9503 369.859 75.7562 369.087 75.7562C368.287 75.7562 367.66 75.9314 367.205 76.2818C366.751 76.6322 366.431 77.0062 366.246 77.4039L364.656 76.8358C364.94 76.1729 365.318 75.6568 365.792 75.2875C366.27 74.9134 366.791 74.653 367.354 74.5062C367.923 74.3547 368.481 74.2789 369.031 74.2789C369.381 74.2789 369.783 74.3216 370.238 74.4068C370.697 74.4873 371.14 74.6554 371.566 74.911C371.997 75.1667 372.354 75.5526 372.638 76.0687C372.923 76.5848 373.065 77.2761 373.065 78.1426V85.3301H371.388V83.8528H371.303C371.19 84.0895 371 84.3429 370.735 84.6127C370.47 84.8826 370.117 85.1123 369.677 85.3017C369.237 85.4911 368.699 85.5858 368.065 85.5858ZM368.32 84.0801C368.983 84.0801 369.542 83.9499 369.996 83.6895C370.456 83.429 370.801 83.0929 371.033 82.6809C371.27 82.269 371.388 81.8358 371.388 81.3812V79.8471C371.317 79.9324 371.161 80.0105 370.92 80.0815C370.683 80.1478 370.408 80.207 370.096 80.2591C369.788 80.3064 369.487 80.349 369.194 80.3869C368.905 80.42 368.671 80.4484 368.491 80.4721C368.055 80.5289 367.648 80.6213 367.269 80.7491C366.895 80.8722 366.592 81.0592 366.36 81.3102C366.133 81.5564 366.019 81.8926 366.019 82.3187C366.019 82.9011 366.235 83.3414 366.665 83.6397C367.101 83.9333 367.653 84.0801 368.32 84.0801ZM380.527 89.6483C379.718 89.6483 379.022 89.5441 378.439 89.3358C377.857 89.1322 377.372 88.8623 376.983 88.5261C376.6 88.1947 376.294 87.8395 376.067 87.4608L377.402 86.5233C377.554 86.7221 377.746 86.9494 377.978 87.2051C378.21 87.4655 378.527 87.6904 378.929 87.8798C379.337 88.0739 379.869 88.171 380.527 88.171C381.408 88.171 382.135 87.9579 382.708 87.5318C383.281 87.1056 383.567 86.438 383.567 85.5289V83.313H383.425C383.302 83.5119 383.127 83.7581 382.9 84.0517C382.677 84.3405 382.355 84.5985 381.934 84.8258C381.517 85.0484 380.953 85.1596 380.243 85.1596C379.363 85.1596 378.572 84.9513 377.871 84.5346C377.175 84.118 376.623 83.5119 376.216 82.7164C375.814 81.921 375.613 80.9551 375.613 79.8187C375.613 78.7013 375.809 77.7283 376.202 76.8997C376.595 76.0663 377.142 75.4224 377.843 74.9679C378.543 74.5086 379.353 74.2789 380.272 74.2789C380.982 74.2789 381.545 74.3973 381.962 74.6341C382.383 74.8661 382.705 75.1312 382.928 75.4295C383.155 75.7231 383.33 75.9645 383.453 76.1539H383.624V74.421H385.243V85.6426C385.243 86.5801 385.03 87.3424 384.604 87.9295C384.183 88.5214 383.614 88.9546 382.9 89.2292C382.189 89.5086 381.399 89.6483 380.527 89.6483ZM380.471 83.6539C381.143 83.6539 381.711 83.5001 382.175 83.1923C382.639 82.8845 382.992 82.4418 383.233 81.8642C383.475 81.2865 383.596 80.5952 383.596 79.7903C383.596 79.0043 383.477 78.3107 383.24 77.7093C383.004 77.108 382.653 76.6369 382.189 76.296C381.725 75.9551 381.152 75.7846 380.471 75.7846C379.76 75.7846 379.168 75.9645 378.695 76.3244C378.226 76.6842 377.873 77.1672 377.637 77.7733C377.405 78.3793 377.289 79.0517 377.289 79.7903C377.289 80.5479 377.407 81.2179 377.644 81.8002C377.885 82.3779 378.24 82.8324 378.709 83.1639C379.183 83.4906 379.77 83.6539 380.471 83.6539ZM392.885 85.5574C391.834 85.5574 390.927 85.3253 390.165 84.8613C389.408 84.3926 388.823 83.7392 388.411 82.9011C388.004 82.0583 387.8 81.0782 387.8 79.9608C387.8 78.8433 388.004 77.8585 388.411 77.0062C388.823 76.1492 389.396 75.4816 390.13 75.0034C390.868 74.5204 391.73 74.2789 392.715 74.2789C393.283 74.2789 393.844 74.3736 394.398 74.563C394.952 74.7524 395.456 75.0602 395.911 75.4863C396.365 75.9077 396.728 76.4664 396.998 77.1625C397.267 77.8585 397.402 78.7155 397.402 79.7335V80.4437H388.993V78.9949H395.698C395.698 78.3793 395.575 77.8301 395.328 77.3471C395.087 76.8642 394.741 76.483 394.292 76.2037C393.846 75.9243 393.321 75.7846 392.715 75.7846C392.047 75.7846 391.47 75.9503 390.982 76.2818C390.499 76.6085 390.127 77.0346 389.867 77.5602C389.606 78.0858 389.476 78.6492 389.476 79.2505V80.2164C389.476 81.0403 389.618 81.7387 389.902 82.3116C390.191 82.8798 390.591 83.313 391.103 83.6113C391.614 83.9049 392.208 84.0517 392.885 84.0517C393.326 84.0517 393.723 83.9901 394.078 83.867C394.438 83.7392 394.748 83.5498 395.009 83.2988C395.269 83.0431 395.471 82.7259 395.613 82.3471L397.232 82.8017C397.061 83.3509 396.775 83.8339 396.373 84.2505C395.97 84.6625 395.473 84.9844 394.881 85.2164C394.289 85.4437 393.624 85.5574 392.885 85.5574ZM401.628 78.7676V85.3301H399.952V74.421H401.571V76.1255H401.713C401.969 75.5716 402.357 75.1265 402.878 74.7903C403.399 74.4494 404.071 74.2789 404.895 74.2789C405.634 74.2789 406.28 74.4305 406.834 74.7335C407.388 75.0318 407.819 75.4863 408.127 76.0971C408.435 76.7032 408.588 77.4702 408.588 78.3983V85.3301H406.912V78.5119C406.912 77.6549 406.69 76.9873 406.245 76.5091C405.8 76.0261 405.189 75.7846 404.412 75.7846C403.877 75.7846 403.399 75.9006 402.978 76.1326C402.561 76.3646 402.232 76.7032 401.99 77.1483C401.749 77.5933 401.628 78.1331 401.628 78.7676ZM416.396 74.421V75.8414H410.742V74.421H416.396ZM412.39 71.8074H414.066V82.2051C414.066 82.6786 414.135 83.0337 414.272 83.2704C414.414 83.5024 414.594 83.6587 414.812 83.7392C415.034 83.8149 415.269 83.8528 415.515 83.8528C415.7 83.8528 415.851 83.8433 415.969 83.8244C416.088 83.8007 416.183 83.7818 416.254 83.7676L416.594 85.2733C416.481 85.3159 416.322 85.3585 416.119 85.4011C415.915 85.4484 415.657 85.4721 415.344 85.4721C414.871 85.4721 414.407 85.3703 413.952 85.1667C413.503 84.9631 413.129 84.653 412.83 84.2363C412.537 83.8197 412.39 83.2941 412.39 82.6596V71.8074ZM433.462 74.421L429.428 85.3301H427.724L423.69 74.421H425.508L428.519 83.1142H428.633L431.644 74.421H433.462ZM435.675 85.3301V74.421H437.351V85.3301H435.675ZM436.527 72.6028C436.2 72.6028 435.919 72.4915 435.682 72.269C435.45 72.0465 435.334 71.7789 435.334 71.4664C435.334 71.1539 435.45 70.8864 435.682 70.6639C435.919 70.4413 436.2 70.3301 436.527 70.3301C436.854 70.3301 437.133 70.4413 437.365 70.6639C437.602 70.8864 437.72 71.1539 437.72 71.4664C437.72 71.7789 437.602 72.0465 437.365 72.269C437.133 72.4915 436.854 72.6028 436.527 72.6028ZM443.631 85.5858C442.94 85.5858 442.312 85.4556 441.749 85.1951C441.185 84.93 440.738 84.5488 440.407 84.0517C440.075 83.5498 439.909 82.9437 439.909 82.2335C439.909 81.6085 440.033 81.1019 440.279 80.7136C440.525 80.3206 440.854 80.0128 441.266 79.7903C441.678 79.5678 442.132 79.402 442.63 79.2931C443.132 79.1795 443.636 79.0895 444.142 79.0233C444.805 78.938 445.343 78.8741 445.755 78.8315C446.171 78.7841 446.474 78.706 446.664 78.5971C446.858 78.4882 446.955 78.2988 446.955 78.0289V77.9721C446.955 77.2714 446.763 76.7269 446.38 76.3386C446.001 75.9503 445.426 75.7562 444.654 75.7562C443.854 75.7562 443.226 75.9314 442.772 76.2818C442.317 76.6322 441.998 77.0062 441.813 77.4039L440.222 76.8358C440.506 76.1729 440.885 75.6568 441.358 75.2875C441.837 74.9134 442.357 74.653 442.921 74.5062C443.489 74.3547 444.048 74.2789 444.597 74.2789C444.947 74.2789 445.35 74.3216 445.804 74.4068C446.264 74.4873 446.706 74.6554 447.132 74.911C447.563 75.1667 447.921 75.5526 448.205 76.0687C448.489 76.5848 448.631 77.2761 448.631 78.1426V85.3301H446.955V83.8528H446.87C446.756 84.0895 446.567 84.3429 446.301 84.6127C446.036 84.8826 445.684 85.1123 445.243 85.3017C444.803 85.4911 444.266 85.5858 443.631 85.5858ZM443.887 84.0801C444.55 84.0801 445.108 83.9499 445.563 83.6895C446.022 83.429 446.368 83.0929 446.6 82.6809C446.837 82.269 446.955 81.8358 446.955 81.3812V79.8471C446.884 79.9324 446.728 80.0105 446.486 80.0815C446.249 80.1478 445.975 80.207 445.662 80.2591C445.355 80.3064 445.054 80.349 444.76 80.3869C444.471 80.42 444.237 80.4484 444.057 80.4721C443.622 80.5289 443.214 80.6213 442.836 80.7491C442.462 80.8722 442.158 81.0592 441.926 81.3102C441.699 81.5564 441.586 81.8926 441.586 82.3187C441.586 82.9011 441.801 83.3414 442.232 83.6397C442.667 83.9333 443.219 84.0801 443.887 84.0801ZM457.315 89.421V74.421H458.935V76.1539H459.134C459.257 75.9645 459.427 75.7231 459.645 75.4295C459.867 75.1312 460.185 74.8661 460.597 74.6341C461.013 74.3973 461.577 74.2789 462.287 74.2789C463.205 74.2789 464.015 74.5086 464.716 74.9679C465.417 75.4271 465.964 76.0782 466.357 76.921C466.75 77.7638 466.946 78.7581 466.946 79.9039C466.946 81.0592 466.75 82.0607 466.357 82.9082C465.964 83.751 465.419 84.4044 464.723 84.8684C464.027 85.3277 463.224 85.5574 462.315 85.5574C461.615 85.5574 461.054 85.4413 460.632 85.2093C460.211 84.9726 459.886 84.7051 459.659 84.4068C459.432 84.1038 459.257 83.8528 459.134 83.6539H458.991V89.421H457.315ZM458.963 79.8755C458.963 80.6994 459.084 81.4262 459.325 82.0559C459.567 82.6809 459.92 83.171 460.384 83.5261C460.848 83.8765 461.416 84.0517 462.088 84.0517C462.789 84.0517 463.374 83.867 463.842 83.4977C464.316 83.1236 464.671 82.6217 464.908 81.992C465.149 81.3575 465.27 80.652 465.27 79.8755C465.27 79.1085 465.152 78.4172 464.915 77.8017C464.683 77.1814 464.33 76.6913 463.857 76.3315C463.388 75.9669 462.798 75.7846 462.088 75.7846C461.406 75.7846 460.833 75.9574 460.369 76.3031C459.905 76.644 459.555 77.1222 459.318 77.7377C459.081 78.3485 458.963 79.0611 458.963 79.8755ZM471.179 78.7676V85.3301H469.503V70.7846H471.179V76.1255H471.321C471.577 75.5621 471.96 75.1146 472.472 74.7832C472.988 74.447 473.674 74.2789 474.531 74.2789C475.275 74.2789 475.926 74.4281 476.484 74.7264C477.043 75.0199 477.476 75.4721 477.784 76.0829C478.097 76.689 478.253 77.4608 478.253 78.3983V85.3301H476.577V78.5119C476.577 77.6454 476.352 76.9754 475.902 76.502C475.457 76.0237 474.839 75.7846 474.048 75.7846C473.499 75.7846 473.007 75.9006 472.571 76.1326C472.14 76.3646 471.799 76.7032 471.548 77.1483C471.302 77.5933 471.179 78.1331 471.179 78.7676ZM485.751 85.5574C484.766 85.5574 483.902 85.323 483.159 84.8542C482.42 84.3855 481.842 83.7297 481.426 82.8869C481.014 82.0441 480.808 81.0592 480.808 79.9324C480.808 78.796 481.014 77.804 481.426 76.9565C481.842 76.109 482.42 75.4508 483.159 74.9821C483.902 74.5133 484.766 74.2789 485.751 74.2789C486.736 74.2789 487.598 74.5133 488.336 74.9821C489.08 75.4508 489.657 76.109 490.069 76.9565C490.486 77.804 490.694 78.796 490.694 79.9324C490.694 81.0592 490.486 82.0441 490.069 82.8869C489.657 83.7297 489.08 84.3855 488.336 84.8542C487.598 85.323 486.736 85.5574 485.751 85.5574ZM485.751 84.0517C486.499 84.0517 487.115 83.8599 487.598 83.4764C488.081 83.0929 488.438 82.5886 488.67 81.9636C488.902 81.3386 489.018 80.6615 489.018 79.9324C489.018 79.2032 488.902 78.5237 488.67 77.894C488.438 77.2643 488.081 76.7553 487.598 76.367C487.115 75.9788 486.499 75.7846 485.751 75.7846C485.003 75.7846 484.387 75.9788 483.904 76.367C483.422 76.7553 483.064 77.2643 482.832 77.894C482.6 78.5237 482.484 79.2032 482.484 79.9324C482.484 80.6615 482.6 81.3386 482.832 81.9636C483.064 82.5886 483.422 83.0929 483.904 83.4764C484.387 83.8599 485.003 84.0517 485.751 84.0517ZM494.929 78.7676V85.3301H493.253V74.421H494.872V76.1255H495.014C495.27 75.5716 495.658 75.1265 496.179 74.7903C496.7 74.4494 497.372 74.2789 498.196 74.2789C498.935 74.2789 499.581 74.4305 500.135 74.7335C500.689 75.0318 501.12 75.4863 501.428 76.0971C501.735 76.7032 501.889 77.4702 501.889 78.3983V85.3301H500.213V78.5119C500.213 77.6549 499.991 76.9873 499.545 76.5091C499.1 76.0261 498.49 75.7846 497.713 75.7846C497.178 75.7846 496.7 75.9006 496.278 76.1326C495.862 76.3646 495.533 76.7032 495.291 77.1483C495.05 77.5933 494.929 78.1331 494.929 78.7676ZM509.526 85.5574C508.475 85.5574 507.568 85.3253 506.806 84.8613C506.048 84.3926 505.463 83.7392 505.051 82.9011C504.644 82.0583 504.441 81.0782 504.441 79.9608C504.441 78.8433 504.644 77.8585 505.051 77.0062C505.463 76.1492 506.036 75.4816 506.77 75.0034C507.509 74.5204 508.371 74.2789 509.355 74.2789C509.924 74.2789 510.485 74.3736 511.039 74.563C511.593 74.7524 512.097 75.0602 512.551 75.4863C513.006 75.9077 513.368 76.4664 513.638 77.1625C513.908 77.8585 514.043 78.7155 514.043 79.7335V80.4437H505.634V78.9949H512.338C512.338 78.3793 512.215 77.8301 511.969 77.3471C511.728 76.8642 511.382 76.483 510.932 76.2037C510.487 75.9243 509.962 75.7846 509.355 75.7846C508.688 75.7846 508.11 75.9503 507.623 76.2818C507.14 76.6085 506.768 77.0346 506.507 77.5602C506.247 78.0858 506.117 78.6492 506.117 79.2505V80.2164C506.117 81.0403 506.259 81.7387 506.543 82.3116C506.832 82.8798 507.232 83.313 507.743 83.6113C508.255 83.9049 508.849 84.0517 509.526 84.0517C509.966 84.0517 510.364 83.9901 510.719 83.867C511.079 83.7392 511.389 83.5498 511.65 83.2988C511.91 83.0431 512.111 82.7259 512.253 82.3471L513.873 82.8017C513.702 83.3509 513.416 83.8339 513.013 84.2505C512.611 84.6625 512.114 84.9844 511.522 85.2164C510.93 85.4437 510.265 85.5574 509.526 85.5574ZM5.96591 114.557C4.98106 114.557 4.11695 114.323 3.37358 113.854C2.63494 113.385 2.05729 112.73 1.64062 111.887C1.22869 111.044 1.02273 110.059 1.02273 108.932C1.02273 107.796 1.22869 106.804 1.64062 105.956C2.05729 105.109 2.63494 104.451 3.37358 103.982C4.11695 103.513 4.98106 103.279 5.96591 103.279C6.95076 103.279 7.8125 103.513 8.55114 103.982C9.29451 104.451 9.87216 105.109 10.2841 105.956C10.7008 106.804 10.9091 107.796 10.9091 108.932C10.9091 110.059 10.7008 111.044 10.2841 111.887C9.87216 112.73 9.29451 113.385 8.55114 113.854C7.8125 114.323 6.95076 114.557 5.96591 114.557ZM5.96591 113.052C6.71402 113.052 7.32955 112.86 7.8125 112.476C8.29545 112.093 8.65294 111.589 8.88494 110.964C9.11695 110.339 9.23295 109.662 9.23295 108.932C9.23295 108.203 9.11695 107.524 8.88494 106.894C8.65294 106.264 8.29545 105.755 7.8125 105.367C7.32955 104.979 6.71402 104.785 5.96591 104.785C5.2178 104.785 4.60227 104.979 4.11932 105.367C3.63636 105.755 3.27888 106.264 3.04688 106.894C2.81487 107.524 2.69886 108.203 2.69886 108.932C2.69886 109.662 2.81487 110.339 3.04688 110.964C3.27888 111.589 3.63636 112.093 4.11932 112.476C4.60227 112.86 5.2178 113.052 5.96591 113.052ZM13.4677 114.33V103.421H15.087V105.069H15.2006C15.3995 104.529 15.7594 104.091 16.2802 103.755C16.801 103.419 17.3881 103.251 18.0415 103.251C18.1647 103.251 18.3185 103.253 18.5032 103.258C18.6879 103.262 18.8275 103.269 18.9222 103.279V104.983C18.8654 104.969 18.7352 104.948 18.5316 104.92C18.3327 104.886 18.122 104.87 17.8995 104.87C17.3692 104.87 16.8957 104.981 16.479 105.204C16.0671 105.421 15.7404 105.724 15.4989 106.113C15.2622 106.496 15.1438 106.934 15.1438 107.427V114.33H13.4677ZM31.108 114.557C30.0568 114.557 29.1501 114.325 28.3878 113.861C27.6302 113.393 27.0455 112.739 26.6335 111.901C26.2263 111.058 26.0227 110.078 26.0227 108.961C26.0227 107.843 26.2263 106.858 26.6335 106.006C27.0455 105.149 27.6184 104.482 28.3523 104.003C29.0909 103.52 29.9527 103.279 30.9375 103.279C31.5057 103.279 32.0668 103.374 32.6207 103.563C33.1747 103.752 33.679 104.06 34.1335 104.486C34.5881 104.908 34.9503 105.466 35.2202 106.162C35.4901 106.858 35.625 107.715 35.625 108.733V109.444H27.2159V107.995H33.9205C33.9205 107.379 33.7973 106.83 33.5511 106.347C33.3097 105.864 32.964 105.483 32.5142 105.204C32.0691 104.924 31.5436 104.785 30.9375 104.785C30.2699 104.785 29.6922 104.95 29.2045 105.282C28.7216 105.608 28.3499 106.035 28.0895 106.56C27.8291 107.086 27.6989 107.649 27.6989 108.251V109.216C27.6989 110.04 27.8409 110.739 28.125 111.312C28.4138 111.88 28.8139 112.313 29.3253 112.611C29.8366 112.905 30.4309 113.052 31.108 113.052C31.5483 113.052 31.946 112.99 32.3011 112.867C32.661 112.739 32.9711 112.55 33.2315 112.299C33.492 112.043 33.6932 111.726 33.8352 111.347L35.4545 111.802C35.2841 112.351 34.9976 112.834 34.5952 113.251C34.1927 113.662 33.6955 113.984 33.1037 114.216C32.5118 114.444 31.8466 114.557 31.108 114.557ZM38.1747 114.33V103.421H39.794V105.126H39.9361C40.1634 104.543 40.5303 104.091 41.0369 103.769C41.5436 103.442 42.152 103.279 42.8622 103.279C43.5819 103.279 44.1809 103.442 44.6591 103.769C45.142 104.091 45.5185 104.543 45.7884 105.126H45.902C46.1813 104.562 46.6004 104.115 47.1591 103.783C47.7178 103.447 48.3878 103.279 49.169 103.279C50.1444 103.279 50.9422 103.584 51.5625 104.195C52.1828 104.801 52.4929 105.746 52.4929 107.029V114.33H50.8168V107.029C50.8168 106.224 50.5966 105.649 50.1562 105.303C49.7159 104.957 49.1974 104.785 48.6009 104.785C47.8338 104.785 47.2396 105.017 46.8182 105.481C46.3968 105.94 46.1861 106.522 46.1861 107.228V114.33H44.4815V106.858C44.4815 106.238 44.2803 105.739 43.8778 105.36C43.4754 104.976 42.9569 104.785 42.3224 104.785C41.8868 104.785 41.4796 104.901 41.1009 105.133C40.7268 105.365 40.4238 105.687 40.1918 106.099C39.9645 106.506 39.8509 106.977 39.8509 107.512V114.33H38.1747ZM58.7678 114.586C58.0765 114.586 57.4491 114.456 56.8857 114.195C56.3222 113.93 55.8748 113.549 55.5433 113.052C55.2119 112.55 55.0462 111.944 55.0462 111.233C55.0462 110.608 55.1693 110.102 55.4155 109.714C55.6617 109.321 55.9908 109.013 56.4027 108.79C56.8146 108.568 57.2692 108.402 57.7663 108.293C58.2682 108.18 58.7725 108.09 59.2791 108.023C59.942 107.938 60.4794 107.874 60.8913 107.831C61.308 107.784 61.611 107.706 61.8004 107.597C61.9946 107.488 62.0916 107.299 62.0916 107.029V106.972C62.0916 106.271 61.8999 105.727 61.5163 105.339C61.1375 104.95 60.5623 104.756 59.7905 104.756C58.9903 104.756 58.3629 104.931 57.9084 105.282C57.4538 105.632 57.1342 106.006 56.9496 106.404L55.3587 105.836C55.6428 105.173 56.0215 104.657 56.495 104.287C56.9732 103.913 57.4941 103.653 58.0575 103.506C58.6257 103.355 59.1844 103.279 59.7337 103.279C60.084 103.279 60.4865 103.322 60.9411 103.407C61.4003 103.487 61.843 103.655 62.2692 103.911C62.7 104.167 63.0575 104.553 63.3416 105.069C63.6257 105.585 63.7678 106.276 63.7678 107.143V114.33H62.0916V112.853H62.0064C61.8928 113.09 61.7034 113.343 61.4382 113.613C61.1731 113.883 60.8203 114.112 60.38 114.302C59.9396 114.491 59.4022 114.586 58.7678 114.586ZM59.0234 113.08C59.6863 113.08 60.245 112.95 60.6996 112.689C61.1589 112.429 61.5045 112.093 61.7365 111.681C61.9732 111.269 62.0916 110.836 62.0916 110.381V108.847C62.0206 108.932 61.8643 109.01 61.6229 109.081C61.3861 109.148 61.1115 109.207 60.799 109.259C60.4912 109.306 60.1906 109.349 59.897 109.387C59.6082 109.42 59.3738 109.448 59.1939 109.472C58.7583 109.529 58.3511 109.621 57.9723 109.749C57.5982 109.872 57.2952 110.059 57.0632 110.31C56.8359 110.556 56.7223 110.893 56.7223 111.319C56.7223 111.901 56.9377 112.341 57.3686 112.64C57.8042 112.933 58.3558 113.08 59.0234 113.08ZM66.8271 114.33V103.421H68.5032V114.33H66.8271ZM67.6793 101.603C67.3526 101.603 67.0709 101.492 66.8342 101.269C66.6022 101.046 66.4862 100.779 66.4862 100.466C66.4862 100.154 66.6022 99.8864 66.8342 99.6639C67.0709 99.4413 67.3526 99.3301 67.6793 99.3301C68.006 99.3301 68.2854 99.4413 68.5174 99.6639C68.7541 99.8864 68.8725 100.154 68.8725 100.466C68.8725 100.779 68.7541 101.046 68.5174 101.269C68.2854 101.492 68.006 101.603 67.6793 101.603ZM73.2493 99.7846V114.33H71.5732V99.7846H73.2493ZM81.9442 114.33V103.421H83.6204V114.33H81.9442ZM82.7965 101.603C82.4698 101.603 82.1881 101.492 81.9513 101.269C81.7193 101.046 81.6033 100.779 81.6033 100.466C81.6033 100.154 81.7193 99.8864 81.9513 99.6639C82.1881 99.4413 82.4698 99.3301 82.7965 99.3301C83.1232 99.3301 83.4026 99.4413 83.6346 99.6639C83.8713 99.8864 83.9897 100.154 83.9897 100.466C83.9897 100.779 83.8713 101.046 83.6346 101.269C83.4026 101.492 83.1232 101.603 82.7965 101.603ZM91.5483 103.421V104.841H85.6676V103.421H91.5483ZM87.429 114.33V101.915C87.429 101.29 87.5758 100.769 87.8693 100.353C88.1629 99.9361 88.544 99.6236 89.0128 99.4153C89.4815 99.207 89.9763 99.1028 90.4972 99.1028C90.9091 99.1028 91.2453 99.1359 91.5057 99.2022C91.7661 99.2685 91.9602 99.3301 92.0881 99.3869L91.6051 100.836C91.5199 100.807 91.4015 100.772 91.25 100.729C91.1032 100.687 90.9091 100.665 90.6676 100.665C90.1136 100.665 89.7135 100.805 89.4673 101.084C89.2259 101.364 89.1051 101.773 89.1051 102.313V114.33H87.429ZM100.602 118.421C100.318 118.421 100.065 118.397 99.842 118.35C99.6194 118.307 99.4656 118.265 99.3803 118.222L99.8065 116.745C100.214 116.849 100.574 116.887 100.886 116.858C101.199 116.83 101.475 116.69 101.717 116.439C101.963 116.193 102.188 115.793 102.392 115.239L102.704 114.387L98.6701 103.421H100.488L103.5 112.114H103.613L106.625 103.421H108.443L103.812 115.921C103.604 116.484 103.346 116.951 103.038 117.32C102.73 117.694 102.373 117.971 101.966 118.151C101.563 118.331 101.109 118.421 100.602 118.421ZM114.696 114.557C113.712 114.557 112.847 114.323 112.104 113.854C111.365 113.385 110.788 112.73 110.371 111.887C109.959 111.044 109.753 110.059 109.753 108.932C109.753 107.796 109.959 106.804 110.371 105.956C110.788 105.109 111.365 104.451 112.104 103.982C112.847 103.513 113.712 103.279 114.696 103.279C115.681 103.279 116.543 103.513 117.282 103.982C118.025 104.451 118.603 105.109 119.015 105.956C119.431 106.804 119.64 107.796 119.64 108.932C119.64 110.059 119.431 111.044 119.015 111.887C118.603 112.73 118.025 113.385 117.282 113.854C116.543 114.323 115.681 114.557 114.696 114.557ZM114.696 113.052C115.444 113.052 116.06 112.86 116.543 112.476C117.026 112.093 117.383 111.589 117.615 110.964C117.847 110.339 117.963 109.662 117.963 108.932C117.963 108.203 117.847 107.524 117.615 106.894C117.383 106.264 117.026 105.755 116.543 105.367C116.06 104.979 115.444 104.785 114.696 104.785C113.948 104.785 113.333 104.979 112.85 105.367C112.367 105.755 112.009 106.264 111.777 106.894C111.545 107.524 111.429 108.203 111.429 108.932C111.429 109.662 111.545 110.339 111.777 110.964C112.009 111.589 112.367 112.093 112.85 112.476C113.333 112.86 113.948 113.052 114.696 113.052ZM129.073 109.87V103.421H130.749V114.33H129.073V112.483H128.96C128.704 113.037 128.306 113.509 127.766 113.897C127.227 114.28 126.545 114.472 125.721 114.472C125.039 114.472 124.433 114.323 123.903 114.025C123.372 113.722 122.956 113.267 122.653 112.661C122.35 112.05 122.198 111.281 122.198 110.353V103.421H123.874V110.239C123.874 111.035 124.097 111.669 124.542 112.143C124.992 112.616 125.565 112.853 126.261 112.853C126.677 112.853 127.101 112.746 127.532 112.533C127.968 112.32 128.332 111.993 128.626 111.553C128.924 111.113 129.073 110.552 129.073 109.87ZM141.12 107.768V114.33H139.444V99.7846H141.12V105.126H141.262C141.518 104.562 141.902 104.115 142.413 103.783C142.929 103.447 143.616 103.279 144.473 103.279C145.216 103.279 145.867 103.428 146.426 103.726C146.984 104.02 147.418 104.472 147.725 105.083C148.038 105.689 148.194 106.461 148.194 107.398V114.33H146.518V107.512C146.518 106.645 146.293 105.975 145.843 105.502C145.398 105.024 144.78 104.785 143.99 104.785C143.44 104.785 142.948 104.901 142.512 105.133C142.082 105.365 141.741 105.703 141.49 106.148C141.243 106.593 141.12 107.133 141.12 107.768ZM154.471 114.586C153.78 114.586 153.152 114.456 152.589 114.195C152.025 113.93 151.578 113.549 151.246 113.052C150.915 112.55 150.749 111.944 150.749 111.233C150.749 110.608 150.872 110.102 151.119 109.714C151.365 109.321 151.694 109.013 152.106 108.79C152.518 108.568 152.972 108.402 153.469 108.293C153.971 108.18 154.476 108.09 154.982 108.023C155.645 107.938 156.183 107.874 156.594 107.831C157.011 107.784 157.314 107.706 157.504 107.597C157.698 107.488 157.795 107.299 157.795 107.029V106.972C157.795 106.271 157.603 105.727 157.219 105.339C156.841 104.95 156.265 104.756 155.494 104.756C154.693 104.756 154.066 104.931 153.612 105.282C153.157 105.632 152.837 106.006 152.653 106.404L151.062 105.836C151.346 105.173 151.725 104.657 152.198 104.287C152.676 103.913 153.197 103.653 153.761 103.506C154.329 103.355 154.888 103.279 155.437 103.279C155.787 103.279 156.19 103.322 156.644 103.407C157.103 103.487 157.546 103.655 157.972 103.911C158.403 104.167 158.761 104.553 159.045 105.069C159.329 105.585 159.471 106.276 159.471 107.143V114.33H157.795V112.853H157.71C157.596 113.09 157.406 113.343 157.141 113.613C156.876 113.883 156.523 114.112 156.083 114.302C155.643 114.491 155.105 114.586 154.471 114.586ZM154.727 113.08C155.389 113.08 155.948 112.95 156.403 112.689C156.862 112.429 157.208 112.093 157.44 111.681C157.676 111.269 157.795 110.836 157.795 110.381V108.847C157.724 108.932 157.567 109.01 157.326 109.081C157.089 109.148 156.815 109.207 156.502 109.259C156.194 109.306 155.894 109.349 155.6 109.387C155.311 109.42 155.077 109.448 154.897 109.472C154.461 109.529 154.054 109.621 153.675 109.749C153.301 109.872 152.998 110.059 152.766 110.31C152.539 110.556 152.425 110.893 152.425 111.319C152.425 111.901 152.641 112.341 153.072 112.64C153.507 112.933 154.059 113.08 154.727 113.08ZM171.06 103.421L167.026 114.33H165.321L161.287 103.421H163.105L166.117 112.114H166.23L169.242 103.421H171.06ZM177.456 114.557C176.404 114.557 175.498 114.325 174.735 113.861C173.978 113.393 173.393 112.739 172.981 111.901C172.574 111.058 172.37 110.078 172.37 108.961C172.37 107.843 172.574 106.858 172.981 106.006C173.393 105.149 173.966 104.482 174.7 104.003C175.439 103.52 176.3 103.279 177.285 103.279C177.853 103.279 178.414 103.374 178.968 103.563C179.522 103.752 180.027 104.06 180.481 104.486C180.936 104.908 181.298 105.466 181.568 106.162C181.838 106.858 181.973 107.715 181.973 108.733V109.444H173.564V107.995H180.268C180.268 107.379 180.145 106.83 179.899 106.347C179.657 105.864 179.312 105.483 178.862 105.204C178.417 104.924 177.891 104.785 177.285 104.785C176.618 104.785 176.04 104.95 175.552 105.282C175.069 105.608 174.698 106.035 174.437 106.56C174.177 107.086 174.047 107.649 174.047 108.251V109.216C174.047 110.04 174.189 110.739 174.473 111.312C174.761 111.88 175.162 112.313 175.673 112.611C176.184 112.905 176.779 113.052 177.456 113.052C177.896 113.052 178.294 112.99 178.649 112.867C179.009 112.739 179.319 112.55 179.579 112.299C179.84 112.043 180.041 111.726 180.183 111.347L181.802 111.802C181.632 112.351 181.345 112.834 180.943 113.251C180.54 113.662 180.043 113.984 179.451 114.216C178.859 114.444 178.194 114.557 177.456 114.557ZM193.358 114.586C192.666 114.586 192.039 114.456 191.475 114.195C190.912 113.93 190.465 113.549 190.133 113.052C189.802 112.55 189.636 111.944 189.636 111.233C189.636 110.608 189.759 110.102 190.005 109.714C190.252 109.321 190.581 109.013 190.993 108.79C191.404 108.568 191.859 108.402 192.356 108.293C192.858 108.18 193.362 108.09 193.869 108.023C194.532 107.938 195.069 107.874 195.481 107.831C195.898 107.784 196.201 107.706 196.39 107.597C196.584 107.488 196.681 107.299 196.681 107.029V106.972C196.681 106.271 196.49 105.727 196.106 105.339C195.727 104.95 195.152 104.756 194.38 104.756C193.58 104.756 192.953 104.931 192.498 105.282C192.044 105.632 191.724 106.006 191.539 106.404L189.949 105.836C190.233 105.173 190.611 104.657 191.085 104.287C191.563 103.913 192.084 103.653 192.647 103.506C193.216 103.355 193.774 103.279 194.324 103.279C194.674 103.279 195.076 103.322 195.531 103.407C195.99 103.487 196.433 103.655 196.859 103.911C197.29 104.167 197.647 104.553 197.931 105.069C198.216 105.585 198.358 106.276 198.358 107.143V114.33H196.681V112.853H196.596C196.483 113.09 196.293 113.343 196.028 113.613C195.763 113.883 195.41 114.112 194.97 114.302C194.529 114.491 193.992 114.586 193.358 114.586ZM193.613 113.08C194.276 113.08 194.835 112.95 195.289 112.689C195.749 112.429 196.094 112.093 196.326 111.681C196.563 111.269 196.681 110.836 196.681 110.381V108.847C196.61 108.932 196.454 109.01 196.213 109.081C195.976 109.148 195.701 109.207 195.389 109.259C195.081 109.306 194.78 109.349 194.487 109.387C194.198 109.42 193.964 109.448 193.784 109.472C193.348 109.529 192.941 109.621 192.562 109.749C192.188 109.872 191.885 110.059 191.653 110.31C191.426 110.556 191.312 110.893 191.312 111.319C191.312 111.901 191.528 112.341 191.958 112.64C192.394 112.933 192.946 113.08 193.613 113.08ZM203.093 107.768V114.33H201.417V103.421H203.036V105.126H203.178C203.434 104.572 203.822 104.126 204.343 103.79C204.864 103.449 205.536 103.279 206.36 103.279C207.099 103.279 207.745 103.43 208.299 103.733C208.853 104.032 209.284 104.486 209.592 105.097C209.899 105.703 210.053 106.47 210.053 107.398V114.33H208.377V107.512C208.377 106.655 208.155 105.987 207.71 105.509C207.264 105.026 206.654 104.785 205.877 104.785C205.342 104.785 204.864 104.901 204.442 105.133C204.026 105.365 203.697 105.703 203.455 106.148C203.214 106.593 203.093 107.133 203.093 107.768ZM213.805 118.421C213.521 118.421 213.268 118.397 213.045 118.35C212.823 118.307 212.669 118.265 212.583 118.222L213.01 116.745C213.417 116.849 213.777 116.887 214.089 116.858C214.402 116.83 214.679 116.69 214.92 116.439C215.166 116.193 215.391 115.793 215.595 115.239L215.907 114.387L211.873 103.421H213.691L216.703 112.114H216.816L219.828 103.421H221.646L217.015 115.921C216.807 116.484 216.549 116.951 216.241 117.32C215.933 117.694 215.576 117.971 215.169 118.151C214.766 118.331 214.312 118.421 213.805 118.421ZM236.926 118.421V112.654H236.784C236.661 112.853 236.486 113.104 236.259 113.407C236.032 113.705 235.707 113.973 235.286 114.209C234.864 114.441 234.303 114.557 233.603 114.557C232.694 114.557 231.891 114.328 231.195 113.868C230.499 113.404 229.954 112.751 229.561 111.908C229.168 111.061 228.972 110.059 228.972 108.904C228.972 107.758 229.168 106.764 229.561 105.921C229.954 105.078 230.501 104.427 231.202 103.968C231.903 103.509 232.712 103.279 233.631 103.279C234.341 103.279 234.902 103.397 235.314 103.634C235.731 103.866 236.048 104.131 236.266 104.43C236.489 104.723 236.661 104.965 236.784 105.154H236.983V103.421H238.603V118.421H236.926ZM233.83 113.052C234.502 113.052 235.07 112.876 235.534 112.526C235.998 112.171 236.351 111.681 236.593 111.056C236.834 110.426 236.955 109.699 236.955 108.876C236.955 108.061 236.837 107.349 236.6 106.738C236.363 106.122 236.013 105.644 235.549 105.303C235.085 104.957 234.512 104.785 233.83 104.785C233.12 104.785 232.528 104.967 232.054 105.331C231.586 105.691 231.233 106.181 230.996 106.802C230.764 107.417 230.648 108.108 230.648 108.876C230.648 109.652 230.766 110.358 231.003 110.992C231.245 111.622 231.6 112.124 232.069 112.498C232.542 112.867 233.129 113.052 233.83 113.052ZM248.546 109.87V103.421H250.222V114.33H248.546V112.483H248.432C248.176 113.037 247.779 113.509 247.239 113.897C246.699 114.28 246.017 114.472 245.194 114.472C244.512 114.472 243.906 114.323 243.375 114.025C242.845 113.722 242.428 113.267 242.125 112.661C241.822 112.05 241.671 111.281 241.671 110.353V103.421H243.347V110.239C243.347 111.035 243.569 111.669 244.015 112.143C244.464 112.616 245.037 112.853 245.733 112.853C246.15 112.853 246.574 112.746 247.005 112.533C247.44 112.32 247.805 111.993 248.098 111.553C248.397 111.113 248.546 110.552 248.546 109.87ZM257.866 114.557C256.815 114.557 255.908 114.325 255.146 113.861C254.388 113.393 253.803 112.739 253.391 111.901C252.984 111.058 252.781 110.078 252.781 108.961C252.781 107.843 252.984 106.858 253.391 106.006C253.803 105.149 254.376 104.482 255.11 104.003C255.849 103.52 256.71 103.279 257.695 103.279C258.263 103.279 258.825 103.374 259.379 103.563C259.933 103.752 260.437 104.06 260.891 104.486C261.346 104.908 261.708 105.466 261.978 106.162C262.248 106.858 262.383 107.715 262.383 108.733V109.444H253.974V107.995H260.678C260.678 107.379 260.555 106.83 260.309 106.347C260.067 105.864 259.722 105.483 259.272 105.204C258.827 104.924 258.301 104.785 257.695 104.785C257.028 104.785 256.45 104.95 255.962 105.282C255.479 105.608 255.108 106.035 254.847 106.56C254.587 107.086 254.457 107.649 254.457 108.251V109.216C254.457 110.04 254.599 110.739 254.883 111.312C255.172 111.88 255.572 112.313 256.083 112.611C256.594 112.905 257.189 113.052 257.866 113.052C258.306 113.052 258.704 112.99 259.059 112.867C259.419 112.739 259.729 112.55 259.989 112.299C260.25 112.043 260.451 111.726 260.593 111.347L262.212 111.802C262.042 112.351 261.755 112.834 261.353 113.251C260.951 113.662 260.453 113.984 259.862 114.216C259.27 114.444 258.604 114.557 257.866 114.557ZM272.66 105.864L271.154 106.29C271.059 106.039 270.92 105.796 270.735 105.559C270.555 105.317 270.309 105.118 269.996 104.962C269.684 104.806 269.284 104.728 268.796 104.728C268.129 104.728 267.572 104.882 267.127 105.189C266.687 105.492 266.467 105.878 266.467 106.347C266.467 106.764 266.618 107.093 266.921 107.334C267.224 107.576 267.698 107.777 268.342 107.938L269.961 108.336C270.936 108.573 271.663 108.935 272.141 109.422C272.62 109.905 272.859 110.528 272.859 111.29C272.859 111.915 272.679 112.474 272.319 112.966C271.964 113.459 271.467 113.847 270.827 114.131C270.188 114.415 269.445 114.557 268.597 114.557C267.485 114.557 266.564 114.316 265.835 113.833C265.105 113.35 264.644 112.644 264.45 111.716L266.04 111.319C266.192 111.906 266.478 112.346 266.9 112.64C267.326 112.933 267.882 113.08 268.569 113.08C269.35 113.08 269.97 112.914 270.43 112.583C270.894 112.247 271.126 111.844 271.126 111.376C271.126 110.997 270.993 110.68 270.728 110.424C270.463 110.163 270.056 109.969 269.506 109.841L267.688 109.415C266.689 109.179 265.955 108.812 265.487 108.314C265.022 107.813 264.79 107.185 264.79 106.432C264.79 105.817 264.963 105.272 265.309 104.799C265.659 104.325 266.135 103.954 266.737 103.684C267.343 103.414 268.029 103.279 268.796 103.279C269.876 103.279 270.723 103.516 271.339 103.989C271.959 104.463 272.399 105.088 272.66 105.864ZM280.126 103.421V104.841H274.473V103.421H280.126ZM276.12 100.807H277.797V111.205C277.797 111.679 277.865 112.034 278.002 112.27C278.145 112.502 278.324 112.659 278.542 112.739C278.765 112.815 278.999 112.853 279.245 112.853C279.43 112.853 279.582 112.843 279.7 112.824C279.818 112.801 279.913 112.782 279.984 112.768L280.325 114.273C280.211 114.316 280.053 114.358 279.849 114.401C279.645 114.448 279.387 114.472 279.075 114.472C278.601 114.472 278.137 114.37 277.683 114.167C277.233 113.963 276.859 113.653 276.561 113.236C276.267 112.82 276.12 112.294 276.12 111.66V100.807ZM282.647 114.33V103.421H284.324V114.33H282.647ZM283.5 101.603C283.173 101.603 282.891 101.492 282.654 101.269C282.422 101.046 282.306 100.779 282.306 100.466C282.306 100.154 282.422 99.8864 282.654 99.6639C282.891 99.4413 283.173 99.3301 283.5 99.3301C283.826 99.3301 284.106 99.4413 284.338 99.6639C284.574 99.8864 284.693 100.154 284.693 100.466C284.693 100.779 284.574 101.046 284.338 101.269C284.106 101.492 283.826 101.603 283.5 101.603ZM291.825 114.557C290.84 114.557 289.976 114.323 289.233 113.854C288.494 113.385 287.917 112.73 287.5 111.887C287.088 111.044 286.882 110.059 286.882 108.932C286.882 107.796 287.088 106.804 287.5 105.956C287.917 105.109 288.494 104.451 289.233 103.982C289.976 103.513 290.84 103.279 291.825 103.279C292.81 103.279 293.672 103.513 294.411 103.982C295.154 104.451 295.732 105.109 296.143 105.956C296.56 106.804 296.768 107.796 296.768 108.932C296.768 110.059 296.56 111.044 296.143 111.887C295.732 112.73 295.154 113.385 294.411 113.854C293.672 114.323 292.81 114.557 291.825 114.557ZM291.825 113.052C292.573 113.052 293.189 112.86 293.672 112.476C294.155 112.093 294.512 111.589 294.744 110.964C294.976 110.339 295.092 109.662 295.092 108.932C295.092 108.203 294.976 107.524 294.744 106.894C294.512 106.264 294.155 105.755 293.672 105.367C293.189 104.979 292.573 104.785 291.825 104.785C291.077 104.785 290.462 104.979 289.979 105.367C289.496 105.755 289.138 106.264 288.906 106.894C288.674 107.524 288.558 108.203 288.558 108.932C288.558 109.662 288.674 110.339 288.906 110.964C289.138 111.589 289.496 112.093 289.979 112.476C290.462 112.86 291.077 113.052 291.825 113.052ZM301.003 107.768V114.33H299.327V103.421H300.946V105.126H301.088C301.344 104.572 301.732 104.126 302.253 103.79C302.774 103.449 303.446 103.279 304.27 103.279C305.009 103.279 305.655 103.43 306.209 103.733C306.763 104.032 307.194 104.486 307.502 105.097C307.81 105.703 307.963 106.47 307.963 107.398V114.33H306.287V107.512C306.287 106.655 306.065 105.987 305.62 105.509C305.175 105.026 304.564 104.785 303.787 104.785C303.252 104.785 302.774 104.901 302.353 105.133C301.936 105.365 301.607 105.703 301.365 106.148C301.124 106.593 301.003 107.133 301.003 107.768ZM318.754 105.864L317.248 106.29C317.153 106.039 317.013 105.796 316.829 105.559C316.649 105.317 316.403 105.118 316.09 104.962C315.778 104.806 315.378 104.728 314.89 104.728C314.222 104.728 313.666 104.882 313.221 105.189C312.781 105.492 312.56 105.878 312.56 106.347C312.56 106.764 312.712 107.093 313.015 107.334C313.318 107.576 313.791 107.777 314.435 107.938L316.055 108.336C317.03 108.573 317.757 108.935 318.235 109.422C318.713 109.905 318.952 110.528 318.952 111.29C318.952 111.915 318.772 112.474 318.413 112.966C318.058 113.459 317.56 113.847 316.921 114.131C316.282 114.415 315.539 114.557 314.691 114.557C313.578 114.557 312.657 114.316 311.928 113.833C311.199 113.35 310.737 112.644 310.543 111.716L312.134 111.319C312.286 111.906 312.572 112.346 312.994 112.64C313.42 112.933 313.976 113.08 314.663 113.08C315.444 113.08 316.064 112.914 316.523 112.583C316.987 112.247 317.219 111.844 317.219 111.376C317.219 110.997 317.087 110.68 316.822 110.424C316.557 110.163 316.149 109.969 315.6 109.841L313.782 109.415C312.783 109.179 312.049 108.812 311.58 108.314C311.116 107.813 310.884 107.185 310.884 106.432C310.884 105.817 311.057 105.272 311.403 104.799C311.753 104.325 312.229 103.954 312.83 103.684C313.436 103.414 314.123 103.279 314.89 103.279C315.969 103.279 316.817 103.516 317.433 103.989C318.053 104.463 318.493 105.088 318.754 105.864ZM331.532 114.557C330.547 114.557 329.683 114.323 328.94 113.854C328.201 113.385 327.624 112.73 327.207 111.887C326.795 111.044 326.589 110.059 326.589 108.932C326.589 107.796 326.795 106.804 327.207 105.956C327.624 105.109 328.201 104.451 328.94 103.982C329.683 103.513 330.547 103.279 331.532 103.279C332.517 103.279 333.379 103.513 334.118 103.982C334.861 104.451 335.439 105.109 335.85 105.956C336.267 106.804 336.475 107.796 336.475 108.932C336.475 110.059 336.267 111.044 335.85 111.887C335.439 112.73 334.861 113.385 334.118 113.854C333.379 114.323 332.517 114.557 331.532 114.557ZM331.532 113.052C332.28 113.052 332.896 112.86 333.379 112.476C333.862 112.093 334.219 111.589 334.451 110.964C334.683 110.339 334.799 109.662 334.799 108.932C334.799 108.203 334.683 107.524 334.451 106.894C334.219 106.264 333.862 105.755 333.379 105.367C332.896 104.979 332.28 104.785 331.532 104.785C330.784 104.785 330.169 104.979 329.686 105.367C329.203 105.755 328.845 106.264 328.613 106.894C328.381 107.524 328.265 108.203 328.265 108.932C328.265 109.662 328.381 110.339 328.613 110.964C328.845 111.589 329.203 112.093 329.686 112.476C330.169 112.86 330.784 113.052 331.532 113.052ZM339.034 114.33V103.421H340.653V105.069H340.767C340.966 104.529 341.326 104.091 341.847 103.755C342.367 103.419 342.955 103.251 343.608 103.251C343.731 103.251 343.885 103.253 344.07 103.258C344.254 103.262 344.394 103.269 344.489 103.279V104.983C344.432 104.969 344.302 104.948 344.098 104.92C343.899 104.886 343.688 104.87 343.466 104.87C342.936 104.87 342.462 104.981 342.045 105.204C341.634 105.421 341.307 105.724 341.065 106.113C340.829 106.496 340.71 106.934 340.71 107.427V114.33H339.034ZM356.532 114.557C355.51 114.557 354.629 114.316 353.89 113.833C353.152 113.35 352.583 112.685 352.186 111.837C351.788 110.99 351.589 110.021 351.589 108.932C351.589 107.824 351.793 106.847 352.2 105.999C352.612 105.147 353.185 104.482 353.919 104.003C354.657 103.52 355.519 103.279 356.504 103.279C357.271 103.279 357.962 103.421 358.578 103.705C359.193 103.989 359.698 104.387 360.091 104.898C360.484 105.41 360.727 106.006 360.822 106.688H359.146C359.018 106.191 358.734 105.751 358.294 105.367C357.858 104.979 357.271 104.785 356.532 104.785C355.879 104.785 355.306 104.955 354.814 105.296C354.326 105.632 353.945 106.108 353.67 106.724C353.4 107.334 353.265 108.052 353.265 108.876C353.265 109.718 353.398 110.452 353.663 111.077C353.933 111.702 354.312 112.188 354.799 112.533C355.292 112.879 355.869 113.052 356.532 113.052C356.968 113.052 357.363 112.976 357.718 112.824C358.074 112.673 358.374 112.455 358.62 112.171C358.867 111.887 359.042 111.546 359.146 111.148H360.822C360.727 111.792 360.493 112.372 360.119 112.888C359.75 113.4 359.26 113.807 358.649 114.11C358.043 114.408 357.337 114.557 356.532 114.557ZM367.704 114.557C366.719 114.557 365.855 114.323 365.112 113.854C364.373 113.385 363.796 112.73 363.379 111.887C362.967 111.044 362.761 110.059 362.761 108.932C362.761 107.796 362.967 106.804 363.379 105.956C363.796 105.109 364.373 104.451 365.112 103.982C365.855 103.513 366.719 103.279 367.704 103.279C368.689 103.279 369.551 103.513 370.289 103.982C371.033 104.451 371.61 105.109 372.022 105.956C372.439 106.804 372.647 107.796 372.647 108.932C372.647 110.059 372.439 111.044 372.022 111.887C371.61 112.73 371.033 113.385 370.289 113.854C369.551 114.323 368.689 114.557 367.704 114.557ZM367.704 113.052C368.452 113.052 369.068 112.86 369.551 112.476C370.034 112.093 370.391 111.589 370.623 110.964C370.855 110.339 370.971 109.662 370.971 108.932C370.971 108.203 370.855 107.524 370.623 106.894C370.391 106.264 370.034 105.755 369.551 105.367C369.068 104.979 368.452 104.785 367.704 104.785C366.956 104.785 366.341 104.979 365.858 105.367C365.375 105.755 365.017 106.264 364.785 106.894C364.553 107.524 364.437 108.203 364.437 108.932C364.437 109.662 364.553 110.339 364.785 110.964C365.017 111.589 365.375 112.093 365.858 112.476C366.341 112.86 366.956 113.052 367.704 113.052ZM376.882 107.768V114.33H375.206V103.421H376.825V105.126H376.967C377.223 104.572 377.611 104.126 378.132 103.79C378.653 103.449 379.325 103.279 380.149 103.279C380.888 103.279 381.534 103.43 382.088 103.733C382.642 104.032 383.073 104.486 383.381 105.097C383.688 105.703 383.842 106.47 383.842 107.398V114.33H382.166V107.512C382.166 106.655 381.944 105.987 381.499 105.509C381.054 105.026 380.443 104.785 379.666 104.785C379.131 104.785 378.653 104.901 378.232 105.133C377.815 105.365 377.486 105.703 377.244 106.148C377.003 106.593 376.882 107.133 376.882 107.768ZM391.337 114.557C390.314 114.557 389.434 114.316 388.695 113.833C387.956 113.35 387.388 112.685 386.99 111.837C386.593 110.99 386.394 110.021 386.394 108.932C386.394 107.824 386.597 106.847 387.005 105.999C387.417 105.147 387.989 104.482 388.723 104.003C389.462 103.52 390.324 103.279 391.309 103.279C392.076 103.279 392.767 103.421 393.382 103.705C393.998 103.989 394.502 104.387 394.895 104.898C395.288 105.41 395.532 106.006 395.627 106.688H393.951C393.823 106.191 393.539 105.751 393.098 105.367C392.663 104.979 392.076 104.785 391.337 104.785C390.684 104.785 390.111 104.955 389.618 105.296C389.131 105.632 388.749 106.108 388.475 106.724C388.205 107.334 388.07 108.052 388.07 108.876C388.07 109.718 388.203 110.452 388.468 111.077C388.738 111.702 389.116 112.188 389.604 112.533C390.096 112.879 390.674 113.052 391.337 113.052C391.773 113.052 392.168 112.976 392.523 112.824C392.878 112.673 393.179 112.455 393.425 112.171C393.671 111.887 393.846 111.546 393.951 111.148H395.627C395.532 111.792 395.298 112.372 394.924 112.888C394.554 113.4 394.064 113.807 393.453 114.11C392.847 114.408 392.142 114.557 391.337 114.557ZM402.651 114.557C401.6 114.557 400.693 114.325 399.931 113.861C399.173 113.393 398.588 112.739 398.176 111.901C397.769 111.058 397.566 110.078 397.566 108.961C397.566 107.843 397.769 106.858 398.176 106.006C398.588 105.149 399.161 104.482 399.895 104.003C400.634 103.52 401.496 103.279 402.48 103.279C403.049 103.279 403.61 103.374 404.164 103.563C404.718 103.752 405.222 104.06 405.676 104.486C406.131 104.908 406.493 105.466 406.763 106.162C407.033 106.858 407.168 107.715 407.168 108.733V109.444H398.759V107.995H405.463C405.463 107.379 405.34 106.83 405.094 106.347C404.853 105.864 404.507 105.483 404.057 105.204C403.612 104.924 403.087 104.785 402.48 104.785C401.813 104.785 401.235 104.95 400.748 105.282C400.265 105.608 399.893 106.035 399.632 106.56C399.372 107.086 399.242 107.649 399.242 108.251V109.216C399.242 110.04 399.384 110.739 399.668 111.312C399.957 111.88 400.357 112.313 400.868 112.611C401.38 112.905 401.974 113.052 402.651 113.052C403.091 113.052 403.489 112.99 403.844 112.867C404.204 112.739 404.514 112.55 404.775 112.299C405.035 112.043 405.236 111.726 405.378 111.347L406.998 111.802C406.827 112.351 406.541 112.834 406.138 113.251C405.736 113.662 405.239 113.984 404.647 114.216C404.055 114.444 403.39 114.557 402.651 114.557ZM409.718 114.33V103.421H411.337V105.069H411.451C411.65 104.529 412.009 104.091 412.53 103.755C413.051 103.419 413.638 103.251 414.292 103.251C414.415 103.251 414.569 103.253 414.753 103.258C414.938 103.262 415.078 103.269 415.172 103.279V104.983C415.115 104.969 414.985 104.948 414.782 104.92C414.583 104.886 414.372 104.87 414.15 104.87C413.619 104.87 413.146 104.981 412.729 105.204C412.317 105.421 411.99 105.724 411.749 106.113C411.512 106.496 411.394 106.934 411.394 107.427V114.33H409.718ZM418.835 107.768V114.33H417.159V103.421H418.778V105.126H418.92C419.176 104.572 419.564 104.126 420.085 103.79C420.606 103.449 421.278 103.279 422.102 103.279C422.841 103.279 423.487 103.43 424.041 103.733C424.595 104.032 425.026 104.486 425.334 105.097C425.642 105.703 425.795 106.47 425.795 107.398V114.33H424.119V107.512C424.119 106.655 423.897 105.987 423.452 105.509C423.007 105.026 422.396 104.785 421.619 104.785C421.084 104.785 420.606 104.901 420.185 105.133C419.768 105.365 419.439 105.703 419.197 106.148C418.956 106.593 418.835 107.133 418.835 107.768ZM436.586 105.864L435.08 106.29C434.985 106.039 434.846 105.796 434.661 105.559C434.481 105.317 434.235 105.118 433.922 104.962C433.61 104.806 433.21 104.728 432.722 104.728C432.054 104.728 431.498 104.882 431.053 105.189C430.613 105.492 430.392 105.878 430.392 106.347C430.392 106.764 430.544 107.093 430.847 107.334C431.15 107.576 431.623 107.777 432.267 107.938L433.887 108.336C434.862 108.573 435.589 108.935 436.067 109.422C436.545 109.905 436.784 110.528 436.784 111.29C436.784 111.915 436.605 112.474 436.245 112.966C435.89 113.459 435.392 113.847 434.753 114.131C434.114 114.415 433.371 114.557 432.523 114.557C431.41 114.557 430.489 114.316 429.76 113.833C429.031 113.35 428.569 112.644 428.375 111.716L429.966 111.319C430.118 111.906 430.404 112.346 430.826 112.64C431.252 112.933 431.808 113.08 432.495 113.08C433.276 113.08 433.896 112.914 434.355 112.583C434.819 112.247 435.051 111.844 435.051 111.376C435.051 110.997 434.919 110.68 434.654 110.424C434.389 110.163 433.981 109.969 433.432 109.841L431.614 109.415C430.615 109.179 429.881 108.812 429.412 108.314C428.948 107.813 428.716 107.185 428.716 106.432C428.716 105.817 428.889 105.272 429.235 104.799C429.585 104.325 430.061 103.954 430.662 103.684C431.268 103.414 431.955 103.279 432.722 103.279C433.801 103.279 434.649 103.516 435.265 103.989C435.885 104.463 436.325 105.088 436.586 105.864ZM440.529 114.444C440.179 114.444 439.878 114.318 439.627 114.067C439.376 113.816 439.251 113.516 439.251 113.165C439.251 112.815 439.376 112.514 439.627 112.263C439.878 112.012 440.179 111.887 440.529 111.887C440.879 111.887 441.18 112.012 441.431 112.263C441.682 112.514 441.808 112.815 441.808 113.165C441.808 113.397 441.748 113.61 441.63 113.805C441.516 113.999 441.362 114.155 441.168 114.273C440.979 114.387 440.766 114.444 440.529 114.444Z" fill="black"/>
</svg>
