<svg width="495" height="151" viewBox="0 0 495 151" fill="none" xmlns="http://www.w3.org/2000/svg">
<path d="M10.2727 31.3301H2.02273V8.05735H10.3409C12.6818 8.05735 14.697 8.52326 16.3864 9.45508C18.0758 10.3793 19.375 11.7089 20.2841 13.4437C21.2008 15.1786 21.6591 17.2543 21.6591 19.671C21.6591 22.0952 21.2008 24.1786 20.2841 25.921C19.375 27.6634 18.0682 29.0005 16.3636 29.9324C14.6667 30.8642 12.6364 31.3301 10.2727 31.3301ZM6.94318 27.1142H10.0682C11.5227 27.1142 12.7462 26.8566 13.7386 26.3414C14.7386 25.8187 15.4886 25.0119 15.9886 23.921C16.4962 22.8225 16.75 21.4058 16.75 19.671C16.75 17.9513 16.4962 16.546 15.9886 15.4551C15.4886 14.3642 14.7424 13.5611 13.75 13.046C12.7576 12.5308 11.5341 12.2733 10.0795 12.2733H6.94318V27.1142ZM33.1676 31.671C31.3722 31.671 29.8267 31.3074 28.5312 30.5801C27.2434 29.8452 26.2509 28.8074 25.554 27.4664C24.857 26.118 24.5085 24.5233 24.5085 22.6824C24.5085 20.8869 24.857 19.3111 25.554 17.9551C26.2509 16.599 27.232 15.5422 28.4972 14.7846C29.7699 14.027 31.2623 13.6483 32.9744 13.6483C34.1259 13.6483 35.1979 13.8339 36.1903 14.2051C37.1903 14.5687 38.0616 15.118 38.804 15.8528C39.554 16.5877 40.1373 17.5119 40.554 18.6255C40.9706 19.7316 41.179 21.027 41.179 22.5119V23.8414H26.4403V20.8414H36.6222C36.6222 20.1445 36.4706 19.527 36.1676 18.9892C35.8646 18.4513 35.4441 18.0308 34.9062 17.7278C34.3759 17.4172 33.7585 17.2619 33.054 17.2619C32.3191 17.2619 31.6676 17.4324 31.0994 17.7733C30.5388 18.1066 30.0994 18.5574 29.7812 19.1255C29.4631 19.6861 29.3002 20.3111 29.2926 21.0005V23.8528C29.2926 24.7164 29.4517 25.4627 29.7699 26.0914C30.0956 26.7202 30.554 27.2051 31.1449 27.546C31.7358 27.8869 32.4366 28.0574 33.2472 28.0574C33.785 28.0574 34.2775 27.9816 34.7244 27.8301C35.1714 27.6786 35.554 27.4513 35.8722 27.1483C36.1903 26.8452 36.4328 26.474 36.5994 26.0346L41.0767 26.3301C40.8494 27.4058 40.3835 28.3452 39.679 29.1483C38.982 29.9437 38.0805 30.5649 36.9744 31.0119C35.8759 31.4513 34.607 31.671 33.1676 31.671ZM49.179 8.05735V31.3301H44.3381V8.05735H49.179ZM53.0568 31.3301V13.8755H57.8977V31.3301H53.0568ZM55.4886 11.6255C54.7689 11.6255 54.1515 11.3869 53.6364 10.9096C53.1288 10.4248 52.875 9.84523 52.875 9.17099C52.875 8.50432 53.1288 7.93235 53.6364 7.45508C54.1515 6.97023 54.7689 6.7278 55.4886 6.7278C56.2083 6.7278 56.822 6.97023 57.3295 7.45508C57.8447 7.93235 58.1023 8.50432 58.1023 9.17099C58.1023 9.84523 57.8447 10.4248 57.3295 10.9096C56.822 11.3869 56.2083 11.6255 55.4886 11.6255ZM78.0483 13.8755L71.946 31.3301H66.4915L60.3892 13.8755H65.5028L69.1278 26.3642H69.3097L72.9233 13.8755H78.0483ZM87.9176 31.671C86.1222 31.671 84.5767 31.3074 83.2812 30.5801C81.9934 29.8452 81.0009 28.8074 80.304 27.4664C79.607 26.118 79.2585 24.5233 79.2585 22.6824C79.2585 20.8869 79.607 19.3111 80.304 17.9551C81.0009 16.599 81.982 15.5422 83.2472 14.7846C84.5199 14.027 86.0123 13.6483 87.7244 13.6483C88.8759 13.6483 89.9479 13.8339 90.9403 14.2051C91.9403 14.5687 92.8116 15.118 93.554 15.8528C94.304 16.5877 94.8873 17.5119 95.304 18.6255C95.7206 19.7316 95.929 21.027 95.929 22.5119V23.8414H81.1903V20.8414H91.3722C91.3722 20.1445 91.2206 19.527 90.9176 18.9892C90.6146 18.4513 90.1941 18.0308 89.6562 17.7278C89.1259 17.4172 88.5085 17.2619 87.804 17.2619C87.0691 17.2619 86.4176 17.4324 85.8494 17.7733C85.2888 18.1066 84.8494 18.5574 84.5312 19.1255C84.2131 19.6861 84.0502 20.3111 84.0426 21.0005V23.8528C84.0426 24.7164 84.2017 25.4627 84.5199 26.0914C84.8456 26.7202 85.304 27.2051 85.8949 27.546C86.4858 27.8869 87.1866 28.0574 87.9972 28.0574C88.535 28.0574 89.0275 27.9816 89.4744 27.8301C89.9214 27.6786 90.304 27.4513 90.6222 27.1483C90.9403 26.8452 91.1828 26.474 91.3494 26.0346L95.8267 26.3301C95.5994 27.4058 95.1335 28.3452 94.429 29.1483C93.732 29.9437 92.8305 30.5649 91.7244 31.0119C90.6259 31.4513 89.357 31.671 87.9176 31.671ZM99.0881 31.3301V13.8755H103.781V16.921H103.963C104.281 15.8377 104.815 15.0195 105.565 14.4664C106.315 13.9058 107.179 13.6255 108.156 13.6255C108.399 13.6255 108.66 13.6407 108.94 13.671C109.221 13.7013 109.467 13.743 109.679 13.796V18.0914C109.452 18.0233 109.137 17.9627 108.736 17.9096C108.334 17.8566 107.967 17.8301 107.634 17.8301C106.921 17.8301 106.285 17.9854 105.724 18.296C105.171 18.599 104.732 19.0233 104.406 19.5687C104.088 20.1142 103.929 20.743 103.929 21.4551V31.3301H99.0881ZM119.324 31.671C117.528 31.671 115.983 31.3074 114.688 30.5801C113.4 29.8452 112.407 28.8074 111.71 27.4664C111.013 26.118 110.665 24.5233 110.665 22.6824C110.665 20.8869 111.013 19.3111 111.71 17.9551C112.407 16.599 113.388 15.5422 114.653 14.7846C115.926 14.027 117.419 13.6483 119.131 13.6483C120.282 13.6483 121.354 13.8339 122.347 14.2051C123.347 14.5687 124.218 15.118 124.96 15.8528C125.71 16.5877 126.294 17.5119 126.71 18.6255C127.127 19.7316 127.335 21.027 127.335 22.5119V23.8414H112.597V20.8414H122.778C122.778 20.1445 122.627 19.527 122.324 18.9892C122.021 18.4513 121.6 18.0308 121.062 17.7278C120.532 17.4172 119.915 17.2619 119.21 17.2619C118.475 17.2619 117.824 17.4324 117.256 17.7733C116.695 18.1066 116.256 18.5574 115.938 19.1255C115.619 19.6861 115.456 20.3111 115.449 21.0005V23.8528C115.449 24.7164 115.608 25.4627 115.926 26.0914C116.252 26.7202 116.71 27.2051 117.301 27.546C117.892 27.8869 118.593 28.0574 119.403 28.0574C119.941 28.0574 120.434 27.9816 120.881 27.8301C121.328 27.6786 121.71 27.4513 122.028 27.1483C122.347 26.8452 122.589 26.474 122.756 26.0346L127.233 26.3301C127.006 27.4058 126.54 28.3452 125.835 29.1483C125.138 29.9437 124.237 30.5649 123.131 31.0119C122.032 31.4513 120.763 31.671 119.324 31.671ZM136.926 31.6142C135.6 31.6142 134.4 31.2733 133.324 30.5914C132.256 29.902 131.407 28.8907 130.778 27.5574C130.157 26.2164 129.847 24.5725 129.847 22.6255C129.847 20.6255 130.169 18.9627 130.812 17.6369C131.456 16.3036 132.313 15.3074 133.381 14.6483C134.456 13.9816 135.634 13.6483 136.915 13.6483C137.892 13.6483 138.706 13.8149 139.358 14.1483C140.017 14.474 140.547 14.8831 140.949 15.3755C141.358 15.8604 141.669 16.3377 141.881 16.8074H142.028V8.05735H146.858V31.3301H142.085V28.5346H141.881C141.653 29.0195 141.331 29.5005 140.915 29.9778C140.506 30.4475 139.972 30.8377 139.312 31.1483C138.661 31.4589 137.866 31.6142 136.926 31.6142ZM138.46 27.7619C139.241 27.7619 139.9 27.5498 140.438 27.1255C140.983 26.6937 141.4 26.0914 141.688 25.3187C141.983 24.546 142.131 23.6407 142.131 22.6028C142.131 21.5649 141.987 20.6634 141.699 19.8983C141.411 19.1331 140.994 18.5422 140.449 18.1255C139.903 17.7089 139.241 17.5005 138.46 17.5005C137.665 17.5005 136.994 17.7164 136.449 18.1483C135.903 18.5801 135.491 19.1786 135.21 19.9437C134.93 20.7089 134.79 21.5952 134.79 22.6028C134.79 23.618 134.93 24.5157 135.21 25.296C135.498 26.0687 135.911 26.6748 136.449 27.1142C136.994 27.546 137.665 27.7619 138.46 27.7619ZM167.528 13.8755V17.5119H157.017V13.8755H167.528ZM159.403 9.69371H164.244V25.9664C164.244 26.4134 164.313 26.7619 164.449 27.0119C164.585 27.2543 164.775 27.4248 165.017 27.5233C165.267 27.6217 165.555 27.671 165.881 27.671C166.108 27.671 166.335 27.652 166.562 27.6142C166.79 27.5687 166.964 27.5346 167.085 27.5119L167.847 31.1142C167.604 31.1899 167.263 31.277 166.824 31.3755C166.384 31.4816 165.85 31.546 165.222 31.5687C164.055 31.6142 163.032 31.4589 162.153 31.1028C161.282 30.7467 160.604 30.1937 160.119 29.4437C159.634 28.6937 159.396 27.7467 159.403 26.6028V9.69371ZM178.381 31.671C176.616 31.671 175.089 31.296 173.801 30.546C172.521 29.7884 171.532 28.7354 170.835 27.3869C170.138 26.0308 169.79 24.4589 169.79 22.671C169.79 20.868 170.138 19.2922 170.835 17.9437C171.532 16.5877 172.521 15.5346 173.801 14.7846C175.089 14.027 176.616 13.6483 178.381 13.6483C180.146 13.6483 181.669 14.027 182.949 14.7846C184.237 15.5346 185.229 16.5877 185.926 17.9437C186.623 19.2922 186.972 20.868 186.972 22.671C186.972 24.4589 186.623 26.0308 185.926 27.3869C185.229 28.7354 184.237 29.7884 182.949 30.546C181.669 31.296 180.146 31.671 178.381 31.671ZM178.403 27.921C179.206 27.921 179.877 27.6937 180.415 27.2392C180.953 26.777 181.358 26.1483 181.631 25.3528C181.911 24.5574 182.051 23.652 182.051 22.6369C182.051 21.6217 181.911 20.7164 181.631 19.921C181.358 19.1255 180.953 18.4967 180.415 18.0346C179.877 17.5725 179.206 17.3414 178.403 17.3414C177.593 17.3414 176.911 17.5725 176.358 18.0346C175.813 18.4967 175.4 19.1255 175.119 19.921C174.847 20.7164 174.71 21.6217 174.71 22.6369C174.71 23.652 174.847 24.5574 175.119 25.3528C175.4 26.1483 175.813 26.777 176.358 27.2392C176.911 27.6937 177.593 27.921 178.403 27.921ZM196.253 8.05735H201.764L207.071 18.0801H207.298L212.605 8.05735H218.116L209.628 23.1028V31.3301H204.741V23.1028L196.253 8.05735ZM224.943 31.671C223.178 31.671 221.652 31.296 220.364 30.546C219.083 29.7884 218.095 28.7354 217.398 27.3869C216.701 26.0308 216.352 24.4589 216.352 22.671C216.352 20.868 216.701 19.2922 217.398 17.9437C218.095 16.5877 219.083 15.5346 220.364 14.7846C221.652 14.027 223.178 13.6483 224.943 13.6483C226.708 13.6483 228.231 14.027 229.511 14.7846C230.799 15.5346 231.792 16.5877 232.489 17.9437C233.186 19.2922 233.534 20.868 233.534 22.671C233.534 24.4589 233.186 26.0308 232.489 27.3869C231.792 28.7354 230.799 29.7884 229.511 30.546C228.231 31.296 226.708 31.671 224.943 31.671ZM224.966 27.921C225.769 27.921 226.439 27.6937 226.977 27.2392C227.515 26.777 227.92 26.1483 228.193 25.3528C228.473 24.5574 228.614 23.652 228.614 22.6369C228.614 21.6217 228.473 20.7164 228.193 19.921C227.92 19.1255 227.515 18.4967 226.977 18.0346C226.439 17.5725 225.769 17.3414 224.966 17.3414C224.155 17.3414 223.473 17.5725 222.92 18.0346C222.375 18.4967 221.962 19.1255 221.682 19.921C221.409 20.7164 221.273 21.6217 221.273 22.6369C221.273 23.652 221.409 24.5574 221.682 25.3528C221.962 26.1483 222.375 26.777 222.92 27.2392C223.473 27.6937 224.155 27.921 224.966 27.921ZM247.875 23.8983V13.8755H252.716V31.3301H248.068V28.1596H247.886C247.492 29.1824 246.837 30.0043 245.92 30.6255C245.011 31.2467 243.902 31.5574 242.591 31.5574C241.424 31.5574 240.398 31.2922 239.511 30.7619C238.625 30.2316 237.932 29.4778 237.432 28.5005C236.939 27.5233 236.689 26.3528 236.682 24.9892V13.8755H241.523V24.1255C241.53 25.1558 241.807 25.9702 242.352 26.5687C242.898 27.1672 243.629 27.4664 244.545 27.4664C245.129 27.4664 245.674 27.3339 246.182 27.0687C246.689 26.796 247.098 26.3945 247.409 25.8642C247.727 25.3339 247.883 24.6786 247.875 23.8983ZM256.588 31.3301V13.8755H261.281V16.921H261.463C261.781 15.8377 262.315 15.0195 263.065 14.4664C263.815 13.9058 264.679 13.6255 265.656 13.6255C265.899 13.6255 266.16 13.6407 266.44 13.671C266.721 13.7013 266.967 13.743 267.179 13.796V18.0914C266.952 18.0233 266.637 17.9627 266.236 17.9096C265.834 17.8566 265.467 17.8301 265.134 17.8301C264.421 17.8301 263.785 17.9854 263.224 18.296C262.671 18.599 262.232 19.0233 261.906 19.5687C261.588 20.1142 261.429 20.743 261.429 21.4551V31.3301H256.588ZM285.429 31.3301H277.179V8.05735H285.497C287.838 8.05735 289.853 8.52326 291.543 9.45508C293.232 10.3793 294.531 11.7089 295.44 13.4437C296.357 15.1786 296.815 17.2543 296.815 19.671C296.815 22.0952 296.357 24.1786 295.44 25.921C294.531 27.6634 293.224 29.0005 291.52 29.9324C289.823 30.8642 287.793 31.3301 285.429 31.3301ZM282.099 27.1142H285.224C286.679 27.1142 287.902 26.8566 288.895 26.3414C289.895 25.8187 290.645 25.0119 291.145 23.921C291.652 22.8225 291.906 21.4058 291.906 19.671C291.906 17.9513 291.652 16.546 291.145 15.4551C290.645 14.3642 289.899 13.5611 288.906 13.046C287.914 12.5308 286.69 12.2733 285.236 12.2733H282.099V27.1142ZM308.256 31.671C306.491 31.671 304.964 31.296 303.676 30.546C302.396 29.7884 301.407 28.7354 300.71 27.3869C300.013 26.0308 299.665 24.4589 299.665 22.671C299.665 20.868 300.013 19.2922 300.71 17.9437C301.407 16.5877 302.396 15.5346 303.676 14.7846C304.964 14.027 306.491 13.6483 308.256 13.6483C310.021 13.6483 311.544 14.027 312.824 14.7846C314.112 15.5346 315.104 16.5877 315.801 17.9437C316.498 19.2922 316.847 20.868 316.847 22.671C316.847 24.4589 316.498 26.0308 315.801 27.3869C315.104 28.7354 314.112 29.7884 312.824 30.546C311.544 31.296 310.021 31.671 308.256 31.671ZM308.278 27.921C309.081 27.921 309.752 27.6937 310.29 27.2392C310.828 26.777 311.233 26.1483 311.506 25.3528C311.786 24.5574 311.926 23.652 311.926 22.6369C311.926 21.6217 311.786 20.7164 311.506 19.921C311.233 19.1255 310.828 18.4967 310.29 18.0346C309.752 17.5725 309.081 17.3414 308.278 17.3414C307.468 17.3414 306.786 17.5725 306.233 18.0346C305.688 18.4967 305.275 19.1255 304.994 19.921C304.722 20.7164 304.585 21.6217 304.585 22.6369C304.585 23.652 304.722 24.5574 304.994 25.3528C305.275 26.1483 305.688 26.777 306.233 27.2392C306.786 27.6937 307.468 27.921 308.278 27.921ZM327.881 31.671C326.116 31.671 324.589 31.296 323.301 30.546C322.021 29.7884 321.032 28.7354 320.335 27.3869C319.638 26.0308 319.29 24.4589 319.29 22.671C319.29 20.868 319.638 19.2922 320.335 17.9437C321.032 16.5877 322.021 15.5346 323.301 14.7846C324.589 14.027 326.116 13.6483 327.881 13.6483C329.646 13.6483 331.169 14.027 332.449 14.7846C333.737 15.5346 334.729 16.5877 335.426 17.9437C336.123 19.2922 336.472 20.868 336.472 22.671C336.472 24.4589 336.123 26.0308 335.426 27.3869C334.729 28.7354 333.737 29.7884 332.449 30.546C331.169 31.296 329.646 31.671 327.881 31.671ZM327.903 27.921C328.706 27.921 329.377 27.6937 329.915 27.2392C330.453 26.777 330.858 26.1483 331.131 25.3528C331.411 24.5574 331.551 23.652 331.551 22.6369C331.551 21.6217 331.411 20.7164 331.131 19.921C330.858 19.1255 330.453 18.4967 329.915 18.0346C329.377 17.5725 328.706 17.3414 327.903 17.3414C327.093 17.3414 326.411 17.5725 325.858 18.0346C325.313 18.4967 324.9 19.1255 324.619 19.921C324.347 20.7164 324.21 21.6217 324.21 22.6369C324.21 23.652 324.347 24.5574 324.619 25.3528C324.9 26.1483 325.313 26.777 325.858 27.2392C326.411 27.6937 327.093 27.921 327.903 27.921ZM339.619 31.3301V13.8755H344.312V16.921H344.494C344.813 15.8377 345.347 15.0195 346.097 14.4664C346.847 13.9058 347.71 13.6255 348.688 13.6255C348.93 13.6255 349.191 13.6407 349.472 13.671C349.752 13.7013 349.998 13.743 350.21 13.796V18.0914C349.983 18.0233 349.669 17.9627 349.267 17.9096C348.866 17.8566 348.498 17.8301 348.165 17.8301C347.453 17.8301 346.816 17.9854 346.256 18.296C345.703 18.599 345.263 19.0233 344.938 19.5687C344.619 20.1142 344.46 20.743 344.46 21.4551V31.3301H339.619ZM372.835 14.7505C372.744 13.8339 372.354 13.1217 371.665 12.6142C370.975 12.1066 370.04 11.8528 368.858 11.8528C368.055 11.8528 367.377 11.9664 366.824 12.1937C366.271 12.4134 365.847 12.7202 365.551 13.1142C365.263 13.5081 365.119 13.9551 365.119 14.4551C365.104 14.8717 365.191 15.2354 365.381 15.546C365.578 15.8566 365.847 16.1255 366.188 16.3528C366.528 16.5725 366.922 16.7657 367.369 16.9324C367.816 17.0914 368.294 17.2278 368.801 17.3414L370.892 17.8414C371.907 18.0687 372.839 18.3717 373.688 18.7505C374.536 19.1293 375.271 19.5952 375.892 20.1483C376.513 20.7013 376.994 21.3528 377.335 22.1028C377.684 22.8528 377.862 23.7127 377.869 24.6824C377.862 26.1066 377.498 27.3414 376.778 28.3869C376.066 29.4248 375.036 30.2316 373.688 30.8074C372.347 31.3755 370.729 31.6596 368.835 31.6596C366.956 31.6596 365.32 31.3717 363.926 30.796C362.54 30.2202 361.456 29.368 360.676 28.2392C359.903 27.1028 359.498 25.6975 359.46 24.0233H364.222C364.275 24.8036 364.498 25.4551 364.892 25.9778C365.294 26.493 365.828 26.8831 366.494 27.1483C367.169 27.4058 367.93 27.5346 368.778 27.5346C369.612 27.5346 370.335 27.4134 370.949 27.171C371.57 26.9286 372.051 26.5914 372.392 26.1596C372.733 25.7278 372.903 25.2316 372.903 24.671C372.903 24.1483 372.748 23.7089 372.438 23.3528C372.134 22.9967 371.688 22.6937 371.097 22.4437C370.513 22.1937 369.797 21.9664 368.949 21.7619L366.415 21.1255C364.453 20.6483 362.903 19.902 361.767 18.8869C360.631 17.8717 360.066 16.5043 360.074 14.7846C360.066 13.3755 360.441 12.1445 361.199 11.0914C361.964 10.0384 363.013 9.21644 364.347 8.62553C365.68 8.03462 367.195 7.73917 368.892 7.73917C370.619 7.73917 372.127 8.03462 373.415 8.62553C374.71 9.21644 375.718 10.0384 376.438 11.0914C377.157 12.1445 377.528 13.3642 377.551 14.7505H372.835ZM390.372 13.8755V17.5119H379.861V13.8755H390.372ZM382.247 9.69371H387.088V25.9664C387.088 26.4134 387.156 26.7619 387.293 27.0119C387.429 27.2543 387.618 27.4248 387.861 27.5233C388.111 27.6217 388.399 27.671 388.724 27.671C388.952 27.671 389.179 27.652 389.406 27.6142C389.634 27.5687 389.808 27.5346 389.929 27.5119L390.69 31.1142C390.448 31.1899 390.107 31.277 389.668 31.3755C389.228 31.4816 388.694 31.546 388.065 31.5687C386.899 31.6142 385.876 31.4589 384.997 31.1028C384.126 30.7467 383.448 30.1937 382.963 29.4437C382.478 28.6937 382.24 27.7467 382.247 26.6028V9.69371ZM401.293 31.671C399.497 31.671 397.952 31.3074 396.656 30.5801C395.368 29.8452 394.376 28.8074 393.679 27.4664C392.982 26.118 392.634 24.5233 392.634 22.6824C392.634 20.8869 392.982 19.3111 393.679 17.9551C394.376 16.599 395.357 15.5422 396.622 14.7846C397.895 14.027 399.387 13.6483 401.099 13.6483C402.251 13.6483 403.323 13.8339 404.315 14.2051C405.315 14.5687 406.187 15.118 406.929 15.8528C407.679 16.5877 408.262 17.5119 408.679 18.6255C409.096 19.7316 409.304 21.027 409.304 22.5119V23.8414H394.565V20.8414H404.747C404.747 20.1445 404.596 19.527 404.293 18.9892C403.99 18.4513 403.569 18.0308 403.031 17.7278C402.501 17.4172 401.884 17.2619 401.179 17.2619C400.444 17.2619 399.793 17.4324 399.224 17.7733C398.664 18.1066 398.224 18.5574 397.906 19.1255C397.588 19.6861 397.425 20.3111 397.418 21.0005V23.8528C397.418 24.7164 397.577 25.4627 397.895 26.0914C398.221 26.7202 398.679 27.2051 399.27 27.546C399.861 27.8869 400.562 28.0574 401.372 28.0574C401.91 28.0574 402.402 27.9816 402.849 27.8301C403.296 27.6786 403.679 27.4513 403.997 27.1483C404.315 26.8452 404.558 26.474 404.724 26.0346L409.202 26.3301C408.974 27.4058 408.509 28.3452 407.804 29.1483C407.107 29.9437 406.205 30.5649 405.099 31.0119C404.001 31.4513 402.732 31.671 401.293 31.671ZM412.463 37.8755V13.8755H417.236V16.8074H417.452C417.664 16.3377 417.971 15.8604 418.372 15.3755C418.781 14.8831 419.312 14.474 419.963 14.1483C420.622 13.8149 421.44 13.6483 422.418 13.6483C423.69 13.6483 424.865 13.9816 425.94 14.6483C427.016 15.3074 427.876 16.3036 428.52 17.6369C429.164 18.9627 429.486 20.6255 429.486 22.6255C429.486 24.5725 429.171 26.2164 428.543 27.5574C427.921 28.8907 427.073 29.902 425.997 30.5914C424.929 31.2733 423.732 31.6142 422.406 31.6142C421.467 31.6142 420.668 31.4589 420.009 31.1483C419.357 30.8377 418.823 30.4475 418.406 29.9778C417.99 29.5005 417.671 29.0195 417.452 28.5346H417.304V37.8755H412.463ZM417.202 22.6028C417.202 23.6407 417.346 24.546 417.634 25.3187C417.921 26.0914 418.338 26.6937 418.884 27.1255C419.429 27.5498 420.092 27.7619 420.872 27.7619C421.66 27.7619 422.327 27.546 422.872 27.1142C423.418 26.6748 423.83 26.0687 424.111 25.296C424.399 24.5157 424.543 23.618 424.543 22.6028C424.543 21.5952 424.402 20.7089 424.122 19.9437C423.842 19.1786 423.429 18.5801 422.884 18.1483C422.338 17.7164 421.668 17.5005 420.872 17.5005C420.084 17.5005 419.418 17.7089 418.872 18.1255C418.334 18.5422 417.921 19.1331 417.634 19.8983C417.346 20.6634 417.202 21.5649 417.202 22.6028Z" fill="#2C2A2A"/>
<path d="M14.0341 78.0574C14.0341 79.5914 13.7571 80.9172 13.2031 82.0346C12.6491 83.152 11.8892 84.0138 10.9233 84.6199C9.95739 85.2259 8.85417 85.5289 7.61364 85.5289C6.37311 85.5289 5.26989 85.2259 4.30398 84.6199C3.33807 84.0138 2.57813 83.152 2.02415 82.0346C1.47017 80.9172 1.19318 79.5914 1.19318 78.0574C1.19318 76.5233 1.47017 75.1975 2.02415 74.0801C2.57813 72.9627 3.33807 72.1009 4.30398 71.4949C5.26989 70.8888 6.37311 70.5858 7.61364 70.5858C8.85417 70.5858 9.95739 70.8888 10.9233 71.4949C11.8892 72.1009 12.6491 72.9627 13.2031 74.0801C13.7571 75.1975 14.0341 76.5233 14.0341 78.0574ZM12.3295 78.0574C12.3295 76.7979 12.1188 75.7349 11.6974 74.8684C11.2808 74.002 10.715 73.3462 10 72.9011C9.28977 72.456 8.49432 72.2335 7.61364 72.2335C6.73295 72.2335 5.93513 72.456 5.22017 72.9011C4.50994 73.3462 3.94413 74.002 3.52273 74.8684C3.10606 75.7349 2.89773 76.7979 2.89773 78.0574C2.89773 79.3168 3.10606 80.3798 3.52273 81.2463C3.94413 82.1127 4.50994 82.7685 5.22017 83.2136C5.93513 83.6587 6.73295 83.8812 7.61364 83.8812C8.49432 83.8812 9.28977 83.6587 10 83.2136C10.715 82.7685 11.2808 82.1127 11.6974 81.2463C12.1188 80.3798 12.3295 79.3168 12.3295 78.0574ZM23.6435 80.8699V74.421H25.3196V85.3301H23.6435V83.4835H23.5298C23.2741 84.0375 22.8764 84.5086 22.3366 84.8968C21.7969 85.2804 21.1151 85.4721 20.2912 85.4721C19.6094 85.4721 19.0033 85.323 18.473 85.0247C17.9427 84.7217 17.526 84.2671 17.223 83.661C16.92 83.0502 16.7685 82.2808 16.7685 81.3528V74.421H18.4446V81.2392C18.4446 82.0346 18.6671 82.6691 19.1122 83.1426C19.562 83.6161 20.1349 83.8528 20.831 83.8528C21.2476 83.8528 21.6714 83.7463 22.1023 83.5332C22.5379 83.3201 22.9025 82.9934 23.196 82.5531C23.4943 82.1127 23.6435 81.5517 23.6435 80.8699ZM28.3896 85.3301V74.421H30.0089V76.0687H30.1225C30.3214 75.5289 30.6812 75.091 31.2021 74.7548C31.7229 74.4186 32.31 74.2505 32.9634 74.2505C33.0865 74.2505 33.2404 74.2529 33.4251 74.2576C33.6097 74.2624 33.7494 74.2695 33.8441 74.2789V75.9835C33.7873 75.9693 33.6571 75.948 33.4535 75.9196C33.2546 75.8864 33.0439 75.8699 32.8214 75.8699C32.2911 75.8699 31.8176 75.9811 31.4009 76.2037C30.989 76.4215 30.6623 76.7245 30.4208 77.1127C30.1841 77.4963 30.0657 77.9342 30.0657 78.4267V85.3301H28.3896ZM45.5753 85.5574C44.6662 85.5574 43.8636 85.3277 43.1676 84.8684C42.4716 84.4044 41.9271 83.751 41.5341 82.9082C41.1411 82.0607 40.9446 81.0592 40.9446 79.9039C40.9446 78.7581 41.1411 77.7638 41.5341 76.921C41.9271 76.0782 42.474 75.4271 43.1747 74.9679C43.8755 74.5086 44.6851 74.2789 45.6037 74.2789C46.3139 74.2789 46.875 74.3973 47.2869 74.6341C47.7036 74.8661 48.0208 75.1312 48.2386 75.4295C48.4612 75.7231 48.634 75.9645 48.7571 76.1539H48.8991V70.7846H50.5753V85.3301H48.956V83.6539H48.7571C48.634 83.8528 48.4588 84.1038 48.2315 84.4068C48.0043 84.7051 47.6799 84.9726 47.2585 85.2093C46.8371 85.4413 46.276 85.5574 45.5753 85.5574ZM45.8026 84.0517C46.4749 84.0517 47.0431 83.8765 47.5071 83.5261C47.9711 83.171 48.3239 82.6809 48.5653 82.0559C48.8068 81.4262 48.9276 80.6994 48.9276 79.8755C48.9276 79.0611 48.8092 78.3485 48.5724 77.7377C48.3357 77.1222 47.9853 76.644 47.5213 76.3031C47.0573 75.9574 46.4844 75.7846 45.8026 75.7846C45.0923 75.7846 44.5005 75.9669 44.027 76.3315C43.5582 76.6913 43.2055 77.1814 42.9688 77.8017C42.7367 78.4172 42.6207 79.1085 42.6207 79.8755C42.6207 80.652 42.7391 81.3575 42.9759 81.992C43.2173 82.6217 43.5724 83.1236 44.0412 83.4977C44.5147 83.867 45.1018 84.0517 45.8026 84.0517ZM53.8778 85.3301V74.421H55.4972V76.0687H55.6108C55.8097 75.5289 56.1695 75.091 56.6903 74.7548C57.2112 74.4186 57.7983 74.2505 58.4517 74.2505C58.5748 74.2505 58.7287 74.2529 58.9134 74.2576C59.098 74.2624 59.2377 74.2695 59.3324 74.2789V75.9835C59.2756 75.9693 59.1454 75.948 58.9418 75.9196C58.7429 75.8864 58.5322 75.8699 58.3097 75.8699C57.7794 75.8699 57.3059 75.9811 56.8892 76.2037C56.4773 76.4215 56.1506 76.7245 55.9091 77.1127C55.6723 77.4963 55.554 77.9342 55.554 78.4267V85.3301H53.8778ZM61.3192 85.3301V74.421H62.9954V85.3301H61.3192ZM62.1715 72.6028C61.8448 72.6028 61.5631 72.4915 61.3263 72.269C61.0943 72.0465 60.9783 71.7789 60.9783 71.4664C60.9783 71.1539 61.0943 70.8864 61.3263 70.6639C61.5631 70.4413 61.8448 70.3301 62.1715 70.3301C62.4982 70.3301 62.7776 70.4413 63.0096 70.6639C63.2463 70.8864 63.3647 71.1539 63.3647 71.4664C63.3647 71.7789 63.2463 72.0465 63.0096 72.269C62.7776 72.4915 62.4982 72.6028 62.1715 72.6028ZM74.9858 74.421L70.9517 85.3301H69.2472L65.2131 74.421H67.0312L70.0426 83.1142H70.1562L73.1676 74.421H74.9858ZM81.3814 85.5574C80.3303 85.5574 79.4235 85.3253 78.6612 84.8613C77.9036 84.3926 77.3189 83.7392 76.907 82.9011C76.4998 82.0583 76.2962 81.0782 76.2962 79.9608C76.2962 78.8433 76.4998 77.8585 76.907 77.0062C77.3189 76.1492 77.8918 75.4816 78.6257 75.0034C79.3643 74.5204 80.2261 74.2789 81.2109 74.2789C81.7791 74.2789 82.3402 74.3736 82.8942 74.563C83.4482 74.7524 83.9524 75.0602 84.407 75.4863C84.8615 75.9077 85.2237 76.4664 85.4936 77.1625C85.7635 77.8585 85.8984 78.7155 85.8984 79.7335V80.4437H77.4893V78.9949H84.1939C84.1939 78.3793 84.0708 77.8301 83.8246 77.3471C83.5831 76.8642 83.2375 76.483 82.7876 76.2037C82.3426 75.9243 81.817 75.7846 81.2109 75.7846C80.5433 75.7846 79.9657 75.9503 79.478 76.2818C78.995 76.6085 78.6233 77.0346 78.3629 77.5602C78.1025 78.0858 77.9723 78.6492 77.9723 79.2505V80.2164C77.9723 81.0403 78.1143 81.7387 78.3984 82.3116C78.6873 82.8798 79.0874 83.313 79.5987 83.6113C80.1101 83.9049 80.7043 84.0517 81.3814 84.0517C81.8217 84.0517 82.2195 83.9901 82.5746 83.867C82.9344 83.7392 83.2446 83.5498 83.505 83.2988C83.7654 83.0431 83.9666 82.7259 84.1087 82.3471L85.728 82.8017C85.5575 83.3509 85.2711 83.8339 84.8686 84.2505C84.4661 84.6625 83.969 84.9844 83.3771 85.2164C82.7853 85.4437 82.12 85.5574 81.3814 85.5574ZM88.4482 85.3301V74.421H90.0675V76.0687H90.1811C90.38 75.5289 90.7398 75.091 91.2607 74.7548C91.7815 74.4186 92.3686 74.2505 93.022 74.2505C93.1451 74.2505 93.299 74.2529 93.4837 74.2576C93.6683 74.2624 93.808 74.2695 93.9027 74.2789V75.9835C93.8459 75.9693 93.7157 75.948 93.5121 75.9196C93.3132 75.8864 93.1025 75.8699 92.88 75.8699C92.3497 75.8699 91.8762 75.9811 91.4595 76.2037C91.0476 76.4215 90.7209 76.7245 90.4794 77.1127C90.2427 77.4963 90.1243 77.9342 90.1243 78.4267V85.3301H88.4482ZM103.617 76.8642L102.111 77.2903C102.016 77.0394 101.877 76.7955 101.692 76.5588C101.512 76.3173 101.266 76.1184 100.953 75.9622C100.641 75.8059 100.241 75.7278 99.7532 75.7278C99.0856 75.7278 98.5292 75.8817 98.0842 76.1895C97.6438 76.4925 97.4237 76.8784 97.4237 77.3471C97.4237 77.7638 97.5752 78.0929 97.8782 78.3343C98.1812 78.5758 98.6547 78.777 99.2987 78.938L100.918 79.3358C101.893 79.5725 102.62 79.9347 103.098 80.4224C103.577 80.9054 103.816 81.528 103.816 82.2903C103.816 82.9153 103.636 83.474 103.276 83.9664C102.921 84.4589 102.424 84.8471 101.784 85.1312C101.145 85.4153 100.402 85.5574 99.5543 85.5574C98.4416 85.5574 97.5207 85.3159 96.7915 84.8329C96.0624 84.35 95.6007 83.6445 95.4066 82.7164L96.9975 82.3187C97.149 82.9058 97.4355 83.3462 97.8569 83.6397C98.283 83.9333 98.8394 84.0801 99.5259 84.0801C100.307 84.0801 100.927 83.9144 101.387 83.5829C101.851 83.2467 102.083 82.8443 102.083 82.3755C102.083 81.9967 101.95 81.6795 101.685 81.4238C101.42 81.1634 101.013 80.9693 100.463 80.8414L98.6452 80.4153C97.6462 80.1786 96.9123 79.8116 96.4435 79.3145C95.9795 78.8126 95.7475 78.1852 95.7475 77.4324C95.7475 76.8168 95.9203 76.2723 96.266 75.7988C96.6164 75.3253 97.0922 74.9537 97.6935 74.6838C98.2996 74.4139 98.9862 74.2789 99.7532 74.2789C100.833 74.2789 101.68 74.5157 102.296 74.9892C102.916 75.4627 103.356 76.0877 103.617 76.8642ZM116.396 85.5574C115.373 85.5574 114.492 85.3159 113.754 84.8329C113.015 84.35 112.447 83.6847 112.049 82.8372C111.651 81.9896 111.452 81.0214 111.452 79.9324C111.452 78.8244 111.656 77.8466 112.063 76.9991C112.475 76.1468 113.048 75.4816 113.782 75.0034C114.521 74.5204 115.382 74.2789 116.367 74.2789C117.134 74.2789 117.826 74.421 118.441 74.7051C119.057 74.9892 119.561 75.3869 119.954 75.8983C120.347 76.4096 120.591 77.0062 120.685 77.688H119.009C118.881 77.1909 118.597 76.7505 118.157 76.367C117.721 75.9788 117.134 75.7846 116.396 75.7846C115.742 75.7846 115.169 75.9551 114.677 76.296C114.189 76.6322 113.808 77.108 113.533 77.7235C113.263 78.3343 113.129 79.0517 113.129 79.8755C113.129 80.7183 113.261 81.4522 113.526 82.0772C113.796 82.7022 114.175 83.1876 114.663 83.5332C115.155 83.8788 115.733 84.0517 116.396 84.0517C116.831 84.0517 117.227 83.9759 117.582 83.8244C117.937 83.6729 118.237 83.4551 118.484 83.171C118.73 82.8869 118.905 82.546 119.009 82.1483H120.685C120.591 82.7922 120.356 83.3722 119.982 83.8883C119.613 84.3997 119.123 84.8069 118.512 85.1099C117.906 85.4082 117.201 85.5574 116.396 85.5574ZM126.346 85.5858C125.655 85.5858 125.027 85.4556 124.464 85.1951C123.9 84.93 123.453 84.5488 123.121 84.0517C122.79 83.5498 122.624 82.9437 122.624 82.2335C122.624 81.6085 122.747 81.1019 122.994 80.7136C123.24 80.3206 123.569 80.0128 123.981 79.7903C124.393 79.5678 124.847 79.402 125.344 79.2931C125.846 79.1795 126.351 79.0895 126.857 79.0233C127.52 78.938 128.058 78.8741 128.469 78.8315C128.886 78.7841 129.189 78.706 129.379 78.5971C129.573 78.4882 129.67 78.2988 129.67 78.0289V77.9721C129.67 77.2714 129.478 76.7269 129.094 76.3386C128.716 75.9503 128.14 75.7562 127.369 75.7562C126.568 75.7562 125.941 75.9314 125.487 76.2818C125.032 76.6322 124.712 77.0062 124.528 77.4039L122.937 76.8358C123.221 76.1729 123.6 75.6568 124.073 75.2875C124.551 74.9134 125.072 74.653 125.636 74.5062C126.204 74.3547 126.763 74.2789 127.312 74.2789C127.662 74.2789 128.065 74.3216 128.519 74.4068C128.978 74.4873 129.421 74.6554 129.847 74.911C130.278 75.1667 130.636 75.5526 130.92 76.0687C131.204 76.5848 131.346 77.2761 131.346 78.1426V85.3301H129.67V83.8528H129.585C129.471 84.0895 129.281 84.3429 129.016 84.6127C128.751 84.8826 128.398 85.1123 127.958 85.3017C127.518 85.4911 126.98 85.5858 126.346 85.5858ZM126.602 84.0801C127.264 84.0801 127.823 83.9499 128.278 83.6895C128.737 83.429 129.083 83.0929 129.315 82.6809C129.551 82.269 129.67 81.8358 129.67 81.3812V79.8471C129.599 79.9324 129.442 80.0105 129.201 80.0815C128.964 80.1478 128.69 80.207 128.377 80.2591C128.069 80.3064 127.769 80.349 127.475 80.3869C127.186 80.42 126.952 80.4484 126.772 80.4721C126.336 80.5289 125.929 80.6213 125.55 80.7491C125.176 80.8722 124.873 81.0592 124.641 81.3102C124.414 81.5564 124.3 81.8926 124.3 82.3187C124.3 82.9011 124.516 83.3414 124.947 83.6397C125.382 83.9333 125.934 84.0801 126.602 84.0801ZM136.081 78.7676V85.3301H134.405V74.421H136.025V76.1255H136.167C136.422 75.5716 136.81 75.1265 137.331 74.7903C137.852 74.4494 138.525 74.2789 139.348 74.2789C140.087 74.2789 140.733 74.4305 141.287 74.7335C141.841 75.0318 142.272 75.4863 142.58 76.0971C142.888 76.7032 143.042 77.4702 143.042 78.3983V85.3301H141.365V78.5119C141.365 77.6549 141.143 76.9873 140.698 76.5091C140.253 76.0261 139.642 75.7846 138.865 75.7846C138.33 75.7846 137.852 75.9006 137.431 76.1326C137.014 76.3646 136.685 76.7032 136.444 77.1483C136.202 77.5933 136.081 78.1331 136.081 78.7676ZM154.94 85.5858C154.248 85.5858 153.621 85.4556 153.058 85.1951C152.494 84.93 152.047 84.5488 151.715 84.0517C151.384 83.5498 151.218 82.9437 151.218 82.2335C151.218 81.6085 151.341 81.1019 151.587 80.7136C151.834 80.3206 152.163 80.0128 152.575 79.7903C152.987 79.5678 153.441 79.402 153.938 79.2931C154.44 79.1795 154.944 79.0895 155.451 79.0233C156.114 78.938 156.651 78.8741 157.063 78.8315C157.48 78.7841 157.783 78.706 157.972 78.5971C158.166 78.4882 158.263 78.2988 158.263 78.0289V77.9721C158.263 77.2714 158.072 76.7269 157.688 76.3386C157.309 75.9503 156.734 75.7562 155.962 75.7562C155.162 75.7562 154.535 75.9314 154.08 76.2818C153.626 76.6322 153.306 77.0062 153.121 77.4039L151.531 76.8358C151.815 76.1729 152.193 75.6568 152.667 75.2875C153.145 74.9134 153.666 74.653 154.229 74.5062C154.798 74.3547 155.356 74.2789 155.906 74.2789C156.256 74.2789 156.658 74.3216 157.113 74.4068C157.572 74.4873 158.015 74.6554 158.441 74.911C158.872 75.1667 159.229 75.5526 159.513 76.0687C159.798 76.5848 159.94 77.2761 159.94 78.1426V85.3301H158.263V83.8528H158.178C158.065 84.0895 157.875 84.3429 157.61 84.6127C157.345 84.8826 156.992 85.1123 156.552 85.3017C156.112 85.4911 155.574 85.5858 154.94 85.5858ZM155.195 84.0801C155.858 84.0801 156.417 83.9499 156.871 83.6895C157.331 83.429 157.676 83.0929 157.908 82.6809C158.145 82.269 158.263 81.8358 158.263 81.3812V79.8471C158.192 79.9324 158.036 80.0105 157.795 80.0815C157.558 80.1478 157.283 80.207 156.971 80.2591C156.663 80.3064 156.362 80.349 156.069 80.3869C155.78 80.42 155.546 80.4484 155.366 80.4721C154.93 80.5289 154.523 80.6213 154.144 80.7491C153.77 80.8722 153.467 81.0592 153.235 81.3102C153.008 81.5564 152.894 81.8926 152.894 82.3187C152.894 82.9011 153.11 83.3414 153.54 83.6397C153.976 83.9333 154.528 84.0801 155.195 84.0801ZM170.726 76.8642L169.221 77.2903C169.126 77.0394 168.986 76.7955 168.801 76.5588C168.622 76.3173 168.375 76.1184 168.063 75.9622C167.75 75.8059 167.35 75.7278 166.863 75.7278C166.195 75.7278 165.639 75.8817 165.194 76.1895C164.753 76.4925 164.533 76.8784 164.533 77.3471C164.533 77.7638 164.685 78.0929 164.988 78.3343C165.291 78.5758 165.764 78.777 166.408 78.938L168.027 79.3358C169.003 79.5725 169.73 79.9347 170.208 80.4224C170.686 80.9054 170.925 81.528 170.925 82.2903C170.925 82.9153 170.745 83.474 170.385 83.9664C170.03 84.4589 169.533 84.8471 168.894 85.1312C168.255 85.4153 167.511 85.5574 166.664 85.5574C165.551 85.5574 164.63 85.3159 163.901 84.8329C163.172 84.35 162.71 83.6445 162.516 82.7164L164.107 82.3187C164.258 82.9058 164.545 83.3462 164.966 83.6397C165.392 83.9333 165.949 84.0801 166.635 84.0801C167.417 84.0801 168.037 83.9144 168.496 83.5829C168.96 83.2467 169.192 82.8443 169.192 82.3755C169.192 81.9967 169.06 81.6795 168.794 81.4238C168.529 81.1634 168.122 80.9693 167.573 80.8414L165.755 80.4153C164.756 80.1786 164.022 79.8116 163.553 79.3145C163.089 78.8126 162.857 78.1852 162.857 77.4324C162.857 76.8168 163.03 76.2723 163.375 75.7988C163.726 75.3253 164.202 74.9537 164.803 74.6838C165.409 74.4139 166.096 74.2789 166.863 74.2789C167.942 74.2789 168.79 74.5157 169.405 74.9892C170.025 75.4627 170.466 76.0877 170.726 76.8642ZM181.175 76.8642L179.67 77.2903C179.575 77.0394 179.435 76.7955 179.251 76.5588C179.071 76.3173 178.825 76.1184 178.512 75.9622C178.2 75.8059 177.799 75.7278 177.312 75.7278C176.644 75.7278 176.088 75.8817 175.643 76.1895C175.202 76.4925 174.982 76.8784 174.982 77.3471C174.982 77.7638 175.134 78.0929 175.437 78.3343C175.74 78.5758 176.213 78.777 176.857 78.938L178.477 79.3358C179.452 79.5725 180.179 79.9347 180.657 80.4224C181.135 80.9054 181.374 81.528 181.374 82.2903C181.374 82.9153 181.194 83.474 180.835 83.9664C180.479 84.4589 179.982 84.8471 179.343 85.1312C178.704 85.4153 177.96 85.5574 177.113 85.5574C176 85.5574 175.079 85.3159 174.35 84.8329C173.621 84.35 173.159 83.6445 172.965 82.7164L174.556 82.3187C174.708 82.9058 174.994 83.3462 175.415 83.6397C175.842 83.9333 176.398 84.0801 177.085 84.0801C177.866 84.0801 178.486 83.9144 178.945 83.5829C179.409 83.2467 179.641 82.8443 179.641 82.3755C179.641 81.9967 179.509 81.6795 179.244 81.4238C178.978 81.1634 178.571 80.9693 178.022 80.8414L176.204 80.4153C175.205 80.1786 174.471 79.8116 174.002 79.3145C173.538 78.8126 173.306 78.1852 173.306 77.4324C173.306 76.8168 173.479 76.2723 173.825 75.7988C174.175 75.3253 174.651 74.9537 175.252 74.6838C175.858 74.4139 176.545 74.2789 177.312 74.2789C178.391 74.2789 179.239 74.5157 179.854 74.9892C180.475 75.4627 180.915 76.0877 181.175 76.8642ZM183.897 85.3301V74.421H185.574V85.3301H183.897ZM184.75 72.6028C184.423 72.6028 184.141 72.4915 183.904 72.269C183.672 72.0465 183.556 71.7789 183.556 71.4664C183.556 71.1539 183.672 70.8864 183.904 70.6639C184.141 70.4413 184.423 70.3301 184.75 70.3301C185.076 70.3301 185.356 70.4413 185.588 70.6639C185.824 70.8864 185.943 71.1539 185.943 71.4664C185.943 71.7789 185.824 72.0465 185.588 72.269C185.356 72.4915 185.076 72.6028 184.75 72.6028ZM196.371 76.8642L194.865 77.2903C194.77 77.0394 194.631 76.7955 194.446 76.5588C194.266 76.3173 194.02 76.1184 193.707 75.9622C193.395 75.8059 192.995 75.7278 192.507 75.7278C191.839 75.7278 191.283 75.8817 190.838 76.1895C190.398 76.4925 190.178 76.8784 190.178 77.3471C190.178 77.7638 190.329 78.0929 190.632 78.3343C190.935 78.5758 191.409 78.777 192.053 78.938L193.672 79.3358C194.647 79.5725 195.374 79.9347 195.852 80.4224C196.33 80.9054 196.57 81.528 196.57 82.2903C196.57 82.9153 196.39 83.474 196.03 83.9664C195.675 84.4589 195.178 84.8471 194.538 85.1312C193.899 85.4153 193.156 85.5574 192.308 85.5574C191.196 85.5574 190.275 85.3159 189.545 84.8329C188.816 84.35 188.355 83.6445 188.161 82.7164L189.751 82.3187C189.903 82.9058 190.189 83.3462 190.611 83.6397C191.037 83.9333 191.593 84.0801 192.28 84.0801C193.061 84.0801 193.681 83.9144 194.141 83.5829C194.605 83.2467 194.837 82.8443 194.837 82.3755C194.837 81.9967 194.704 81.6795 194.439 81.4238C194.174 81.1634 193.767 80.9693 193.217 80.8414L191.399 80.4153C190.4 80.1786 189.666 79.8116 189.197 79.3145C188.733 78.8126 188.501 78.1852 188.501 77.4324C188.501 76.8168 188.674 76.2723 189.02 75.7988C189.37 75.3253 189.846 74.9537 190.447 74.6838C191.054 74.4139 191.74 74.2789 192.507 74.2789C193.587 74.2789 194.434 74.5157 195.05 74.9892C195.67 75.4627 196.11 76.0877 196.371 76.8642ZM203.837 74.421V75.8414H198.184V74.421H203.837ZM199.831 71.8074H201.507V82.2051C201.507 82.6786 201.576 83.0337 201.713 83.2704C201.855 83.5024 202.035 83.6587 202.253 83.7392C202.476 83.8149 202.71 83.8528 202.956 83.8528C203.141 83.8528 203.292 83.8433 203.411 83.8244C203.529 83.8007 203.624 83.7818 203.695 83.7676L204.036 85.2733C203.922 85.3159 203.764 85.3585 203.56 85.4011C203.356 85.4484 203.098 85.4721 202.786 85.4721C202.312 85.4721 201.848 85.3703 201.394 85.1667C200.944 84.9631 200.57 84.653 200.272 84.2363C199.978 83.8197 199.831 83.2941 199.831 82.6596V71.8074ZM213.063 89.421C212.779 89.421 212.525 89.3973 212.303 89.35C212.08 89.3074 211.926 89.2647 211.841 89.2221L212.267 87.7449C212.675 87.849 213.034 87.8869 213.347 87.8585C213.659 87.8301 213.936 87.6904 214.178 87.4395C214.424 87.1932 214.649 86.7931 214.853 86.2392L215.165 85.3869L211.131 74.421H212.949L215.961 83.1142H216.074L219.086 74.421H220.904L216.273 86.921C216.065 87.4844 215.807 87.9508 215.499 88.3201C215.191 88.6942 214.834 88.9712 214.426 89.1511C214.024 89.331 213.569 89.421 213.063 89.421ZM227.157 85.5574C226.172 85.5574 225.308 85.323 224.565 84.8542C223.826 84.3855 223.249 83.7297 222.832 82.8869C222.42 82.0441 222.214 81.0592 222.214 79.9324C222.214 78.796 222.42 77.804 222.832 76.9565C223.249 76.109 223.826 75.4508 224.565 74.9821C225.308 74.5133 226.172 74.2789 227.157 74.2789C228.142 74.2789 229.004 74.5133 229.743 74.9821C230.486 75.4508 231.064 76.109 231.475 76.9565C231.892 77.804 232.1 78.796 232.1 79.9324C232.1 81.0592 231.892 82.0441 231.475 82.8869C231.064 83.7297 230.486 84.3855 229.743 84.8542C229.004 85.323 228.142 85.5574 227.157 85.5574ZM227.157 84.0517C227.905 84.0517 228.521 83.8599 229.004 83.4764C229.487 83.0929 229.844 82.5886 230.076 81.9636C230.308 81.3386 230.424 80.6615 230.424 79.9324C230.424 79.2032 230.308 78.5237 230.076 77.894C229.844 77.2643 229.487 76.7553 229.004 76.367C228.521 75.9788 227.905 75.7846 227.157 75.7846C226.409 75.7846 225.794 75.9788 225.311 76.367C224.828 76.7553 224.47 77.2643 224.238 77.894C224.006 78.5237 223.89 79.2032 223.89 79.9324C223.89 80.6615 224.006 81.3386 224.238 81.9636C224.47 82.5886 224.828 83.0929 225.311 83.4764C225.794 83.8599 226.409 84.0517 227.157 84.0517ZM241.534 80.8699V74.421H243.21V85.3301H241.534V83.4835H241.42C241.165 84.0375 240.767 84.5086 240.227 84.8968C239.688 85.2804 239.006 85.4721 238.182 85.4721C237.5 85.4721 236.894 85.323 236.364 85.0247C235.833 84.7217 235.417 84.2671 235.114 83.661C234.811 83.0502 234.659 82.2808 234.659 81.3528V74.421H236.335V81.2392C236.335 82.0346 236.558 82.6691 237.003 83.1426C237.453 83.6161 238.026 83.8528 238.722 83.8528C239.138 83.8528 239.562 83.7463 239.993 83.5332C240.429 83.3201 240.793 82.9934 241.087 82.5531C241.385 82.1127 241.534 81.5517 241.534 80.8699ZM251.905 85.3301V74.421H253.581V85.3301H251.905ZM252.757 72.6028C252.431 72.6028 252.149 72.4915 251.912 72.269C251.68 72.0465 251.564 71.7789 251.564 71.4664C251.564 71.1539 251.68 70.8864 251.912 70.6639C252.149 70.4413 252.431 70.3301 252.757 70.3301C253.084 70.3301 253.364 70.4413 253.596 70.6639C253.832 70.8864 253.951 71.1539 253.951 71.4664C253.951 71.7789 253.832 72.0465 253.596 72.269C253.364 72.4915 253.084 72.6028 252.757 72.6028ZM258.327 78.7676V85.3301H256.651V74.421H258.271V76.1255H258.413C258.668 75.5716 259.057 75.1265 259.577 74.7903C260.098 74.4494 260.771 74.2789 261.594 74.2789C262.333 74.2789 262.979 74.4305 263.533 74.7335C264.087 75.0318 264.518 75.4863 264.826 76.0971C265.134 76.7032 265.288 77.4702 265.288 78.3983V85.3301H263.612V78.5119C263.612 77.6549 263.389 76.9873 262.944 76.5091C262.499 76.0261 261.888 75.7846 261.112 75.7846C260.576 75.7846 260.098 75.9006 259.677 76.1326C259.26 76.3646 258.931 76.7032 258.69 77.1483C258.448 77.5933 258.327 78.1331 258.327 78.7676ZM278.095 85.5574C277.186 85.5574 276.383 85.3277 275.687 84.8684C274.991 84.4044 274.447 83.751 274.054 82.9082C273.661 82.0607 273.464 81.0592 273.464 79.9039C273.464 78.7581 273.661 77.7638 274.054 76.921C274.447 76.0782 274.993 75.4271 275.694 74.9679C276.395 74.5086 277.205 74.2789 278.123 74.2789C278.833 74.2789 279.395 74.3973 279.806 74.6341C280.223 74.8661 280.54 75.1312 280.758 75.4295C280.981 75.7231 281.154 75.9645 281.277 76.1539H281.419V70.7846H283.095V85.3301H281.475V83.6539H281.277C281.154 83.8528 280.978 84.1038 280.751 84.4068C280.524 84.7051 280.199 84.9726 279.778 85.2093C279.357 85.4413 278.796 85.5574 278.095 85.5574ZM278.322 84.0517C278.994 84.0517 279.563 83.8765 280.027 83.5261C280.491 83.171 280.843 82.6809 281.085 82.0559C281.326 81.4262 281.447 80.6994 281.447 79.8755C281.447 79.0611 281.329 78.3485 281.092 77.7377C280.855 77.1222 280.505 76.644 280.041 76.3031C279.577 75.9574 279.004 75.7846 278.322 75.7846C277.612 75.7846 277.02 75.9669 276.547 76.3315C276.078 76.6913 275.725 77.1814 275.488 77.8017C275.256 78.4172 275.14 79.1085 275.14 79.8755C275.14 80.652 275.259 81.3575 275.495 81.992C275.737 82.6217 276.092 83.1236 276.561 83.4977C277.034 83.867 277.621 84.0517 278.322 84.0517ZM290.971 85.5574C289.92 85.5574 289.013 85.3253 288.251 84.8613C287.493 84.3926 286.909 83.7392 286.497 82.9011C286.09 82.0583 285.886 81.0782 285.886 79.9608C285.886 78.8433 286.09 77.8585 286.497 77.0062C286.909 76.1492 287.482 75.4816 288.216 75.0034C288.954 74.5204 289.816 74.2789 290.801 74.2789C291.369 74.2789 291.93 74.3736 292.484 74.563C293.038 74.7524 293.542 75.0602 293.997 75.4863C294.451 75.9077 294.814 76.4664 295.083 77.1625C295.353 77.8585 295.488 78.7155 295.488 79.7335V80.4437H287.079V78.9949H293.784C293.784 78.3793 293.661 77.8301 293.414 77.3471C293.173 76.8642 292.827 76.483 292.377 76.2037C291.932 75.9243 291.407 75.7846 290.801 75.7846C290.133 75.7846 289.556 75.9503 289.068 76.2818C288.585 76.6085 288.213 77.0346 287.953 77.5602C287.692 78.0858 287.562 78.6492 287.562 79.2505V80.2164C287.562 81.0403 287.704 81.7387 287.988 82.3116C288.277 82.8798 288.677 83.313 289.189 83.6113C289.7 83.9049 290.294 84.0517 290.971 84.0517C291.412 84.0517 291.809 83.9901 292.164 83.867C292.524 83.7392 292.834 83.5498 293.095 83.2988C293.355 83.0431 293.556 82.7259 293.699 82.3471L295.318 82.8017C295.147 83.3509 294.861 83.8339 294.458 84.2505C294.056 84.6625 293.559 84.9844 292.967 85.2164C292.375 85.4437 291.71 85.5574 290.971 85.5574ZM299.714 70.7846V85.3301H298.038V70.7846H299.714ZM302.784 85.3301V74.421H304.46V85.3301H302.784ZM303.636 72.6028C303.31 72.6028 303.028 72.4915 302.791 72.269C302.559 72.0465 302.443 71.7789 302.443 71.4664C302.443 71.1539 302.559 70.8864 302.791 70.6639C303.028 70.4413 303.31 70.3301 303.636 70.3301C303.963 70.3301 304.242 70.4413 304.474 70.6639C304.711 70.8864 304.83 71.1539 304.83 71.4664C304.83 71.7789 304.711 72.0465 304.474 72.269C304.242 72.4915 303.963 72.6028 303.636 72.6028ZM316.451 74.421L312.417 85.3301H310.712L306.678 74.421H308.496L311.507 83.1142H311.621L314.632 74.421H316.451ZM322.846 85.5574C321.795 85.5574 320.888 85.3253 320.126 84.8613C319.368 84.3926 318.784 83.7392 318.372 82.9011C317.965 82.0583 317.761 81.0782 317.761 79.9608C317.761 78.8433 317.965 77.8585 318.372 77.0062C318.784 76.1492 319.357 75.4816 320.091 75.0034C320.829 74.5204 321.691 74.2789 322.676 74.2789C323.244 74.2789 323.805 74.3736 324.359 74.563C324.913 74.7524 325.417 75.0602 325.872 75.4863C326.326 75.9077 326.689 76.4664 326.958 77.1625C327.228 77.8585 327.363 78.7155 327.363 79.7335V80.4437H318.954V78.9949H325.659C325.659 78.3793 325.536 77.8301 325.289 77.3471C325.048 76.8642 324.702 76.483 324.252 76.2037C323.807 75.9243 323.282 75.7846 322.676 75.7846C322.008 75.7846 321.431 75.9503 320.943 76.2818C320.46 76.6085 320.088 77.0346 319.828 77.5602C319.567 78.0858 319.437 78.6492 319.437 79.2505V80.2164C319.437 81.0403 319.579 81.7387 319.863 82.3116C320.152 82.8798 320.552 83.313 321.064 83.6113C321.575 83.9049 322.169 84.0517 322.846 84.0517C323.287 84.0517 323.684 83.9901 324.039 83.867C324.399 83.7392 324.709 83.5498 324.97 83.2988C325.23 83.0431 325.431 82.7259 325.574 82.3471L327.193 82.8017C327.022 83.3509 326.736 83.8339 326.333 84.2505C325.931 84.6625 325.434 84.9844 324.842 85.2164C324.25 85.4437 323.585 85.5574 322.846 85.5574ZM329.913 85.3301V74.421H331.532V76.0687H331.646C331.845 75.5289 332.205 75.091 332.725 74.7548C333.246 74.4186 333.833 74.2505 334.487 74.2505C334.61 74.2505 334.764 74.2529 334.949 74.2576C335.133 74.2624 335.273 74.2695 335.368 74.2789V75.9835C335.311 75.9693 335.181 75.948 334.977 75.9196C334.778 75.8864 334.567 75.8699 334.345 75.8699C333.815 75.8699 333.341 75.9811 332.924 76.2037C332.512 76.4215 332.186 76.7245 331.944 77.1127C331.708 77.4963 331.589 77.9342 331.589 78.4267V85.3301H329.913ZM337.354 85.3301V74.421H339.031V85.3301H337.354ZM338.207 72.6028C337.88 72.6028 337.598 72.4915 337.362 72.269C337.129 72.0465 337.013 71.7789 337.013 71.4664C337.013 71.1539 337.129 70.8864 337.362 70.6639C337.598 70.4413 337.88 70.3301 338.207 70.3301C338.533 70.3301 338.813 70.4413 339.045 70.6639C339.281 70.8864 339.4 71.1539 339.4 71.4664C339.4 71.7789 339.281 72.0465 339.045 72.269C338.813 72.4915 338.533 72.6028 338.207 72.6028ZM343.777 78.7676V85.3301H342.1V74.421H343.72V76.1255H343.862C344.118 75.5716 344.506 75.1265 345.027 74.7903C345.547 74.4494 346.22 74.2789 347.044 74.2789C347.782 74.2789 348.429 74.4305 348.983 74.7335C349.537 75.0318 349.967 75.4863 350.275 76.0971C350.583 76.7032 350.737 77.4702 350.737 78.3983V85.3301H349.061V78.5119C349.061 77.6549 348.838 76.9873 348.393 76.5091C347.948 76.0261 347.337 75.7846 346.561 75.7846C346.026 75.7846 345.547 75.9006 345.126 76.1326C344.709 76.3646 344.38 76.7032 344.139 77.1483C343.897 77.5933 343.777 78.1331 343.777 78.7676ZM358.203 89.6483C357.393 89.6483 356.697 89.5441 356.115 89.3358C355.533 89.1322 355.047 88.8623 354.659 88.5261C354.276 88.1947 353.97 87.8395 353.743 87.4608L355.078 86.5233C355.23 86.7221 355.421 86.9494 355.653 87.2051C355.885 87.4655 356.203 87.6904 356.605 87.8798C357.012 88.0739 357.545 88.171 358.203 88.171C359.084 88.171 359.811 87.9579 360.384 87.5318C360.956 87.1056 361.243 86.438 361.243 85.5289V83.313H361.101C360.978 83.5119 360.803 83.7581 360.575 84.0517C360.353 84.3405 360.031 84.5985 359.609 84.8258C359.193 85.0484 358.629 85.1596 357.919 85.1596C357.038 85.1596 356.248 84.9513 355.547 84.5346C354.851 84.118 354.299 83.5119 353.892 82.7164C353.49 81.921 353.288 80.9551 353.288 79.8187C353.288 78.7013 353.485 77.7283 353.878 76.8997C354.271 76.0663 354.818 75.4224 355.518 74.9679C356.219 74.5086 357.029 74.2789 357.947 74.2789C358.658 74.2789 359.221 74.3973 359.638 74.6341C360.059 74.8661 360.381 75.1312 360.604 75.4295C360.831 75.7231 361.006 75.9645 361.129 76.1539H361.3V74.421H362.919V85.6426C362.919 86.5801 362.706 87.3424 362.28 87.9295C361.858 88.5214 361.29 88.9546 360.575 89.2292C359.865 89.5086 359.074 89.6483 358.203 89.6483ZM358.146 83.6539C358.819 83.6539 359.387 83.5001 359.851 83.1923C360.315 82.8845 360.668 82.4418 360.909 81.8642C361.151 81.2865 361.271 80.5952 361.271 79.7903C361.271 79.0043 361.153 78.3107 360.916 77.7093C360.679 77.108 360.329 76.6369 359.865 76.296C359.401 75.9551 358.828 75.7846 358.146 75.7846C357.436 75.7846 356.844 75.9645 356.371 76.3244C355.902 76.6842 355.549 77.1672 355.312 77.7733C355.08 78.3793 354.964 79.0517 354.964 79.7903C354.964 80.5479 355.083 81.2179 355.32 81.8002C355.561 82.3779 355.916 82.8324 356.385 83.1639C356.858 83.4906 357.446 83.6539 358.146 83.6539ZM372.692 89.421C372.408 89.421 372.154 89.3973 371.932 89.35C371.709 89.3074 371.555 89.2647 371.47 89.2221L371.896 87.7449C372.304 87.849 372.663 87.8869 372.976 87.8585C373.288 87.8301 373.565 87.6904 373.807 87.4395C374.053 87.1932 374.278 86.7931 374.482 86.2392L374.794 85.3869L370.76 74.421H372.578L375.589 83.1142H375.703L378.714 74.421H380.533L375.902 86.921C375.694 87.4844 375.436 87.9508 375.128 88.3201C374.82 88.6942 374.463 88.9712 374.055 89.1511C373.653 89.331 373.198 89.421 372.692 89.421ZM386.786 85.5574C385.801 85.5574 384.937 85.323 384.194 84.8542C383.455 84.3855 382.878 83.7297 382.461 82.8869C382.049 82.0441 381.843 81.0592 381.843 79.9324C381.843 78.796 382.049 77.804 382.461 76.9565C382.878 76.109 383.455 75.4508 384.194 74.9821C384.937 74.5133 385.801 74.2789 386.786 74.2789C387.771 74.2789 388.633 74.5133 389.371 74.9821C390.115 75.4508 390.692 76.109 391.104 76.9565C391.521 77.804 391.729 78.796 391.729 79.9324C391.729 81.0592 391.521 82.0441 391.104 82.8869C390.692 83.7297 390.115 84.3855 389.371 84.8542C388.633 85.323 387.771 85.5574 386.786 85.5574ZM386.786 84.0517C387.534 84.0517 388.15 83.8599 388.633 83.4764C389.116 83.0929 389.473 82.5886 389.705 81.9636C389.937 81.3386 390.053 80.6615 390.053 79.9324C390.053 79.2032 389.937 78.5237 389.705 77.894C389.473 77.2643 389.116 76.7553 388.633 76.367C388.15 75.9788 387.534 75.7846 386.786 75.7846C386.038 75.7846 385.423 75.9788 384.94 76.367C384.457 76.7553 384.099 77.2643 383.867 77.894C383.635 78.5237 383.519 79.2032 383.519 79.9324C383.519 80.6615 383.635 81.3386 383.867 81.9636C384.099 82.5886 384.457 83.0929 384.94 83.4764C385.423 83.8599 386.038 84.0517 386.786 84.0517ZM401.163 80.8699V74.421H402.839V85.3301H401.163V83.4835H401.049C400.794 84.0375 400.396 84.5086 399.856 84.8968C399.316 85.2804 398.635 85.4721 397.811 85.4721C397.129 85.4721 396.523 85.323 395.993 85.0247C395.462 84.7217 395.046 84.2671 394.743 83.661C394.44 83.0502 394.288 82.2808 394.288 81.3528V74.421H395.964V81.2392C395.964 82.0346 396.187 82.6691 396.632 83.1426C397.082 83.6161 397.654 83.8528 398.35 83.8528C398.767 83.8528 399.191 83.7463 399.622 83.5332C400.057 83.3201 400.422 82.9934 400.716 82.5531C401.014 82.1127 401.163 81.5517 401.163 80.8699ZM405.909 85.3301V74.421H407.528V76.0687H407.642C407.841 75.5289 408.201 75.091 408.722 74.7548C409.242 74.4186 409.83 74.2505 410.483 74.2505C410.606 74.2505 410.76 74.2529 410.945 74.2576C411.129 74.2624 411.269 74.2695 411.364 74.2789V75.9835C411.307 75.9693 411.177 75.948 410.973 75.9196C410.774 75.8864 410.563 75.8699 410.341 75.8699C409.811 75.8699 409.337 75.9811 408.92 76.2037C408.509 76.4215 408.182 76.7245 407.94 77.1127C407.704 77.4963 407.585 77.9342 407.585 78.4267V85.3301H405.909ZM5.96591 114.557C4.94318 114.557 4.0625 114.316 3.32386 113.833C2.58523 113.35 2.01705 112.685 1.61932 111.837C1.22159 110.99 1.02273 110.021 1.02273 108.932C1.02273 107.824 1.22633 106.847 1.63352 105.999C2.04545 105.147 2.61837 104.482 3.35227 104.003C4.09091 103.52 4.95265 103.279 5.9375 103.279C6.70455 103.279 7.39583 103.421 8.01136 103.705C8.62689 103.989 9.13116 104.387 9.52415 104.898C9.91714 105.41 10.161 106.006 10.2557 106.688H8.57955C8.4517 106.191 8.16761 105.751 7.72727 105.367C7.29167 104.979 6.70455 104.785 5.96591 104.785C5.3125 104.785 4.73958 104.955 4.24716 105.296C3.75947 105.632 3.37831 106.108 3.10369 106.724C2.83381 107.334 2.69886 108.052 2.69886 108.876C2.69886 109.718 2.83144 110.452 3.09659 111.077C3.36648 111.702 3.74527 112.188 4.23295 112.533C4.72538 112.879 5.30303 113.052 5.96591 113.052C6.40152 113.052 6.79688 112.976 7.15199 112.824C7.5071 112.673 7.80777 112.455 8.05398 112.171C8.30019 111.887 8.47538 111.546 8.57955 111.148H10.2557C10.161 111.792 9.92661 112.372 9.55256 112.888C9.18324 113.4 8.69318 113.807 8.08239 114.11C7.47633 114.408 6.77083 114.557 5.96591 114.557ZM17.1378 114.557C16.1529 114.557 15.2888 114.323 14.5455 113.854C13.8068 113.385 13.2292 112.73 12.8125 111.887C12.4006 111.044 12.1946 110.059 12.1946 108.932C12.1946 107.796 12.4006 106.804 12.8125 105.956C13.2292 105.109 13.8068 104.451 14.5455 103.982C15.2888 103.513 16.1529 103.279 17.1378 103.279C18.1226 103.279 18.9844 103.513 19.723 103.982C20.4664 104.451 21.044 105.109 21.456 105.956C21.8726 106.804 22.081 107.796 22.081 108.932C22.081 110.059 21.8726 111.044 21.456 111.887C21.044 112.73 20.4664 113.385 19.723 113.854C18.9844 114.323 18.1226 114.557 17.1378 114.557ZM17.1378 113.052C17.8859 113.052 18.5014 112.86 18.9844 112.476C19.4673 112.093 19.8248 111.589 20.0568 110.964C20.2888 110.339 20.4048 109.662 20.4048 108.932C20.4048 108.203 20.2888 107.524 20.0568 106.894C19.8248 106.264 19.4673 105.755 18.9844 105.367C18.5014 104.979 17.8859 104.785 17.1378 104.785C16.3897 104.785 15.7741 104.979 15.2912 105.367C14.8082 105.755 14.4508 106.264 14.2188 106.894C13.9867 107.524 13.8707 108.203 13.8707 108.932C13.8707 109.662 13.9867 110.339 14.2188 110.964C14.4508 111.589 14.8082 112.093 15.2912 112.476C15.7741 112.86 16.3897 113.052 17.1378 113.052ZM24.6396 114.33V103.421H26.2589V105.126H26.4009C26.6282 104.543 26.9951 104.091 27.5018 103.769C28.0084 103.442 28.6168 103.279 29.3271 103.279C30.0468 103.279 30.6457 103.442 31.1239 103.769C31.6069 104.091 31.9833 104.543 32.2532 105.126H32.3668C32.6462 104.562 33.0652 104.115 33.6239 103.783C34.1826 103.447 34.8526 103.279 35.6339 103.279C36.6093 103.279 37.4071 103.584 38.0273 104.195C38.6476 104.801 38.9577 105.746 38.9577 107.029V114.33H37.2816V107.029C37.2816 106.224 37.0614 105.649 36.6211 105.303C36.1808 104.957 35.6623 104.785 35.0657 104.785C34.2987 104.785 33.7044 105.017 33.283 105.481C32.8616 105.94 32.6509 106.522 32.6509 107.228V114.33H30.9464V106.858C30.9464 106.238 30.7451 105.739 30.3427 105.36C29.9402 104.976 29.4218 104.785 28.7873 104.785C28.3517 104.785 27.9445 104.901 27.5657 105.133C27.1916 105.365 26.8886 105.687 26.6566 106.099C26.4293 106.506 26.3157 106.977 26.3157 107.512V114.33H24.6396ZM42.0224 114.33V103.421H43.6417V105.126H43.7837C44.011 104.543 44.378 104.091 44.8846 103.769C45.3912 103.442 45.9996 103.279 46.7099 103.279C47.4296 103.279 48.0285 103.442 48.5067 103.769C48.9897 104.091 49.3661 104.543 49.636 105.126H49.7496C50.029 104.562 50.448 104.115 51.0067 103.783C51.5655 103.447 52.2354 103.279 53.0167 103.279C53.9921 103.279 54.7899 103.584 55.4102 104.195C56.0304 104.801 56.3406 105.746 56.3406 107.029V114.33H54.6644V107.029C54.6644 106.224 54.4442 105.649 54.0039 105.303C53.5636 104.957 53.0451 104.785 52.4485 104.785C51.6815 104.785 51.0872 105.017 50.6658 105.481C50.2444 105.94 50.0337 106.522 50.0337 107.228V114.33H48.3292V106.858C48.3292 106.238 48.128 105.739 47.7255 105.36C47.323 104.976 46.8046 104.785 46.1701 104.785C45.7345 104.785 45.3273 104.901 44.9485 105.133C44.5745 105.365 44.2714 105.687 44.0394 106.099C43.8121 106.506 43.6985 106.977 43.6985 107.512V114.33H42.0224ZM63.837 114.557C62.8522 114.557 61.988 114.323 61.2447 113.854C60.506 113.385 59.9284 112.73 59.5117 111.887C59.0998 111.044 58.8938 110.059 58.8938 108.932C58.8938 107.796 59.0998 106.804 59.5117 105.956C59.9284 105.109 60.506 104.451 61.2447 103.982C61.988 103.513 62.8522 103.279 63.837 103.279C64.8219 103.279 65.6836 103.513 66.4222 103.982C67.1656 104.451 67.7433 105.109 68.1552 105.956C68.5719 106.804 68.7802 107.796 68.7802 108.932C68.7802 110.059 68.5719 111.044 68.1552 111.887C67.7433 112.73 67.1656 113.385 66.4222 113.854C65.6836 114.323 64.8219 114.557 63.837 114.557ZM63.837 113.052C64.5851 113.052 65.2006 112.86 65.6836 112.476C66.1665 112.093 66.524 111.589 66.756 110.964C66.988 110.339 67.104 109.662 67.104 108.932C67.104 108.203 66.988 107.524 66.756 106.894C66.524 106.264 66.1665 105.755 65.6836 105.367C65.2006 104.979 64.5851 104.785 63.837 104.785C63.0889 104.785 62.4734 104.979 61.9904 105.367C61.5075 105.755 61.15 106.264 60.918 106.894C60.686 107.524 60.57 108.203 60.57 108.932C60.57 109.662 60.686 110.339 60.918 110.964C61.15 111.589 61.5075 112.093 61.9904 112.476C62.4734 112.86 63.0889 113.052 63.837 113.052ZM75.4581 114.557C74.549 114.557 73.7464 114.328 73.0504 113.868C72.3544 113.404 71.8099 112.751 71.4169 111.908C71.0239 111.061 70.8274 110.059 70.8274 108.904C70.8274 107.758 71.0239 106.764 71.4169 105.921C71.8099 105.078 72.3568 104.427 73.0575 103.968C73.7583 103.509 74.5679 103.279 75.4865 103.279C76.1967 103.279 76.7578 103.397 77.1697 103.634C77.5864 103.866 77.9036 104.131 78.1214 104.43C78.344 104.723 78.5168 104.965 78.6399 105.154H78.782V99.7846H80.4581V114.33H78.8388V112.654H78.6399C78.5168 112.853 78.3416 113.104 78.1143 113.407C77.8871 113.705 77.5627 113.973 77.1413 114.209C76.7199 114.441 76.1589 114.557 75.4581 114.557ZM75.6854 113.052C76.3577 113.052 76.9259 112.876 77.3899 112.526C77.8539 112.171 78.2067 111.681 78.4482 111.056C78.6896 110.426 78.8104 109.699 78.8104 108.876C78.8104 108.061 78.692 107.349 78.4553 106.738C78.2185 106.122 77.8681 105.644 77.4041 105.303C76.9401 104.957 76.3672 104.785 75.6854 104.785C74.9751 104.785 74.3833 104.967 73.9098 105.331C73.4411 105.691 73.0883 106.181 72.8516 106.802C72.6196 107.417 72.5036 108.108 72.5036 108.876C72.5036 109.652 72.6219 110.358 72.8587 110.992C73.1001 111.622 73.4553 112.124 73.924 112.498C74.3975 112.867 74.9846 113.052 75.6854 113.052ZM83.7607 114.33V103.421H85.4368V114.33H83.7607ZM84.6129 101.603C84.2862 101.603 84.0045 101.492 83.7678 101.269C83.5357 101.046 83.4197 100.779 83.4197 100.466C83.4197 100.154 83.5357 99.8864 83.7678 99.6639C84.0045 99.4413 84.2862 99.3301 84.6129 99.3301C84.9396 99.3301 85.219 99.4413 85.451 99.6639C85.6877 99.8864 85.8061 100.154 85.8061 100.466C85.8061 100.779 85.6877 101.046 85.451 101.269C85.219 101.492 84.9396 101.603 84.6129 101.603ZM93.2511 103.421V104.841H87.5977V103.421H93.2511ZM89.2454 100.807H90.9215V111.205C90.9215 111.679 90.9902 112.034 91.1275 112.27C91.2695 112.502 91.4495 112.659 91.6673 112.739C91.8898 112.815 92.1242 112.853 92.3704 112.853C92.555 112.853 92.7066 112.843 92.8249 112.824C92.9433 112.801 93.038 112.782 93.109 112.768L93.4499 114.273C93.3363 114.316 93.1777 114.358 92.9741 114.401C92.7705 114.448 92.5124 114.472 92.1999 114.472C91.7264 114.472 91.2624 114.37 90.8079 114.167C90.3581 113.963 89.984 113.653 89.6857 113.236C89.3922 112.82 89.2454 112.294 89.2454 111.66V100.807ZM95.7724 114.33V103.421H97.4485V114.33H95.7724ZM96.6246 101.603C96.2979 101.603 96.0162 101.492 95.7795 101.269C95.5475 101.046 95.4315 100.779 95.4315 100.466C95.4315 100.154 95.5475 99.8864 95.7795 99.6639C96.0162 99.4413 96.2979 99.3301 96.6246 99.3301C96.9513 99.3301 97.2307 99.4413 97.4627 99.6639C97.6995 99.8864 97.8178 100.154 97.8178 100.466C97.8178 100.779 97.6995 101.046 97.4627 101.269C97.2307 101.492 96.9513 101.603 96.6246 101.603ZM105.092 114.557C104.041 114.557 103.134 114.325 102.372 113.861C101.615 113.393 101.03 112.739 100.618 111.901C100.211 111.058 100.007 110.078 100.007 108.961C100.007 107.843 100.211 106.858 100.618 106.006C101.03 105.149 101.603 104.482 102.337 104.003C103.075 103.52 103.937 103.279 104.922 103.279C105.49 103.279 106.051 103.374 106.605 103.563C107.159 103.752 107.663 104.06 108.118 104.486C108.572 104.908 108.935 105.466 109.205 106.162C109.474 106.858 109.609 107.715 109.609 108.733V109.444H101.2V107.995H107.905C107.905 107.379 107.782 106.83 107.536 106.347C107.294 105.864 106.948 105.483 106.499 105.204C106.054 104.924 105.528 104.785 104.922 104.785C104.254 104.785 103.677 104.95 103.189 105.282C102.706 105.608 102.334 106.035 102.074 106.56C101.813 107.086 101.683 107.649 101.683 108.251V109.216C101.683 110.04 101.825 110.739 102.109 111.312C102.398 111.88 102.798 112.313 103.31 112.611C103.821 112.905 104.415 113.052 105.092 113.052C105.533 113.052 105.93 112.99 106.286 112.867C106.645 112.739 106.955 112.55 107.216 112.299C107.476 112.043 107.678 111.726 107.82 111.347L109.439 111.802C109.268 112.351 108.982 112.834 108.58 113.251C108.177 113.662 107.68 113.984 107.088 114.216C106.496 114.444 105.831 114.557 105.092 114.557ZM119.886 105.864L118.381 106.29C118.286 106.039 118.146 105.796 117.962 105.559C117.782 105.317 117.536 105.118 117.223 104.962C116.911 104.806 116.51 104.728 116.023 104.728C115.355 104.728 114.799 104.882 114.354 105.189C113.913 105.492 113.693 105.878 113.693 106.347C113.693 106.764 113.845 107.093 114.148 107.334C114.451 107.576 114.924 107.777 115.568 107.938L117.188 108.336C118.163 108.573 118.89 108.935 119.368 109.422C119.846 109.905 120.085 110.528 120.085 111.29C120.085 111.915 119.905 112.474 119.545 112.966C119.19 113.459 118.693 113.847 118.054 114.131C117.415 114.415 116.671 114.557 115.824 114.557C114.711 114.557 113.79 114.316 113.061 113.833C112.332 113.35 111.87 112.644 111.676 111.716L113.267 111.319C113.419 111.906 113.705 112.346 114.126 112.64C114.553 112.933 115.109 113.08 115.795 113.08C116.577 113.08 117.197 112.914 117.656 112.583C118.12 112.247 118.352 111.844 118.352 111.376C118.352 110.997 118.22 110.68 117.955 110.424C117.689 110.163 117.282 109.969 116.733 109.841L114.915 109.415C113.916 109.179 113.182 108.812 112.713 108.314C112.249 107.813 112.017 107.185 112.017 106.432C112.017 105.817 112.19 105.272 112.536 104.799C112.886 104.325 113.362 103.954 113.963 103.684C114.569 103.414 115.256 103.279 116.023 103.279C117.102 103.279 117.95 103.516 118.565 103.989C119.186 104.463 119.626 105.088 119.886 105.864ZM132.665 114.557C131.68 114.557 130.816 114.323 130.073 113.854C129.334 113.385 128.757 112.73 128.34 111.887C127.928 111.044 127.722 110.059 127.722 108.932C127.722 107.796 127.928 106.804 128.34 105.956C128.757 105.109 129.334 104.451 130.073 103.982C130.816 103.513 131.68 103.279 132.665 103.279C133.65 103.279 134.512 103.513 135.25 103.982C135.994 104.451 136.571 105.109 136.983 105.956C137.4 106.804 137.608 107.796 137.608 108.932C137.608 110.059 137.4 111.044 136.983 111.887C136.571 112.73 135.994 113.385 135.25 113.854C134.512 114.323 133.65 114.557 132.665 114.557ZM132.665 113.052C133.413 113.052 134.029 112.86 134.512 112.476C134.995 112.093 135.352 111.589 135.584 110.964C135.816 110.339 135.932 109.662 135.932 108.932C135.932 108.203 135.816 107.524 135.584 106.894C135.352 106.264 134.995 105.755 134.512 105.367C134.029 104.979 133.413 104.785 132.665 104.785C131.917 104.785 131.301 104.979 130.819 105.367C130.336 105.755 129.978 106.264 129.746 106.894C129.514 107.524 129.398 108.203 129.398 108.932C129.398 109.662 129.514 110.339 129.746 110.964C129.978 111.589 130.336 112.093 130.819 112.476C131.301 112.86 131.917 113.052 132.665 113.052ZM140.167 114.33V103.421H141.786V105.069H141.9C142.099 104.529 142.459 104.091 142.979 103.755C143.5 103.419 144.087 103.251 144.741 103.251C144.864 103.251 145.018 103.253 145.202 103.258C145.387 103.262 145.527 103.269 145.621 103.279V104.983C145.565 104.969 145.434 104.948 145.231 104.92C145.032 104.886 144.821 104.87 144.599 104.87C144.068 104.87 143.595 104.981 143.178 105.204C142.766 105.421 142.44 105.724 142.198 106.113C141.961 106.496 141.843 106.934 141.843 107.427V114.33H140.167ZM157.637 118.648C156.827 118.648 156.131 118.544 155.549 118.336C154.966 118.132 154.481 117.862 154.093 117.526C153.709 117.195 153.404 116.84 153.176 116.461L154.512 115.523C154.663 115.722 154.855 115.949 155.087 116.205C155.319 116.465 155.636 116.69 156.039 116.88C156.446 117.074 156.979 117.171 157.637 117.171C158.517 117.171 159.244 116.958 159.817 116.532C160.39 116.106 160.676 115.438 160.676 114.529V112.313H160.534C160.411 112.512 160.236 112.758 160.009 113.052C159.786 113.34 159.464 113.599 159.043 113.826C158.626 114.048 158.063 114.16 157.353 114.16C156.472 114.16 155.681 113.951 154.98 113.535C154.284 113.118 153.733 112.512 153.326 111.716C152.923 110.921 152.722 109.955 152.722 108.819C152.722 107.701 152.918 106.728 153.311 105.9C153.704 105.066 154.251 104.422 154.952 103.968C155.653 103.509 156.462 103.279 157.381 103.279C158.091 103.279 158.655 103.397 159.071 103.634C159.493 103.866 159.815 104.131 160.037 104.43C160.265 104.723 160.44 104.965 160.563 105.154H160.733V103.421H162.353V114.643C162.353 115.58 162.14 116.342 161.713 116.93C161.292 117.521 160.724 117.955 160.009 118.229C159.299 118.509 158.508 118.648 157.637 118.648ZM157.58 112.654C158.252 112.654 158.82 112.5 159.284 112.192C159.748 111.885 160.101 111.442 160.343 110.864C160.584 110.287 160.705 109.595 160.705 108.79C160.705 108.004 160.587 107.311 160.35 106.709C160.113 106.108 159.763 105.637 159.299 105.296C158.835 104.955 158.262 104.785 157.58 104.785C156.87 104.785 156.278 104.965 155.804 105.324C155.336 105.684 154.983 106.167 154.746 106.773C154.514 107.379 154.398 108.052 154.398 108.79C154.398 109.548 154.516 110.218 154.753 110.8C154.995 111.378 155.35 111.832 155.819 112.164C156.292 112.491 156.879 112.654 157.58 112.654ZM169.853 114.557C168.868 114.557 168.004 114.323 167.26 113.854C166.522 113.385 165.944 112.73 165.527 111.887C165.115 111.044 164.909 110.059 164.909 108.932C164.909 107.796 165.115 106.804 165.527 105.956C165.944 105.109 166.522 104.451 167.26 103.982C168.004 103.513 168.868 103.279 169.853 103.279C170.837 103.279 171.699 103.513 172.438 103.982C173.181 104.451 173.759 105.109 174.171 105.956C174.587 106.804 174.796 107.796 174.796 108.932C174.796 110.059 174.587 111.044 174.171 111.887C173.759 112.73 173.181 113.385 172.438 113.854C171.699 114.323 170.837 114.557 169.853 114.557ZM169.853 113.052C170.601 113.052 171.216 112.86 171.699 112.476C172.182 112.093 172.54 111.589 172.772 110.964C173.004 110.339 173.12 109.662 173.12 108.932C173.12 108.203 173.004 107.524 172.772 106.894C172.54 106.264 172.182 105.755 171.699 105.367C171.216 104.979 170.601 104.785 169.853 104.785C169.105 104.785 168.489 104.979 168.006 105.367C167.523 105.755 167.166 106.264 166.934 106.894C166.702 107.524 166.586 108.203 166.586 108.932C166.586 109.662 166.702 110.339 166.934 110.964C167.166 111.589 167.523 112.093 168.006 112.476C168.489 112.86 169.105 113.052 169.853 113.052ZM181.786 114.557C180.801 114.557 179.937 114.323 179.194 113.854C178.455 113.385 177.878 112.73 177.461 111.887C177.049 111.044 176.843 110.059 176.843 108.932C176.843 107.796 177.049 106.804 177.461 105.956C177.878 105.109 178.455 104.451 179.194 103.982C179.937 103.513 180.801 103.279 181.786 103.279C182.771 103.279 183.633 103.513 184.371 103.982C185.115 104.451 185.692 105.109 186.104 105.956C186.521 106.804 186.729 107.796 186.729 108.932C186.729 110.059 186.521 111.044 186.104 111.887C185.692 112.73 185.115 113.385 184.371 113.854C183.633 114.323 182.771 114.557 181.786 114.557ZM181.786 113.052C182.534 113.052 183.15 112.86 183.633 112.476C184.116 112.093 184.473 111.589 184.705 110.964C184.937 110.339 185.053 109.662 185.053 108.932C185.053 108.203 184.937 107.524 184.705 106.894C184.473 106.264 184.116 105.755 183.633 105.367C183.15 104.979 182.534 104.785 181.786 104.785C181.038 104.785 180.423 104.979 179.94 105.367C179.457 105.755 179.099 106.264 178.867 106.894C178.635 107.524 178.519 108.203 178.519 108.932C178.519 109.662 178.635 110.339 178.867 110.964C179.099 111.589 179.457 112.093 179.94 112.476C180.423 112.86 181.038 113.052 181.786 113.052ZM193.407 114.557C192.498 114.557 191.696 114.328 191 113.868C190.304 113.404 189.759 112.751 189.366 111.908C188.973 111.061 188.777 110.059 188.777 108.904C188.777 107.758 188.973 106.764 189.366 105.921C189.759 105.078 190.306 104.427 191.007 103.968C191.708 103.509 192.517 103.279 193.436 103.279C194.146 103.279 194.707 103.397 195.119 103.634C195.536 103.866 195.853 104.131 196.071 104.43C196.293 104.723 196.466 104.965 196.589 105.154H196.731V99.7846H198.407V114.33H196.788V112.654H196.589C196.466 112.853 196.291 113.104 196.064 113.407C195.836 113.705 195.512 113.973 195.091 114.209C194.669 114.441 194.108 114.557 193.407 114.557ZM193.635 113.052C194.307 113.052 194.875 112.876 195.339 112.526C195.803 112.171 196.156 111.681 196.397 111.056C196.639 110.426 196.76 109.699 196.76 108.876C196.76 108.061 196.641 107.349 196.404 106.738C196.168 106.122 195.817 105.644 195.353 105.303C194.889 104.957 194.316 104.785 193.635 104.785C192.924 104.785 192.333 104.967 191.859 105.331C191.39 105.691 191.038 106.181 190.801 106.802C190.569 107.417 190.453 108.108 190.453 108.876C190.453 109.652 190.571 110.358 190.808 110.992C191.049 111.622 191.404 112.124 191.873 112.498C192.347 112.867 192.934 113.052 193.635 113.052ZM209.437 105.864L207.931 106.29C207.837 106.039 207.697 105.796 207.512 105.559C207.333 105.317 207.086 105.118 206.774 104.962C206.461 104.806 206.061 104.728 205.574 104.728C204.906 104.728 204.35 104.882 203.904 105.189C203.464 105.492 203.244 105.878 203.244 106.347C203.244 106.764 203.395 107.093 203.699 107.334C204.002 107.576 204.475 107.777 205.119 107.938L206.738 108.336C207.714 108.573 208.44 108.935 208.919 109.422C209.397 109.905 209.636 110.528 209.636 111.29C209.636 111.915 209.456 112.474 209.096 112.966C208.741 113.459 208.244 113.847 207.605 114.131C206.966 114.415 206.222 114.557 205.375 114.557C204.262 114.557 203.341 114.316 202.612 113.833C201.883 113.35 201.421 112.644 201.227 111.716L202.818 111.319C202.969 111.906 203.256 112.346 203.677 112.64C204.103 112.933 204.66 113.08 205.346 113.08C206.127 113.08 206.748 112.914 207.207 112.583C207.671 112.247 207.903 111.844 207.903 111.376C207.903 110.997 207.77 110.68 207.505 110.424C207.24 110.163 206.833 109.969 206.284 109.841L204.466 109.415C203.467 109.179 202.733 108.812 202.264 108.314C201.8 107.813 201.568 107.185 201.568 106.432C201.568 105.817 201.741 105.272 202.086 104.799C202.437 104.325 202.913 103.954 203.514 103.684C204.12 103.414 204.806 103.279 205.574 103.279C206.653 103.279 207.501 103.516 208.116 103.989C208.736 104.463 209.177 105.088 209.437 105.864ZM222.528 103.421V104.841H216.875V103.421H222.528ZM218.523 100.807H220.199V111.205C220.199 111.679 220.268 112.034 220.405 112.27C220.547 112.502 220.727 112.659 220.945 112.739C221.167 112.815 221.402 112.853 221.648 112.853C221.832 112.853 221.984 112.843 222.102 112.824C222.221 112.801 222.315 112.782 222.386 112.768L222.727 114.273C222.614 114.316 222.455 114.358 222.251 114.401C222.048 114.448 221.79 114.472 221.477 114.472C221.004 114.472 220.54 114.37 220.085 114.167C219.635 113.963 219.261 113.653 218.963 113.236C218.67 112.82 218.523 112.294 218.523 111.66V100.807ZM229.364 114.557C228.379 114.557 227.515 114.323 226.772 113.854C226.033 113.385 225.456 112.73 225.039 111.887C224.627 111.044 224.421 110.059 224.421 108.932C224.421 107.796 224.627 106.804 225.039 105.956C225.456 105.109 226.033 104.451 226.772 103.982C227.515 103.513 228.379 103.279 229.364 103.279C230.349 103.279 231.211 103.513 231.95 103.982C232.693 104.451 233.271 105.109 233.683 105.956C234.099 106.804 234.308 107.796 234.308 108.932C234.308 110.059 234.099 111.044 233.683 111.887C233.271 112.73 232.693 113.385 231.95 113.854C231.211 114.323 230.349 114.557 229.364 114.557ZM229.364 113.052C230.112 113.052 230.728 112.86 231.211 112.476C231.694 112.093 232.051 111.589 232.283 110.964C232.515 110.339 232.631 109.662 232.631 108.932C232.631 108.203 232.515 107.524 232.283 106.894C232.051 106.264 231.694 105.755 231.211 105.367C230.728 104.979 230.112 104.785 229.364 104.785C228.616 104.785 228.001 104.979 227.518 105.367C227.035 105.755 226.677 106.264 226.445 106.894C226.213 107.524 226.097 108.203 226.097 108.932C226.097 109.662 226.213 110.339 226.445 110.964C226.677 111.589 227.035 112.093 227.518 112.476C228.001 112.86 228.616 113.052 229.364 113.052ZM242.491 118.421V103.421H244.11V105.154H244.309C244.432 104.965 244.603 104.723 244.821 104.43C245.043 104.131 245.36 103.866 245.772 103.634C246.189 103.397 246.752 103.279 247.463 103.279C248.381 103.279 249.191 103.509 249.892 103.968C250.592 104.427 251.139 105.078 251.532 105.921C251.925 106.764 252.122 107.758 252.122 108.904C252.122 110.059 251.925 111.061 251.532 111.908C251.139 112.751 250.595 113.404 249.899 113.868C249.203 114.328 248.4 114.557 247.491 114.557C246.79 114.557 246.229 114.441 245.808 114.209C245.386 113.973 245.062 113.705 244.835 113.407C244.608 113.104 244.432 112.853 244.309 112.654H244.167V118.421H242.491ZM244.139 108.876C244.139 109.699 244.26 110.426 244.501 111.056C244.743 111.681 245.095 112.171 245.559 112.526C246.023 112.876 246.592 113.052 247.264 113.052C247.965 113.052 248.549 112.867 249.018 112.498C249.492 112.124 249.847 111.622 250.083 110.992C250.325 110.358 250.446 109.652 250.446 108.876C250.446 108.108 250.327 107.417 250.091 106.802C249.859 106.181 249.506 105.691 249.032 105.331C248.564 104.967 247.974 104.785 247.264 104.785C246.582 104.785 246.009 104.957 245.545 105.303C245.081 105.644 244.731 106.122 244.494 106.738C244.257 107.349 244.139 108.061 244.139 108.876ZM259.11 114.557C258.126 114.557 257.261 114.323 256.518 113.854C255.779 113.385 255.202 112.73 254.785 111.887C254.373 111.044 254.167 110.059 254.167 108.932C254.167 107.796 254.373 106.804 254.785 105.956C255.202 105.109 255.779 104.451 256.518 103.982C257.261 103.513 258.126 103.279 259.11 103.279C260.095 103.279 260.957 103.513 261.696 103.982C262.439 104.451 263.017 105.109 263.429 105.956C263.845 106.804 264.054 107.796 264.054 108.932C264.054 110.059 263.845 111.044 263.429 111.887C263.017 112.73 262.439 113.385 261.696 113.854C260.957 114.323 260.095 114.557 259.11 114.557ZM259.11 113.052C259.859 113.052 260.474 112.86 260.957 112.476C261.44 112.093 261.797 111.589 262.029 110.964C262.261 110.339 262.377 109.662 262.377 108.932C262.377 108.203 262.261 107.524 262.029 106.894C261.797 106.264 261.44 105.755 260.957 105.367C260.474 104.979 259.859 104.785 259.11 104.785C258.362 104.785 257.747 104.979 257.264 105.367C256.781 105.755 256.423 106.264 256.191 106.894C255.959 107.524 255.843 108.203 255.843 108.932C255.843 109.662 255.959 110.339 256.191 110.964C256.423 111.589 256.781 112.093 257.264 112.476C257.747 112.86 258.362 113.052 259.11 113.052ZM271.357 103.421V104.841H265.703V103.421H271.357ZM267.351 100.807H269.027V111.205C269.027 111.679 269.096 112.034 269.233 112.27C269.375 112.502 269.555 112.659 269.773 112.739C269.995 112.815 270.23 112.853 270.476 112.853C270.661 112.853 270.812 112.843 270.93 112.824C271.049 112.801 271.143 112.782 271.214 112.768L271.555 114.273C271.442 114.316 271.283 114.358 271.08 114.401C270.876 114.448 270.618 114.472 270.305 114.472C269.832 114.472 269.368 114.37 268.913 114.167C268.464 113.963 268.089 113.653 267.791 113.236C267.498 112.82 267.351 112.294 267.351 111.66V100.807ZM278.335 114.557C277.283 114.557 276.377 114.325 275.614 113.861C274.857 113.393 274.272 112.739 273.86 111.901C273.453 111.058 273.249 110.078 273.249 108.961C273.249 107.843 273.453 106.858 273.86 106.006C274.272 105.149 274.845 104.482 275.579 104.003C276.317 103.52 277.179 103.279 278.164 103.279C278.732 103.279 279.293 103.374 279.847 103.563C280.401 103.752 280.906 104.06 281.36 104.486C281.815 104.908 282.177 105.466 282.447 106.162C282.717 106.858 282.852 107.715 282.852 108.733V109.444H274.442V107.995H281.147C281.147 107.379 281.024 106.83 280.778 106.347C280.536 105.864 280.191 105.483 279.741 105.204C279.296 104.924 278.77 104.785 278.164 104.785C277.496 104.785 276.919 104.95 276.431 105.282C275.948 105.608 275.576 106.035 275.316 106.56C275.056 107.086 274.925 107.649 274.925 108.251V109.216C274.925 110.04 275.067 110.739 275.352 111.312C275.64 111.88 276.04 112.313 276.552 112.611C277.063 112.905 277.657 113.052 278.335 113.052C278.775 113.052 279.173 112.99 279.528 112.867C279.888 112.739 280.198 112.55 280.458 112.299C280.719 112.043 280.92 111.726 281.062 111.347L282.681 111.802C282.511 112.351 282.224 112.834 281.822 113.251C281.419 113.662 280.922 113.984 280.33 114.216C279.738 114.444 279.073 114.557 278.335 114.557ZM287.077 107.768V114.33H285.401V103.421H287.021V105.126H287.163C287.418 104.572 287.807 104.126 288.327 103.79C288.848 103.449 289.521 103.279 290.344 103.279C291.083 103.279 291.729 103.43 292.283 103.733C292.837 104.032 293.268 104.486 293.576 105.097C293.884 105.703 294.038 106.47 294.038 107.398V114.33H292.362V107.512C292.362 106.655 292.139 105.987 291.694 105.509C291.249 105.026 290.638 104.785 289.862 104.785C289.326 104.785 288.848 104.901 288.427 105.133C288.01 105.365 287.681 105.703 287.44 106.148C287.198 106.593 287.077 107.133 287.077 107.768ZM301.845 103.421V104.841H296.191V103.421H301.845ZM297.839 100.807H299.515V111.205C299.515 111.679 299.584 112.034 299.721 112.27C299.863 112.502 300.043 112.659 300.261 112.739C300.484 112.815 300.718 112.853 300.964 112.853C301.149 112.853 301.3 112.843 301.419 112.824C301.537 112.801 301.632 112.782 301.703 112.768L302.044 114.273C301.93 114.316 301.771 114.358 301.568 114.401C301.364 114.448 301.106 114.472 300.794 114.472C300.32 114.472 299.856 114.37 299.402 114.167C298.952 113.963 298.578 113.653 298.279 113.236C297.986 112.82 297.839 112.294 297.839 111.66V100.807ZM304.366 114.33V103.421H306.042V114.33H304.366ZM305.218 101.603C304.892 101.603 304.61 101.492 304.373 101.269C304.141 101.046 304.025 100.779 304.025 100.466C304.025 100.154 304.141 99.8864 304.373 99.6639C304.61 99.4413 304.892 99.3301 305.218 99.3301C305.545 99.3301 305.824 99.4413 306.056 99.6639C306.293 99.8864 306.412 100.154 306.412 100.466C306.412 100.779 306.293 101.046 306.056 101.269C305.824 101.492 305.545 101.603 305.218 101.603ZM312.322 114.586C311.631 114.586 311.004 114.456 310.44 114.195C309.877 113.93 309.429 113.549 309.098 113.052C308.767 112.55 308.601 111.944 308.601 111.233C308.601 110.608 308.724 110.102 308.97 109.714C309.216 109.321 309.545 109.013 309.957 108.79C310.369 108.568 310.824 108.402 311.321 108.293C311.823 108.18 312.327 108.09 312.834 108.023C313.497 107.938 314.034 107.874 314.446 107.831C314.863 107.784 315.166 107.706 315.355 107.597C315.549 107.488 315.646 107.299 315.646 107.029V106.972C315.646 106.271 315.455 105.727 315.071 105.339C314.692 104.95 314.117 104.756 313.345 104.756C312.545 104.756 311.918 104.931 311.463 105.282C311.009 105.632 310.689 106.006 310.504 106.404L308.913 105.836C309.197 105.173 309.576 104.657 310.05 104.287C310.528 103.913 311.049 103.653 311.612 103.506C312.18 103.355 312.739 103.279 313.288 103.279C313.639 103.279 314.041 103.322 314.496 103.407C314.955 103.487 315.398 103.655 315.824 103.911C316.255 104.167 316.612 104.553 316.896 105.069C317.18 105.585 317.322 106.276 317.322 107.143V114.33H315.646V112.853H315.561C315.447 113.09 315.258 113.343 314.993 113.613C314.728 113.883 314.375 114.112 313.935 114.302C313.494 114.491 312.957 114.586 312.322 114.586ZM312.578 113.08C313.241 113.08 313.8 112.95 314.254 112.689C314.714 112.429 315.059 112.093 315.291 111.681C315.528 111.269 315.646 110.836 315.646 110.381V108.847C315.575 108.932 315.419 109.01 315.178 109.081C314.941 109.148 314.666 109.207 314.354 109.259C314.046 109.306 313.745 109.349 313.452 109.387C313.163 109.42 312.929 109.448 312.749 109.472C312.313 109.529 311.906 109.621 311.527 109.749C311.153 109.872 310.85 110.059 310.618 110.31C310.391 110.556 310.277 110.893 310.277 111.319C310.277 111.901 310.492 112.341 310.923 112.64C311.359 112.933 311.911 113.08 312.578 113.08ZM322.058 99.7846V114.33H320.382V99.7846H322.058ZM335.185 114.557C334.162 114.557 333.281 114.316 332.543 113.833C331.804 113.35 331.236 112.685 330.838 111.837C330.44 110.99 330.241 110.021 330.241 108.932C330.241 107.824 330.445 106.847 330.852 105.999C331.264 105.147 331.837 104.482 332.571 104.003C333.31 103.52 334.171 103.279 335.156 103.279C335.923 103.279 336.615 103.421 337.23 103.705C337.846 103.989 338.35 104.387 338.743 104.898C339.136 105.41 339.38 106.006 339.474 106.688H337.798C337.67 106.191 337.386 105.751 336.946 105.367C336.51 104.979 335.923 104.785 335.185 104.785C334.531 104.785 333.958 104.955 333.466 105.296C332.978 105.632 332.597 106.108 332.322 106.724C332.053 107.334 331.918 108.052 331.918 108.876C331.918 109.718 332.05 110.452 332.315 111.077C332.585 111.702 332.964 112.188 333.452 112.533C333.944 112.879 334.522 113.052 335.185 113.052C335.62 113.052 336.016 112.976 336.371 112.824C336.726 112.673 337.027 112.455 337.273 112.171C337.519 111.887 337.694 111.546 337.798 111.148H339.474C339.38 111.792 339.145 112.372 338.771 112.888C338.402 113.4 337.912 113.807 337.301 114.11C336.695 114.408 335.99 114.557 335.185 114.557ZM343.601 99.7846V114.33H341.925V99.7846H343.601ZM346.671 114.33V103.421H348.347V114.33H346.671ZM347.523 101.603C347.196 101.603 346.915 101.492 346.678 101.269C346.446 101.046 346.33 100.779 346.33 100.466C346.33 100.154 346.446 99.8864 346.678 99.6639C346.915 99.4413 347.196 99.3301 347.523 99.3301C347.85 99.3301 348.129 99.4413 348.361 99.6639C348.598 99.8864 348.716 100.154 348.716 100.466C348.716 100.779 348.598 101.046 348.361 101.269C348.129 101.492 347.85 101.603 347.523 101.603ZM355.991 114.557C354.94 114.557 354.033 114.325 353.271 113.861C352.513 113.393 351.928 112.739 351.516 111.901C351.109 111.058 350.906 110.078 350.906 108.961C350.906 107.843 351.109 106.858 351.516 106.006C351.928 105.149 352.501 104.482 353.235 104.003C353.974 103.52 354.835 103.279 355.82 103.279C356.388 103.279 356.95 103.374 357.504 103.563C358.058 103.752 358.562 104.06 359.016 104.486C359.471 104.908 359.833 105.466 360.103 106.162C360.373 106.858 360.508 107.715 360.508 108.733V109.444H352.099V107.995H358.803C358.803 107.379 358.68 106.83 358.434 106.347C358.192 105.864 357.847 105.483 357.397 105.204C356.952 104.924 356.426 104.785 355.82 104.785C355.153 104.785 354.575 104.95 354.087 105.282C353.604 105.608 353.233 106.035 352.972 106.56C352.712 107.086 352.582 107.649 352.582 108.251V109.216C352.582 110.04 352.724 110.739 353.008 111.312C353.297 111.88 353.697 112.313 354.208 112.611C354.719 112.905 355.314 113.052 355.991 113.052C356.431 113.052 356.829 112.99 357.184 112.867C357.544 112.739 357.854 112.55 358.114 112.299C358.375 112.043 358.576 111.726 358.718 111.347L360.337 111.802C360.167 112.351 359.88 112.834 359.478 113.251C359.076 113.662 358.578 113.984 357.987 114.216C357.395 114.444 356.729 114.557 355.991 114.557ZM364.734 107.768V114.33H363.058V103.421H364.677V105.126H364.819C365.075 104.572 365.463 104.126 365.984 103.79C366.504 103.449 367.177 103.279 368.001 103.279C368.739 103.279 369.386 103.43 369.94 103.733C370.494 104.032 370.924 104.486 371.232 105.097C371.54 105.703 371.694 106.47 371.694 107.398V114.33H370.018V107.512C370.018 106.655 369.795 105.987 369.35 105.509C368.905 105.026 368.294 104.785 367.518 104.785C366.983 104.785 366.504 104.901 366.083 105.133C365.666 105.365 365.337 105.703 365.096 106.148C364.854 106.593 364.734 107.133 364.734 107.768ZM379.501 103.421V104.841H373.848V103.421H379.501ZM375.495 100.807H377.172V111.205C377.172 111.679 377.24 112.034 377.377 112.27C377.52 112.502 377.699 112.659 377.917 112.739C378.14 112.815 378.374 112.853 378.62 112.853C378.805 112.853 378.957 112.843 379.075 112.824C379.193 112.801 379.288 112.782 379.359 112.768L379.7 114.273C379.586 114.316 379.428 114.358 379.224 114.401C379.02 114.448 378.762 114.472 378.45 114.472C377.976 114.472 377.512 114.37 377.058 114.167C376.608 113.963 376.234 113.653 375.936 113.236C375.642 112.82 375.495 112.294 375.495 111.66V100.807ZM389.554 105.864L388.049 106.29C387.954 106.039 387.814 105.796 387.63 105.559C387.45 105.317 387.203 105.118 386.891 104.962C386.578 104.806 386.178 104.728 385.691 104.728C385.023 104.728 384.467 104.882 384.022 105.189C383.581 105.492 383.361 105.878 383.361 106.347C383.361 106.764 383.513 107.093 383.816 107.334C384.119 107.576 384.592 107.777 385.236 107.938L386.855 108.336C387.831 108.573 388.558 108.935 389.036 109.422C389.514 109.905 389.753 110.528 389.753 111.29C389.753 111.915 389.573 112.474 389.213 112.966C388.858 113.459 388.361 113.847 387.722 114.131C387.083 114.415 386.339 114.557 385.492 114.557C384.379 114.557 383.458 114.316 382.729 113.833C382 113.35 381.538 112.644 381.344 111.716L382.935 111.319C383.087 111.906 383.373 112.346 383.794 112.64C384.221 112.933 384.777 113.08 385.463 113.08C386.245 113.08 386.865 112.914 387.324 112.583C387.788 112.247 388.02 111.844 388.02 111.376C388.02 110.997 387.888 110.68 387.623 110.424C387.357 110.163 386.95 109.969 386.401 109.841L384.583 109.415C383.584 109.179 382.85 108.812 382.381 108.314C381.917 107.813 381.685 107.185 381.685 106.432C381.685 105.817 381.858 105.272 382.203 104.799C382.554 104.325 383.03 103.954 383.631 103.684C384.237 103.414 384.924 103.279 385.691 103.279C386.77 103.279 387.618 103.516 388.233 103.989C388.854 104.463 389.294 105.088 389.554 105.864ZM401.112 114.586C400.42 114.586 399.793 114.456 399.229 114.195C398.666 113.93 398.219 113.549 397.887 113.052C397.556 112.55 397.39 111.944 397.39 111.233C397.39 110.608 397.513 110.102 397.759 109.714C398.005 109.321 398.335 109.013 398.746 108.79C399.158 108.568 399.613 108.402 400.11 108.293C400.612 108.18 401.116 108.09 401.623 108.023C402.286 107.938 402.823 107.874 403.235 107.831C403.652 107.784 403.955 107.706 404.144 107.597C404.338 107.488 404.435 107.299 404.435 107.029V106.972C404.435 106.271 404.244 105.727 403.86 105.339C403.481 104.95 402.906 104.756 402.134 104.756C401.334 104.756 400.707 104.931 400.252 105.282C399.798 105.632 399.478 106.006 399.293 106.404L397.702 105.836C397.987 105.173 398.365 104.657 398.839 104.287C399.317 103.913 399.838 103.653 400.401 103.506C400.969 103.355 401.528 103.279 402.077 103.279C402.428 103.279 402.83 103.322 403.285 103.407C403.744 103.487 404.187 103.655 404.613 103.911C405.044 104.167 405.401 104.553 405.685 105.069C405.969 105.585 406.112 106.276 406.112 107.143V114.33H404.435V112.853H404.35C404.237 113.09 404.047 113.343 403.782 113.613C403.517 113.883 403.164 114.112 402.724 114.302C402.283 114.491 401.746 114.586 401.112 114.586ZM401.367 113.08C402.03 113.08 402.589 112.95 403.043 112.689C403.503 112.429 403.848 112.093 404.08 111.681C404.317 111.269 404.435 110.836 404.435 110.381V108.847C404.364 108.932 404.208 109.01 403.967 109.081C403.73 109.148 403.455 109.207 403.143 109.259C402.835 109.306 402.534 109.349 402.241 109.387C401.952 109.42 401.718 109.448 401.538 109.472C401.102 109.529 400.695 109.621 400.316 109.749C399.942 109.872 399.639 110.059 399.407 110.31C399.18 110.556 399.066 110.893 399.066 111.319C399.066 111.901 399.281 112.341 399.712 112.64C400.148 112.933 400.7 113.08 401.367 113.08ZM413.915 103.421V104.841H408.262V103.421H413.915ZM409.909 100.807H411.586V111.205C411.586 111.679 411.654 112.034 411.792 112.27C411.934 112.502 412.114 112.659 412.331 112.739C412.554 112.815 412.788 112.853 413.034 112.853C413.219 112.853 413.371 112.843 413.489 112.824C413.607 112.801 413.702 112.782 413.773 112.768L414.114 114.273C414 114.316 413.842 114.358 413.638 114.401C413.435 114.448 413.176 114.472 412.864 114.472C412.391 114.472 411.926 114.37 411.472 114.167C411.022 113.963 410.648 113.653 410.35 113.236C410.056 112.82 409.909 112.294 409.909 111.66V100.807ZM425.272 114.586C424.58 114.586 423.953 114.456 423.39 114.195C422.826 113.93 422.379 113.549 422.047 113.052C421.716 112.55 421.55 111.944 421.55 111.233C421.55 110.608 421.673 110.102 421.919 109.714C422.166 109.321 422.495 109.013 422.907 108.79C423.319 108.568 423.773 108.402 424.27 108.293C424.772 108.18 425.276 108.09 425.783 108.023C426.446 107.938 426.983 107.874 427.395 107.831C427.812 107.784 428.115 107.706 428.304 107.597C428.498 107.488 428.596 107.299 428.596 107.029V106.972C428.596 106.271 428.404 105.727 428.02 105.339C427.641 104.95 427.066 104.756 426.294 104.756C425.494 104.756 424.867 104.931 424.412 105.282C423.958 105.632 423.638 106.006 423.453 106.404L421.863 105.836C422.147 105.173 422.525 104.657 422.999 104.287C423.477 103.913 423.998 103.653 424.561 103.506C425.13 103.355 425.688 103.279 426.238 103.279C426.588 103.279 426.99 103.322 427.445 103.407C427.904 103.487 428.347 103.655 428.773 103.911C429.204 104.167 429.561 104.553 429.846 105.069C430.13 105.585 430.272 106.276 430.272 107.143V114.33H428.596V112.853H428.51C428.397 113.09 428.207 113.343 427.942 113.613C427.677 113.883 427.324 114.112 426.884 114.302C426.444 114.491 425.906 114.586 425.272 114.586ZM425.527 113.08C426.19 113.08 426.749 112.95 427.203 112.689C427.663 112.429 428.008 112.093 428.24 111.681C428.477 111.269 428.596 110.836 428.596 110.381V108.847C428.525 108.932 428.368 109.01 428.127 109.081C427.89 109.148 427.615 109.207 427.303 109.259C426.995 109.306 426.694 109.349 426.401 109.387C426.112 109.42 425.878 109.448 425.698 109.472C425.262 109.529 424.855 109.621 424.476 109.749C424.102 109.872 423.799 110.059 423.567 110.31C423.34 110.556 423.226 110.893 423.226 111.319C423.226 111.901 423.442 112.341 423.873 112.64C424.308 112.933 424.86 113.08 425.527 113.08ZM447.876 103.421L443.842 114.33H442.138L438.104 103.421H439.922L442.933 112.114H443.047L446.058 103.421H447.876ZM454.272 114.557C453.221 114.557 452.314 114.325 451.552 113.861C450.794 113.393 450.21 112.739 449.798 111.901C449.39 111.058 449.187 110.078 449.187 108.961C449.187 107.843 449.39 106.858 449.798 106.006C450.21 105.149 450.782 104.482 451.516 104.003C452.255 103.52 453.117 103.279 454.102 103.279C454.67 103.279 455.231 103.374 455.785 103.563C456.339 103.752 456.843 104.06 457.298 104.486C457.752 104.908 458.114 105.466 458.384 106.162C458.654 106.858 458.789 107.715 458.789 108.733V109.444H450.38V107.995H457.085C457.085 107.379 456.961 106.83 456.715 106.347C456.474 105.864 456.128 105.483 455.678 105.204C455.233 104.924 454.708 104.785 454.102 104.785C453.434 104.785 452.856 104.95 452.369 105.282C451.886 105.608 451.514 106.035 451.254 106.56C450.993 107.086 450.863 107.649 450.863 108.251V109.216C450.863 110.04 451.005 110.739 451.289 111.312C451.578 111.88 451.978 112.313 452.489 112.611C453.001 112.905 453.595 113.052 454.272 113.052C454.712 113.052 455.11 112.99 455.465 112.867C455.825 112.739 456.135 112.55 456.396 112.299C456.656 112.043 456.857 111.726 456.999 111.347L458.619 111.802C458.448 112.351 458.162 112.834 457.759 113.251C457.357 113.662 456.86 113.984 456.268 114.216C455.676 114.444 455.011 114.557 454.272 114.557ZM461.339 114.33V103.421H462.958V105.069H463.072C463.271 104.529 463.63 104.091 464.151 103.755C464.672 103.419 465.259 103.251 465.913 103.251C466.036 103.251 466.19 103.253 466.374 103.258C466.559 103.262 466.699 103.269 466.793 103.279V104.983C466.737 104.969 466.606 104.948 466.403 104.92C466.204 104.886 465.993 104.87 465.771 104.87C465.24 104.87 464.767 104.981 464.35 105.204C463.938 105.421 463.612 105.724 463.37 106.113C463.133 106.496 463.015 106.934 463.015 107.427V114.33H461.339ZM470.192 118.421C469.908 118.421 469.654 118.397 469.432 118.35C469.209 118.307 469.055 118.265 468.97 118.222L469.396 116.745C469.804 116.849 470.163 116.887 470.476 116.858C470.788 116.83 471.065 116.69 471.307 116.439C471.553 116.193 471.778 115.793 471.982 115.239L472.294 114.387L468.26 103.421H470.078L473.089 112.114H473.203L476.214 103.421H478.033L473.402 115.921C473.194 116.484 472.936 116.951 472.628 117.32C472.32 117.694 471.963 117.971 471.555 118.151C471.153 118.331 470.698 118.421 470.192 118.421ZM3.21023 128.785V143.33H1.53409V128.785H3.21023ZM10.712 143.557C9.72715 143.557 8.86304 143.323 8.11967 142.854C7.38104 142.385 6.80339 141.73 6.38672 140.887C5.97479 140.044 5.76882 139.059 5.76882 137.932C5.76882 136.796 5.97479 135.804 6.38672 134.956C6.80339 134.109 7.38104 133.451 8.11967 132.982C8.86304 132.513 9.72715 132.279 10.712 132.279C11.6969 132.279 12.5586 132.513 13.2972 132.982C14.0406 133.451 14.6183 134.109 15.0302 134.956C15.4469 135.804 15.6552 136.796 15.6552 137.932C15.6552 139.059 15.4469 140.044 15.0302 140.887C14.6183 141.73 14.0406 142.385 13.2972 142.854C12.5586 143.323 11.6969 143.557 10.712 143.557ZM10.712 142.052C11.4601 142.052 12.0756 141.86 12.5586 141.476C13.0415 141.093 13.399 140.589 13.631 139.964C13.863 139.339 13.979 138.662 13.979 137.932C13.979 137.203 13.863 136.524 13.631 135.894C13.399 135.264 13.0415 134.755 12.5586 134.367C12.0756 133.979 11.4601 133.785 10.712 133.785C9.9639 133.785 9.34837 133.979 8.86541 134.367C8.38246 134.755 8.02498 135.264 7.79297 135.894C7.56096 136.524 7.44496 137.203 7.44496 137.932C7.44496 138.662 7.56096 139.339 7.79297 139.964C8.02498 140.589 8.38246 141.093 8.86541 141.476C9.34837 141.86 9.9639 142.052 10.712 142.052ZM20.3143 143.33L16.9904 132.421H18.7518L21.1097 140.773H21.2234L23.5529 132.421H25.3427L27.6438 140.745H27.7575L30.1154 132.421H31.8768L28.5529 143.33H26.9052L24.5188 134.949H24.3484L21.962 143.33H20.3143ZM44.1495 143.557C43.1268 143.557 42.2461 143.316 41.5075 142.833C40.7688 142.35 40.2006 141.685 39.8029 140.837C39.4052 139.99 39.2063 139.021 39.2063 137.932C39.2063 136.824 39.4099 135.847 39.8171 134.999C40.229 134.147 40.802 133.482 41.5359 133.003C42.2745 132.52 43.1362 132.279 44.1211 132.279C44.8881 132.279 45.5794 132.421 46.195 132.705C46.8105 132.989 47.3147 133.387 47.7077 133.898C48.1007 134.41 48.3446 135.006 48.4393 135.688H46.7631C46.6353 135.191 46.3512 134.751 45.9109 134.367C45.4753 133.979 44.8881 133.785 44.1495 133.785C43.4961 133.785 42.9232 133.955 42.4308 134.296C41.9431 134.632 41.5619 135.108 41.2873 135.724C41.0174 136.334 40.8825 137.052 40.8825 137.876C40.8825 138.718 41.015 139.452 41.2802 140.077C41.5501 140.702 41.9289 141.188 42.4165 141.533C42.909 141.879 43.4866 142.052 44.1495 142.052C44.5851 142.052 44.9805 141.976 45.3356 141.824C45.6907 141.673 45.9914 141.455 46.2376 141.171C46.4838 140.887 46.659 140.546 46.7631 140.148H48.4393C48.3446 140.792 48.1102 141.372 47.7362 141.888C47.3668 142.4 46.8768 142.807 46.266 143.11C45.6599 143.408 44.9544 143.557 44.1495 143.557ZM55.3214 143.557C54.3365 143.557 53.4724 143.323 52.729 142.854C51.9904 142.385 51.4128 141.73 50.9961 140.887C50.5842 140.044 50.3782 139.059 50.3782 137.932C50.3782 136.796 50.5842 135.804 50.9961 134.956C51.4128 134.109 51.9904 133.451 52.729 132.982C53.4724 132.513 54.3365 132.279 55.3214 132.279C56.3062 132.279 57.168 132.513 57.9066 132.982C58.65 133.451 59.2276 134.109 59.6396 134.956C60.0562 135.804 60.2646 136.796 60.2646 137.932C60.2646 139.059 60.0562 140.044 59.6396 140.887C59.2276 141.73 58.65 142.385 57.9066 142.854C57.168 143.323 56.3062 143.557 55.3214 143.557ZM55.3214 142.052C56.0695 142.052 56.685 141.86 57.168 141.476C57.6509 141.093 58.0084 140.589 58.2404 139.964C58.4724 139.339 58.5884 138.662 58.5884 137.932C58.5884 137.203 58.4724 136.524 58.2404 135.894C58.0084 135.264 57.6509 134.755 57.168 134.367C56.685 133.979 56.0695 133.785 55.3214 133.785C54.5733 133.785 53.9577 133.979 53.4748 134.367C52.9918 134.755 52.6344 135.264 52.4023 135.894C52.1703 136.524 52.0543 137.203 52.0543 137.932C52.0543 138.662 52.1703 139.339 52.4023 139.964C52.6344 140.589 52.9918 141.093 53.4748 141.476C53.9577 141.86 54.5733 142.052 55.3214 142.052ZM70.5504 134.864L69.0447 135.29C68.95 135.039 68.8104 134.796 68.6257 134.559C68.4458 134.317 68.1996 134.118 67.8871 133.962C67.5746 133.806 67.1745 133.728 66.6868 133.728C66.0192 133.728 65.4628 133.882 65.0178 134.189C64.5774 134.492 64.3572 134.878 64.3572 135.347C64.3572 135.764 64.5088 136.093 64.8118 136.334C65.1148 136.576 65.5883 136.777 66.2322 136.938L67.8516 137.336C68.8269 137.573 69.5537 137.935 70.032 138.422C70.5102 138.905 70.7493 139.528 70.7493 140.29C70.7493 140.915 70.5694 141.474 70.2095 141.966C69.8544 142.459 69.3572 142.847 68.718 143.131C68.0788 143.415 67.3355 143.557 66.4879 143.557C65.3752 143.557 64.4543 143.316 63.7251 142.833C62.996 142.35 62.5343 141.644 62.3402 140.716L63.9311 140.319C64.0826 140.906 64.3691 141.346 64.7905 141.64C65.2166 141.933 65.773 142.08 66.4595 142.08C67.2408 142.08 67.861 141.914 68.3203 141.583C68.7843 141.247 69.0163 140.844 69.0163 140.376C69.0163 139.997 68.8838 139.68 68.6186 139.424C68.3535 139.163 67.9463 138.969 67.397 138.841L65.5788 138.415C64.5798 138.179 63.8459 137.812 63.3771 137.314C62.9131 136.813 62.6811 136.185 62.6811 135.432C62.6811 134.817 62.8539 134.272 63.1996 133.799C63.55 133.325 64.0258 132.954 64.6271 132.684C65.2332 132.414 65.9197 132.279 66.6868 132.279C67.7663 132.279 68.6139 132.516 69.2294 132.989C69.8497 133.463 70.29 134.088 70.5504 134.864ZM78.0167 132.421V133.841H72.3633V132.421H78.0167ZM74.011 129.807H75.6871V140.205C75.6871 140.679 75.7558 141.034 75.8931 141.27C76.0352 141.502 76.2151 141.659 76.4329 141.739C76.6554 141.815 76.8898 141.853 77.136 141.853C77.3207 141.853 77.4722 141.843 77.5906 141.824C77.7089 141.801 77.8036 141.782 77.8746 141.768L78.2156 143.273C78.1019 143.316 77.9433 143.358 77.7397 143.401C77.5361 143.448 77.2781 143.472 76.9656 143.472C76.4921 143.472 76.0281 143.37 75.5735 143.167C75.1237 142.963 74.7496 142.653 74.4513 142.236C74.1578 141.82 74.011 141.294 74.011 140.66V129.807ZM81.7596 143.444C81.4092 143.444 81.1085 143.318 80.8576 143.067C80.6067 142.816 80.4812 142.516 80.4812 142.165C80.4812 141.815 80.6067 141.514 80.8576 141.263C81.1085 141.012 81.4092 140.887 81.7596 140.887C82.11 140.887 82.4106 141.012 82.6616 141.263C82.9125 141.514 83.038 141.815 83.038 142.165C83.038 142.397 82.9788 142.61 82.8604 142.805C82.7468 142.999 82.5929 143.155 82.3988 143.273C82.2094 143.387 81.9963 143.444 81.7596 143.444Z" fill="#2C2A2A"/>
</svg>
